%TF.GenerationSoftware,KiCad,Pcbnew,10.0.5*%
%TF.CreationDate,2026-08-17T19:03:04-04:00*%
%TF.ProjectId,circle-main,63697263-6c65-42d6-9d61-696e2e6b6963,rev?*%
%TF.SameCoordinates,Original*%
%TF.FileFunction,Copper,L3,Inr*%
%TF.FilePolarity,Positive*%
%FSLAX46Y46*%
G04 Gerber Fmt 4.6, Leading zero omitted, Abs format (unit mm)*
G04 Created by KiCad (PCBNEW 10.0.5) date 2026-08-17 19:03:04*
%MOMM*%
%LPD*%
G01*
G04 APERTURE LIST*
G04 Aperture macros list*
%AMRoundRect*
0 Rectangle with rounded corners*
0 $1 Rounding radius*
0 $2 $3 $4 $5 $6 $7 $8 $9 X,Y pos of 4 corners*
0 Add a 4 corners polygon primitive as box body*
4,1,4,$2,$3,$4,$5,$6,$7,$8,$9,$2,$3,0*
0 Add four circle primitives for the rounded corners*
1,1,$1+$1,$2,$3*
1,1,$1+$1,$4,$5*
1,1,$1+$1,$6,$7*
1,1,$1+$1,$8,$9*
0 Add four rect primitives between the rounded corners*
20,1,$1+$1,$2,$3,$4,$5,0*
20,1,$1+$1,$4,$5,$6,$7,0*
20,1,$1+$1,$6,$7,$8,$9,0*
20,1,$1+$1,$8,$9,$2,$3,0*%
G04 Aperture macros list end*
%TA.AperFunction,ComponentPad*%
%ADD10C,1.400000*%
%TD*%
%TA.AperFunction,ComponentPad*%
%ADD11RoundRect,0.325000X-0.325000X-0.325000X0.325000X-0.325000X0.325000X0.325000X-0.325000X0.325000X0*%
%TD*%
%TA.AperFunction,ComponentPad*%
%ADD12C,1.300000*%
%TD*%
%TA.AperFunction,ComponentPad*%
%ADD13C,1.500000*%
%TD*%
%TA.AperFunction,ComponentPad*%
%ADD14C,1.700000*%
%TD*%
%TA.AperFunction,ComponentPad*%
%ADD15C,1.200000*%
%TD*%
%TA.AperFunction,ComponentPad*%
%ADD16C,1.100000*%
%TD*%
G04 APERTURE END LIST*
D10*
%TO.N,BAT_HUMAN_GND*%
%TO.C,J1*%
X5000000Y-31000000D03*
X5000000Y-24000000D03*
%TD*%
D11*
%TO.N,VBAT*%
%TO.C,J2*%
X10000000Y-7000000D03*
D12*
%TO.N,BAT_HUMAN_GND*%
X12000000Y-7000000D03*
X14000000Y-7000000D03*
%TD*%
D13*
%TO.N,SYNC_IN_LAB*%
%TO.C,J30*%
X80000000Y-14000000D03*
D14*
%TO.N,LAB_ISO_GND*%
X82540000Y-11460000D03*
X77460000Y-11460000D03*
%TD*%
D13*
%TO.N,SYNC_OUT_LAB*%
%TO.C,J31*%
X80000000Y-41000000D03*
D14*
%TO.N,LAB_ISO_GND*%
X82540000Y-38460000D03*
X77460000Y-38460000D03*
%TD*%
D11*
%TO.N,EDA_DRIVE_P*%
%TO.C,J10*%
X3000000Y-46000000D03*
D12*
%TO.N,EDA_DRIVE_N*%
X5000000Y-46000000D03*
%TO.N,EDA_SENSE_P*%
X7000000Y-46000000D03*
%TO.N,EDA_SENSE_N*%
X9000000Y-46000000D03*
%TD*%
D15*
%TO.N,N/C*%
%TO.C,J20*%
X39400000Y-48000000D03*
%TO.N,PPG_LED_PWR*%
X40800000Y-48000000D03*
%TO.N,PPG_SDA_3V3*%
X42200000Y-48000000D03*
%TO.N,PPG_SCL_3V3*%
X43600000Y-48000000D03*
%TO.N,PPG_INT*%
X45000000Y-48000000D03*
%TO.N,PPG_MOTION_INT*%
X46400000Y-48000000D03*
%TO.N,PPG_BOARD_ID*%
X47800000Y-48000000D03*
%TO.N,BAT_HUMAN_GND*%
X49200000Y-48000000D03*
X50600000Y-48000000D03*
%TD*%
D16*
%TO.N,SD_D0*%
%TO.C,J21*%
X55450000Y-48000000D03*
%TO.N,SD_D1*%
X56750000Y-48000000D03*
%TO.N,SD_D2*%
X58050000Y-48000000D03*
%TO.N,SD_D3*%
X59350000Y-48000000D03*
%TO.N,SD_CLK*%
X60650000Y-48000000D03*
%TO.N,SD_CMD*%
X61950000Y-48000000D03*
%TO.N,BAT_HUMAN_GND*%
X63250000Y-48000000D03*
%TO.N,+3V3_DIG*%
X64550000Y-48000000D03*
%TD*%
D12*
%TO.N,HAPTIC_VDRV*%
%TO.C,J40*%
X34200000Y-7000000D03*
%TO.N,HAPTIC_CURRENT_EDGE*%
X36000000Y-7000000D03*
%TO.N,BAT_HUMAN_GND*%
X37800000Y-7000000D03*
%TD*%
%TO.N,SYS_I2C_SDA*%
%TO.C,J41*%
X41300000Y-7000000D03*
%TO.N,SYS_I2C_SCL*%
X43100000Y-7000000D03*
%TO.N,BAT_HUMAN_GND*%
X44900000Y-7000000D03*
%TO.N,+3V3_DIG*%
X46700000Y-7000000D03*
%TD*%
%TO.N,EXP_3V3*%
%TO.C,J42*%
X49400000Y-7000000D03*
%TO.N,EXP_UART_TX*%
X51200000Y-7000000D03*
%TO.N,EXP_UART_RX*%
X53000000Y-7000000D03*
%TO.N,EXTERNAL_EXPANSION_ATTACHED*%
X54800000Y-7000000D03*
%TO.N,BAT_HUMAN_GND*%
X56600000Y-7000000D03*
%TD*%
%TO.N,EDA_DRIVE_P*%
%TO.C,J11*%
X10100000Y-40000000D03*
%TO.N,EDA_DRIVE_N*%
X11900000Y-40000000D03*
%TD*%
M02*
