%TF.GenerationSoftware,KiCad,Pcbnew,10.0.5*%
%TF.CreationDate,2026-08-17T13:20:10-04:00*%
%TF.ProjectId,circle-main,63697263-6c65-42d6-9d61-696e2e6b6963,rev?*%
%TF.SameCoordinates,Original*%
%TF.FileFunction,Soldermask,Bot*%
%TF.FilePolarity,Negative*%
%FSLAX46Y46*%
G04 Gerber Fmt 4.6, Leading zero omitted, Abs format (unit mm)*
G04 Created by KiCad (PCBNEW 10.0.5) date 2026-08-17 13:20:10*
%MOMM*%
%LPD*%
G01*
G04 APERTURE LIST*
G04 APERTURE END LIST*
G36*
X5380672Y-45200898D02*
G01*
X5464379Y-45209897D01*
X5484227Y-45217299D01*
X5506332Y-45220801D01*
X5541070Y-45238501D01*
X5578437Y-45252438D01*
X5599779Y-45268414D01*
X5624809Y-45281168D01*
X5648610Y-45304969D01*
X5675157Y-45324842D01*
X5695029Y-45351388D01*
X5718832Y-45375191D01*
X5731585Y-45400221D01*
X5747561Y-45421562D01*
X5761496Y-45458924D01*
X5779199Y-45493668D01*
X5782700Y-45515775D01*
X5790102Y-45535620D01*
X5799098Y-45619309D01*
X5800000Y-45625000D01*
X5800000Y-46375000D01*
X5799098Y-46380692D01*
X5790102Y-46464379D01*
X5782700Y-46484222D01*
X5779199Y-46506332D01*
X5761495Y-46541077D01*
X5747561Y-46578437D01*
X5731587Y-46599775D01*
X5718832Y-46624809D01*
X5695026Y-46648614D01*
X5675157Y-46675157D01*
X5648614Y-46695026D01*
X5624809Y-46718832D01*
X5599775Y-46731587D01*
X5578437Y-46747561D01*
X5541077Y-46761495D01*
X5506332Y-46779199D01*
X5484222Y-46782700D01*
X5464379Y-46790102D01*
X5380692Y-46799098D01*
X5375000Y-46800000D01*
X4625000Y-46800000D01*
X4619309Y-46799098D01*
X4535620Y-46790102D01*
X4515775Y-46782700D01*
X4493668Y-46779199D01*
X4458924Y-46761496D01*
X4421562Y-46747561D01*
X4400221Y-46731585D01*
X4375191Y-46718832D01*
X4351388Y-46695029D01*
X4324842Y-46675157D01*
X4304969Y-46648610D01*
X4281168Y-46624809D01*
X4268414Y-46599779D01*
X4252438Y-46578437D01*
X4238501Y-46541070D01*
X4220801Y-46506332D01*
X4217299Y-46484227D01*
X4209897Y-46464379D01*
X4200898Y-46380672D01*
X4200000Y-46375000D01*
X4200000Y-45625000D01*
X4200898Y-45619329D01*
X4209897Y-45535620D01*
X4217300Y-45515770D01*
X4220801Y-45493668D01*
X4238499Y-45458932D01*
X4252438Y-45421562D01*
X4268416Y-45400217D01*
X4281168Y-45375191D01*
X4304966Y-45351392D01*
X4324842Y-45324842D01*
X4351392Y-45304966D01*
X4375191Y-45281168D01*
X4400217Y-45268416D01*
X4421562Y-45252438D01*
X4458932Y-45238499D01*
X4493668Y-45220801D01*
X4515770Y-45217300D01*
X4535620Y-45209897D01*
X4619329Y-45200898D01*
X4625000Y-45200000D01*
X5375000Y-45200000D01*
X5380672Y-45200898D01*
G37*
G36*
X7232228Y-45234448D02*
G01*
X7377117Y-45294463D01*
X7507515Y-45381592D01*
X7618408Y-45492485D01*
X7705537Y-45622883D01*
X7765552Y-45767772D01*
X7796148Y-45921586D01*
X7796148Y-46078414D01*
X7765552Y-46232228D01*
X7705537Y-46377117D01*
X7618408Y-46507515D01*
X7507515Y-46618408D01*
X7377117Y-46705537D01*
X7232228Y-46765552D01*
X7078414Y-46796148D01*
X6921586Y-46796148D01*
X6767772Y-46765552D01*
X6622883Y-46705537D01*
X6492485Y-46618408D01*
X6381592Y-46507515D01*
X6294463Y-46377117D01*
X6234448Y-46232228D01*
X6203852Y-46078414D01*
X6203852Y-45921586D01*
X6234448Y-45767772D01*
X6294463Y-45622883D01*
X6381592Y-45492485D01*
X6492485Y-45381592D01*
X6622883Y-45294463D01*
X6767772Y-45234448D01*
X6921586Y-45203852D01*
X7078414Y-45203852D01*
X7232228Y-45234448D01*
G37*
G36*
X9232228Y-45234448D02*
G01*
X9377117Y-45294463D01*
X9507515Y-45381592D01*
X9618408Y-45492485D01*
X9705537Y-45622883D01*
X9765552Y-45767772D01*
X9796148Y-45921586D01*
X9796148Y-46078414D01*
X9765552Y-46232228D01*
X9705537Y-46377117D01*
X9618408Y-46507515D01*
X9507515Y-46618408D01*
X9377117Y-46705537D01*
X9232228Y-46765552D01*
X9078414Y-46796148D01*
X8921586Y-46796148D01*
X8767772Y-46765552D01*
X8622883Y-46705537D01*
X8492485Y-46618408D01*
X8381592Y-46507515D01*
X8294463Y-46377117D01*
X8234448Y-46232228D01*
X8203852Y-46078414D01*
X8203852Y-45921586D01*
X8234448Y-45767772D01*
X8294463Y-45622883D01*
X8381592Y-45492485D01*
X8492485Y-45381592D01*
X8622883Y-45294463D01*
X8767772Y-45234448D01*
X8921586Y-45203852D01*
X9078414Y-45203852D01*
X9232228Y-45234448D01*
G37*
G36*
X11232228Y-45234448D02*
G01*
X11377117Y-45294463D01*
X11507515Y-45381592D01*
X11618408Y-45492485D01*
X11705537Y-45622883D01*
X11765552Y-45767772D01*
X11796148Y-45921586D01*
X11796148Y-46078414D01*
X11765552Y-46232228D01*
X11705537Y-46377117D01*
X11618408Y-46507515D01*
X11507515Y-46618408D01*
X11377117Y-46705537D01*
X11232228Y-46765552D01*
X11078414Y-46796148D01*
X10921586Y-46796148D01*
X10767772Y-46765552D01*
X10622883Y-46705537D01*
X10492485Y-46618408D01*
X10381592Y-46507515D01*
X10294463Y-46377117D01*
X10234448Y-46232228D01*
X10203852Y-46078414D01*
X10203852Y-45921586D01*
X10234448Y-45767772D01*
X10294463Y-45622883D01*
X10381592Y-45492485D01*
X10492485Y-45381592D01*
X10622883Y-45294463D01*
X10767772Y-45234448D01*
X10921586Y-45203852D01*
X11078414Y-45203852D01*
X11232228Y-45234448D01*
G37*
G36*
X81092885Y-37955056D02*
G01*
X81102918Y-37955056D01*
X81142117Y-37962853D01*
X81245078Y-37979160D01*
X81278200Y-37989922D01*
X81304799Y-37995213D01*
X81342335Y-38010760D01*
X81401762Y-38030070D01*
X81457433Y-38058435D01*
X81494967Y-38073983D01*
X81517517Y-38089050D01*
X81548539Y-38104857D01*
X81632866Y-38166124D01*
X81666113Y-38188339D01*
X81673208Y-38195434D01*
X81681817Y-38201689D01*
X81798310Y-38318182D01*
X81804564Y-38326790D01*
X81811661Y-38333887D01*
X81833878Y-38367138D01*
X81895142Y-38451460D01*
X81910947Y-38482479D01*
X81926017Y-38505033D01*
X81941566Y-38542572D01*
X81969929Y-38598237D01*
X81989235Y-38657657D01*
X82004787Y-38695201D01*
X82010078Y-38721805D01*
X82020839Y-38754921D01*
X82037145Y-38857876D01*
X82044944Y-38897082D01*
X82044944Y-38907114D01*
X82046609Y-38917627D01*
X82046609Y-39082372D01*
X82044944Y-39092884D01*
X82044944Y-39102918D01*
X82037144Y-39142126D01*
X82020839Y-39245078D01*
X82010079Y-39278192D01*
X82004787Y-39304799D01*
X81989234Y-39342346D01*
X81969929Y-39401762D01*
X81941568Y-39457422D01*
X81926017Y-39494967D01*
X81910945Y-39517523D01*
X81895142Y-39548539D01*
X81833887Y-39632849D01*
X81811661Y-39666113D01*
X81804561Y-39673212D01*
X81798310Y-39681817D01*
X81681817Y-39798310D01*
X81673212Y-39804561D01*
X81666113Y-39811661D01*
X81632849Y-39833887D01*
X81548539Y-39895142D01*
X81517523Y-39910945D01*
X81494967Y-39926017D01*
X81457422Y-39941568D01*
X81401762Y-39969929D01*
X81342346Y-39989234D01*
X81304799Y-40004787D01*
X81278192Y-40010079D01*
X81245078Y-40020839D01*
X81142126Y-40037144D01*
X81102918Y-40044944D01*
X81092884Y-40044944D01*
X81082372Y-40046609D01*
X80917628Y-40046609D01*
X80907115Y-40044944D01*
X80897082Y-40044944D01*
X80857874Y-40037145D01*
X80754921Y-40020839D01*
X80721805Y-40010078D01*
X80695201Y-40004787D01*
X80657657Y-39989235D01*
X80598237Y-39969929D01*
X80542572Y-39941566D01*
X80505033Y-39926017D01*
X80482479Y-39910947D01*
X80451460Y-39895142D01*
X80367138Y-39833878D01*
X80333887Y-39811661D01*
X80326790Y-39804564D01*
X80318182Y-39798310D01*
X80201689Y-39681817D01*
X80195434Y-39673208D01*
X80188339Y-39666113D01*
X80166124Y-39632866D01*
X80104857Y-39548539D01*
X80089050Y-39517517D01*
X80073983Y-39494967D01*
X80058435Y-39457433D01*
X80030070Y-39401762D01*
X80010760Y-39342335D01*
X79995213Y-39304799D01*
X79989922Y-39278200D01*
X79979160Y-39245078D01*
X79962853Y-39142117D01*
X79955056Y-39102918D01*
X79955056Y-39092884D01*
X79953391Y-39082372D01*
X79953391Y-38917627D01*
X79955056Y-38907114D01*
X79955056Y-38897082D01*
X79962852Y-38857886D01*
X79979160Y-38754921D01*
X79989922Y-38721797D01*
X79995213Y-38695201D01*
X80010759Y-38657668D01*
X80030070Y-38598237D01*
X80058438Y-38542561D01*
X80073983Y-38505033D01*
X80089048Y-38482486D01*
X80104857Y-38451460D01*
X80166132Y-38367121D01*
X80188339Y-38333887D01*
X80195432Y-38326793D01*
X80201689Y-38318182D01*
X80318182Y-38201689D01*
X80326793Y-38195432D01*
X80333887Y-38188339D01*
X80367121Y-38166132D01*
X80451460Y-38104857D01*
X80482486Y-38089048D01*
X80505033Y-38073983D01*
X80542561Y-38058438D01*
X80598237Y-38030070D01*
X80657668Y-38010759D01*
X80695201Y-37995213D01*
X80721797Y-37989922D01*
X80754921Y-37979160D01*
X80857883Y-37962853D01*
X80897082Y-37955056D01*
X80907115Y-37955056D01*
X80917628Y-37953391D01*
X81082372Y-37953391D01*
X81092885Y-37955056D01*
G37*
G36*
X78763479Y-35195919D02*
G01*
X78957488Y-35258957D01*
X79139248Y-35351568D01*
X79304282Y-35471472D01*
X79448528Y-35615718D01*
X79568432Y-35780752D01*
X79661043Y-35962512D01*
X79724081Y-36156521D01*
X79755993Y-36358003D01*
X79755993Y-36561997D01*
X79724081Y-36763479D01*
X79661043Y-36957488D01*
X79568432Y-37139248D01*
X79448528Y-37304282D01*
X79304282Y-37448528D01*
X79139248Y-37568432D01*
X78957488Y-37661043D01*
X78763479Y-37724081D01*
X78561997Y-37755993D01*
X78358003Y-37755993D01*
X78156521Y-37724081D01*
X77962512Y-37661043D01*
X77780752Y-37568432D01*
X77615718Y-37448528D01*
X77471472Y-37304282D01*
X77351568Y-37139248D01*
X77258957Y-36957488D01*
X77195919Y-36763479D01*
X77164007Y-36561997D01*
X77164007Y-36358003D01*
X77195919Y-36156521D01*
X77258957Y-35962512D01*
X77351568Y-35780752D01*
X77471472Y-35615718D01*
X77615718Y-35471472D01*
X77780752Y-35351568D01*
X77962512Y-35258957D01*
X78156521Y-35195919D01*
X78358003Y-35164007D01*
X78561997Y-35164007D01*
X78763479Y-35195919D01*
G37*
G36*
X83843479Y-35195919D02*
G01*
X84037488Y-35258957D01*
X84219248Y-35351568D01*
X84384282Y-35471472D01*
X84528528Y-35615718D01*
X84648432Y-35780752D01*
X84741043Y-35962512D01*
X84804081Y-36156521D01*
X84835993Y-36358003D01*
X84835993Y-36561997D01*
X84804081Y-36763479D01*
X84741043Y-36957488D01*
X84648432Y-37139248D01*
X84528528Y-37304282D01*
X84384282Y-37448528D01*
X84219248Y-37568432D01*
X84037488Y-37661043D01*
X83843479Y-37724081D01*
X83641997Y-37755993D01*
X83438003Y-37755993D01*
X83236521Y-37724081D01*
X83042512Y-37661043D01*
X82860752Y-37568432D01*
X82695718Y-37448528D01*
X82551472Y-37304282D01*
X82431568Y-37139248D01*
X82338957Y-36957488D01*
X82275919Y-36763479D01*
X82244007Y-36561997D01*
X82244007Y-36358003D01*
X82275919Y-36156521D01*
X82338957Y-35962512D01*
X82431568Y-35780752D01*
X82551472Y-35615718D01*
X82695718Y-35471472D01*
X82860752Y-35351568D01*
X83042512Y-35258957D01*
X83236521Y-35195919D01*
X83438003Y-35164007D01*
X83641997Y-35164007D01*
X83843479Y-35195919D01*
G37*
G36*
X81092885Y-14955056D02*
G01*
X81102918Y-14955056D01*
X81142117Y-14962853D01*
X81245078Y-14979160D01*
X81278200Y-14989922D01*
X81304799Y-14995213D01*
X81342335Y-15010760D01*
X81401762Y-15030070D01*
X81457433Y-15058435D01*
X81494967Y-15073983D01*
X81517517Y-15089050D01*
X81548539Y-15104857D01*
X81632866Y-15166124D01*
X81666113Y-15188339D01*
X81673208Y-15195434D01*
X81681817Y-15201689D01*
X81798310Y-15318182D01*
X81804564Y-15326790D01*
X81811661Y-15333887D01*
X81833878Y-15367138D01*
X81895142Y-15451460D01*
X81910947Y-15482479D01*
X81926017Y-15505033D01*
X81941566Y-15542572D01*
X81969929Y-15598237D01*
X81989235Y-15657657D01*
X82004787Y-15695201D01*
X82010078Y-15721805D01*
X82020839Y-15754921D01*
X82037145Y-15857876D01*
X82044944Y-15897082D01*
X82044944Y-15907114D01*
X82046609Y-15917627D01*
X82046609Y-16082372D01*
X82044944Y-16092884D01*
X82044944Y-16102918D01*
X82037144Y-16142126D01*
X82020839Y-16245078D01*
X82010079Y-16278192D01*
X82004787Y-16304799D01*
X81989234Y-16342346D01*
X81969929Y-16401762D01*
X81941568Y-16457422D01*
X81926017Y-16494967D01*
X81910945Y-16517523D01*
X81895142Y-16548539D01*
X81833887Y-16632849D01*
X81811661Y-16666113D01*
X81804561Y-16673212D01*
X81798310Y-16681817D01*
X81681817Y-16798310D01*
X81673212Y-16804561D01*
X81666113Y-16811661D01*
X81632849Y-16833887D01*
X81548539Y-16895142D01*
X81517523Y-16910945D01*
X81494967Y-16926017D01*
X81457422Y-16941568D01*
X81401762Y-16969929D01*
X81342346Y-16989234D01*
X81304799Y-17004787D01*
X81278192Y-17010079D01*
X81245078Y-17020839D01*
X81142126Y-17037144D01*
X81102918Y-17044944D01*
X81092884Y-17044944D01*
X81082372Y-17046609D01*
X80917628Y-17046609D01*
X80907115Y-17044944D01*
X80897082Y-17044944D01*
X80857874Y-17037145D01*
X80754921Y-17020839D01*
X80721805Y-17010078D01*
X80695201Y-17004787D01*
X80657657Y-16989235D01*
X80598237Y-16969929D01*
X80542572Y-16941566D01*
X80505033Y-16926017D01*
X80482479Y-16910947D01*
X80451460Y-16895142D01*
X80367138Y-16833878D01*
X80333887Y-16811661D01*
X80326790Y-16804564D01*
X80318182Y-16798310D01*
X80201689Y-16681817D01*
X80195434Y-16673208D01*
X80188339Y-16666113D01*
X80166124Y-16632866D01*
X80104857Y-16548539D01*
X80089050Y-16517517D01*
X80073983Y-16494967D01*
X80058435Y-16457433D01*
X80030070Y-16401762D01*
X80010760Y-16342335D01*
X79995213Y-16304799D01*
X79989922Y-16278200D01*
X79979160Y-16245078D01*
X79962853Y-16142117D01*
X79955056Y-16102918D01*
X79955056Y-16092884D01*
X79953391Y-16082372D01*
X79953391Y-15917627D01*
X79955056Y-15907114D01*
X79955056Y-15897082D01*
X79962852Y-15857886D01*
X79979160Y-15754921D01*
X79989922Y-15721797D01*
X79995213Y-15695201D01*
X80010759Y-15657668D01*
X80030070Y-15598237D01*
X80058438Y-15542561D01*
X80073983Y-15505033D01*
X80089048Y-15482486D01*
X80104857Y-15451460D01*
X80166132Y-15367121D01*
X80188339Y-15333887D01*
X80195432Y-15326793D01*
X80201689Y-15318182D01*
X80318182Y-15201689D01*
X80326793Y-15195432D01*
X80333887Y-15188339D01*
X80367121Y-15166132D01*
X80451460Y-15104857D01*
X80482486Y-15089048D01*
X80505033Y-15073983D01*
X80542561Y-15058438D01*
X80598237Y-15030070D01*
X80657668Y-15010759D01*
X80695201Y-14995213D01*
X80721797Y-14989922D01*
X80754921Y-14979160D01*
X80857883Y-14962853D01*
X80897082Y-14955056D01*
X80907115Y-14955056D01*
X80917628Y-14953391D01*
X81082372Y-14953391D01*
X81092885Y-14955056D01*
G37*
G36*
X78763479Y-12195919D02*
G01*
X78957488Y-12258957D01*
X79139248Y-12351568D01*
X79304282Y-12471472D01*
X79448528Y-12615718D01*
X79568432Y-12780752D01*
X79661043Y-12962512D01*
X79724081Y-13156521D01*
X79755993Y-13358003D01*
X79755993Y-13561997D01*
X79724081Y-13763479D01*
X79661043Y-13957488D01*
X79568432Y-14139248D01*
X79448528Y-14304282D01*
X79304282Y-14448528D01*
X79139248Y-14568432D01*
X78957488Y-14661043D01*
X78763479Y-14724081D01*
X78561997Y-14755993D01*
X78358003Y-14755993D01*
X78156521Y-14724081D01*
X77962512Y-14661043D01*
X77780752Y-14568432D01*
X77615718Y-14448528D01*
X77471472Y-14304282D01*
X77351568Y-14139248D01*
X77258957Y-13957488D01*
X77195919Y-13763479D01*
X77164007Y-13561997D01*
X77164007Y-13358003D01*
X77195919Y-13156521D01*
X77258957Y-12962512D01*
X77351568Y-12780752D01*
X77471472Y-12615718D01*
X77615718Y-12471472D01*
X77780752Y-12351568D01*
X77962512Y-12258957D01*
X78156521Y-12195919D01*
X78358003Y-12164007D01*
X78561997Y-12164007D01*
X78763479Y-12195919D01*
G37*
G36*
X83843479Y-12195919D02*
G01*
X84037488Y-12258957D01*
X84219248Y-12351568D01*
X84384282Y-12471472D01*
X84528528Y-12615718D01*
X84648432Y-12780752D01*
X84741043Y-12962512D01*
X84804081Y-13156521D01*
X84835993Y-13358003D01*
X84835993Y-13561997D01*
X84804081Y-13763479D01*
X84741043Y-13957488D01*
X84648432Y-14139248D01*
X84528528Y-14304282D01*
X84384282Y-14448528D01*
X84219248Y-14568432D01*
X84037488Y-14661043D01*
X83843479Y-14724081D01*
X83641997Y-14755993D01*
X83438003Y-14755993D01*
X83236521Y-14724081D01*
X83042512Y-14661043D01*
X82860752Y-14568432D01*
X82695718Y-14448528D01*
X82551472Y-14304282D01*
X82431568Y-14139248D01*
X82338957Y-13957488D01*
X82275919Y-13763479D01*
X82244007Y-13561997D01*
X82244007Y-13358003D01*
X82275919Y-13156521D01*
X82338957Y-12962512D01*
X82431568Y-12780752D01*
X82551472Y-12615718D01*
X82695718Y-12471472D01*
X82860752Y-12351568D01*
X83042512Y-12258957D01*
X83236521Y-12195919D01*
X83438003Y-12164007D01*
X83641997Y-12164007D01*
X83843479Y-12195919D01*
G37*
G36*
X10380672Y-5200898D02*
G01*
X10464379Y-5209897D01*
X10484227Y-5217299D01*
X10506332Y-5220801D01*
X10541070Y-5238501D01*
X10578437Y-5252438D01*
X10599779Y-5268414D01*
X10624809Y-5281168D01*
X10648610Y-5304969D01*
X10675157Y-5324842D01*
X10695029Y-5351388D01*
X10718832Y-5375191D01*
X10731585Y-5400221D01*
X10747561Y-5421562D01*
X10761496Y-5458924D01*
X10779199Y-5493668D01*
X10782700Y-5515775D01*
X10790102Y-5535620D01*
X10799098Y-5619309D01*
X10800000Y-5625000D01*
X10800000Y-6375000D01*
X10799098Y-6380692D01*
X10790102Y-6464379D01*
X10782700Y-6484222D01*
X10779199Y-6506332D01*
X10761495Y-6541077D01*
X10747561Y-6578437D01*
X10731587Y-6599775D01*
X10718832Y-6624809D01*
X10695026Y-6648614D01*
X10675157Y-6675157D01*
X10648614Y-6695026D01*
X10624809Y-6718832D01*
X10599775Y-6731587D01*
X10578437Y-6747561D01*
X10541077Y-6761495D01*
X10506332Y-6779199D01*
X10484222Y-6782700D01*
X10464379Y-6790102D01*
X10380692Y-6799098D01*
X10375000Y-6800000D01*
X9625000Y-6800000D01*
X9619309Y-6799098D01*
X9535620Y-6790102D01*
X9515775Y-6782700D01*
X9493668Y-6779199D01*
X9458924Y-6761496D01*
X9421562Y-6747561D01*
X9400221Y-6731585D01*
X9375191Y-6718832D01*
X9351388Y-6695029D01*
X9324842Y-6675157D01*
X9304969Y-6648610D01*
X9281168Y-6624809D01*
X9268414Y-6599779D01*
X9252438Y-6578437D01*
X9238501Y-6541070D01*
X9220801Y-6506332D01*
X9217299Y-6484227D01*
X9209897Y-6464379D01*
X9200898Y-6380672D01*
X9200000Y-6375000D01*
X9200000Y-5625000D01*
X9200898Y-5619329D01*
X9209897Y-5535620D01*
X9217300Y-5515770D01*
X9220801Y-5493668D01*
X9238499Y-5458932D01*
X9252438Y-5421562D01*
X9268416Y-5400217D01*
X9281168Y-5375191D01*
X9304966Y-5351392D01*
X9324842Y-5324842D01*
X9351392Y-5304966D01*
X9375191Y-5281168D01*
X9400217Y-5268416D01*
X9421562Y-5252438D01*
X9458932Y-5238499D01*
X9493668Y-5220801D01*
X9515770Y-5217300D01*
X9535620Y-5209897D01*
X9619329Y-5200898D01*
X9625000Y-5200000D01*
X10375000Y-5200000D01*
X10380672Y-5200898D01*
G37*
G36*
X12232228Y-5234448D02*
G01*
X12377117Y-5294463D01*
X12507515Y-5381592D01*
X12618408Y-5492485D01*
X12705537Y-5622883D01*
X12765552Y-5767772D01*
X12796148Y-5921586D01*
X12796148Y-6078414D01*
X12765552Y-6232228D01*
X12705537Y-6377117D01*
X12618408Y-6507515D01*
X12507515Y-6618408D01*
X12377117Y-6705537D01*
X12232228Y-6765552D01*
X12078414Y-6796148D01*
X11921586Y-6796148D01*
X11767772Y-6765552D01*
X11622883Y-6705537D01*
X11492485Y-6618408D01*
X11381592Y-6507515D01*
X11294463Y-6377117D01*
X11234448Y-6232228D01*
X11203852Y-6078414D01*
X11203852Y-5921586D01*
X11234448Y-5767772D01*
X11294463Y-5622883D01*
X11381592Y-5492485D01*
X11492485Y-5381592D01*
X11622883Y-5294463D01*
X11767772Y-5234448D01*
X11921586Y-5203852D01*
X12078414Y-5203852D01*
X12232228Y-5234448D01*
G37*
G36*
X14232228Y-5234448D02*
G01*
X14377117Y-5294463D01*
X14507515Y-5381592D01*
X14618408Y-5492485D01*
X14705537Y-5622883D01*
X14765552Y-5767772D01*
X14796148Y-5921586D01*
X14796148Y-6078414D01*
X14765552Y-6232228D01*
X14705537Y-6377117D01*
X14618408Y-6507515D01*
X14507515Y-6618408D01*
X14377117Y-6705537D01*
X14232228Y-6765552D01*
X14078414Y-6796148D01*
X13921586Y-6796148D01*
X13767772Y-6765552D01*
X13622883Y-6705537D01*
X13492485Y-6618408D01*
X13381592Y-6507515D01*
X13294463Y-6377117D01*
X13234448Y-6232228D01*
X13203852Y-6078414D01*
X13203852Y-5921586D01*
X13234448Y-5767772D01*
X13294463Y-5622883D01*
X13381592Y-5492485D01*
X13492485Y-5381592D01*
X13622883Y-5294463D01*
X13767772Y-5234448D01*
X13921586Y-5203852D01*
X14078414Y-5203852D01*
X14232228Y-5234448D01*
G37*
M02*
