%TF.GenerationSoftware,KiCad,Pcbnew,10.0.5*%
%TF.CreationDate,2026-08-17T13:20:10-04:00*%
%TF.ProjectId,circle-main,63697263-6c65-42d6-9d61-696e2e6b6963,rev?*%
%TF.SameCoordinates,Original*%
%TF.FileFunction,AssemblyDrawing,Top*%
%FSLAX46Y46*%
G04 Gerber Fmt 4.6, Leading zero omitted, Abs format (unit mm)*
G04 Created by KiCad (PCBNEW 10.0.5) date 2026-08-17 13:20:10*
%MOMM*%
%LPD*%
G01*
G04 APERTURE LIST*
%ADD10C,0.150000*%
G04 APERTURE END LIST*
D10*
X84809524Y-56931009D02*
X85142857Y-56931009D01*
X85285714Y-57454819D02*
X84809524Y-57454819D01*
X84809524Y-57454819D02*
X84809524Y-56454819D01*
X84809524Y-56454819D02*
X85285714Y-56454819D01*
X85666667Y-57407200D02*
X85809524Y-57454819D01*
X85809524Y-57454819D02*
X86047619Y-57454819D01*
X86047619Y-57454819D02*
X86142857Y-57407200D01*
X86142857Y-57407200D02*
X86190476Y-57359580D01*
X86190476Y-57359580D02*
X86238095Y-57264342D01*
X86238095Y-57264342D02*
X86238095Y-57169104D01*
X86238095Y-57169104D02*
X86190476Y-57073866D01*
X86190476Y-57073866D02*
X86142857Y-57026247D01*
X86142857Y-57026247D02*
X86047619Y-56978628D01*
X86047619Y-56978628D02*
X85857143Y-56931009D01*
X85857143Y-56931009D02*
X85761905Y-56883390D01*
X85761905Y-56883390D02*
X85714286Y-56835771D01*
X85714286Y-56835771D02*
X85666667Y-56740533D01*
X85666667Y-56740533D02*
X85666667Y-56645295D01*
X85666667Y-56645295D02*
X85714286Y-56550057D01*
X85714286Y-56550057D02*
X85761905Y-56502438D01*
X85761905Y-56502438D02*
X85857143Y-56454819D01*
X85857143Y-56454819D02*
X86095238Y-56454819D01*
X86095238Y-56454819D02*
X86238095Y-56502438D01*
X86666667Y-57454819D02*
X86666667Y-56454819D01*
X86666667Y-56454819D02*
X87047619Y-56454819D01*
X87047619Y-56454819D02*
X87142857Y-56502438D01*
X87142857Y-56502438D02*
X87190476Y-56550057D01*
X87190476Y-56550057D02*
X87238095Y-56645295D01*
X87238095Y-56645295D02*
X87238095Y-56788152D01*
X87238095Y-56788152D02*
X87190476Y-56883390D01*
X87190476Y-56883390D02*
X87142857Y-56931009D01*
X87142857Y-56931009D02*
X87047619Y-56978628D01*
X87047619Y-56978628D02*
X86666667Y-56978628D01*
X87571429Y-56454819D02*
X88190476Y-56454819D01*
X88190476Y-56454819D02*
X87857143Y-56835771D01*
X87857143Y-56835771D02*
X88000000Y-56835771D01*
X88000000Y-56835771D02*
X88095238Y-56883390D01*
X88095238Y-56883390D02*
X88142857Y-56931009D01*
X88142857Y-56931009D02*
X88190476Y-57026247D01*
X88190476Y-57026247D02*
X88190476Y-57264342D01*
X88190476Y-57264342D02*
X88142857Y-57359580D01*
X88142857Y-57359580D02*
X88095238Y-57407200D01*
X88095238Y-57407200D02*
X88000000Y-57454819D01*
X88000000Y-57454819D02*
X87714286Y-57454819D01*
X87714286Y-57454819D02*
X87619048Y-57407200D01*
X87619048Y-57407200D02*
X87571429Y-57359580D01*
X88571429Y-56550057D02*
X88619048Y-56502438D01*
X88619048Y-56502438D02*
X88714286Y-56454819D01*
X88714286Y-56454819D02*
X88952381Y-56454819D01*
X88952381Y-56454819D02*
X89047619Y-56502438D01*
X89047619Y-56502438D02*
X89095238Y-56550057D01*
X89095238Y-56550057D02*
X89142857Y-56645295D01*
X89142857Y-56645295D02*
X89142857Y-56740533D01*
X89142857Y-56740533D02*
X89095238Y-56883390D01*
X89095238Y-56883390D02*
X88523810Y-57454819D01*
X88523810Y-57454819D02*
X89142857Y-57454819D01*
X89571429Y-57073866D02*
X90333334Y-57073866D01*
X90761905Y-57407200D02*
X90904762Y-57454819D01*
X90904762Y-57454819D02*
X91142857Y-57454819D01*
X91142857Y-57454819D02*
X91238095Y-57407200D01*
X91238095Y-57407200D02*
X91285714Y-57359580D01*
X91285714Y-57359580D02*
X91333333Y-57264342D01*
X91333333Y-57264342D02*
X91333333Y-57169104D01*
X91333333Y-57169104D02*
X91285714Y-57073866D01*
X91285714Y-57073866D02*
X91238095Y-57026247D01*
X91238095Y-57026247D02*
X91142857Y-56978628D01*
X91142857Y-56978628D02*
X90952381Y-56931009D01*
X90952381Y-56931009D02*
X90857143Y-56883390D01*
X90857143Y-56883390D02*
X90809524Y-56835771D01*
X90809524Y-56835771D02*
X90761905Y-56740533D01*
X90761905Y-56740533D02*
X90761905Y-56645295D01*
X90761905Y-56645295D02*
X90809524Y-56550057D01*
X90809524Y-56550057D02*
X90857143Y-56502438D01*
X90857143Y-56502438D02*
X90952381Y-56454819D01*
X90952381Y-56454819D02*
X91190476Y-56454819D01*
X91190476Y-56454819D02*
X91333333Y-56502438D01*
X91666667Y-56454819D02*
X92285714Y-56454819D01*
X92285714Y-56454819D02*
X91952381Y-56835771D01*
X91952381Y-56835771D02*
X92095238Y-56835771D01*
X92095238Y-56835771D02*
X92190476Y-56883390D01*
X92190476Y-56883390D02*
X92238095Y-56931009D01*
X92238095Y-56931009D02*
X92285714Y-57026247D01*
X92285714Y-57026247D02*
X92285714Y-57264342D01*
X92285714Y-57264342D02*
X92238095Y-57359580D01*
X92238095Y-57359580D02*
X92190476Y-57407200D01*
X92190476Y-57407200D02*
X92095238Y-57454819D01*
X92095238Y-57454819D02*
X91809524Y-57454819D01*
X91809524Y-57454819D02*
X91714286Y-57407200D01*
X91714286Y-57407200D02*
X91666667Y-57359580D01*
X92714286Y-57073866D02*
X93476191Y-57073866D01*
X93857143Y-56454819D02*
X94095238Y-57454819D01*
X94095238Y-57454819D02*
X94285714Y-56740533D01*
X94285714Y-56740533D02*
X94476190Y-57454819D01*
X94476190Y-57454819D02*
X94714286Y-56454819D01*
X95666666Y-57454819D02*
X95333333Y-56978628D01*
X95095238Y-57454819D02*
X95095238Y-56454819D01*
X95095238Y-56454819D02*
X95476190Y-56454819D01*
X95476190Y-56454819D02*
X95571428Y-56502438D01*
X95571428Y-56502438D02*
X95619047Y-56550057D01*
X95619047Y-56550057D02*
X95666666Y-56645295D01*
X95666666Y-56645295D02*
X95666666Y-56788152D01*
X95666666Y-56788152D02*
X95619047Y-56883390D01*
X95619047Y-56883390D02*
X95571428Y-56931009D01*
X95571428Y-56931009D02*
X95476190Y-56978628D01*
X95476190Y-56978628D02*
X95095238Y-56978628D01*
X96285714Y-56454819D02*
X96476190Y-56454819D01*
X96476190Y-56454819D02*
X96571428Y-56502438D01*
X96571428Y-56502438D02*
X96666666Y-56597676D01*
X96666666Y-56597676D02*
X96714285Y-56788152D01*
X96714285Y-56788152D02*
X96714285Y-57121485D01*
X96714285Y-57121485D02*
X96666666Y-57311961D01*
X96666666Y-57311961D02*
X96571428Y-57407200D01*
X96571428Y-57407200D02*
X96476190Y-57454819D01*
X96476190Y-57454819D02*
X96285714Y-57454819D01*
X96285714Y-57454819D02*
X96190476Y-57407200D01*
X96190476Y-57407200D02*
X96095238Y-57311961D01*
X96095238Y-57311961D02*
X96047619Y-57121485D01*
X96047619Y-57121485D02*
X96047619Y-56788152D01*
X96047619Y-56788152D02*
X96095238Y-56597676D01*
X96095238Y-56597676D02*
X96190476Y-56502438D01*
X96190476Y-56502438D02*
X96285714Y-56454819D01*
X97333333Y-56454819D02*
X97523809Y-56454819D01*
X97523809Y-56454819D02*
X97619047Y-56502438D01*
X97619047Y-56502438D02*
X97714285Y-56597676D01*
X97714285Y-56597676D02*
X97761904Y-56788152D01*
X97761904Y-56788152D02*
X97761904Y-57121485D01*
X97761904Y-57121485D02*
X97714285Y-57311961D01*
X97714285Y-57311961D02*
X97619047Y-57407200D01*
X97619047Y-57407200D02*
X97523809Y-57454819D01*
X97523809Y-57454819D02*
X97333333Y-57454819D01*
X97333333Y-57454819D02*
X97238095Y-57407200D01*
X97238095Y-57407200D02*
X97142857Y-57311961D01*
X97142857Y-57311961D02*
X97095238Y-57121485D01*
X97095238Y-57121485D02*
X97095238Y-56788152D01*
X97095238Y-56788152D02*
X97142857Y-56597676D01*
X97142857Y-56597676D02*
X97238095Y-56502438D01*
X97238095Y-56502438D02*
X97333333Y-56454819D01*
X98190476Y-57454819D02*
X98190476Y-56454819D01*
X98190476Y-56454819D02*
X98523809Y-57169104D01*
X98523809Y-57169104D02*
X98857142Y-56454819D01*
X98857142Y-56454819D02*
X98857142Y-57454819D01*
X99333333Y-57073866D02*
X100095238Y-57073866D01*
X101095237Y-57454819D02*
X100523809Y-57454819D01*
X100809523Y-57454819D02*
X100809523Y-56454819D01*
X100809523Y-56454819D02*
X100714285Y-56597676D01*
X100714285Y-56597676D02*
X100619047Y-56692914D01*
X100619047Y-56692914D02*
X100523809Y-56740533D01*
X101523809Y-57073866D02*
X102285714Y-57073866D01*
X102761904Y-57454819D02*
X102761904Y-56454819D01*
X102761904Y-56454819D02*
X103333332Y-57454819D01*
X103333332Y-57454819D02*
X103333332Y-56454819D01*
X104333332Y-57454819D02*
X103761904Y-57454819D01*
X104047618Y-57454819D02*
X104047618Y-56454819D01*
X104047618Y-56454819D02*
X103952380Y-56597676D01*
X103952380Y-56597676D02*
X103857142Y-56692914D01*
X103857142Y-56692914D02*
X103761904Y-56740533D01*
X105190475Y-56454819D02*
X104999999Y-56454819D01*
X104999999Y-56454819D02*
X104904761Y-56502438D01*
X104904761Y-56502438D02*
X104857142Y-56550057D01*
X104857142Y-56550057D02*
X104761904Y-56692914D01*
X104761904Y-56692914D02*
X104714285Y-56883390D01*
X104714285Y-56883390D02*
X104714285Y-57264342D01*
X104714285Y-57264342D02*
X104761904Y-57359580D01*
X104761904Y-57359580D02*
X104809523Y-57407200D01*
X104809523Y-57407200D02*
X104904761Y-57454819D01*
X104904761Y-57454819D02*
X105095237Y-57454819D01*
X105095237Y-57454819D02*
X105190475Y-57407200D01*
X105190475Y-57407200D02*
X105238094Y-57359580D01*
X105238094Y-57359580D02*
X105285713Y-57264342D01*
X105285713Y-57264342D02*
X105285713Y-57026247D01*
X105285713Y-57026247D02*
X105238094Y-56931009D01*
X105238094Y-56931009D02*
X105190475Y-56883390D01*
X105190475Y-56883390D02*
X105095237Y-56835771D01*
X105095237Y-56835771D02*
X104904761Y-56835771D01*
X104904761Y-56835771D02*
X104809523Y-56883390D01*
X104809523Y-56883390D02*
X104761904Y-56931009D01*
X104761904Y-56931009D02*
X104714285Y-57026247D01*
X106285713Y-57454819D02*
X105952380Y-56978628D01*
X105714285Y-57454819D02*
X105714285Y-56454819D01*
X105714285Y-56454819D02*
X106095237Y-56454819D01*
X106095237Y-56454819D02*
X106190475Y-56502438D01*
X106190475Y-56502438D02*
X106238094Y-56550057D01*
X106238094Y-56550057D02*
X106285713Y-56645295D01*
X106285713Y-56645295D02*
X106285713Y-56788152D01*
X106285713Y-56788152D02*
X106238094Y-56883390D01*
X106238094Y-56883390D02*
X106190475Y-56931009D01*
X106190475Y-56931009D02*
X106095237Y-56978628D01*
X106095237Y-56978628D02*
X105714285Y-56978628D01*
X106857142Y-56883390D02*
X106761904Y-56835771D01*
X106761904Y-56835771D02*
X106714285Y-56788152D01*
X106714285Y-56788152D02*
X106666666Y-56692914D01*
X106666666Y-56692914D02*
X106666666Y-56645295D01*
X106666666Y-56645295D02*
X106714285Y-56550057D01*
X106714285Y-56550057D02*
X106761904Y-56502438D01*
X106761904Y-56502438D02*
X106857142Y-56454819D01*
X106857142Y-56454819D02*
X107047618Y-56454819D01*
X107047618Y-56454819D02*
X107142856Y-56502438D01*
X107142856Y-56502438D02*
X107190475Y-56550057D01*
X107190475Y-56550057D02*
X107238094Y-56645295D01*
X107238094Y-56645295D02*
X107238094Y-56692914D01*
X107238094Y-56692914D02*
X107190475Y-56788152D01*
X107190475Y-56788152D02*
X107142856Y-56835771D01*
X107142856Y-56835771D02*
X107047618Y-56883390D01*
X107047618Y-56883390D02*
X106857142Y-56883390D01*
X106857142Y-56883390D02*
X106761904Y-56931009D01*
X106761904Y-56931009D02*
X106714285Y-56978628D01*
X106714285Y-56978628D02*
X106666666Y-57073866D01*
X106666666Y-57073866D02*
X106666666Y-57264342D01*
X106666666Y-57264342D02*
X106714285Y-57359580D01*
X106714285Y-57359580D02*
X106761904Y-57407200D01*
X106761904Y-57407200D02*
X106857142Y-57454819D01*
X106857142Y-57454819D02*
X107047618Y-57454819D01*
X107047618Y-57454819D02*
X107142856Y-57407200D01*
X107142856Y-57407200D02*
X107190475Y-57359580D01*
X107190475Y-57359580D02*
X107238094Y-57264342D01*
X107238094Y-57264342D02*
X107238094Y-57073866D01*
X107238094Y-57073866D02*
X107190475Y-56978628D01*
X107190475Y-56978628D02*
X107142856Y-56931009D01*
X107142856Y-56931009D02*
X107047618Y-56883390D01*
X27285714Y-38931009D02*
X27428571Y-38978628D01*
X27428571Y-38978628D02*
X27476190Y-39026247D01*
X27476190Y-39026247D02*
X27523809Y-39121485D01*
X27523809Y-39121485D02*
X27523809Y-39264342D01*
X27523809Y-39264342D02*
X27476190Y-39359580D01*
X27476190Y-39359580D02*
X27428571Y-39407200D01*
X27428571Y-39407200D02*
X27333333Y-39454819D01*
X27333333Y-39454819D02*
X26952381Y-39454819D01*
X26952381Y-39454819D02*
X26952381Y-38454819D01*
X26952381Y-38454819D02*
X27285714Y-38454819D01*
X27285714Y-38454819D02*
X27380952Y-38502438D01*
X27380952Y-38502438D02*
X27428571Y-38550057D01*
X27428571Y-38550057D02*
X27476190Y-38645295D01*
X27476190Y-38645295D02*
X27476190Y-38740533D01*
X27476190Y-38740533D02*
X27428571Y-38835771D01*
X27428571Y-38835771D02*
X27380952Y-38883390D01*
X27380952Y-38883390D02*
X27285714Y-38931009D01*
X27285714Y-38931009D02*
X26952381Y-38931009D01*
X28619047Y-39550057D02*
X28523809Y-39502438D01*
X28523809Y-39502438D02*
X28428571Y-39407200D01*
X28428571Y-39407200D02*
X28285714Y-39264342D01*
X28285714Y-39264342D02*
X28190476Y-39216723D01*
X28190476Y-39216723D02*
X28095238Y-39216723D01*
X28142857Y-39454819D02*
X28047619Y-39407200D01*
X28047619Y-39407200D02*
X27952381Y-39311961D01*
X27952381Y-39311961D02*
X27904762Y-39121485D01*
X27904762Y-39121485D02*
X27904762Y-38788152D01*
X27904762Y-38788152D02*
X27952381Y-38597676D01*
X27952381Y-38597676D02*
X28047619Y-38502438D01*
X28047619Y-38502438D02*
X28142857Y-38454819D01*
X28142857Y-38454819D02*
X28333333Y-38454819D01*
X28333333Y-38454819D02*
X28428571Y-38502438D01*
X28428571Y-38502438D02*
X28523809Y-38597676D01*
X28523809Y-38597676D02*
X28571428Y-38788152D01*
X28571428Y-38788152D02*
X28571428Y-39121485D01*
X28571428Y-39121485D02*
X28523809Y-39311961D01*
X28523809Y-39311961D02*
X28428571Y-39407200D01*
X28428571Y-39407200D02*
X28333333Y-39454819D01*
X28333333Y-39454819D02*
X28142857Y-39454819D01*
X28952381Y-38550057D02*
X29000000Y-38502438D01*
X29000000Y-38502438D02*
X29095238Y-38454819D01*
X29095238Y-38454819D02*
X29333333Y-38454819D01*
X29333333Y-38454819D02*
X29428571Y-38502438D01*
X29428571Y-38502438D02*
X29476190Y-38550057D01*
X29476190Y-38550057D02*
X29523809Y-38645295D01*
X29523809Y-38645295D02*
X29523809Y-38740533D01*
X29523809Y-38740533D02*
X29476190Y-38883390D01*
X29476190Y-38883390D02*
X28904762Y-39454819D01*
X28904762Y-39454819D02*
X29523809Y-39454819D01*
X30380952Y-38788152D02*
X30380952Y-39454819D01*
X30142857Y-38407200D02*
X29904762Y-39121485D01*
X29904762Y-39121485D02*
X30523809Y-39121485D01*
X31095238Y-38454819D02*
X31190476Y-38454819D01*
X31190476Y-38454819D02*
X31285714Y-38502438D01*
X31285714Y-38502438D02*
X31333333Y-38550057D01*
X31333333Y-38550057D02*
X31380952Y-38645295D01*
X31380952Y-38645295D02*
X31428571Y-38835771D01*
X31428571Y-38835771D02*
X31428571Y-39073866D01*
X31428571Y-39073866D02*
X31380952Y-39264342D01*
X31380952Y-39264342D02*
X31333333Y-39359580D01*
X31333333Y-39359580D02*
X31285714Y-39407200D01*
X31285714Y-39407200D02*
X31190476Y-39454819D01*
X31190476Y-39454819D02*
X31095238Y-39454819D01*
X31095238Y-39454819D02*
X31000000Y-39407200D01*
X31000000Y-39407200D02*
X30952381Y-39359580D01*
X30952381Y-39359580D02*
X30904762Y-39264342D01*
X30904762Y-39264342D02*
X30857143Y-39073866D01*
X30857143Y-39073866D02*
X30857143Y-38835771D01*
X30857143Y-38835771D02*
X30904762Y-38645295D01*
X30904762Y-38645295D02*
X30952381Y-38550057D01*
X30952381Y-38550057D02*
X31000000Y-38502438D01*
X31000000Y-38502438D02*
X31095238Y-38454819D01*
X31761905Y-38454819D02*
X32428571Y-38454819D01*
X32428571Y-38454819D02*
X32000000Y-39454819D01*
X33238095Y-38788152D02*
X33238095Y-39454819D01*
X33000000Y-38407200D02*
X32761905Y-39121485D01*
X32761905Y-39121485D02*
X33380952Y-39121485D01*
X34333333Y-39454819D02*
X34000000Y-38978628D01*
X33761905Y-39454819D02*
X33761905Y-38454819D01*
X33761905Y-38454819D02*
X34142857Y-38454819D01*
X34142857Y-38454819D02*
X34238095Y-38502438D01*
X34238095Y-38502438D02*
X34285714Y-38550057D01*
X34285714Y-38550057D02*
X34333333Y-38645295D01*
X34333333Y-38645295D02*
X34333333Y-38788152D01*
X34333333Y-38788152D02*
X34285714Y-38883390D01*
X34285714Y-38883390D02*
X34238095Y-38931009D01*
X34238095Y-38931009D02*
X34142857Y-38978628D01*
X34142857Y-38978628D02*
X33761905Y-38978628D01*
X35285714Y-38502438D02*
X35190476Y-38454819D01*
X35190476Y-38454819D02*
X35047619Y-38454819D01*
X35047619Y-38454819D02*
X34904762Y-38502438D01*
X34904762Y-38502438D02*
X34809524Y-38597676D01*
X34809524Y-38597676D02*
X34761905Y-38692914D01*
X34761905Y-38692914D02*
X34714286Y-38883390D01*
X34714286Y-38883390D02*
X34714286Y-39026247D01*
X34714286Y-39026247D02*
X34761905Y-39216723D01*
X34761905Y-39216723D02*
X34809524Y-39311961D01*
X34809524Y-39311961D02*
X34904762Y-39407200D01*
X34904762Y-39407200D02*
X35047619Y-39454819D01*
X35047619Y-39454819D02*
X35142857Y-39454819D01*
X35142857Y-39454819D02*
X35285714Y-39407200D01*
X35285714Y-39407200D02*
X35333333Y-39359580D01*
X35333333Y-39359580D02*
X35333333Y-39026247D01*
X35333333Y-39026247D02*
X35142857Y-39026247D01*
X35619048Y-38454819D02*
X36190476Y-38454819D01*
X35904762Y-39454819D02*
X35904762Y-38454819D01*
X37095238Y-39454819D02*
X36761905Y-38978628D01*
X36523810Y-39454819D02*
X36523810Y-38454819D01*
X36523810Y-38454819D02*
X36904762Y-38454819D01*
X36904762Y-38454819D02*
X37000000Y-38502438D01*
X37000000Y-38502438D02*
X37047619Y-38550057D01*
X37047619Y-38550057D02*
X37095238Y-38645295D01*
X37095238Y-38645295D02*
X37095238Y-38788152D01*
X37095238Y-38788152D02*
X37047619Y-38883390D01*
X37047619Y-38883390D02*
X37000000Y-38931009D01*
X37000000Y-38931009D02*
X36904762Y-38978628D01*
X36904762Y-38978628D02*
X36523810Y-38978628D01*
X42261905Y-38454819D02*
X42833333Y-38454819D01*
X42547619Y-39454819D02*
X42547619Y-38454819D01*
X43166667Y-39454819D02*
X43166667Y-38454819D01*
X43166667Y-38454819D02*
X43547619Y-38454819D01*
X43547619Y-38454819D02*
X43642857Y-38502438D01*
X43642857Y-38502438D02*
X43690476Y-38550057D01*
X43690476Y-38550057D02*
X43738095Y-38645295D01*
X43738095Y-38645295D02*
X43738095Y-38788152D01*
X43738095Y-38788152D02*
X43690476Y-38883390D01*
X43690476Y-38883390D02*
X43642857Y-38931009D01*
X43642857Y-38931009D02*
X43547619Y-38978628D01*
X43547619Y-38978628D02*
X43166667Y-38978628D01*
X44119048Y-39407200D02*
X44261905Y-39454819D01*
X44261905Y-39454819D02*
X44500000Y-39454819D01*
X44500000Y-39454819D02*
X44595238Y-39407200D01*
X44595238Y-39407200D02*
X44642857Y-39359580D01*
X44642857Y-39359580D02*
X44690476Y-39264342D01*
X44690476Y-39264342D02*
X44690476Y-39169104D01*
X44690476Y-39169104D02*
X44642857Y-39073866D01*
X44642857Y-39073866D02*
X44595238Y-39026247D01*
X44595238Y-39026247D02*
X44500000Y-38978628D01*
X44500000Y-38978628D02*
X44309524Y-38931009D01*
X44309524Y-38931009D02*
X44214286Y-38883390D01*
X44214286Y-38883390D02*
X44166667Y-38835771D01*
X44166667Y-38835771D02*
X44119048Y-38740533D01*
X44119048Y-38740533D02*
X44119048Y-38645295D01*
X44119048Y-38645295D02*
X44166667Y-38550057D01*
X44166667Y-38550057D02*
X44214286Y-38502438D01*
X44214286Y-38502438D02*
X44309524Y-38454819D01*
X44309524Y-38454819D02*
X44547619Y-38454819D01*
X44547619Y-38454819D02*
X44690476Y-38502438D01*
X45547619Y-38454819D02*
X45357143Y-38454819D01*
X45357143Y-38454819D02*
X45261905Y-38502438D01*
X45261905Y-38502438D02*
X45214286Y-38550057D01*
X45214286Y-38550057D02*
X45119048Y-38692914D01*
X45119048Y-38692914D02*
X45071429Y-38883390D01*
X45071429Y-38883390D02*
X45071429Y-39264342D01*
X45071429Y-39264342D02*
X45119048Y-39359580D01*
X45119048Y-39359580D02*
X45166667Y-39407200D01*
X45166667Y-39407200D02*
X45261905Y-39454819D01*
X45261905Y-39454819D02*
X45452381Y-39454819D01*
X45452381Y-39454819D02*
X45547619Y-39407200D01*
X45547619Y-39407200D02*
X45595238Y-39359580D01*
X45595238Y-39359580D02*
X45642857Y-39264342D01*
X45642857Y-39264342D02*
X45642857Y-39026247D01*
X45642857Y-39026247D02*
X45595238Y-38931009D01*
X45595238Y-38931009D02*
X45547619Y-38883390D01*
X45547619Y-38883390D02*
X45452381Y-38835771D01*
X45452381Y-38835771D02*
X45261905Y-38835771D01*
X45261905Y-38835771D02*
X45166667Y-38883390D01*
X45166667Y-38883390D02*
X45119048Y-38931009D01*
X45119048Y-38931009D02*
X45071429Y-39026247D01*
X45976191Y-38454819D02*
X46595238Y-38454819D01*
X46595238Y-38454819D02*
X46261905Y-38835771D01*
X46261905Y-38835771D02*
X46404762Y-38835771D01*
X46404762Y-38835771D02*
X46500000Y-38883390D01*
X46500000Y-38883390D02*
X46547619Y-38931009D01*
X46547619Y-38931009D02*
X46595238Y-39026247D01*
X46595238Y-39026247D02*
X46595238Y-39264342D01*
X46595238Y-39264342D02*
X46547619Y-39359580D01*
X46547619Y-39359580D02*
X46500000Y-39407200D01*
X46500000Y-39407200D02*
X46404762Y-39454819D01*
X46404762Y-39454819D02*
X46119048Y-39454819D01*
X46119048Y-39454819D02*
X46023810Y-39407200D01*
X46023810Y-39407200D02*
X45976191Y-39359580D01*
X47214286Y-38454819D02*
X47309524Y-38454819D01*
X47309524Y-38454819D02*
X47404762Y-38502438D01*
X47404762Y-38502438D02*
X47452381Y-38550057D01*
X47452381Y-38550057D02*
X47500000Y-38645295D01*
X47500000Y-38645295D02*
X47547619Y-38835771D01*
X47547619Y-38835771D02*
X47547619Y-39073866D01*
X47547619Y-39073866D02*
X47500000Y-39264342D01*
X47500000Y-39264342D02*
X47452381Y-39359580D01*
X47452381Y-39359580D02*
X47404762Y-39407200D01*
X47404762Y-39407200D02*
X47309524Y-39454819D01*
X47309524Y-39454819D02*
X47214286Y-39454819D01*
X47214286Y-39454819D02*
X47119048Y-39407200D01*
X47119048Y-39407200D02*
X47071429Y-39359580D01*
X47071429Y-39359580D02*
X47023810Y-39264342D01*
X47023810Y-39264342D02*
X46976191Y-39073866D01*
X46976191Y-39073866D02*
X46976191Y-38835771D01*
X46976191Y-38835771D02*
X47023810Y-38645295D01*
X47023810Y-38645295D02*
X47071429Y-38550057D01*
X47071429Y-38550057D02*
X47119048Y-38502438D01*
X47119048Y-38502438D02*
X47214286Y-38454819D01*
X47880953Y-38454819D02*
X48547619Y-38454819D01*
X48547619Y-38454819D02*
X48119048Y-39454819D01*
X49119048Y-38454819D02*
X49214286Y-38454819D01*
X49214286Y-38454819D02*
X49309524Y-38502438D01*
X49309524Y-38502438D02*
X49357143Y-38550057D01*
X49357143Y-38550057D02*
X49404762Y-38645295D01*
X49404762Y-38645295D02*
X49452381Y-38835771D01*
X49452381Y-38835771D02*
X49452381Y-39073866D01*
X49452381Y-39073866D02*
X49404762Y-39264342D01*
X49404762Y-39264342D02*
X49357143Y-39359580D01*
X49357143Y-39359580D02*
X49309524Y-39407200D01*
X49309524Y-39407200D02*
X49214286Y-39454819D01*
X49214286Y-39454819D02*
X49119048Y-39454819D01*
X49119048Y-39454819D02*
X49023810Y-39407200D01*
X49023810Y-39407200D02*
X48976191Y-39359580D01*
X48976191Y-39359580D02*
X48928572Y-39264342D01*
X48928572Y-39264342D02*
X48880953Y-39073866D01*
X48880953Y-39073866D02*
X48880953Y-38835771D01*
X48880953Y-38835771D02*
X48928572Y-38645295D01*
X48928572Y-38645295D02*
X48976191Y-38550057D01*
X48976191Y-38550057D02*
X49023810Y-38502438D01*
X49023810Y-38502438D02*
X49119048Y-38454819D01*
X50452381Y-39454819D02*
X50119048Y-38978628D01*
X49880953Y-39454819D02*
X49880953Y-38454819D01*
X49880953Y-38454819D02*
X50261905Y-38454819D01*
X50261905Y-38454819D02*
X50357143Y-38502438D01*
X50357143Y-38502438D02*
X50404762Y-38550057D01*
X50404762Y-38550057D02*
X50452381Y-38645295D01*
X50452381Y-38645295D02*
X50452381Y-38788152D01*
X50452381Y-38788152D02*
X50404762Y-38883390D01*
X50404762Y-38883390D02*
X50357143Y-38931009D01*
X50357143Y-38931009D02*
X50261905Y-38978628D01*
X50261905Y-38978628D02*
X49880953Y-38978628D01*
X50880953Y-39454819D02*
X50880953Y-38454819D01*
X50880953Y-38454819D02*
X51452381Y-39454819D01*
X51452381Y-39454819D02*
X51452381Y-38454819D01*
X51928572Y-39454819D02*
X51928572Y-38454819D01*
X51928572Y-38454819D02*
X52261905Y-39169104D01*
X52261905Y-39169104D02*
X52595238Y-38454819D01*
X52595238Y-38454819D02*
X52595238Y-39454819D01*
X53642857Y-39454819D02*
X53309524Y-38978628D01*
X53071429Y-39454819D02*
X53071429Y-38454819D01*
X53071429Y-38454819D02*
X53452381Y-38454819D01*
X53452381Y-38454819D02*
X53547619Y-38502438D01*
X53547619Y-38502438D02*
X53595238Y-38550057D01*
X53595238Y-38550057D02*
X53642857Y-38645295D01*
X53642857Y-38645295D02*
X53642857Y-38788152D01*
X53642857Y-38788152D02*
X53595238Y-38883390D01*
X53595238Y-38883390D02*
X53547619Y-38931009D01*
X53547619Y-38931009D02*
X53452381Y-38978628D01*
X53452381Y-38978628D02*
X53071429Y-38978628D01*
X138500000Y-62954819D02*
X138500000Y-61954819D01*
X138928571Y-62907200D02*
X139071428Y-62954819D01*
X139071428Y-62954819D02*
X139309523Y-62954819D01*
X139309523Y-62954819D02*
X139404761Y-62907200D01*
X139404761Y-62907200D02*
X139452380Y-62859580D01*
X139452380Y-62859580D02*
X139499999Y-62764342D01*
X139499999Y-62764342D02*
X139499999Y-62669104D01*
X139499999Y-62669104D02*
X139452380Y-62573866D01*
X139452380Y-62573866D02*
X139404761Y-62526247D01*
X139404761Y-62526247D02*
X139309523Y-62478628D01*
X139309523Y-62478628D02*
X139119047Y-62431009D01*
X139119047Y-62431009D02*
X139023809Y-62383390D01*
X139023809Y-62383390D02*
X138976190Y-62335771D01*
X138976190Y-62335771D02*
X138928571Y-62240533D01*
X138928571Y-62240533D02*
X138928571Y-62145295D01*
X138928571Y-62145295D02*
X138976190Y-62050057D01*
X138976190Y-62050057D02*
X139023809Y-62002438D01*
X139023809Y-62002438D02*
X139119047Y-61954819D01*
X139119047Y-61954819D02*
X139357142Y-61954819D01*
X139357142Y-61954819D02*
X139499999Y-62002438D01*
X140119047Y-61954819D02*
X140309523Y-61954819D01*
X140309523Y-61954819D02*
X140404761Y-62002438D01*
X140404761Y-62002438D02*
X140499999Y-62097676D01*
X140499999Y-62097676D02*
X140547618Y-62288152D01*
X140547618Y-62288152D02*
X140547618Y-62621485D01*
X140547618Y-62621485D02*
X140499999Y-62811961D01*
X140499999Y-62811961D02*
X140404761Y-62907200D01*
X140404761Y-62907200D02*
X140309523Y-62954819D01*
X140309523Y-62954819D02*
X140119047Y-62954819D01*
X140119047Y-62954819D02*
X140023809Y-62907200D01*
X140023809Y-62907200D02*
X139928571Y-62811961D01*
X139928571Y-62811961D02*
X139880952Y-62621485D01*
X139880952Y-62621485D02*
X139880952Y-62288152D01*
X139880952Y-62288152D02*
X139928571Y-62097676D01*
X139928571Y-62097676D02*
X140023809Y-62002438D01*
X140023809Y-62002438D02*
X140119047Y-61954819D01*
X140880952Y-61954819D02*
X141119047Y-62954819D01*
X141119047Y-62954819D02*
X141309523Y-62240533D01*
X141309523Y-62240533D02*
X141499999Y-62954819D01*
X141499999Y-62954819D02*
X141738095Y-61954819D01*
X142023809Y-61954819D02*
X142690475Y-61954819D01*
X142690475Y-61954819D02*
X142261904Y-62954819D01*
X142976190Y-61954819D02*
X143642856Y-61954819D01*
X143642856Y-61954819D02*
X143214285Y-62954819D01*
X144452380Y-62288152D02*
X144452380Y-62954819D01*
X144214285Y-61907200D02*
X143976190Y-62621485D01*
X143976190Y-62621485D02*
X144595237Y-62621485D01*
X144928571Y-62050057D02*
X144976190Y-62002438D01*
X144976190Y-62002438D02*
X145071428Y-61954819D01*
X145071428Y-61954819D02*
X145309523Y-61954819D01*
X145309523Y-61954819D02*
X145404761Y-62002438D01*
X145404761Y-62002438D02*
X145452380Y-62050057D01*
X145452380Y-62050057D02*
X145499999Y-62145295D01*
X145499999Y-62145295D02*
X145499999Y-62240533D01*
X145499999Y-62240533D02*
X145452380Y-62383390D01*
X145452380Y-62383390D02*
X144880952Y-62954819D01*
X144880952Y-62954819D02*
X145499999Y-62954819D01*
X145928571Y-62954819D02*
X145928571Y-61954819D01*
X145928571Y-61954819D02*
X146166666Y-61954819D01*
X146166666Y-61954819D02*
X146309523Y-62002438D01*
X146309523Y-62002438D02*
X146404761Y-62097676D01*
X146404761Y-62097676D02*
X146452380Y-62192914D01*
X146452380Y-62192914D02*
X146499999Y-62383390D01*
X146499999Y-62383390D02*
X146499999Y-62526247D01*
X146499999Y-62526247D02*
X146452380Y-62716723D01*
X146452380Y-62716723D02*
X146404761Y-62811961D01*
X146404761Y-62811961D02*
X146309523Y-62907200D01*
X146309523Y-62907200D02*
X146166666Y-62954819D01*
X146166666Y-62954819D02*
X145928571Y-62954819D01*
X146833333Y-61954819D02*
X147071428Y-62954819D01*
X147071428Y-62954819D02*
X147261904Y-62240533D01*
X147261904Y-62240533D02*
X147452380Y-62954819D01*
X147452380Y-62954819D02*
X147690476Y-61954819D01*
X148071428Y-62431009D02*
X148404761Y-62431009D01*
X148547618Y-62954819D02*
X148071428Y-62954819D01*
X148071428Y-62954819D02*
X148071428Y-61954819D01*
X148071428Y-61954819D02*
X148547618Y-61954819D01*
X149547618Y-62954819D02*
X149214285Y-62478628D01*
X148976190Y-62954819D02*
X148976190Y-61954819D01*
X148976190Y-61954819D02*
X149357142Y-61954819D01*
X149357142Y-61954819D02*
X149452380Y-62002438D01*
X149452380Y-62002438D02*
X149499999Y-62050057D01*
X149499999Y-62050057D02*
X149547618Y-62145295D01*
X149547618Y-62145295D02*
X149547618Y-62288152D01*
X149547618Y-62288152D02*
X149499999Y-62383390D01*
X149499999Y-62383390D02*
X149452380Y-62431009D01*
X149452380Y-62431009D02*
X149357142Y-62478628D01*
X149357142Y-62478628D02*
X148976190Y-62478628D01*
X21238095Y-20954819D02*
X21238095Y-21764342D01*
X21238095Y-21764342D02*
X21285714Y-21859580D01*
X21285714Y-21859580D02*
X21333333Y-21907200D01*
X21333333Y-21907200D02*
X21428571Y-21954819D01*
X21428571Y-21954819D02*
X21619047Y-21954819D01*
X21619047Y-21954819D02*
X21714285Y-21907200D01*
X21714285Y-21907200D02*
X21761904Y-21859580D01*
X21761904Y-21859580D02*
X21809523Y-21764342D01*
X21809523Y-21764342D02*
X21809523Y-20954819D01*
X22238095Y-21907200D02*
X22380952Y-21954819D01*
X22380952Y-21954819D02*
X22619047Y-21954819D01*
X22619047Y-21954819D02*
X22714285Y-21907200D01*
X22714285Y-21907200D02*
X22761904Y-21859580D01*
X22761904Y-21859580D02*
X22809523Y-21764342D01*
X22809523Y-21764342D02*
X22809523Y-21669104D01*
X22809523Y-21669104D02*
X22761904Y-21573866D01*
X22761904Y-21573866D02*
X22714285Y-21526247D01*
X22714285Y-21526247D02*
X22619047Y-21478628D01*
X22619047Y-21478628D02*
X22428571Y-21431009D01*
X22428571Y-21431009D02*
X22333333Y-21383390D01*
X22333333Y-21383390D02*
X22285714Y-21335771D01*
X22285714Y-21335771D02*
X22238095Y-21240533D01*
X22238095Y-21240533D02*
X22238095Y-21145295D01*
X22238095Y-21145295D02*
X22285714Y-21050057D01*
X22285714Y-21050057D02*
X22333333Y-21002438D01*
X22333333Y-21002438D02*
X22428571Y-20954819D01*
X22428571Y-20954819D02*
X22666666Y-20954819D01*
X22666666Y-20954819D02*
X22809523Y-21002438D01*
X23571428Y-21431009D02*
X23714285Y-21478628D01*
X23714285Y-21478628D02*
X23761904Y-21526247D01*
X23761904Y-21526247D02*
X23809523Y-21621485D01*
X23809523Y-21621485D02*
X23809523Y-21764342D01*
X23809523Y-21764342D02*
X23761904Y-21859580D01*
X23761904Y-21859580D02*
X23714285Y-21907200D01*
X23714285Y-21907200D02*
X23619047Y-21954819D01*
X23619047Y-21954819D02*
X23238095Y-21954819D01*
X23238095Y-21954819D02*
X23238095Y-20954819D01*
X23238095Y-20954819D02*
X23571428Y-20954819D01*
X23571428Y-20954819D02*
X23666666Y-21002438D01*
X23666666Y-21002438D02*
X23714285Y-21050057D01*
X23714285Y-21050057D02*
X23761904Y-21145295D01*
X23761904Y-21145295D02*
X23761904Y-21240533D01*
X23761904Y-21240533D02*
X23714285Y-21335771D01*
X23714285Y-21335771D02*
X23666666Y-21383390D01*
X23666666Y-21383390D02*
X23571428Y-21431009D01*
X23571428Y-21431009D02*
X23238095Y-21431009D01*
X24666666Y-21288152D02*
X24666666Y-21954819D01*
X24428571Y-20907200D02*
X24190476Y-21621485D01*
X24190476Y-21621485D02*
X24809523Y-21621485D01*
X25714285Y-21954819D02*
X25142857Y-21954819D01*
X25428571Y-21954819D02*
X25428571Y-20954819D01*
X25428571Y-20954819D02*
X25333333Y-21097676D01*
X25333333Y-21097676D02*
X25238095Y-21192914D01*
X25238095Y-21192914D02*
X25142857Y-21240533D01*
X26095238Y-21050057D02*
X26142857Y-21002438D01*
X26142857Y-21002438D02*
X26238095Y-20954819D01*
X26238095Y-20954819D02*
X26476190Y-20954819D01*
X26476190Y-20954819D02*
X26571428Y-21002438D01*
X26571428Y-21002438D02*
X26619047Y-21050057D01*
X26619047Y-21050057D02*
X26666666Y-21145295D01*
X26666666Y-21145295D02*
X26666666Y-21240533D01*
X26666666Y-21240533D02*
X26619047Y-21383390D01*
X26619047Y-21383390D02*
X26047619Y-21954819D01*
X26047619Y-21954819D02*
X26666666Y-21954819D01*
X27571428Y-20954819D02*
X27095238Y-20954819D01*
X27095238Y-20954819D02*
X27047619Y-21431009D01*
X27047619Y-21431009D02*
X27095238Y-21383390D01*
X27095238Y-21383390D02*
X27190476Y-21335771D01*
X27190476Y-21335771D02*
X27428571Y-21335771D01*
X27428571Y-21335771D02*
X27523809Y-21383390D01*
X27523809Y-21383390D02*
X27571428Y-21431009D01*
X27571428Y-21431009D02*
X27619047Y-21526247D01*
X27619047Y-21526247D02*
X27619047Y-21764342D01*
X27619047Y-21764342D02*
X27571428Y-21859580D01*
X27571428Y-21859580D02*
X27523809Y-21907200D01*
X27523809Y-21907200D02*
X27428571Y-21954819D01*
X27428571Y-21954819D02*
X27190476Y-21954819D01*
X27190476Y-21954819D02*
X27095238Y-21907200D01*
X27095238Y-21907200D02*
X27047619Y-21859580D01*
X28047619Y-21573866D02*
X28809524Y-21573866D01*
X29809523Y-21002438D02*
X29714285Y-20954819D01*
X29714285Y-20954819D02*
X29571428Y-20954819D01*
X29571428Y-20954819D02*
X29428571Y-21002438D01*
X29428571Y-21002438D02*
X29333333Y-21097676D01*
X29333333Y-21097676D02*
X29285714Y-21192914D01*
X29285714Y-21192914D02*
X29238095Y-21383390D01*
X29238095Y-21383390D02*
X29238095Y-21526247D01*
X29238095Y-21526247D02*
X29285714Y-21716723D01*
X29285714Y-21716723D02*
X29333333Y-21811961D01*
X29333333Y-21811961D02*
X29428571Y-21907200D01*
X29428571Y-21907200D02*
X29571428Y-21954819D01*
X29571428Y-21954819D02*
X29666666Y-21954819D01*
X29666666Y-21954819D02*
X29809523Y-21907200D01*
X29809523Y-21907200D02*
X29857142Y-21859580D01*
X29857142Y-21859580D02*
X29857142Y-21526247D01*
X29857142Y-21526247D02*
X29666666Y-21526247D01*
X30619047Y-21431009D02*
X30285714Y-21431009D01*
X30285714Y-21954819D02*
X30285714Y-20954819D01*
X30285714Y-20954819D02*
X30761904Y-20954819D01*
X31142857Y-21573866D02*
X31904762Y-21573866D01*
X32333333Y-21669104D02*
X32809523Y-21669104D01*
X32238095Y-21954819D02*
X32571428Y-20954819D01*
X32571428Y-20954819D02*
X32904761Y-21954819D01*
X19928571Y-16454819D02*
X19452381Y-16454819D01*
X19452381Y-16454819D02*
X19452381Y-15454819D01*
X20261905Y-16454819D02*
X20261905Y-15454819D01*
X20738095Y-16454819D02*
X20738095Y-15454819D01*
X20738095Y-15454819D02*
X21119047Y-15454819D01*
X21119047Y-15454819D02*
X21214285Y-15502438D01*
X21214285Y-15502438D02*
X21261904Y-15550057D01*
X21261904Y-15550057D02*
X21309523Y-15645295D01*
X21309523Y-15645295D02*
X21309523Y-15788152D01*
X21309523Y-15788152D02*
X21261904Y-15883390D01*
X21261904Y-15883390D02*
X21214285Y-15931009D01*
X21214285Y-15931009D02*
X21119047Y-15978628D01*
X21119047Y-15978628D02*
X20738095Y-15978628D01*
X21928571Y-15454819D02*
X22119047Y-15454819D01*
X22119047Y-15454819D02*
X22214285Y-15502438D01*
X22214285Y-15502438D02*
X22309523Y-15597676D01*
X22309523Y-15597676D02*
X22357142Y-15788152D01*
X22357142Y-15788152D02*
X22357142Y-16121485D01*
X22357142Y-16121485D02*
X22309523Y-16311961D01*
X22309523Y-16311961D02*
X22214285Y-16407200D01*
X22214285Y-16407200D02*
X22119047Y-16454819D01*
X22119047Y-16454819D02*
X21928571Y-16454819D01*
X21928571Y-16454819D02*
X21833333Y-16407200D01*
X21833333Y-16407200D02*
X21738095Y-16311961D01*
X21738095Y-16311961D02*
X21690476Y-16121485D01*
X21690476Y-16121485D02*
X21690476Y-15788152D01*
X21690476Y-15788152D02*
X21738095Y-15597676D01*
X21738095Y-15597676D02*
X21833333Y-15502438D01*
X21833333Y-15502438D02*
X21928571Y-15454819D01*
X22547619Y-16550057D02*
X23309523Y-16550057D01*
X24071428Y-16454819D02*
X23500000Y-16454819D01*
X23785714Y-16454819D02*
X23785714Y-15454819D01*
X23785714Y-15454819D02*
X23690476Y-15597676D01*
X23690476Y-15597676D02*
X23595238Y-15692914D01*
X23595238Y-15692914D02*
X23500000Y-15740533D01*
X24452381Y-16407200D02*
X24595238Y-16454819D01*
X24595238Y-16454819D02*
X24833333Y-16454819D01*
X24833333Y-16454819D02*
X24928571Y-16407200D01*
X24928571Y-16407200D02*
X24976190Y-16359580D01*
X24976190Y-16359580D02*
X25023809Y-16264342D01*
X25023809Y-16264342D02*
X25023809Y-16169104D01*
X25023809Y-16169104D02*
X24976190Y-16073866D01*
X24976190Y-16073866D02*
X24928571Y-16026247D01*
X24928571Y-16026247D02*
X24833333Y-15978628D01*
X24833333Y-15978628D02*
X24642857Y-15931009D01*
X24642857Y-15931009D02*
X24547619Y-15883390D01*
X24547619Y-15883390D02*
X24500000Y-15835771D01*
X24500000Y-15835771D02*
X24452381Y-15740533D01*
X24452381Y-15740533D02*
X24452381Y-15645295D01*
X24452381Y-15645295D02*
X24500000Y-15550057D01*
X24500000Y-15550057D02*
X24547619Y-15502438D01*
X24547619Y-15502438D02*
X24642857Y-15454819D01*
X24642857Y-15454819D02*
X24880952Y-15454819D01*
X24880952Y-15454819D02*
X25023809Y-15502438D01*
X25214286Y-16550057D02*
X25976190Y-16550057D01*
X26214286Y-16454819D02*
X26214286Y-15454819D01*
X26214286Y-15454819D02*
X26785714Y-16454819D01*
X26785714Y-16454819D02*
X26785714Y-15454819D01*
X27119048Y-15454819D02*
X27690476Y-15454819D01*
X27404762Y-16454819D02*
X27404762Y-15454819D01*
X28595238Y-16359580D02*
X28547619Y-16407200D01*
X28547619Y-16407200D02*
X28404762Y-16454819D01*
X28404762Y-16454819D02*
X28309524Y-16454819D01*
X28309524Y-16454819D02*
X28166667Y-16407200D01*
X28166667Y-16407200D02*
X28071429Y-16311961D01*
X28071429Y-16311961D02*
X28023810Y-16216723D01*
X28023810Y-16216723D02*
X27976191Y-16026247D01*
X27976191Y-16026247D02*
X27976191Y-15883390D01*
X27976191Y-15883390D02*
X28023810Y-15692914D01*
X28023810Y-15692914D02*
X28071429Y-15597676D01*
X28071429Y-15597676D02*
X28166667Y-15502438D01*
X28166667Y-15502438D02*
X28309524Y-15454819D01*
X28309524Y-15454819D02*
X28404762Y-15454819D01*
X28404762Y-15454819D02*
X28547619Y-15502438D01*
X28547619Y-15502438D02*
X28595238Y-15550057D01*
X47833333Y-32931009D02*
X48166666Y-32931009D01*
X48309523Y-33454819D02*
X47833333Y-33454819D01*
X47833333Y-33454819D02*
X47833333Y-32454819D01*
X47833333Y-32454819D02*
X48309523Y-32454819D01*
X48738095Y-33454819D02*
X48738095Y-32454819D01*
X48738095Y-32454819D02*
X48976190Y-32454819D01*
X48976190Y-32454819D02*
X49119047Y-32502438D01*
X49119047Y-32502438D02*
X49214285Y-32597676D01*
X49214285Y-32597676D02*
X49261904Y-32692914D01*
X49261904Y-32692914D02*
X49309523Y-32883390D01*
X49309523Y-32883390D02*
X49309523Y-33026247D01*
X49309523Y-33026247D02*
X49261904Y-33216723D01*
X49261904Y-33216723D02*
X49214285Y-33311961D01*
X49214285Y-33311961D02*
X49119047Y-33407200D01*
X49119047Y-33407200D02*
X48976190Y-33454819D01*
X48976190Y-33454819D02*
X48738095Y-33454819D01*
X49690476Y-33169104D02*
X50166666Y-33169104D01*
X49595238Y-33454819D02*
X49928571Y-32454819D01*
X49928571Y-32454819D02*
X50261904Y-33454819D01*
X50357143Y-33550057D02*
X51119047Y-33550057D01*
X51357143Y-32931009D02*
X51690476Y-32931009D01*
X51833333Y-33454819D02*
X51357143Y-33454819D01*
X51357143Y-33454819D02*
X51357143Y-32454819D01*
X51357143Y-32454819D02*
X51833333Y-32454819D01*
X52738095Y-33454819D02*
X52261905Y-33454819D01*
X52261905Y-33454819D02*
X52261905Y-32454819D01*
X53071429Y-32931009D02*
X53404762Y-32931009D01*
X53547619Y-33454819D02*
X53071429Y-33454819D01*
X53071429Y-33454819D02*
X53071429Y-32454819D01*
X53071429Y-32454819D02*
X53547619Y-32454819D01*
X54547619Y-33359580D02*
X54500000Y-33407200D01*
X54500000Y-33407200D02*
X54357143Y-33454819D01*
X54357143Y-33454819D02*
X54261905Y-33454819D01*
X54261905Y-33454819D02*
X54119048Y-33407200D01*
X54119048Y-33407200D02*
X54023810Y-33311961D01*
X54023810Y-33311961D02*
X53976191Y-33216723D01*
X53976191Y-33216723D02*
X53928572Y-33026247D01*
X53928572Y-33026247D02*
X53928572Y-32883390D01*
X53928572Y-32883390D02*
X53976191Y-32692914D01*
X53976191Y-32692914D02*
X54023810Y-32597676D01*
X54023810Y-32597676D02*
X54119048Y-32502438D01*
X54119048Y-32502438D02*
X54261905Y-32454819D01*
X54261905Y-32454819D02*
X54357143Y-32454819D01*
X54357143Y-32454819D02*
X54500000Y-32502438D01*
X54500000Y-32502438D02*
X54547619Y-32550057D01*
X54833334Y-32454819D02*
X55404762Y-32454819D01*
X55119048Y-33454819D02*
X55119048Y-32454819D01*
X56309524Y-33454819D02*
X55976191Y-32978628D01*
X55738096Y-33454819D02*
X55738096Y-32454819D01*
X55738096Y-32454819D02*
X56119048Y-32454819D01*
X56119048Y-32454819D02*
X56214286Y-32502438D01*
X56214286Y-32502438D02*
X56261905Y-32550057D01*
X56261905Y-32550057D02*
X56309524Y-32645295D01*
X56309524Y-32645295D02*
X56309524Y-32788152D01*
X56309524Y-32788152D02*
X56261905Y-32883390D01*
X56261905Y-32883390D02*
X56214286Y-32931009D01*
X56214286Y-32931009D02*
X56119048Y-32978628D01*
X56119048Y-32978628D02*
X55738096Y-32978628D01*
X56928572Y-32454819D02*
X57119048Y-32454819D01*
X57119048Y-32454819D02*
X57214286Y-32502438D01*
X57214286Y-32502438D02*
X57309524Y-32597676D01*
X57309524Y-32597676D02*
X57357143Y-32788152D01*
X57357143Y-32788152D02*
X57357143Y-33121485D01*
X57357143Y-33121485D02*
X57309524Y-33311961D01*
X57309524Y-33311961D02*
X57214286Y-33407200D01*
X57214286Y-33407200D02*
X57119048Y-33454819D01*
X57119048Y-33454819D02*
X56928572Y-33454819D01*
X56928572Y-33454819D02*
X56833334Y-33407200D01*
X56833334Y-33407200D02*
X56738096Y-33311961D01*
X56738096Y-33311961D02*
X56690477Y-33121485D01*
X56690477Y-33121485D02*
X56690477Y-32788152D01*
X56690477Y-32788152D02*
X56738096Y-32597676D01*
X56738096Y-32597676D02*
X56833334Y-32502438D01*
X56833334Y-32502438D02*
X56928572Y-32454819D01*
X57785715Y-33454819D02*
X57785715Y-32454819D01*
X57785715Y-32454819D02*
X58023810Y-32454819D01*
X58023810Y-32454819D02*
X58166667Y-32502438D01*
X58166667Y-32502438D02*
X58261905Y-32597676D01*
X58261905Y-32597676D02*
X58309524Y-32692914D01*
X58309524Y-32692914D02*
X58357143Y-32883390D01*
X58357143Y-32883390D02*
X58357143Y-33026247D01*
X58357143Y-33026247D02*
X58309524Y-33216723D01*
X58309524Y-33216723D02*
X58261905Y-33311961D01*
X58261905Y-33311961D02*
X58166667Y-33407200D01*
X58166667Y-33407200D02*
X58023810Y-33454819D01*
X58023810Y-33454819D02*
X57785715Y-33454819D01*
X58785715Y-32931009D02*
X59119048Y-32931009D01*
X59261905Y-33454819D02*
X58785715Y-33454819D01*
X58785715Y-33454819D02*
X58785715Y-32454819D01*
X58785715Y-32454819D02*
X59261905Y-32454819D01*
X59642858Y-33407200D02*
X59785715Y-33454819D01*
X59785715Y-33454819D02*
X60023810Y-33454819D01*
X60023810Y-33454819D02*
X60119048Y-33407200D01*
X60119048Y-33407200D02*
X60166667Y-33359580D01*
X60166667Y-33359580D02*
X60214286Y-33264342D01*
X60214286Y-33264342D02*
X60214286Y-33169104D01*
X60214286Y-33169104D02*
X60166667Y-33073866D01*
X60166667Y-33073866D02*
X60119048Y-33026247D01*
X60119048Y-33026247D02*
X60023810Y-32978628D01*
X60023810Y-32978628D02*
X59833334Y-32931009D01*
X59833334Y-32931009D02*
X59738096Y-32883390D01*
X59738096Y-32883390D02*
X59690477Y-32835771D01*
X59690477Y-32835771D02*
X59642858Y-32740533D01*
X59642858Y-32740533D02*
X59642858Y-32645295D01*
X59642858Y-32645295D02*
X59690477Y-32550057D01*
X59690477Y-32550057D02*
X59738096Y-32502438D01*
X59738096Y-32502438D02*
X59833334Y-32454819D01*
X59833334Y-32454819D02*
X60071429Y-32454819D01*
X60071429Y-32454819D02*
X60214286Y-32502438D01*
X-4785713Y6592800D02*
X-4642856Y6545180D01*
X-4642856Y6545180D02*
X-4404761Y6545180D01*
X-4404761Y6545180D02*
X-4309523Y6592800D01*
X-4309523Y6592800D02*
X-4261904Y6640419D01*
X-4261904Y6640419D02*
X-4214285Y6735657D01*
X-4214285Y6735657D02*
X-4214285Y6830895D01*
X-4214285Y6830895D02*
X-4261904Y6926133D01*
X-4261904Y6926133D02*
X-4309523Y6973752D01*
X-4309523Y6973752D02*
X-4404761Y7021371D01*
X-4404761Y7021371D02*
X-4595237Y7068990D01*
X-4595237Y7068990D02*
X-4690475Y7116609D01*
X-4690475Y7116609D02*
X-4738094Y7164228D01*
X-4738094Y7164228D02*
X-4785713Y7259466D01*
X-4785713Y7259466D02*
X-4785713Y7354704D01*
X-4785713Y7354704D02*
X-4738094Y7449942D01*
X-4738094Y7449942D02*
X-4690475Y7497561D01*
X-4690475Y7497561D02*
X-4595237Y7545180D01*
X-4595237Y7545180D02*
X-4357142Y7545180D01*
X-4357142Y7545180D02*
X-4214285Y7497561D01*
X-3595237Y7021371D02*
X-3595237Y6545180D01*
X-3928570Y7545180D02*
X-3595237Y7021371D01*
X-3595237Y7021371D02*
X-3261904Y7545180D01*
X-2928570Y6545180D02*
X-2928570Y7545180D01*
X-2928570Y7545180D02*
X-2357142Y6545180D01*
X-2357142Y6545180D02*
X-2357142Y7545180D01*
X-1309523Y6640419D02*
X-1357142Y6592800D01*
X-1357142Y6592800D02*
X-1499999Y6545180D01*
X-1499999Y6545180D02*
X-1595237Y6545180D01*
X-1595237Y6545180D02*
X-1738094Y6592800D01*
X-1738094Y6592800D02*
X-1833332Y6688038D01*
X-1833332Y6688038D02*
X-1880951Y6783276D01*
X-1880951Y6783276D02*
X-1928570Y6973752D01*
X-1928570Y6973752D02*
X-1928570Y7116609D01*
X-1928570Y7116609D02*
X-1880951Y7307085D01*
X-1880951Y7307085D02*
X-1833332Y7402323D01*
X-1833332Y7402323D02*
X-1738094Y7497561D01*
X-1738094Y7497561D02*
X-1595237Y7545180D01*
X-1595237Y7545180D02*
X-1499999Y7545180D01*
X-1499999Y7545180D02*
X-1357142Y7497561D01*
X-1357142Y7497561D02*
X-1309523Y7449942D01*
X-1119047Y6449942D02*
X-357142Y6449942D01*
X-119046Y6545180D02*
X-119046Y7545180D01*
X357143Y6545180D02*
X357143Y7545180D01*
X357143Y7545180D02*
X928571Y6545180D01*
X928571Y6545180D02*
X928571Y7545180D01*
X1166667Y6449942D02*
X1928571Y6449942D01*
X2500000Y7068990D02*
X2642857Y7021371D01*
X2642857Y7021371D02*
X2690476Y6973752D01*
X2690476Y6973752D02*
X2738095Y6878514D01*
X2738095Y6878514D02*
X2738095Y6735657D01*
X2738095Y6735657D02*
X2690476Y6640419D01*
X2690476Y6640419D02*
X2642857Y6592800D01*
X2642857Y6592800D02*
X2547619Y6545180D01*
X2547619Y6545180D02*
X2166667Y6545180D01*
X2166667Y6545180D02*
X2166667Y7545180D01*
X2166667Y7545180D02*
X2500000Y7545180D01*
X2500000Y7545180D02*
X2595238Y7497561D01*
X2595238Y7497561D02*
X2642857Y7449942D01*
X2642857Y7449942D02*
X2690476Y7354704D01*
X2690476Y7354704D02*
X2690476Y7259466D01*
X2690476Y7259466D02*
X2642857Y7164228D01*
X2642857Y7164228D02*
X2595238Y7116609D01*
X2595238Y7116609D02*
X2500000Y7068990D01*
X2500000Y7068990D02*
X2166667Y7068990D01*
X3166667Y6545180D02*
X3166667Y7545180D01*
X3166667Y7545180D02*
X3738095Y6545180D01*
X3738095Y6545180D02*
X3738095Y7545180D01*
X4785714Y6640419D02*
X4738095Y6592800D01*
X4738095Y6592800D02*
X4595238Y6545180D01*
X4595238Y6545180D02*
X4500000Y6545180D01*
X4500000Y6545180D02*
X4357143Y6592800D01*
X4357143Y6592800D02*
X4261905Y6688038D01*
X4261905Y6688038D02*
X4214286Y6783276D01*
X4214286Y6783276D02*
X4166667Y6973752D01*
X4166667Y6973752D02*
X4166667Y7116609D01*
X4166667Y7116609D02*
X4214286Y7307085D01*
X4214286Y7307085D02*
X4261905Y7402323D01*
X4261905Y7402323D02*
X4357143Y7497561D01*
X4357143Y7497561D02*
X4500000Y7545180D01*
X4500000Y7545180D02*
X4595238Y7545180D01*
X4595238Y7545180D02*
X4738095Y7497561D01*
X4738095Y7497561D02*
X4785714Y7449942D01*
X-5452380Y6592800D02*
X-5309523Y6545180D01*
X-5309523Y6545180D02*
X-5071428Y6545180D01*
X-5071428Y6545180D02*
X-4976190Y6592800D01*
X-4976190Y6592800D02*
X-4928571Y6640419D01*
X-4928571Y6640419D02*
X-4880952Y6735657D01*
X-4880952Y6735657D02*
X-4880952Y6830895D01*
X-4880952Y6830895D02*
X-4928571Y6926133D01*
X-4928571Y6926133D02*
X-4976190Y6973752D01*
X-4976190Y6973752D02*
X-5071428Y7021371D01*
X-5071428Y7021371D02*
X-5261904Y7068990D01*
X-5261904Y7068990D02*
X-5357142Y7116609D01*
X-5357142Y7116609D02*
X-5404761Y7164228D01*
X-5404761Y7164228D02*
X-5452380Y7259466D01*
X-5452380Y7259466D02*
X-5452380Y7354704D01*
X-5452380Y7354704D02*
X-5404761Y7449942D01*
X-5404761Y7449942D02*
X-5357142Y7497561D01*
X-5357142Y7497561D02*
X-5261904Y7545180D01*
X-5261904Y7545180D02*
X-5023809Y7545180D01*
X-5023809Y7545180D02*
X-4880952Y7497561D01*
X-4261904Y7021371D02*
X-4261904Y6545180D01*
X-4595237Y7545180D02*
X-4261904Y7021371D01*
X-4261904Y7021371D02*
X-3928571Y7545180D01*
X-3595237Y6545180D02*
X-3595237Y7545180D01*
X-3595237Y7545180D02*
X-3023809Y6545180D01*
X-3023809Y6545180D02*
X-3023809Y7545180D01*
X-1976190Y6640419D02*
X-2023809Y6592800D01*
X-2023809Y6592800D02*
X-2166666Y6545180D01*
X-2166666Y6545180D02*
X-2261904Y6545180D01*
X-2261904Y6545180D02*
X-2404761Y6592800D01*
X-2404761Y6592800D02*
X-2499999Y6688038D01*
X-2499999Y6688038D02*
X-2547618Y6783276D01*
X-2547618Y6783276D02*
X-2595237Y6973752D01*
X-2595237Y6973752D02*
X-2595237Y7116609D01*
X-2595237Y7116609D02*
X-2547618Y7307085D01*
X-2547618Y7307085D02*
X-2499999Y7402323D01*
X-2499999Y7402323D02*
X-2404761Y7497561D01*
X-2404761Y7497561D02*
X-2261904Y7545180D01*
X-2261904Y7545180D02*
X-2166666Y7545180D01*
X-2166666Y7545180D02*
X-2023809Y7497561D01*
X-2023809Y7497561D02*
X-1976190Y7449942D01*
X-1785714Y6449942D02*
X-1023809Y6449942D01*
X-595237Y7545180D02*
X-404761Y7545180D01*
X-404761Y7545180D02*
X-309523Y7497561D01*
X-309523Y7497561D02*
X-214285Y7402323D01*
X-214285Y7402323D02*
X-166666Y7211847D01*
X-166666Y7211847D02*
X-166666Y6878514D01*
X-166666Y6878514D02*
X-214285Y6688038D01*
X-214285Y6688038D02*
X-309523Y6592800D01*
X-309523Y6592800D02*
X-404761Y6545180D01*
X-404761Y6545180D02*
X-595237Y6545180D01*
X-595237Y6545180D02*
X-690475Y6592800D01*
X-690475Y6592800D02*
X-785713Y6688038D01*
X-785713Y6688038D02*
X-833332Y6878514D01*
X-833332Y6878514D02*
X-833332Y7211847D01*
X-833332Y7211847D02*
X-785713Y7402323D01*
X-785713Y7402323D02*
X-690475Y7497561D01*
X-690475Y7497561D02*
X-595237Y7545180D01*
X261905Y7545180D02*
X261905Y6735657D01*
X261905Y6735657D02*
X309524Y6640419D01*
X309524Y6640419D02*
X357143Y6592800D01*
X357143Y6592800D02*
X452381Y6545180D01*
X452381Y6545180D02*
X642857Y6545180D01*
X642857Y6545180D02*
X738095Y6592800D01*
X738095Y6592800D02*
X785714Y6640419D01*
X785714Y6640419D02*
X833333Y6735657D01*
X833333Y6735657D02*
X833333Y7545180D01*
X1166667Y7545180D02*
X1738095Y7545180D01*
X1452381Y6545180D02*
X1452381Y7545180D01*
X1833334Y6449942D02*
X2595238Y6449942D01*
X3166667Y7068990D02*
X3309524Y7021371D01*
X3309524Y7021371D02*
X3357143Y6973752D01*
X3357143Y6973752D02*
X3404762Y6878514D01*
X3404762Y6878514D02*
X3404762Y6735657D01*
X3404762Y6735657D02*
X3357143Y6640419D01*
X3357143Y6640419D02*
X3309524Y6592800D01*
X3309524Y6592800D02*
X3214286Y6545180D01*
X3214286Y6545180D02*
X2833334Y6545180D01*
X2833334Y6545180D02*
X2833334Y7545180D01*
X2833334Y7545180D02*
X3166667Y7545180D01*
X3166667Y7545180D02*
X3261905Y7497561D01*
X3261905Y7497561D02*
X3309524Y7449942D01*
X3309524Y7449942D02*
X3357143Y7354704D01*
X3357143Y7354704D02*
X3357143Y7259466D01*
X3357143Y7259466D02*
X3309524Y7164228D01*
X3309524Y7164228D02*
X3261905Y7116609D01*
X3261905Y7116609D02*
X3166667Y7068990D01*
X3166667Y7068990D02*
X2833334Y7068990D01*
X3833334Y6545180D02*
X3833334Y7545180D01*
X3833334Y7545180D02*
X4404762Y6545180D01*
X4404762Y6545180D02*
X4404762Y7545180D01*
X5452381Y6640419D02*
X5404762Y6592800D01*
X5404762Y6592800D02*
X5261905Y6545180D01*
X5261905Y6545180D02*
X5166667Y6545180D01*
X5166667Y6545180D02*
X5023810Y6592800D01*
X5023810Y6592800D02*
X4928572Y6688038D01*
X4928572Y6688038D02*
X4880953Y6783276D01*
X4880953Y6783276D02*
X4833334Y6973752D01*
X4833334Y6973752D02*
X4833334Y7116609D01*
X4833334Y7116609D02*
X4880953Y7307085D01*
X4880953Y7307085D02*
X4928572Y7402323D01*
X4928572Y7402323D02*
X5023810Y7497561D01*
X5023810Y7497561D02*
X5166667Y7545180D01*
X5166667Y7545180D02*
X5261905Y7545180D01*
X5261905Y7545180D02*
X5404762Y7497561D01*
X5404762Y7497561D02*
X5452381Y7449942D01*
M02*
