%TF.GenerationSoftware,KiCad,Pcbnew,10.0.5*%
%TF.CreationDate,2026-08-17T17:48:04-04:00*%
%TF.ProjectId,circle-main,63697263-6c65-42d6-9d61-696e2e6b6963,rev?*%
%TF.SameCoordinates,Original*%
%TF.FileFunction,Soldermask,Bot*%
%TF.FilePolarity,Negative*%
%FSLAX46Y46*%
G04 Gerber Fmt 4.6, Leading zero omitted, Abs format (unit mm)*
G04 Created by KiCad (PCBNEW 10.0.5) date 2026-08-17 17:48:04*
%MOMM*%
%LPD*%
G01*
G04 APERTURE LIST*
%ADD10C,1.500000*%
G04 APERTURE END LIST*
D10*
%TO.C,J1*%
X-11000000Y-27500000D03*
X-9000000Y-27500000D03*
X-7000000Y-27500000D03*
X-5000000Y-27500000D03*
X-3000000Y-27500000D03*
X-1000000Y-27500000D03*
X1000000Y-27500000D03*
X3000000Y-27500000D03*
X5000000Y-27500000D03*
X7000000Y-27500000D03*
X9000000Y-27500000D03*
X11000000Y-27500000D03*
X13000000Y-27500000D03*
X15000000Y-27500000D03*
X17000000Y-27500000D03*
X19000000Y-27500000D03*
%TD*%
%TO.C,J2*%
X31000000Y-40000000D03*
X33000000Y-40000000D03*
X35000000Y-40000000D03*
X37000000Y-40000000D03*
X39000000Y-40000000D03*
X41000000Y-40000000D03*
%TD*%
%TO.C,J3*%
X31000000Y-45000000D03*
X33000000Y-45000000D03*
X35000000Y-45000000D03*
X37000000Y-45000000D03*
X39000000Y-45000000D03*
X41000000Y-45000000D03*
%TD*%
%TO.C,J10*%
X36000000Y-5000000D03*
X38000000Y-5000000D03*
X40000000Y-5000000D03*
X42000000Y-5000000D03*
X44000000Y-5000000D03*
X46000000Y-5000000D03*
%TD*%
%TO.C,J11*%
X36000000Y-10000000D03*
X38000000Y-10000000D03*
X40000000Y-10000000D03*
X42000000Y-10000000D03*
X44000000Y-10000000D03*
X46000000Y-10000000D03*
%TD*%
%TO.C,J20*%
X36000000Y-15000000D03*
X38000000Y-15000000D03*
X40000000Y-15000000D03*
X42000000Y-15000000D03*
X44000000Y-15000000D03*
X46000000Y-15000000D03*
%TD*%
%TO.C,J21*%
X36000000Y-20000000D03*
X38000000Y-20000000D03*
X40000000Y-20000000D03*
X42000000Y-20000000D03*
X44000000Y-20000000D03*
X46000000Y-20000000D03*
%TD*%
%TO.C,J30*%
X36000000Y-25000000D03*
X38000000Y-25000000D03*
X40000000Y-25000000D03*
X42000000Y-25000000D03*
X44000000Y-25000000D03*
X46000000Y-25000000D03*
%TD*%
%TO.C,J31*%
X36000000Y-30000000D03*
X38000000Y-30000000D03*
X40000000Y-30000000D03*
X42000000Y-30000000D03*
X44000000Y-30000000D03*
X46000000Y-30000000D03*
%TD*%
%TO.C,J40*%
X36000000Y-35000000D03*
X38000000Y-35000000D03*
X40000000Y-35000000D03*
X42000000Y-35000000D03*
X44000000Y-35000000D03*
X46000000Y-35000000D03*
%TD*%
%TO.C,J41*%
X36000000Y-40000000D03*
X38000000Y-40000000D03*
X40000000Y-40000000D03*
X42000000Y-40000000D03*
X44000000Y-40000000D03*
X46000000Y-40000000D03*
%TD*%
%TO.C,J42*%
X36000000Y-45000000D03*
X38000000Y-45000000D03*
X40000000Y-45000000D03*
X42000000Y-45000000D03*
X44000000Y-45000000D03*
X46000000Y-45000000D03*
%TD*%
%TO.C,JP1*%
X51000000Y-10000000D03*
X53000000Y-10000000D03*
X55000000Y-10000000D03*
X57000000Y-10000000D03*
X59000000Y-10000000D03*
X61000000Y-10000000D03*
%TD*%
%TO.C,JP2*%
X51000000Y-15000000D03*
X53000000Y-15000000D03*
X55000000Y-15000000D03*
X57000000Y-15000000D03*
X59000000Y-15000000D03*
X61000000Y-15000000D03*
%TD*%
%TO.C,JP3*%
X51000000Y-20000000D03*
X53000000Y-20000000D03*
X55000000Y-20000000D03*
X57000000Y-20000000D03*
X59000000Y-20000000D03*
X61000000Y-20000000D03*
%TD*%
%TO.C,JP4*%
X51000000Y-25000000D03*
X53000000Y-25000000D03*
X55000000Y-25000000D03*
X57000000Y-25000000D03*
X59000000Y-25000000D03*
X61000000Y-25000000D03*
%TD*%
%TO.C,JP5*%
X51000000Y-30000000D03*
X53000000Y-30000000D03*
X55000000Y-30000000D03*
X57000000Y-30000000D03*
X59000000Y-30000000D03*
X61000000Y-30000000D03*
%TD*%
%TO.C,JP6*%
X51000000Y-35000000D03*
X53000000Y-35000000D03*
X55000000Y-35000000D03*
X57000000Y-35000000D03*
X59000000Y-35000000D03*
X61000000Y-35000000D03*
%TD*%
M02*
