%TF.GenerationSoftware,KiCad,Pcbnew,10.0.5*%
%TF.CreationDate,2026-08-17T19:03:04-04:00*%
%TF.ProjectId,circle-main,63697263-6c65-42d6-9d61-696e2e6b6963,rev?*%
%TF.SameCoordinates,Original*%
%TF.FileFunction,Legend,Top*%
%TF.FilePolarity,Positive*%
%FSLAX46Y46*%
G04 Gerber Fmt 4.6, Leading zero omitted, Abs format (unit mm)*
G04 Created by KiCad (PCBNEW 10.0.5) date 2026-08-17 19:03:04*
%MOMM*%
%LPD*%
G01*
G04 APERTURE LIST*
%ADD10C,0.150000*%
G04 APERTURE END LIST*
D10*
X535427Y-27783332D02*
X1142570Y-27783332D01*
X1142570Y-27783332D02*
X1263998Y-27823809D01*
X1263998Y-27823809D02*
X1344951Y-27904761D01*
X1344951Y-27904761D02*
X1385427Y-28026190D01*
X1385427Y-28026190D02*
X1385427Y-28107142D01*
X1385427Y-26933332D02*
X1385427Y-27419047D01*
X1385427Y-27176190D02*
X535427Y-27176190D01*
X535427Y-27176190D02*
X656855Y-27257142D01*
X656855Y-27257142D02*
X737808Y-27338094D01*
X737808Y-27338094D02*
X778284Y-27419047D01*
X11716667Y-8735427D02*
X11716667Y-9342570D01*
X11716667Y-9342570D02*
X11676190Y-9463998D01*
X11676190Y-9463998D02*
X11595238Y-9544951D01*
X11595238Y-9544951D02*
X11473809Y-9585427D01*
X11473809Y-9585427D02*
X11392857Y-9585427D01*
X12080952Y-8816379D02*
X12121428Y-8775903D01*
X12121428Y-8775903D02*
X12202381Y-8735427D01*
X12202381Y-8735427D02*
X12404762Y-8735427D01*
X12404762Y-8735427D02*
X12485714Y-8775903D01*
X12485714Y-8775903D02*
X12526190Y-8816379D01*
X12526190Y-8816379D02*
X12566667Y-8897331D01*
X12566667Y-8897331D02*
X12566667Y-8978284D01*
X12566667Y-8978284D02*
X12526190Y-9099712D01*
X12526190Y-9099712D02*
X12040476Y-9585427D01*
X12040476Y-9585427D02*
X12566667Y-9585427D01*
X17352380Y-15135427D02*
X17352380Y-15823522D01*
X17352380Y-15823522D02*
X17392857Y-15904474D01*
X17392857Y-15904474D02*
X17433333Y-15944951D01*
X17433333Y-15944951D02*
X17514285Y-15985427D01*
X17514285Y-15985427D02*
X17676190Y-15985427D01*
X17676190Y-15985427D02*
X17757142Y-15944951D01*
X17757142Y-15944951D02*
X17797619Y-15904474D01*
X17797619Y-15904474D02*
X17838095Y-15823522D01*
X17838095Y-15823522D02*
X17838095Y-15135427D01*
X18202380Y-15216379D02*
X18242856Y-15175903D01*
X18242856Y-15175903D02*
X18323809Y-15135427D01*
X18323809Y-15135427D02*
X18526190Y-15135427D01*
X18526190Y-15135427D02*
X18607142Y-15175903D01*
X18607142Y-15175903D02*
X18647618Y-15216379D01*
X18647618Y-15216379D02*
X18688095Y-15297331D01*
X18688095Y-15297331D02*
X18688095Y-15378284D01*
X18688095Y-15378284D02*
X18647618Y-15499712D01*
X18647618Y-15499712D02*
X18161904Y-15985427D01*
X18161904Y-15985427D02*
X18688095Y-15985427D01*
X17352380Y-25135427D02*
X17352380Y-25823522D01*
X17352380Y-25823522D02*
X17392857Y-25904474D01*
X17392857Y-25904474D02*
X17433333Y-25944951D01*
X17433333Y-25944951D02*
X17514285Y-25985427D01*
X17514285Y-25985427D02*
X17676190Y-25985427D01*
X17676190Y-25985427D02*
X17757142Y-25944951D01*
X17757142Y-25944951D02*
X17797619Y-25904474D01*
X17797619Y-25904474D02*
X17838095Y-25823522D01*
X17838095Y-25823522D02*
X17838095Y-25135427D01*
X18161904Y-25135427D02*
X18688095Y-25135427D01*
X18688095Y-25135427D02*
X18404761Y-25459236D01*
X18404761Y-25459236D02*
X18526190Y-25459236D01*
X18526190Y-25459236D02*
X18607142Y-25499712D01*
X18607142Y-25499712D02*
X18647618Y-25540189D01*
X18647618Y-25540189D02*
X18688095Y-25621141D01*
X18688095Y-25621141D02*
X18688095Y-25823522D01*
X18688095Y-25823522D02*
X18647618Y-25904474D01*
X18647618Y-25904474D02*
X18607142Y-25944951D01*
X18607142Y-25944951D02*
X18526190Y-25985427D01*
X18526190Y-25985427D02*
X18283333Y-25985427D01*
X18283333Y-25985427D02*
X18202380Y-25944951D01*
X18202380Y-25944951D02*
X18161904Y-25904474D01*
X23858333Y-26185427D02*
X23453571Y-26185427D01*
X23453571Y-26185427D02*
X23453571Y-25335427D01*
X24586905Y-26185427D02*
X24101190Y-26185427D01*
X24344047Y-26185427D02*
X24344047Y-25335427D01*
X24344047Y-25335427D02*
X24263095Y-25456855D01*
X24263095Y-25456855D02*
X24182143Y-25537808D01*
X24182143Y-25537808D02*
X24101190Y-25578284D01*
X45352380Y-8535427D02*
X45352380Y-9223522D01*
X45352380Y-9223522D02*
X45392857Y-9304474D01*
X45392857Y-9304474D02*
X45433333Y-9344951D01*
X45433333Y-9344951D02*
X45514285Y-9385427D01*
X45514285Y-9385427D02*
X45676190Y-9385427D01*
X45676190Y-9385427D02*
X45757142Y-9344951D01*
X45757142Y-9344951D02*
X45797619Y-9304474D01*
X45797619Y-9304474D02*
X45838095Y-9223522D01*
X45838095Y-9223522D02*
X45838095Y-8535427D01*
X46688095Y-9385427D02*
X46202380Y-9385427D01*
X46445237Y-9385427D02*
X46445237Y-8535427D01*
X46445237Y-8535427D02*
X46364285Y-8656855D01*
X46364285Y-8656855D02*
X46283333Y-8737808D01*
X46283333Y-8737808D02*
X46202380Y-8778284D01*
X69947618Y-20535427D02*
X69947618Y-21223522D01*
X69947618Y-21223522D02*
X69988095Y-21304474D01*
X69988095Y-21304474D02*
X70028571Y-21344951D01*
X70028571Y-21344951D02*
X70109523Y-21385427D01*
X70109523Y-21385427D02*
X70271428Y-21385427D01*
X70271428Y-21385427D02*
X70352380Y-21344951D01*
X70352380Y-21344951D02*
X70392857Y-21304474D01*
X70392857Y-21304474D02*
X70433333Y-21223522D01*
X70433333Y-21223522D02*
X70433333Y-20535427D01*
X70757142Y-20535427D02*
X71283333Y-20535427D01*
X71283333Y-20535427D02*
X70999999Y-20859236D01*
X70999999Y-20859236D02*
X71121428Y-20859236D01*
X71121428Y-20859236D02*
X71202380Y-20899712D01*
X71202380Y-20899712D02*
X71242856Y-20940189D01*
X71242856Y-20940189D02*
X71283333Y-21021141D01*
X71283333Y-21021141D02*
X71283333Y-21223522D01*
X71283333Y-21223522D02*
X71242856Y-21304474D01*
X71242856Y-21304474D02*
X71202380Y-21344951D01*
X71202380Y-21344951D02*
X71121428Y-21385427D01*
X71121428Y-21385427D02*
X70878571Y-21385427D01*
X70878571Y-21385427D02*
X70797618Y-21344951D01*
X70797618Y-21344951D02*
X70757142Y-21304474D01*
X71809523Y-20535427D02*
X71890476Y-20535427D01*
X71890476Y-20535427D02*
X71971428Y-20575903D01*
X71971428Y-20575903D02*
X72011904Y-20616379D01*
X72011904Y-20616379D02*
X72052380Y-20697331D01*
X72052380Y-20697331D02*
X72092857Y-20859236D01*
X72092857Y-20859236D02*
X72092857Y-21061617D01*
X72092857Y-21061617D02*
X72052380Y-21223522D01*
X72052380Y-21223522D02*
X72011904Y-21304474D01*
X72011904Y-21304474D02*
X71971428Y-21344951D01*
X71971428Y-21344951D02*
X71890476Y-21385427D01*
X71890476Y-21385427D02*
X71809523Y-21385427D01*
X71809523Y-21385427D02*
X71728571Y-21344951D01*
X71728571Y-21344951D02*
X71688095Y-21304474D01*
X71688095Y-21304474D02*
X71647618Y-21223522D01*
X71647618Y-21223522D02*
X71607142Y-21061617D01*
X71607142Y-21061617D02*
X71607142Y-20859236D01*
X71607142Y-20859236D02*
X71647618Y-20697331D01*
X71647618Y-20697331D02*
X71688095Y-20616379D01*
X71688095Y-20616379D02*
X71728571Y-20575903D01*
X71728571Y-20575903D02*
X71809523Y-20535427D01*
X79311905Y-17535427D02*
X79311905Y-18142570D01*
X79311905Y-18142570D02*
X79271428Y-18263998D01*
X79271428Y-18263998D02*
X79190476Y-18344951D01*
X79190476Y-18344951D02*
X79069047Y-18385427D01*
X79069047Y-18385427D02*
X78988095Y-18385427D01*
X79635714Y-17535427D02*
X80161905Y-17535427D01*
X80161905Y-17535427D02*
X79878571Y-17859236D01*
X79878571Y-17859236D02*
X80000000Y-17859236D01*
X80000000Y-17859236D02*
X80080952Y-17899712D01*
X80080952Y-17899712D02*
X80121428Y-17940189D01*
X80121428Y-17940189D02*
X80161905Y-18021141D01*
X80161905Y-18021141D02*
X80161905Y-18223522D01*
X80161905Y-18223522D02*
X80121428Y-18304474D01*
X80121428Y-18304474D02*
X80080952Y-18344951D01*
X80080952Y-18344951D02*
X80000000Y-18385427D01*
X80000000Y-18385427D02*
X79757143Y-18385427D01*
X79757143Y-18385427D02*
X79676190Y-18344951D01*
X79676190Y-18344951D02*
X79635714Y-18304474D01*
X80688095Y-17535427D02*
X80769048Y-17535427D01*
X80769048Y-17535427D02*
X80850000Y-17575903D01*
X80850000Y-17575903D02*
X80890476Y-17616379D01*
X80890476Y-17616379D02*
X80930952Y-17697331D01*
X80930952Y-17697331D02*
X80971429Y-17859236D01*
X80971429Y-17859236D02*
X80971429Y-18061617D01*
X80971429Y-18061617D02*
X80930952Y-18223522D01*
X80930952Y-18223522D02*
X80890476Y-18304474D01*
X80890476Y-18304474D02*
X80850000Y-18344951D01*
X80850000Y-18344951D02*
X80769048Y-18385427D01*
X80769048Y-18385427D02*
X80688095Y-18385427D01*
X80688095Y-18385427D02*
X80607143Y-18344951D01*
X80607143Y-18344951D02*
X80566667Y-18304474D01*
X80566667Y-18304474D02*
X80526190Y-18223522D01*
X80526190Y-18223522D02*
X80485714Y-18061617D01*
X80485714Y-18061617D02*
X80485714Y-17859236D01*
X80485714Y-17859236D02*
X80526190Y-17697331D01*
X80526190Y-17697331D02*
X80566667Y-17616379D01*
X80566667Y-17616379D02*
X80607143Y-17575903D01*
X80607143Y-17575903D02*
X80688095Y-17535427D01*
X79311905Y-44535427D02*
X79311905Y-45142570D01*
X79311905Y-45142570D02*
X79271428Y-45263998D01*
X79271428Y-45263998D02*
X79190476Y-45344951D01*
X79190476Y-45344951D02*
X79069047Y-45385427D01*
X79069047Y-45385427D02*
X78988095Y-45385427D01*
X79635714Y-44535427D02*
X80161905Y-44535427D01*
X80161905Y-44535427D02*
X79878571Y-44859236D01*
X79878571Y-44859236D02*
X80000000Y-44859236D01*
X80000000Y-44859236D02*
X80080952Y-44899712D01*
X80080952Y-44899712D02*
X80121428Y-44940189D01*
X80121428Y-44940189D02*
X80161905Y-45021141D01*
X80161905Y-45021141D02*
X80161905Y-45223522D01*
X80161905Y-45223522D02*
X80121428Y-45304474D01*
X80121428Y-45304474D02*
X80080952Y-45344951D01*
X80080952Y-45344951D02*
X80000000Y-45385427D01*
X80000000Y-45385427D02*
X79757143Y-45385427D01*
X79757143Y-45385427D02*
X79676190Y-45344951D01*
X79676190Y-45344951D02*
X79635714Y-45304474D01*
X80971429Y-45385427D02*
X80485714Y-45385427D01*
X80728571Y-45385427D02*
X80728571Y-44535427D01*
X80728571Y-44535427D02*
X80647619Y-44656855D01*
X80647619Y-44656855D02*
X80566667Y-44737808D01*
X80566667Y-44737808D02*
X80485714Y-44778284D01*
X5535427Y-48888094D02*
X6142570Y-48888094D01*
X6142570Y-48888094D02*
X6263998Y-48928571D01*
X6263998Y-48928571D02*
X6344951Y-49009523D01*
X6344951Y-49009523D02*
X6385427Y-49130952D01*
X6385427Y-49130952D02*
X6385427Y-49211904D01*
X6385427Y-48038094D02*
X6385427Y-48523809D01*
X6385427Y-48280952D02*
X5535427Y-48280952D01*
X5535427Y-48280952D02*
X5656855Y-48361904D01*
X5656855Y-48361904D02*
X5737808Y-48442856D01*
X5737808Y-48442856D02*
X5778284Y-48523809D01*
X5535427Y-47511904D02*
X5535427Y-47430951D01*
X5535427Y-47430951D02*
X5575903Y-47349999D01*
X5575903Y-47349999D02*
X5616379Y-47309523D01*
X5616379Y-47309523D02*
X5697331Y-47269047D01*
X5697331Y-47269047D02*
X5859236Y-47228570D01*
X5859236Y-47228570D02*
X6061617Y-47228570D01*
X6061617Y-47228570D02*
X6223522Y-47269047D01*
X6223522Y-47269047D02*
X6304474Y-47309523D01*
X6304474Y-47309523D02*
X6344951Y-47349999D01*
X6344951Y-47349999D02*
X6385427Y-47430951D01*
X6385427Y-47430951D02*
X6385427Y-47511904D01*
X6385427Y-47511904D02*
X6344951Y-47592856D01*
X6344951Y-47592856D02*
X6304474Y-47633332D01*
X6304474Y-47633332D02*
X6223522Y-47673809D01*
X6223522Y-47673809D02*
X6061617Y-47714285D01*
X6061617Y-47714285D02*
X5859236Y-47714285D01*
X5859236Y-47714285D02*
X5697331Y-47673809D01*
X5697331Y-47673809D02*
X5616379Y-47633332D01*
X5616379Y-47633332D02*
X5575903Y-47592856D01*
X5575903Y-47592856D02*
X5535427Y-47511904D01*
X44311905Y-45535427D02*
X44311905Y-46142570D01*
X44311905Y-46142570D02*
X44271428Y-46263998D01*
X44271428Y-46263998D02*
X44190476Y-46344951D01*
X44190476Y-46344951D02*
X44069047Y-46385427D01*
X44069047Y-46385427D02*
X43988095Y-46385427D01*
X44676190Y-45616379D02*
X44716666Y-45575903D01*
X44716666Y-45575903D02*
X44797619Y-45535427D01*
X44797619Y-45535427D02*
X45000000Y-45535427D01*
X45000000Y-45535427D02*
X45080952Y-45575903D01*
X45080952Y-45575903D02*
X45121428Y-45616379D01*
X45121428Y-45616379D02*
X45161905Y-45697331D01*
X45161905Y-45697331D02*
X45161905Y-45778284D01*
X45161905Y-45778284D02*
X45121428Y-45899712D01*
X45121428Y-45899712D02*
X44635714Y-46385427D01*
X44635714Y-46385427D02*
X45161905Y-46385427D01*
X45688095Y-45535427D02*
X45769048Y-45535427D01*
X45769048Y-45535427D02*
X45850000Y-45575903D01*
X45850000Y-45575903D02*
X45890476Y-45616379D01*
X45890476Y-45616379D02*
X45930952Y-45697331D01*
X45930952Y-45697331D02*
X45971429Y-45859236D01*
X45971429Y-45859236D02*
X45971429Y-46061617D01*
X45971429Y-46061617D02*
X45930952Y-46223522D01*
X45930952Y-46223522D02*
X45890476Y-46304474D01*
X45890476Y-46304474D02*
X45850000Y-46344951D01*
X45850000Y-46344951D02*
X45769048Y-46385427D01*
X45769048Y-46385427D02*
X45688095Y-46385427D01*
X45688095Y-46385427D02*
X45607143Y-46344951D01*
X45607143Y-46344951D02*
X45566667Y-46304474D01*
X45566667Y-46304474D02*
X45526190Y-46223522D01*
X45526190Y-46223522D02*
X45485714Y-46061617D01*
X45485714Y-46061617D02*
X45485714Y-45859236D01*
X45485714Y-45859236D02*
X45526190Y-45697331D01*
X45526190Y-45697331D02*
X45566667Y-45616379D01*
X45566667Y-45616379D02*
X45607143Y-45575903D01*
X45607143Y-45575903D02*
X45688095Y-45535427D01*
X59311905Y-45535427D02*
X59311905Y-46142570D01*
X59311905Y-46142570D02*
X59271428Y-46263998D01*
X59271428Y-46263998D02*
X59190476Y-46344951D01*
X59190476Y-46344951D02*
X59069047Y-46385427D01*
X59069047Y-46385427D02*
X58988095Y-46385427D01*
X59676190Y-45616379D02*
X59716666Y-45575903D01*
X59716666Y-45575903D02*
X59797619Y-45535427D01*
X59797619Y-45535427D02*
X60000000Y-45535427D01*
X60000000Y-45535427D02*
X60080952Y-45575903D01*
X60080952Y-45575903D02*
X60121428Y-45616379D01*
X60121428Y-45616379D02*
X60161905Y-45697331D01*
X60161905Y-45697331D02*
X60161905Y-45778284D01*
X60161905Y-45778284D02*
X60121428Y-45899712D01*
X60121428Y-45899712D02*
X59635714Y-46385427D01*
X59635714Y-46385427D02*
X60161905Y-46385427D01*
X60971429Y-46385427D02*
X60485714Y-46385427D01*
X60728571Y-46385427D02*
X60728571Y-45535427D01*
X60728571Y-45535427D02*
X60647619Y-45656855D01*
X60647619Y-45656855D02*
X60566667Y-45737808D01*
X60566667Y-45737808D02*
X60485714Y-45778284D01*
X35311905Y-4535427D02*
X35311905Y-5142570D01*
X35311905Y-5142570D02*
X35271428Y-5263998D01*
X35271428Y-5263998D02*
X35190476Y-5344951D01*
X35190476Y-5344951D02*
X35069047Y-5385427D01*
X35069047Y-5385427D02*
X34988095Y-5385427D01*
X36080952Y-4818760D02*
X36080952Y-5385427D01*
X35878571Y-4494951D02*
X35676190Y-5102093D01*
X35676190Y-5102093D02*
X36202381Y-5102093D01*
X36688095Y-4535427D02*
X36769048Y-4535427D01*
X36769048Y-4535427D02*
X36850000Y-4575903D01*
X36850000Y-4575903D02*
X36890476Y-4616379D01*
X36890476Y-4616379D02*
X36930952Y-4697331D01*
X36930952Y-4697331D02*
X36971429Y-4859236D01*
X36971429Y-4859236D02*
X36971429Y-5061617D01*
X36971429Y-5061617D02*
X36930952Y-5223522D01*
X36930952Y-5223522D02*
X36890476Y-5304474D01*
X36890476Y-5304474D02*
X36850000Y-5344951D01*
X36850000Y-5344951D02*
X36769048Y-5385427D01*
X36769048Y-5385427D02*
X36688095Y-5385427D01*
X36688095Y-5385427D02*
X36607143Y-5344951D01*
X36607143Y-5344951D02*
X36566667Y-5304474D01*
X36566667Y-5304474D02*
X36526190Y-5223522D01*
X36526190Y-5223522D02*
X36485714Y-5061617D01*
X36485714Y-5061617D02*
X36485714Y-4859236D01*
X36485714Y-4859236D02*
X36526190Y-4697331D01*
X36526190Y-4697331D02*
X36566667Y-4616379D01*
X36566667Y-4616379D02*
X36607143Y-4575903D01*
X36607143Y-4575903D02*
X36688095Y-4535427D01*
X43311905Y-4535427D02*
X43311905Y-5142570D01*
X43311905Y-5142570D02*
X43271428Y-5263998D01*
X43271428Y-5263998D02*
X43190476Y-5344951D01*
X43190476Y-5344951D02*
X43069047Y-5385427D01*
X43069047Y-5385427D02*
X42988095Y-5385427D01*
X44080952Y-4818760D02*
X44080952Y-5385427D01*
X43878571Y-4494951D02*
X43676190Y-5102093D01*
X43676190Y-5102093D02*
X44202381Y-5102093D01*
X44971429Y-5385427D02*
X44485714Y-5385427D01*
X44728571Y-5385427D02*
X44728571Y-4535427D01*
X44728571Y-4535427D02*
X44647619Y-4656855D01*
X44647619Y-4656855D02*
X44566667Y-4737808D01*
X44566667Y-4737808D02*
X44485714Y-4778284D01*
X52311905Y-4535427D02*
X52311905Y-5142570D01*
X52311905Y-5142570D02*
X52271428Y-5263998D01*
X52271428Y-5263998D02*
X52190476Y-5344951D01*
X52190476Y-5344951D02*
X52069047Y-5385427D01*
X52069047Y-5385427D02*
X51988095Y-5385427D01*
X53080952Y-4818760D02*
X53080952Y-5385427D01*
X52878571Y-4494951D02*
X52676190Y-5102093D01*
X52676190Y-5102093D02*
X53202381Y-5102093D01*
X53485714Y-4616379D02*
X53526190Y-4575903D01*
X53526190Y-4575903D02*
X53607143Y-4535427D01*
X53607143Y-4535427D02*
X53809524Y-4535427D01*
X53809524Y-4535427D02*
X53890476Y-4575903D01*
X53890476Y-4575903D02*
X53930952Y-4616379D01*
X53930952Y-4616379D02*
X53971429Y-4697331D01*
X53971429Y-4697331D02*
X53971429Y-4778284D01*
X53971429Y-4778284D02*
X53930952Y-4899712D01*
X53930952Y-4899712D02*
X53445238Y-5385427D01*
X53445238Y-5385427D02*
X53971429Y-5385427D01*
X10311905Y-41535427D02*
X10311905Y-42142570D01*
X10311905Y-42142570D02*
X10271428Y-42263998D01*
X10271428Y-42263998D02*
X10190476Y-42344951D01*
X10190476Y-42344951D02*
X10069047Y-42385427D01*
X10069047Y-42385427D02*
X9988095Y-42385427D01*
X11161905Y-42385427D02*
X10676190Y-42385427D01*
X10919047Y-42385427D02*
X10919047Y-41535427D01*
X10919047Y-41535427D02*
X10838095Y-41656855D01*
X10838095Y-41656855D02*
X10757143Y-41737808D01*
X10757143Y-41737808D02*
X10676190Y-41778284D01*
X11971429Y-42385427D02*
X11485714Y-42385427D01*
X11728571Y-42385427D02*
X11728571Y-41535427D01*
X11728571Y-41535427D02*
X11647619Y-41656855D01*
X11647619Y-41656855D02*
X11566667Y-41737808D01*
X11566667Y-41737808D02*
X11485714Y-41778284D01*
M02*
