%TF.GenerationSoftware,KiCad,Pcbnew,10.0.5*%
%TF.CreationDate,2026-08-17T19:03:04-04:00*%
%TF.ProjectId,circle-main,63697263-6c65-42d6-9d61-696e2e6b6963,rev?*%
%TF.SameCoordinates,Original*%
%TF.FileFunction,Copper,L1,Top*%
%TF.FilePolarity,Positive*%
%FSLAX46Y46*%
G04 Gerber Fmt 4.6, Leading zero omitted, Abs format (unit mm)*
G04 Created by KiCad (PCBNEW 10.0.5) date 2026-08-17 19:03:04*
%MOMM*%
%LPD*%
G01*
G04 APERTURE LIST*
G04 Aperture macros list*
%AMRoundRect*
0 Rectangle with rounded corners*
0 $1 Rounding radius*
0 $2 $3 $4 $5 $6 $7 $8 $9 X,Y pos of 4 corners*
0 Add a 4 corners polygon primitive as box body*
4,1,4,$2,$3,$4,$5,$6,$7,$8,$9,$2,$3,0*
0 Add four circle primitives for the rounded corners*
1,1,$1+$1,$2,$3*
1,1,$1+$1,$4,$5*
1,1,$1+$1,$6,$7*
1,1,$1+$1,$8,$9*
0 Add four rect primitives between the rounded corners*
20,1,$1+$1,$2,$3,$4,$5,0*
20,1,$1+$1,$4,$5,$6,$7,0*
20,1,$1+$1,$6,$7,$8,$9,0*
20,1,$1+$1,$8,$9,$2,$3,0*%
G04 Aperture macros list end*
%TA.AperFunction,SMDPad,CuDef*%
%ADD10R,0.300000X0.750000*%
%TD*%
%TA.AperFunction,ComponentPad*%
%ADD11C,1.400000*%
%TD*%
%TA.AperFunction,ComponentPad*%
%ADD12RoundRect,0.325000X-0.325000X-0.325000X0.325000X-0.325000X0.325000X0.325000X-0.325000X0.325000X0*%
%TD*%
%TA.AperFunction,ComponentPad*%
%ADD13C,1.300000*%
%TD*%
%TA.AperFunction,SMDPad,CuDef*%
%ADD14R,0.550000X0.750000*%
%TD*%
%TA.AperFunction,SMDPad,CuDef*%
%ADD15R,0.450000X0.200000*%
%TD*%
%TA.AperFunction,SMDPad,CuDef*%
%ADD16R,0.200000X0.450000*%
%TD*%
%TA.AperFunction,SMDPad,CuDef*%
%ADD17R,1.200000X1.200000*%
%TD*%
%TA.AperFunction,SMDPad,CuDef*%
%ADD18R,0.350000X0.180000*%
%TD*%
%TA.AperFunction,SMDPad,CuDef*%
%ADD19R,0.180000X0.350000*%
%TD*%
%TA.AperFunction,SMDPad,CuDef*%
%ADD20R,0.900000X1.100000*%
%TD*%
%TA.AperFunction,SMDPad,CuDef*%
%ADD21R,0.900000X1.400000*%
%TD*%
%TA.AperFunction,SMDPad,CuDef*%
%ADD22R,1.300000X0.650000*%
%TD*%
%TA.AperFunction,SMDPad,CuDef*%
%ADD23R,4.500000X4.500000*%
%TD*%
%TA.AperFunction,SMDPad,CuDef*%
%ADD24R,1.300000X0.450000*%
%TD*%
%TA.AperFunction,ComponentPad*%
%ADD25C,1.500000*%
%TD*%
%TA.AperFunction,ComponentPad*%
%ADD26C,1.700000*%
%TD*%
%TA.AperFunction,SMDPad,CuDef*%
%ADD27R,1.100000X0.420000*%
%TD*%
%TA.AperFunction,SMDPad,CuDef*%
%ADD28R,0.550000X0.650000*%
%TD*%
%TA.AperFunction,SMDPad,CuDef*%
%ADD29R,0.850000X0.250000*%
%TD*%
%TA.AperFunction,SMDPad,CuDef*%
%ADD30R,0.400000X0.650000*%
%TD*%
%TA.AperFunction,ComponentPad*%
%ADD31C,1.200000*%
%TD*%
%TA.AperFunction,ComponentPad*%
%ADD32C,1.100000*%
%TD*%
%TA.AperFunction,SMDPad,CuDef*%
%ADD33C,0.800000*%
%TD*%
G04 APERTURE END LIST*
D10*
%TO.P,J1,A1*%
%TO.N,BAT_HUMAN_GND*%
X2500000Y-29000000D03*
%TO.P,J1,A4*%
%TO.N,VBUS_5V*%
X2500000Y-28000000D03*
%TO.P,J1,A6*%
%TO.N,USB_D_PLUS*%
X2500000Y-27000000D03*
%TO.P,J1,A7*%
%TO.N,USB_D_MINUS*%
X2500000Y-26000000D03*
%TO.P,J1,B1*%
%TO.N,BAT_HUMAN_GND*%
X7500000Y-29000000D03*
%TO.P,J1,B4*%
%TO.N,VBUS_5V*%
X7500000Y-28000000D03*
%TO.P,J1,B6*%
%TO.N,USB_D_PLUS*%
X7500000Y-27000000D03*
%TO.P,J1,B7*%
%TO.N,USB_D_MINUS*%
X7500000Y-26000000D03*
D11*
%TO.P,J1,SH1*%
%TO.N,BAT_HUMAN_GND*%
X5000000Y-31000000D03*
%TO.P,J1,SH2*%
X5000000Y-24000000D03*
%TD*%
D12*
%TO.P,J2,1*%
%TO.N,VBAT*%
X10000000Y-7000000D03*
D13*
%TO.P,J2,2*%
%TO.N,BAT_HUMAN_GND*%
X12000000Y-7000000D03*
%TO.P,J2,3*%
X14000000Y-7000000D03*
%TD*%
D14*
%TO.P,F1,1*%
%TO.N,VBUS_5V*%
X13150000Y-20000000D03*
%TO.P,F1,2*%
X14850000Y-20000000D03*
%TD*%
D15*
%TO.P,U2,1*%
%TO.N,VBUS_5V*%
X16600000Y-17250000D03*
%TO.P,U2,2*%
%TO.N,BAT_HUMAN_GND*%
X16600000Y-17750000D03*
%TO.P,U2,3*%
X16600000Y-18250000D03*
%TO.P,U2,4*%
X16600000Y-18750000D03*
D16*
%TO.P,U2,5*%
X17250000Y-19400000D03*
%TO.P,U2,6*%
%TO.N,V_SYS*%
X17750000Y-19400000D03*
%TO.P,U2,7*%
X18250000Y-19400000D03*
%TO.P,U2,8*%
%TO.N,USB_PRESENT*%
X18750000Y-19400000D03*
D15*
%TO.P,U2,9*%
%TO.N,BAT_HUMAN_GND*%
X19400000Y-18750000D03*
%TO.P,U2,10*%
X19400000Y-18250000D03*
%TO.P,U2,11*%
X19400000Y-17750000D03*
%TO.P,U2,12*%
X19400000Y-17250000D03*
D16*
%TO.P,U2,13*%
%TO.N,VBAT*%
X18750000Y-16600000D03*
%TO.P,U2,14*%
%TO.N,BAT_HUMAN_GND*%
X18250000Y-16600000D03*
%TO.P,U2,15*%
X17750000Y-16600000D03*
%TO.P,U2,16*%
X17250000Y-16600000D03*
D17*
%TO.P,U2,17*%
X18000000Y-18000000D03*
%TD*%
D18*
%TO.P,U3,1*%
%TO.N,V_SYS*%
X16800000Y-27250000D03*
%TO.P,U3,2*%
X16800000Y-27750000D03*
%TO.P,U3,3*%
%TO.N,BAT_HUMAN_GND*%
X16800000Y-28250000D03*
%TO.P,U3,4*%
X16800000Y-28750000D03*
D19*
%TO.P,U3,5*%
%TO.N,+3V3_DIG*%
X17250000Y-29200000D03*
%TO.P,U3,6*%
X17750000Y-29200000D03*
%TO.P,U3,7*%
X18250000Y-29200000D03*
%TO.P,U3,8*%
X18750000Y-29200000D03*
D18*
%TO.P,U3,9*%
X19200000Y-28750000D03*
%TO.P,U3,10*%
%TO.N,BAT_HUMAN_GND*%
X19200000Y-28250000D03*
%TO.P,U3,11*%
%TO.N,SAFETY_POWER_GOOD*%
X19200000Y-27750000D03*
%TO.P,U3,12*%
%TO.N,V_SYS*%
X19200000Y-27250000D03*
D19*
%TO.P,U3,13*%
%TO.N,BAT_HUMAN_GND*%
X18500000Y-26800000D03*
%TO.P,U3,14*%
%TO.N,V_SYS*%
X18000000Y-26800000D03*
%TO.P,U3,15*%
%TO.N,BAT_HUMAN_GND*%
X17500000Y-26800000D03*
D20*
%TO.P,U3,16*%
X18000000Y-28000000D03*
%TD*%
D21*
%TO.P,L1,1*%
%TO.N,V_SYS*%
X22800000Y-28000000D03*
%TO.P,L1,2*%
%TO.N,+3V3_DIG*%
X25200000Y-28000000D03*
%TD*%
D22*
%TO.P,U1,1*%
%TO.N,BAT_HUMAN_GND*%
X37250000Y-11300000D03*
%TO.P,U1,2*%
%TO.N,+3V3_DIG*%
X37250000Y-12570000D03*
%TO.P,U1,3*%
%TO.N,BAT_HUMAN_GND*%
X37250000Y-13840000D03*
%TO.P,U1,4*%
%TO.N,SD_CLK*%
X37250000Y-15110000D03*
%TO.P,U1,5*%
%TO.N,SD_CMD*%
X37250000Y-16380000D03*
%TO.P,U1,6*%
%TO.N,SD_D0*%
X37250000Y-17650000D03*
%TO.P,U1,7*%
%TO.N,SD_D1*%
X37250000Y-18920000D03*
%TO.P,U1,8*%
%TO.N,SYS_I2C_SDA*%
X37250000Y-20190000D03*
%TO.P,U1,9*%
%TO.N,SYS_I2C_SCL*%
X37250000Y-21460000D03*
%TO.P,U1,10*%
%TO.N,IMU_SCLK*%
X37250000Y-22730000D03*
%TO.P,U1,11*%
%TO.N,IMU_MOSI*%
X37250000Y-24000000D03*
%TO.P,U1,12*%
%TO.N,IMU_MISO*%
X37250000Y-25270000D03*
%TO.P,U1,13*%
%TO.N,IMU_CS_N*%
X37250000Y-26540000D03*
%TO.P,U1,14*%
%TO.N,IMU_DRDY*%
X37250000Y-27810000D03*
%TO.P,U1,15*%
%TO.N,SD_D2*%
X37250000Y-29080000D03*
%TO.P,U1,16*%
%TO.N,SD_D3*%
X37250000Y-30350000D03*
%TO.P,U1,17*%
%TO.N,PPG_SDA_3V3*%
X37250000Y-31620000D03*
%TO.P,U1,18*%
%TO.N,PPG_SCL_3V3*%
X37250000Y-32890000D03*
%TO.P,U1,19*%
%TO.N,USB_D_MINUS*%
X37250000Y-34160000D03*
%TO.P,U1,20*%
%TO.N,USB_D_PLUS*%
X37250000Y-35430000D03*
%TO.P,U1,21*%
%TO.N,PPG_INT*%
X37250000Y-36700000D03*
%TO.P,U1,22*%
%TO.N,BAT_HUMAN_GND*%
X54750000Y-34160000D03*
%TO.P,U1,23*%
%TO.N,SYNC_OUT_DRIVE*%
X54750000Y-32890000D03*
%TO.P,U1,24*%
%TO.N,SYNC_IN_CAPTURE*%
X54750000Y-31620000D03*
%TO.P,U1,25*%
%TO.N,BAT_HUMAN_GND*%
X54750000Y-30350000D03*
%TO.P,U1,26*%
X54750000Y-29080000D03*
%TO.P,U1,27*%
X54750000Y-27810000D03*
%TO.P,U1,28*%
%TO.N,ISO_HEALTH_CHALLENGE*%
X54750000Y-26540000D03*
%TO.P,U1,29*%
%TO.N,EDA_SCLK*%
X54750000Y-25270000D03*
%TO.P,U1,30*%
%TO.N,EDA_MOSI*%
X54750000Y-24000000D03*
%TO.P,U1,31*%
%TO.N,EDA_MISO*%
X54750000Y-22730000D03*
%TO.P,U1,32*%
%TO.N,EDA_CS_N*%
X54750000Y-21460000D03*
%TO.P,U1,33*%
%TO.N,UART_TX*%
X54750000Y-20190000D03*
%TO.P,U1,34*%
%TO.N,UART_RX*%
X54750000Y-18920000D03*
%TO.P,U1,35*%
%TO.N,EDA_FW_REQUEST*%
X54750000Y-17650000D03*
%TO.P,U1,36*%
%TO.N,HAPTIC_CURRENT_EDGE*%
X54750000Y-16380000D03*
%TO.P,U1,37*%
%TO.N,EDA_DRDY*%
X54750000Y-15110000D03*
%TO.P,U1,38*%
%TO.N,SYS_STATUS_INT_N*%
X54750000Y-13840000D03*
%TO.P,U1,39*%
%TO.N,BAT_HUMAN_GND*%
X54750000Y-12570000D03*
%TO.P,U1,40*%
X54750000Y-11300000D03*
D23*
%TO.P,U1,41*%
X46000000Y-24000000D03*
%TD*%
D24*
%TO.P,U30,1*%
%TO.N,+3V3_DIG*%
X66250000Y-23055000D03*
%TO.P,U30,2*%
%TO.N,BAT_HUMAN_GND*%
X66250000Y-24325000D03*
%TO.P,U30,3*%
%TO.N,SYNC_IN_CAPTURE*%
X66250000Y-25595000D03*
%TO.P,U30,4*%
%TO.N,SYNC_OUT_DRIVE*%
X66250000Y-26865000D03*
%TO.P,U30,5*%
%TO.N,ISO_HEALTH_STATUS*%
X66250000Y-28135000D03*
%TO.P,U30,6*%
%TO.N,BAT_HUMAN_GND*%
X66250000Y-29405000D03*
%TO.P,U30,7*%
%TO.N,+3V3_DIG*%
X66250000Y-30675000D03*
%TO.P,U30,8*%
%TO.N,BAT_HUMAN_GND*%
X66250000Y-31945000D03*
%TO.P,U30,9*%
%TO.N,LAB_ISO_GND*%
X75750000Y-31945000D03*
%TO.P,U30,10*%
%TO.N,VISO*%
X75750000Y-30675000D03*
%TO.P,U30,11*%
%TO.N,SYNC_OUT_LAB*%
X75750000Y-29405000D03*
%TO.P,U30,12*%
%TO.N,SYNC_IN_LAB*%
X75750000Y-28135000D03*
%TO.P,U30,13*%
%TO.N,ISO_HEALTH_CHALLENGE*%
X75750000Y-26865000D03*
%TO.P,U30,14*%
%TO.N,LAB_ISO_GND*%
X75750000Y-25595000D03*
%TO.P,U30,15*%
X75750000Y-24325000D03*
%TO.P,U30,16*%
%TO.N,VISO*%
X75750000Y-23055000D03*
%TD*%
D25*
%TO.P,J30,1*%
%TO.N,SYNC_IN_LAB*%
X80000000Y-14000000D03*
D26*
%TO.P,J30,2*%
%TO.N,LAB_ISO_GND*%
X82540000Y-11460000D03*
%TO.P,J30,3*%
X77460000Y-11460000D03*
%TD*%
D25*
%TO.P,J31,1*%
%TO.N,SYNC_OUT_LAB*%
X80000000Y-41000000D03*
D26*
%TO.P,J31,2*%
%TO.N,LAB_ISO_GND*%
X82540000Y-38460000D03*
%TO.P,J31,3*%
X77460000Y-38460000D03*
%TD*%
D12*
%TO.P,J10,1*%
%TO.N,EDA_DRIVE_P*%
X3000000Y-46000000D03*
D13*
%TO.P,J10,2*%
%TO.N,EDA_DRIVE_N*%
X5000000Y-46000000D03*
%TO.P,J10,3*%
%TO.N,EDA_SENSE_P*%
X7000000Y-46000000D03*
%TO.P,J10,4*%
%TO.N,EDA_SENSE_N*%
X9000000Y-46000000D03*
%TD*%
D27*
%TO.P,K1,1*%
%TO.N,EDA_ACTIVE*%
X13800000Y-42730000D03*
%TO.P,K1,4*%
%TO.N,EDA_DRIVE_P*%
X18200000Y-42730000D03*
%TO.P,K1,2*%
%TO.N,BAT_HUMAN_GND*%
X13800000Y-45270000D03*
%TO.P,K1,3*%
%TO.N,EDA_DRIVE_P*%
X18200000Y-45270000D03*
%TD*%
%TO.P,K2,1*%
%TO.N,EDA_ACTIVE*%
X19800000Y-42730000D03*
%TO.P,K2,4*%
%TO.N,EDA_DRIVE_N*%
X24200000Y-42730000D03*
%TO.P,K2,2*%
%TO.N,BAT_HUMAN_GND*%
X19800000Y-45270000D03*
%TO.P,K2,3*%
%TO.N,EDA_DRIVE_N*%
X24200000Y-45270000D03*
%TD*%
D28*
%TO.P,R_EDA_A1,1*%
%TO.N,EDA_DRIVE_P*%
X12800000Y-49000000D03*
%TO.P,R_EDA_A1,2*%
X14200000Y-49000000D03*
%TD*%
%TO.P,R_EDA_A2,1*%
%TO.N,EDA_DRIVE_P*%
X16800000Y-49000000D03*
%TO.P,R_EDA_A2,2*%
X18200000Y-49000000D03*
%TD*%
%TO.P,R_EDA_B1,1*%
%TO.N,EDA_DRIVE_N*%
X20800000Y-49000000D03*
%TO.P,R_EDA_B1,2*%
X22200000Y-49000000D03*
%TD*%
%TO.P,R_EDA_B2,1*%
%TO.N,EDA_DRIVE_N*%
X24800000Y-49000000D03*
%TO.P,R_EDA_B2,2*%
X26200000Y-49000000D03*
%TD*%
D29*
%TO.P,U10,1*%
%TO.N,+3V3_EDA_A*%
X26800000Y-41725000D03*
%TO.P,U10,16*%
X31200000Y-41725000D03*
%TO.P,U10,2*%
%TO.N,EDA_DRDY*%
X26800000Y-42375000D03*
%TO.P,U10,15*%
%TO.N,BAT_HUMAN_GND*%
X31200000Y-42375000D03*
%TO.P,U10,3*%
%TO.N,EDA_CS_N*%
X26800000Y-43025000D03*
%TO.P,U10,14*%
%TO.N,BAT_HUMAN_GND*%
X31200000Y-43025000D03*
%TO.P,U10,4*%
%TO.N,EDA_SCLK*%
X26800000Y-43675000D03*
%TO.P,U10,13*%
%TO.N,BAT_HUMAN_GND*%
X31200000Y-43675000D03*
%TO.P,U10,5*%
%TO.N,EDA_MOSI*%
X26800000Y-44325000D03*
%TO.P,U10,12*%
%TO.N,BAT_HUMAN_GND*%
X31200000Y-44325000D03*
%TO.P,U10,6*%
%TO.N,EDA_MISO*%
X26800000Y-44975000D03*
%TO.P,U10,11*%
%TO.N,BAT_HUMAN_GND*%
X31200000Y-44975000D03*
%TO.P,U10,7*%
X26800000Y-45625000D03*
%TO.P,U10,10*%
%TO.N,EDA_SENSE_N*%
X31200000Y-45625000D03*
%TO.P,U10,8*%
%TO.N,BAT_HUMAN_GND*%
X26800000Y-46275000D03*
%TO.P,U10,9*%
%TO.N,EDA_SENSE_P*%
X31200000Y-46275000D03*
%TD*%
D27*
%TO.P,U11,1*%
%TO.N,EDA_SENSE_P*%
X33050000Y-42095000D03*
%TO.P,U11,8*%
%TO.N,+3V3_EDA_A*%
X36950000Y-42095000D03*
%TO.P,U11,2*%
%TO.N,EDA_SENSE_P*%
X33050000Y-43365000D03*
%TO.P,U11,7*%
%TO.N,EDA_SENSE_N*%
X36950000Y-43365000D03*
%TO.P,U11,3*%
%TO.N,EDA_DRIVE_P*%
X33050000Y-44635000D03*
%TO.P,U11,6*%
%TO.N,EDA_SENSE_N*%
X36950000Y-44635000D03*
%TO.P,U11,4*%
%TO.N,BAT_HUMAN_GND*%
X33050000Y-45905000D03*
%TO.P,U11,5*%
%TO.N,EDA_DRIVE_N*%
X36950000Y-45905000D03*
%TD*%
%TO.P,U12,1*%
%TO.N,+3V3_EDA_A*%
X39050000Y-42095000D03*
%TO.P,U12,8*%
%TO.N,BAT_HUMAN_GND*%
X42950000Y-42095000D03*
%TO.P,U12,2*%
%TO.N,+3V3_EDA_A*%
X39050000Y-43365000D03*
%TO.P,U12,7*%
X42950000Y-43365000D03*
%TO.P,U12,3*%
%TO.N,BAT_HUMAN_GND*%
X39050000Y-44635000D03*
%TO.P,U12,6*%
X42950000Y-44635000D03*
%TO.P,U12,4*%
X39050000Y-45905000D03*
%TO.P,U12,5*%
X42950000Y-45905000D03*
%TD*%
D30*
%TO.P,U4,1*%
%TO.N,VBAT*%
X23950000Y-13050000D03*
%TO.P,U4,2*%
%TO.N,BAT_HUMAN_GND*%
X23950000Y-14000000D03*
%TO.P,U4,3*%
%TO.N,BATTERY_VALID*%
X23950000Y-14950000D03*
%TO.P,U4,4*%
%TO.N,BAT_HUMAN_GND*%
X26050000Y-13050000D03*
%TO.P,U4,5*%
X26050000Y-14000000D03*
%TO.P,U4,6*%
%TO.N,+3V3_DIG*%
X26050000Y-14950000D03*
%TD*%
%TO.P,U5,1*%
%TO.N,V_SYS*%
X23950000Y-19050000D03*
%TO.P,U5,2*%
%TO.N,BAT_HUMAN_GND*%
X23950000Y-20000000D03*
%TO.P,U5,3*%
%TO.N,SAFETY_POWER_GOOD*%
X23950000Y-20950000D03*
%TO.P,U5,4*%
%TO.N,BAT_HUMAN_GND*%
X26050000Y-19050000D03*
%TO.P,U5,5*%
X26050000Y-20000000D03*
%TO.P,U5,6*%
%TO.N,+3V3_DIG*%
X26050000Y-20950000D03*
%TD*%
%TO.P,U13,1*%
%TO.N,+3V3_EDA_A*%
X28450000Y-49050000D03*
%TO.P,U13,2*%
%TO.N,BAT_HUMAN_GND*%
X28450000Y-50000000D03*
%TO.P,U13,3*%
%TO.N,EDA_ANALOG_GOOD*%
X28450000Y-50950000D03*
%TO.P,U13,4*%
%TO.N,BAT_HUMAN_GND*%
X30550000Y-49050000D03*
%TO.P,U13,5*%
X30550000Y-50000000D03*
%TO.P,U13,6*%
%TO.N,+3V3_DIG*%
X30550000Y-50950000D03*
%TD*%
%TO.P,U14,1*%
%TO.N,EDA_FW_REQUEST*%
X33450000Y-49050000D03*
%TO.P,U14,2*%
%TO.N,EDA_ANALOG_GOOD*%
X33450000Y-50000000D03*
%TO.P,U14,3*%
%TO.N,BAT_HUMAN_GND*%
X33450000Y-50950000D03*
%TO.P,U14,4*%
%TO.N,EDA_PREPARE*%
X35550000Y-49050000D03*
%TO.P,U14,5*%
%TO.N,+3V3_DIG*%
X35550000Y-50000000D03*
%TD*%
%TO.P,U15,1*%
%TO.N,EDA_PREPARE*%
X37950000Y-49050000D03*
%TO.P,U15,2*%
%TO.N,SAFETY_POWER_GOOD*%
X37950000Y-50000000D03*
%TO.P,U15,3*%
%TO.N,BAT_HUMAN_GND*%
X37950000Y-50950000D03*
%TO.P,U15,4*%
%TO.N,EDA_ACTIVE*%
X40050000Y-49050000D03*
%TO.P,U15,5*%
%TO.N,+3V3_DIG*%
X40050000Y-50000000D03*
%TD*%
%TO.P,Q1,1*%
%TO.N,SAFETY_POWER_GOOD*%
X18950000Y-7050000D03*
%TO.P,Q1,2*%
%TO.N,BAT_HUMAN_GND*%
X18950000Y-8000000D03*
%TO.P,Q1,3*%
%TO.N,V_SYS*%
X18950000Y-8950000D03*
%TO.P,Q1,4*%
%TO.N,BAT_HUMAN_GND*%
X21050000Y-7050000D03*
%TO.P,Q1,5*%
%TO.N,+3V3_DIG*%
X21050000Y-8000000D03*
%TO.P,Q1,6*%
%TO.N,BAT_HUMAN_GND*%
X21050000Y-8950000D03*
%TD*%
%TO.P,Q2,1*%
%TO.N,SAFETY_POWER_GOOD*%
X23950000Y-7050000D03*
%TO.P,Q2,2*%
%TO.N,BAT_HUMAN_GND*%
X23950000Y-8000000D03*
%TO.P,Q2,3*%
%TO.N,V_SYS*%
X23950000Y-8950000D03*
%TO.P,Q2,4*%
%TO.N,BAT_HUMAN_GND*%
X26050000Y-7050000D03*
%TO.P,Q2,5*%
%TO.N,+3V3_DIG*%
X26050000Y-8000000D03*
%TO.P,Q2,6*%
%TO.N,BAT_HUMAN_GND*%
X26050000Y-8950000D03*
%TD*%
%TO.P,Q3,1*%
%TO.N,SAFETY_POWER_GOOD*%
X28950000Y-7050000D03*
%TO.P,Q3,2*%
%TO.N,BAT_HUMAN_GND*%
X28950000Y-8000000D03*
%TO.P,Q3,3*%
%TO.N,V_SYS*%
X28950000Y-8950000D03*
%TO.P,Q3,4*%
%TO.N,BAT_HUMAN_GND*%
X31050000Y-7050000D03*
%TO.P,Q3,5*%
%TO.N,+3V3_DIG*%
X31050000Y-8000000D03*
%TO.P,Q3,6*%
%TO.N,BAT_HUMAN_GND*%
X31050000Y-8950000D03*
%TD*%
%TO.P,Q4,1*%
%TO.N,SAFETY_POWER_GOOD*%
X18950000Y-12050000D03*
%TO.P,Q4,2*%
%TO.N,BAT_HUMAN_GND*%
X18950000Y-13000000D03*
%TO.P,Q4,3*%
%TO.N,V_SYS*%
X18950000Y-13950000D03*
%TO.P,Q4,4*%
%TO.N,BAT_HUMAN_GND*%
X21050000Y-12050000D03*
%TO.P,Q4,5*%
%TO.N,+3V3_DIG*%
X21050000Y-13000000D03*
%TO.P,Q4,6*%
%TO.N,BAT_HUMAN_GND*%
X21050000Y-13950000D03*
%TD*%
%TO.P,Q5,1*%
%TO.N,SAFETY_POWER_GOOD*%
X28950000Y-12050000D03*
%TO.P,Q5,2*%
%TO.N,BAT_HUMAN_GND*%
X28950000Y-13000000D03*
%TO.P,Q5,3*%
%TO.N,V_SYS*%
X28950000Y-13950000D03*
%TO.P,Q5,4*%
%TO.N,BAT_HUMAN_GND*%
X31050000Y-12050000D03*
%TO.P,Q5,5*%
%TO.N,+3V3_DIG*%
X31050000Y-13000000D03*
%TO.P,Q5,6*%
%TO.N,BAT_HUMAN_GND*%
X31050000Y-13950000D03*
%TD*%
%TO.P,Q7,1*%
%TO.N,SAFETY_POWER_GOOD*%
X28950000Y-17050000D03*
%TO.P,Q7,2*%
%TO.N,BAT_HUMAN_GND*%
X28950000Y-18000000D03*
%TO.P,Q7,3*%
%TO.N,V_SYS*%
X28950000Y-18950000D03*
%TO.P,Q7,4*%
%TO.N,BAT_HUMAN_GND*%
X31050000Y-17050000D03*
%TO.P,Q7,5*%
%TO.N,+3V3_EDA_A*%
X31050000Y-18000000D03*
%TO.P,Q7,6*%
%TO.N,BAT_HUMAN_GND*%
X31050000Y-18950000D03*
%TD*%
D27*
%TO.P,U6,1*%
%TO.N,BAT_HUMAN_GND*%
X31250000Y-23745000D03*
%TO.P,U6,28*%
X38750000Y-23745000D03*
%TO.P,U6,2*%
X31250000Y-25015000D03*
%TO.P,U6,27*%
X38750000Y-25015000D03*
%TO.P,U6,3*%
X31250000Y-26285000D03*
%TO.P,U6,26*%
X38750000Y-26285000D03*
%TO.P,U6,4*%
X31250000Y-27555000D03*
%TO.P,U6,25*%
X38750000Y-27555000D03*
%TO.P,U6,5*%
X31250000Y-28825000D03*
%TO.P,U6,24*%
X38750000Y-28825000D03*
%TO.P,U6,6*%
X31250000Y-30095000D03*
%TO.P,U6,23*%
X38750000Y-30095000D03*
%TO.P,U6,7*%
X31250000Y-31365000D03*
%TO.P,U6,22*%
X38750000Y-31365000D03*
%TO.P,U6,8*%
X31250000Y-32635000D03*
%TO.P,U6,21*%
X38750000Y-32635000D03*
%TO.P,U6,9*%
X31250000Y-33905000D03*
%TO.P,U6,20*%
X38750000Y-33905000D03*
%TO.P,U6,10*%
X31250000Y-35175000D03*
%TO.P,U6,19*%
X38750000Y-35175000D03*
%TO.P,U6,11*%
X31250000Y-36445000D03*
%TO.P,U6,18*%
X38750000Y-36445000D03*
%TO.P,U6,12*%
X31250000Y-37715000D03*
%TO.P,U6,17*%
X38750000Y-37715000D03*
%TO.P,U6,13*%
X31250000Y-38985000D03*
%TO.P,U6,16*%
X38750000Y-38985000D03*
%TO.P,U6,14*%
X31250000Y-40255000D03*
%TO.P,U6,15*%
X38750000Y-40255000D03*
%TD*%
D29*
%TO.P,U20,1*%
%TO.N,BAT_HUMAN_GND*%
X56500000Y-11250000D03*
%TO.P,U20,24*%
X59500000Y-11250000D03*
%TO.P,U20,2*%
X56500000Y-11750000D03*
%TO.P,U20,23*%
X59500000Y-11750000D03*
%TO.P,U20,3*%
X56500000Y-12250000D03*
%TO.P,U20,22*%
X59500000Y-12250000D03*
%TO.P,U20,4*%
X56500000Y-12750000D03*
%TO.P,U20,21*%
X59500000Y-12750000D03*
%TO.P,U20,5*%
X56500000Y-13250000D03*
%TO.P,U20,20*%
X59500000Y-13250000D03*
%TO.P,U20,6*%
X56500000Y-13750000D03*
%TO.P,U20,19*%
X59500000Y-13750000D03*
%TO.P,U20,7*%
X56500000Y-14250000D03*
%TO.P,U20,18*%
X59500000Y-14250000D03*
%TO.P,U20,8*%
X56500000Y-14750000D03*
%TO.P,U20,17*%
X59500000Y-14750000D03*
%TO.P,U20,9*%
X56500000Y-15250000D03*
%TO.P,U20,16*%
X59500000Y-15250000D03*
%TO.P,U20,10*%
X56500000Y-15750000D03*
%TO.P,U20,15*%
X59500000Y-15750000D03*
%TO.P,U20,11*%
X56500000Y-16250000D03*
%TO.P,U20,14*%
X59500000Y-16250000D03*
%TO.P,U20,12*%
X56500000Y-16750000D03*
%TO.P,U20,13*%
X59500000Y-16750000D03*
%TD*%
%TO.P,U40,1*%
%TO.N,BAT_HUMAN_GND*%
X56500000Y-21000000D03*
%TO.P,U40,10*%
X59500000Y-21000000D03*
%TO.P,U40,2*%
X56500000Y-21500000D03*
%TO.P,U40,9*%
X59500000Y-21500000D03*
%TO.P,U40,3*%
X56500000Y-22000000D03*
%TO.P,U40,8*%
X59500000Y-22000000D03*
%TO.P,U40,4*%
X56500000Y-22500000D03*
%TO.P,U40,7*%
X59500000Y-22500000D03*
%TO.P,U40,5*%
X56500000Y-23000000D03*
%TO.P,U40,6*%
X59500000Y-23000000D03*
%TD*%
D30*
%TO.P,U41,1*%
%TO.N,HAPTIC_VDRV*%
X56950000Y-27050000D03*
%TO.P,U41,2*%
%TO.N,BAT_HUMAN_GND*%
X56950000Y-28000000D03*
%TO.P,U41,3*%
%TO.N,+3V3_DIG*%
X56950000Y-28950000D03*
%TO.P,U41,4*%
%TO.N,HAPTIC_CURRENT_EDGE*%
X59050000Y-27050000D03*
%TO.P,U41,5*%
%TO.N,+3V3_DIG*%
X59050000Y-28000000D03*
%TD*%
D31*
%TO.P,J20,1*%
%TO.N,N/C*%
X39400000Y-48000000D03*
%TO.P,J20,2*%
%TO.N,PPG_LED_PWR*%
X40800000Y-48000000D03*
%TO.P,J20,3*%
%TO.N,PPG_SDA_3V3*%
X42200000Y-48000000D03*
%TO.P,J20,4*%
%TO.N,PPG_SCL_3V3*%
X43600000Y-48000000D03*
%TO.P,J20,5*%
%TO.N,PPG_INT*%
X45000000Y-48000000D03*
%TO.P,J20,6*%
%TO.N,PPG_MOTION_INT*%
X46400000Y-48000000D03*
%TO.P,J20,7*%
%TO.N,PPG_BOARD_ID*%
X47800000Y-48000000D03*
%TO.P,J20,8*%
%TO.N,BAT_HUMAN_GND*%
X49200000Y-48000000D03*
%TO.P,J20,9*%
X50600000Y-48000000D03*
%TD*%
D32*
%TO.P,J21,1*%
%TO.N,SD_D0*%
X55450000Y-48000000D03*
%TO.P,J21,2*%
%TO.N,SD_D1*%
X56750000Y-48000000D03*
%TO.P,J21,3*%
%TO.N,SD_D2*%
X58050000Y-48000000D03*
%TO.P,J21,4*%
%TO.N,SD_D3*%
X59350000Y-48000000D03*
%TO.P,J21,5*%
%TO.N,SD_CLK*%
X60650000Y-48000000D03*
%TO.P,J21,6*%
%TO.N,SD_CMD*%
X61950000Y-48000000D03*
%TO.P,J21,7*%
%TO.N,BAT_HUMAN_GND*%
X63250000Y-48000000D03*
%TO.P,J21,8*%
%TO.N,+3V3_DIG*%
X64550000Y-48000000D03*
%TD*%
D13*
%TO.P,J40,1*%
%TO.N,HAPTIC_VDRV*%
X34200000Y-7000000D03*
%TO.P,J40,2*%
%TO.N,HAPTIC_CURRENT_EDGE*%
X36000000Y-7000000D03*
%TO.P,J40,3*%
%TO.N,BAT_HUMAN_GND*%
X37800000Y-7000000D03*
%TD*%
%TO.P,J41,1*%
%TO.N,SYS_I2C_SDA*%
X41300000Y-7000000D03*
%TO.P,J41,2*%
%TO.N,SYS_I2C_SCL*%
X43100000Y-7000000D03*
%TO.P,J41,3*%
%TO.N,BAT_HUMAN_GND*%
X44900000Y-7000000D03*
%TO.P,J41,4*%
%TO.N,+3V3_DIG*%
X46700000Y-7000000D03*
%TD*%
%TO.P,J42,1*%
%TO.N,EXP_3V3*%
X49400000Y-7000000D03*
%TO.P,J42,2*%
%TO.N,EXP_UART_TX*%
X51200000Y-7000000D03*
%TO.P,J42,3*%
%TO.N,EXP_UART_RX*%
X53000000Y-7000000D03*
%TO.P,J42,4*%
%TO.N,EXTERNAL_EXPANSION_ATTACHED*%
X54800000Y-7000000D03*
%TO.P,J42,5*%
%TO.N,BAT_HUMAN_GND*%
X56600000Y-7000000D03*
%TD*%
%TO.P,J11,1*%
%TO.N,EDA_DRIVE_P*%
X10100000Y-40000000D03*
%TO.P,J11,2*%
%TO.N,EDA_DRIVE_N*%
X11900000Y-40000000D03*
%TD*%
D28*
%TO.P,S1,1*%
%TO.N,BAT_HUMAN_GND*%
X34300000Y-14000000D03*
%TO.P,S1,2*%
%TO.N,+3V3_DIG*%
X35700000Y-14000000D03*
%TD*%
%TO.P,S2,1*%
%TO.N,BAT_HUMAN_GND*%
X34300000Y-18000000D03*
%TO.P,S2,2*%
%TO.N,+3V3_DIG*%
X35700000Y-18000000D03*
%TD*%
%TO.P,S20,1*%
%TO.N,BAT_HUMAN_GND*%
X57300000Y-36000000D03*
%TO.P,S20,2*%
%TO.N,+3V3_DIG*%
X58700000Y-36000000D03*
%TD*%
%TO.P,R1,1*%
%TO.N,USB_D_PLUS*%
X9300000Y-24200000D03*
%TO.P,R1,2*%
%TO.N,USB_D_MINUS*%
X10700000Y-24200000D03*
%TD*%
%TO.P,R2,1*%
%TO.N,USB_D_PLUS*%
X9300000Y-26400000D03*
%TO.P,R2,2*%
%TO.N,USB_D_MINUS*%
X10700000Y-26400000D03*
%TD*%
%TO.P,R3,1*%
%TO.N,USB_D_PLUS*%
X9300000Y-28600000D03*
%TO.P,R3,2*%
%TO.N,USB_D_MINUS*%
X10700000Y-28600000D03*
%TD*%
%TO.P,R4,1*%
%TO.N,USB_D_PLUS*%
X9300000Y-30800000D03*
%TO.P,R4,2*%
%TO.N,USB_D_MINUS*%
X10700000Y-30800000D03*
%TD*%
%TO.P,RSD1,1*%
%TO.N,SD_CLK*%
X63300000Y-8400000D03*
%TO.P,RSD1,2*%
%TO.N,SD_CMD*%
X64700000Y-8400000D03*
%TD*%
%TO.P,RSD2,1*%
%TO.N,SD_CLK*%
X63300000Y-10800000D03*
%TO.P,RSD2,2*%
%TO.N,SD_CMD*%
X64700000Y-10800000D03*
%TD*%
%TO.P,RSD3,1*%
%TO.N,SD_CLK*%
X63300000Y-13200000D03*
%TO.P,RSD3,2*%
%TO.N,SD_CMD*%
X64700000Y-13200000D03*
%TD*%
%TO.P,RSD4,1*%
%TO.N,SD_CLK*%
X63300000Y-15600000D03*
%TO.P,RSD4,2*%
%TO.N,SD_CMD*%
X64700000Y-15600000D03*
%TD*%
%TO.P,RSD5,1*%
%TO.N,SD_CLK*%
X63300000Y-18000000D03*
%TO.P,RSD5,2*%
%TO.N,SD_CMD*%
X64700000Y-18000000D03*
%TD*%
%TO.P,RSD6,1*%
%TO.N,SD_CLK*%
X63300000Y-20400000D03*
%TO.P,RSD6,2*%
%TO.N,SD_CMD*%
X64700000Y-20400000D03*
%TD*%
%TO.P,RSH1,1*%
%TO.N,V_SYS*%
X10500000Y-34000000D03*
%TO.P,RSH1,2*%
%TO.N,+3V3_DIG*%
X11900000Y-34000000D03*
%TD*%
%TO.P,RSH2,1*%
%TO.N,V_SYS*%
X13700000Y-34000000D03*
%TO.P,RSH2,2*%
%TO.N,+3V3_DIG*%
X15100000Y-34000000D03*
%TD*%
%TO.P,RSH3,1*%
%TO.N,V_SYS*%
X16900000Y-34000000D03*
%TO.P,RSH3,2*%
%TO.N,+3V3_DIG*%
X18300000Y-34000000D03*
%TD*%
%TO.P,RSH4,1*%
%TO.N,V_SYS*%
X20100000Y-34000000D03*
%TO.P,RSH4,2*%
%TO.N,+3V3_DIG*%
X21500000Y-34000000D03*
%TD*%
%TO.P,RSH5,1*%
%TO.N,V_SYS*%
X23300000Y-34000000D03*
%TO.P,RSH5,2*%
%TO.N,+3V3_DIG*%
X24700000Y-34000000D03*
%TD*%
%TO.P,RSH6,1*%
%TO.N,V_SYS*%
X26500000Y-34000000D03*
%TO.P,RSH6,2*%
%TO.N,+3V3_DIG*%
X27900000Y-34000000D03*
%TD*%
%TO.P,JP1,1*%
%TO.N,V_SYS*%
X10500000Y-38000000D03*
%TO.P,JP1,2*%
%TO.N,+3V3_DIG*%
X11900000Y-38000000D03*
%TD*%
%TO.P,JP2,1*%
%TO.N,V_SYS*%
X13700000Y-38000000D03*
%TO.P,JP2,2*%
%TO.N,+3V3_DIG*%
X15100000Y-38000000D03*
%TD*%
%TO.P,JP3,1*%
%TO.N,V_SYS*%
X16900000Y-38000000D03*
%TO.P,JP3,2*%
%TO.N,+3V3_DIG*%
X18300000Y-38000000D03*
%TD*%
%TO.P,JP4,1*%
%TO.N,V_SYS*%
X20100000Y-38000000D03*
%TO.P,JP4,2*%
%TO.N,+3V3_DIG*%
X21500000Y-38000000D03*
%TD*%
%TO.P,JP5,1*%
%TO.N,V_SYS*%
X23300000Y-38000000D03*
%TO.P,JP5,2*%
%TO.N,+3V3_DIG*%
X24700000Y-38000000D03*
%TD*%
%TO.P,JP6,1*%
%TO.N,V_SYS*%
X26500000Y-38000000D03*
%TO.P,JP6,2*%
%TO.N,+3V3_DIG*%
X27900000Y-38000000D03*
%TD*%
D30*
%TO.P,D1,1*%
%TO.N,USB_D_PLUS*%
X8950000Y-15050000D03*
%TO.P,D1,2*%
%TO.N,BAT_HUMAN_GND*%
X8950000Y-16000000D03*
%TO.P,D1,3*%
%TO.N,USB_D_MINUS*%
X8950000Y-16950000D03*
%TO.P,D1,4*%
%TO.N,VBUS_5V*%
X11050000Y-15050000D03*
%TO.P,D1,5*%
%TO.N,BAT_HUMAN_GND*%
X11050000Y-16000000D03*
%TO.P,D1,6*%
%TO.N,VBUS_5V*%
X11050000Y-16950000D03*
%TD*%
%TO.P,D20,1*%
%TO.N,BAT_HUMAN_GND*%
X45950000Y-41050000D03*
%TO.P,D20,2*%
X45950000Y-42000000D03*
%TO.P,D20,3*%
X45950000Y-42950000D03*
%TO.P,D20,4*%
X48050000Y-41050000D03*
%TO.P,D20,5*%
X48050000Y-42000000D03*
%TO.P,D20,6*%
X48050000Y-42950000D03*
%TD*%
%TO.P,D21,1*%
%TO.N,BAT_HUMAN_GND*%
X57950000Y-41050000D03*
%TO.P,D21,2*%
X57950000Y-42000000D03*
%TO.P,D21,3*%
X57950000Y-42950000D03*
%TO.P,D21,4*%
X60050000Y-41050000D03*
%TO.P,D21,5*%
X60050000Y-42000000D03*
%TO.P,D21,6*%
X60050000Y-42950000D03*
%TD*%
%TO.P,D30,1*%
%TO.N,SYNC_OUT_LAB*%
X76950000Y-47050000D03*
%TO.P,D30,2*%
%TO.N,LAB_ISO_GND*%
X76950000Y-48000000D03*
%TO.P,D30,3*%
X79050000Y-47050000D03*
%TD*%
%TO.P,U31,1*%
%TO.N,SYNC_IN_LAB*%
X76950000Y-21050000D03*
%TO.P,U31,2*%
%TO.N,LAB_ISO_GND*%
X76950000Y-22000000D03*
%TO.P,U31,3*%
%TO.N,VISO*%
X76950000Y-22950000D03*
%TO.P,U31,4*%
%TO.N,SYNC_IN_LAB*%
X79050000Y-21050000D03*
%TO.P,U31,5*%
%TO.N,VISO*%
X79050000Y-22000000D03*
%TD*%
%TO.P,Q30,1*%
%TO.N,SYNC_OUT_LAB*%
X76950000Y-31050000D03*
%TO.P,Q30,2*%
%TO.N,LAB_ISO_GND*%
X76950000Y-32000000D03*
%TO.P,Q30,3*%
%TO.N,SYNC_OUT_LAB*%
X79050000Y-31050000D03*
%TD*%
D33*
%TO.P,TP1,1*%
%TO.N,BAT_HUMAN_GND*%
X8000000Y-3500000D03*
%TD*%
%TO.P,TP2,1*%
%TO.N,+3V3_DIG*%
X11600000Y-3500000D03*
%TD*%
%TO.P,TP3,1*%
%TO.N,BAT_HUMAN_GND*%
X15200000Y-3500000D03*
%TD*%
%TO.P,TP4,1*%
%TO.N,+3V3_DIG*%
X18800000Y-3500000D03*
%TD*%
%TO.P,TP5,1*%
%TO.N,BAT_HUMAN_GND*%
X22400000Y-3500000D03*
%TD*%
%TO.P,TP6,1*%
%TO.N,+3V3_DIG*%
X26000000Y-3500000D03*
%TD*%
%TO.P,TP7,1*%
%TO.N,BAT_HUMAN_GND*%
X29600000Y-3500000D03*
%TD*%
%TO.P,TP8,1*%
%TO.N,+3V3_DIG*%
X33200000Y-3500000D03*
%TD*%
%TO.P,TP9,1*%
%TO.N,BAT_HUMAN_GND*%
X44000000Y-52500000D03*
%TD*%
%TO.P,TP10,1*%
%TO.N,+3V3_DIG*%
X46600000Y-52500000D03*
%TD*%
%TO.P,TP11,1*%
%TO.N,BAT_HUMAN_GND*%
X49200000Y-52500000D03*
%TD*%
%TO.P,TP12,1*%
%TO.N,+3V3_DIG*%
X51800000Y-52500000D03*
%TD*%
%TO.P,TP13,1*%
%TO.N,BAT_HUMAN_GND*%
X54400000Y-52500000D03*
%TD*%
%TO.P,TP14,1*%
%TO.N,+3V3_DIG*%
X57000000Y-52500000D03*
%TD*%
%TO.P,TP15,1*%
%TO.N,BAT_HUMAN_GND*%
X59600000Y-52500000D03*
%TD*%
%TO.P,TP16,1*%
%TO.N,+3V3_DIG*%
X62200000Y-52500000D03*
%TD*%
M02*
