%TF.GenerationSoftware,KiCad,Pcbnew,10.0.5*%
%TF.CreationDate,2026-08-17T17:48:04-04:00*%
%TF.ProjectId,circle-main,63697263-6c65-42d6-9d61-696e2e6b6963,rev?*%
%TF.SameCoordinates,Original*%
%TF.FileFunction,Legend,Top*%
%TF.FilePolarity,Positive*%
%FSLAX46Y46*%
G04 Gerber Fmt 4.6, Leading zero omitted, Abs format (unit mm)*
G04 Created by KiCad (PCBNEW 10.0.5) date 2026-08-17 17:48:04*
%MOMM*%
%LPD*%
G01*
G04 APERTURE LIST*
%ADD10C,0.158750*%
G04 APERTURE END LIST*
D10*
X41032380Y-11309271D02*
X41032380Y-12337366D01*
X41032380Y-12337366D02*
X41092857Y-12458318D01*
X41092857Y-12458318D02*
X41153333Y-12518795D01*
X41153333Y-12518795D02*
X41274285Y-12579271D01*
X41274285Y-12579271D02*
X41516190Y-12579271D01*
X41516190Y-12579271D02*
X41637142Y-12518795D01*
X41637142Y-12518795D02*
X41697619Y-12458318D01*
X41697619Y-12458318D02*
X41758095Y-12337366D01*
X41758095Y-12337366D02*
X41758095Y-11309271D01*
X43028095Y-12579271D02*
X42302380Y-12579271D01*
X42665237Y-12579271D02*
X42665237Y-11309271D01*
X42665237Y-11309271D02*
X42544285Y-11490699D01*
X42544285Y-11490699D02*
X42423333Y-11611652D01*
X42423333Y-11611652D02*
X42302380Y-11672128D01*
X9032380Y-11309271D02*
X9032380Y-12337366D01*
X9032380Y-12337366D02*
X9092857Y-12458318D01*
X9092857Y-12458318D02*
X9153333Y-12518795D01*
X9153333Y-12518795D02*
X9274285Y-12579271D01*
X9274285Y-12579271D02*
X9516190Y-12579271D01*
X9516190Y-12579271D02*
X9637142Y-12518795D01*
X9637142Y-12518795D02*
X9697619Y-12458318D01*
X9697619Y-12458318D02*
X9758095Y-12337366D01*
X9758095Y-12337366D02*
X9758095Y-11309271D01*
X10302380Y-11430223D02*
X10362856Y-11369747D01*
X10362856Y-11369747D02*
X10483809Y-11309271D01*
X10483809Y-11309271D02*
X10786190Y-11309271D01*
X10786190Y-11309271D02*
X10907142Y-11369747D01*
X10907142Y-11369747D02*
X10967618Y-11430223D01*
X10967618Y-11430223D02*
X11028095Y-11551175D01*
X11028095Y-11551175D02*
X11028095Y-11672128D01*
X11028095Y-11672128D02*
X10967618Y-11853556D01*
X10967618Y-11853556D02*
X10241904Y-12579271D01*
X10241904Y-12579271D02*
X11028095Y-12579271D01*
X9032380Y-21309271D02*
X9032380Y-22337366D01*
X9032380Y-22337366D02*
X9092857Y-22458318D01*
X9092857Y-22458318D02*
X9153333Y-22518795D01*
X9153333Y-22518795D02*
X9274285Y-22579271D01*
X9274285Y-22579271D02*
X9516190Y-22579271D01*
X9516190Y-22579271D02*
X9637142Y-22518795D01*
X9637142Y-22518795D02*
X9697619Y-22458318D01*
X9697619Y-22458318D02*
X9758095Y-22337366D01*
X9758095Y-22337366D02*
X9758095Y-21309271D01*
X10241904Y-21309271D02*
X11028095Y-21309271D01*
X11028095Y-21309271D02*
X10604761Y-21793080D01*
X10604761Y-21793080D02*
X10786190Y-21793080D01*
X10786190Y-21793080D02*
X10907142Y-21853556D01*
X10907142Y-21853556D02*
X10967618Y-21914033D01*
X10967618Y-21914033D02*
X11028095Y-22034985D01*
X11028095Y-22034985D02*
X11028095Y-22337366D01*
X11028095Y-22337366D02*
X10967618Y-22458318D01*
X10967618Y-22458318D02*
X10907142Y-22518795D01*
X10907142Y-22518795D02*
X10786190Y-22579271D01*
X10786190Y-22579271D02*
X10423333Y-22579271D01*
X10423333Y-22579271D02*
X10302380Y-22518795D01*
X10302380Y-22518795D02*
X10241904Y-22458318D01*
X70427618Y-16649271D02*
X70427618Y-17677366D01*
X70427618Y-17677366D02*
X70488095Y-17798318D01*
X70488095Y-17798318D02*
X70548571Y-17858795D01*
X70548571Y-17858795D02*
X70669523Y-17919271D01*
X70669523Y-17919271D02*
X70911428Y-17919271D01*
X70911428Y-17919271D02*
X71032380Y-17858795D01*
X71032380Y-17858795D02*
X71092857Y-17798318D01*
X71092857Y-17798318D02*
X71153333Y-17677366D01*
X71153333Y-17677366D02*
X71153333Y-16649271D01*
X71637142Y-16649271D02*
X72423333Y-16649271D01*
X72423333Y-16649271D02*
X71999999Y-17133080D01*
X71999999Y-17133080D02*
X72181428Y-17133080D01*
X72181428Y-17133080D02*
X72302380Y-17193556D01*
X72302380Y-17193556D02*
X72362856Y-17254033D01*
X72362856Y-17254033D02*
X72423333Y-17374985D01*
X72423333Y-17374985D02*
X72423333Y-17677366D01*
X72423333Y-17677366D02*
X72362856Y-17798318D01*
X72362856Y-17798318D02*
X72302380Y-17858795D01*
X72302380Y-17858795D02*
X72181428Y-17919271D01*
X72181428Y-17919271D02*
X71818571Y-17919271D01*
X71818571Y-17919271D02*
X71697618Y-17858795D01*
X71697618Y-17858795D02*
X71637142Y-17798318D01*
X73209523Y-16649271D02*
X73330476Y-16649271D01*
X73330476Y-16649271D02*
X73451428Y-16709747D01*
X73451428Y-16709747D02*
X73511904Y-16770223D01*
X73511904Y-16770223D02*
X73572380Y-16891175D01*
X73572380Y-16891175D02*
X73632857Y-17133080D01*
X73632857Y-17133080D02*
X73632857Y-17435461D01*
X73632857Y-17435461D02*
X73572380Y-17677366D01*
X73572380Y-17677366D02*
X73511904Y-17798318D01*
X73511904Y-17798318D02*
X73451428Y-17858795D01*
X73451428Y-17858795D02*
X73330476Y-17919271D01*
X73330476Y-17919271D02*
X73209523Y-17919271D01*
X73209523Y-17919271D02*
X73088571Y-17858795D01*
X73088571Y-17858795D02*
X73028095Y-17798318D01*
X73028095Y-17798318D02*
X72967618Y-17677366D01*
X72967618Y-17677366D02*
X72907142Y-17435461D01*
X72907142Y-17435461D02*
X72907142Y-17133080D01*
X72907142Y-17133080D02*
X72967618Y-16891175D01*
X72967618Y-16891175D02*
X73028095Y-16770223D01*
X73028095Y-16770223D02*
X73088571Y-16709747D01*
X73088571Y-16709747D02*
X73209523Y-16649271D01*
X2576667Y-24809271D02*
X2576667Y-25716414D01*
X2576667Y-25716414D02*
X2516190Y-25897842D01*
X2516190Y-25897842D02*
X2395238Y-26018795D01*
X2395238Y-26018795D02*
X2213809Y-26079271D01*
X2213809Y-26079271D02*
X2092857Y-26079271D01*
X3846667Y-26079271D02*
X3120952Y-26079271D01*
X3483809Y-26079271D02*
X3483809Y-24809271D01*
X3483809Y-24809271D02*
X3362857Y-24990699D01*
X3362857Y-24990699D02*
X3241905Y-25111652D01*
X3241905Y-25111652D02*
X3120952Y-25172128D01*
X9032380Y-2309271D02*
X9032380Y-3337366D01*
X9032380Y-3337366D02*
X9092857Y-3458318D01*
X9092857Y-3458318D02*
X9153333Y-3518795D01*
X9153333Y-3518795D02*
X9274285Y-3579271D01*
X9274285Y-3579271D02*
X9516190Y-3579271D01*
X9516190Y-3579271D02*
X9637142Y-3518795D01*
X9637142Y-3518795D02*
X9697619Y-3458318D01*
X9697619Y-3458318D02*
X9758095Y-3337366D01*
X9758095Y-3337366D02*
X9758095Y-2309271D01*
X10907142Y-2732604D02*
X10907142Y-3579271D01*
X10604761Y-2248795D02*
X10302380Y-3155937D01*
X10302380Y-3155937D02*
X11088571Y-3155937D01*
X9032380Y-7309271D02*
X9032380Y-8337366D01*
X9032380Y-8337366D02*
X9092857Y-8458318D01*
X9092857Y-8458318D02*
X9153333Y-8518795D01*
X9153333Y-8518795D02*
X9274285Y-8579271D01*
X9274285Y-8579271D02*
X9516190Y-8579271D01*
X9516190Y-8579271D02*
X9637142Y-8518795D01*
X9637142Y-8518795D02*
X9697619Y-8458318D01*
X9697619Y-8458318D02*
X9758095Y-8337366D01*
X9758095Y-8337366D02*
X9758095Y-7309271D01*
X10967618Y-7309271D02*
X10362856Y-7309271D01*
X10362856Y-7309271D02*
X10302380Y-7914033D01*
X10302380Y-7914033D02*
X10362856Y-7853556D01*
X10362856Y-7853556D02*
X10483809Y-7793080D01*
X10483809Y-7793080D02*
X10786190Y-7793080D01*
X10786190Y-7793080D02*
X10907142Y-7853556D01*
X10907142Y-7853556D02*
X10967618Y-7914033D01*
X10967618Y-7914033D02*
X11028095Y-8034985D01*
X11028095Y-8034985D02*
X11028095Y-8337366D01*
X11028095Y-8337366D02*
X10967618Y-8458318D01*
X10967618Y-8458318D02*
X10907142Y-8518795D01*
X10907142Y-8518795D02*
X10786190Y-8579271D01*
X10786190Y-8579271D02*
X10483809Y-8579271D01*
X10483809Y-8579271D02*
X10362856Y-8518795D01*
X10362856Y-8518795D02*
X10302380Y-8458318D01*
X9032380Y3470728D02*
X9032380Y2442633D01*
X9032380Y2442633D02*
X9092857Y2321681D01*
X9092857Y2321681D02*
X9153333Y2261205D01*
X9153333Y2261205D02*
X9274285Y2200728D01*
X9274285Y2200728D02*
X9516190Y2200728D01*
X9516190Y2200728D02*
X9637142Y2261205D01*
X9637142Y2261205D02*
X9697619Y2321681D01*
X9697619Y2321681D02*
X9758095Y2442633D01*
X9758095Y2442633D02*
X9758095Y3470728D01*
X10907142Y3470728D02*
X10665237Y3470728D01*
X10665237Y3470728D02*
X10544285Y3410252D01*
X10544285Y3410252D02*
X10483809Y3349776D01*
X10483809Y3349776D02*
X10362856Y3168347D01*
X10362856Y3168347D02*
X10302380Y2926443D01*
X10302380Y2926443D02*
X10302380Y2442633D01*
X10302380Y2442633D02*
X10362856Y2321681D01*
X10362856Y2321681D02*
X10423333Y2261205D01*
X10423333Y2261205D02*
X10544285Y2200728D01*
X10544285Y2200728D02*
X10786190Y2200728D01*
X10786190Y2200728D02*
X10907142Y2261205D01*
X10907142Y2261205D02*
X10967618Y2321681D01*
X10967618Y2321681D02*
X11028095Y2442633D01*
X11028095Y2442633D02*
X11028095Y2745014D01*
X11028095Y2745014D02*
X10967618Y2865966D01*
X10967618Y2865966D02*
X10907142Y2926443D01*
X10907142Y2926443D02*
X10786190Y2986919D01*
X10786190Y2986919D02*
X10544285Y2986919D01*
X10544285Y2986919D02*
X10423333Y2926443D01*
X10423333Y2926443D02*
X10362856Y2865966D01*
X10362856Y2865966D02*
X10302380Y2745014D01*
X9032380Y-17309271D02*
X9032380Y-18337366D01*
X9032380Y-18337366D02*
X9092857Y-18458318D01*
X9092857Y-18458318D02*
X9153333Y-18518795D01*
X9153333Y-18518795D02*
X9274285Y-18579271D01*
X9274285Y-18579271D02*
X9516190Y-18579271D01*
X9516190Y-18579271D02*
X9637142Y-18518795D01*
X9637142Y-18518795D02*
X9697619Y-18458318D01*
X9697619Y-18458318D02*
X9758095Y-18337366D01*
X9758095Y-18337366D02*
X9758095Y-17309271D01*
X10241904Y-17309271D02*
X11088571Y-17309271D01*
X11088571Y-17309271D02*
X10544285Y-18579271D01*
X8427618Y-14149271D02*
X8427618Y-15177366D01*
X8427618Y-15177366D02*
X8488095Y-15298318D01*
X8488095Y-15298318D02*
X8548571Y-15358795D01*
X8548571Y-15358795D02*
X8669523Y-15419271D01*
X8669523Y-15419271D02*
X8911428Y-15419271D01*
X8911428Y-15419271D02*
X9032380Y-15358795D01*
X9032380Y-15358795D02*
X9092857Y-15298318D01*
X9092857Y-15298318D02*
X9153333Y-15177366D01*
X9153333Y-15177366D02*
X9153333Y-14149271D01*
X10423333Y-15419271D02*
X9697618Y-15419271D01*
X10060475Y-15419271D02*
X10060475Y-14149271D01*
X10060475Y-14149271D02*
X9939523Y-14330699D01*
X9939523Y-14330699D02*
X9818571Y-14451652D01*
X9818571Y-14451652D02*
X9697618Y-14512128D01*
X11209523Y-14149271D02*
X11330476Y-14149271D01*
X11330476Y-14149271D02*
X11451428Y-14209747D01*
X11451428Y-14209747D02*
X11511904Y-14270223D01*
X11511904Y-14270223D02*
X11572380Y-14391175D01*
X11572380Y-14391175D02*
X11632857Y-14633080D01*
X11632857Y-14633080D02*
X11632857Y-14935461D01*
X11632857Y-14935461D02*
X11572380Y-15177366D01*
X11572380Y-15177366D02*
X11511904Y-15298318D01*
X11511904Y-15298318D02*
X11451428Y-15358795D01*
X11451428Y-15358795D02*
X11330476Y-15419271D01*
X11330476Y-15419271D02*
X11209523Y-15419271D01*
X11209523Y-15419271D02*
X11088571Y-15358795D01*
X11088571Y-15358795D02*
X11028095Y-15298318D01*
X11028095Y-15298318D02*
X10967618Y-15177366D01*
X10967618Y-15177366D02*
X10907142Y-14935461D01*
X10907142Y-14935461D02*
X10907142Y-14633080D01*
X10907142Y-14633080D02*
X10967618Y-14391175D01*
X10967618Y-14391175D02*
X11028095Y-14270223D01*
X11028095Y-14270223D02*
X11088571Y-14209747D01*
X11088571Y-14209747D02*
X11209523Y-14149271D01*
X8427618Y-24229271D02*
X8427618Y-25257366D01*
X8427618Y-25257366D02*
X8488095Y-25378318D01*
X8488095Y-25378318D02*
X8548571Y-25438795D01*
X8548571Y-25438795D02*
X8669523Y-25499271D01*
X8669523Y-25499271D02*
X8911428Y-25499271D01*
X8911428Y-25499271D02*
X9032380Y-25438795D01*
X9032380Y-25438795D02*
X9092857Y-25378318D01*
X9092857Y-25378318D02*
X9153333Y-25257366D01*
X9153333Y-25257366D02*
X9153333Y-24229271D01*
X10423333Y-25499271D02*
X9697618Y-25499271D01*
X10060475Y-25499271D02*
X10060475Y-24229271D01*
X10060475Y-24229271D02*
X9939523Y-24410699D01*
X9939523Y-24410699D02*
X9818571Y-24531652D01*
X9818571Y-24531652D02*
X9697618Y-24592128D01*
X11632857Y-25499271D02*
X10907142Y-25499271D01*
X11269999Y-25499271D02*
X11269999Y-24229271D01*
X11269999Y-24229271D02*
X11149047Y-24410699D01*
X11149047Y-24410699D02*
X11028095Y-24531652D01*
X11028095Y-24531652D02*
X10907142Y-24592128D01*
X8427618Y-29229271D02*
X8427618Y-30257366D01*
X8427618Y-30257366D02*
X8488095Y-30378318D01*
X8488095Y-30378318D02*
X8548571Y-30438795D01*
X8548571Y-30438795D02*
X8669523Y-30499271D01*
X8669523Y-30499271D02*
X8911428Y-30499271D01*
X8911428Y-30499271D02*
X9032380Y-30438795D01*
X9032380Y-30438795D02*
X9092857Y-30378318D01*
X9092857Y-30378318D02*
X9153333Y-30257366D01*
X9153333Y-30257366D02*
X9153333Y-29229271D01*
X10423333Y-30499271D02*
X9697618Y-30499271D01*
X10060475Y-30499271D02*
X10060475Y-29229271D01*
X10060475Y-29229271D02*
X9939523Y-29410699D01*
X9939523Y-29410699D02*
X9818571Y-29531652D01*
X9818571Y-29531652D02*
X9697618Y-29592128D01*
X10907142Y-29350223D02*
X10967618Y-29289747D01*
X10967618Y-29289747D02*
X11088571Y-29229271D01*
X11088571Y-29229271D02*
X11390952Y-29229271D01*
X11390952Y-29229271D02*
X11511904Y-29289747D01*
X11511904Y-29289747D02*
X11572380Y-29350223D01*
X11572380Y-29350223D02*
X11632857Y-29471175D01*
X11632857Y-29471175D02*
X11632857Y-29592128D01*
X11632857Y-29592128D02*
X11572380Y-29773556D01*
X11572380Y-29773556D02*
X10846666Y-30499271D01*
X10846666Y-30499271D02*
X11632857Y-30499271D01*
X8427618Y-37309271D02*
X8427618Y-38337366D01*
X8427618Y-38337366D02*
X8488095Y-38458318D01*
X8488095Y-38458318D02*
X8548571Y-38518795D01*
X8548571Y-38518795D02*
X8669523Y-38579271D01*
X8669523Y-38579271D02*
X8911428Y-38579271D01*
X8911428Y-38579271D02*
X9032380Y-38518795D01*
X9032380Y-38518795D02*
X9092857Y-38458318D01*
X9092857Y-38458318D02*
X9153333Y-38337366D01*
X9153333Y-38337366D02*
X9153333Y-37309271D01*
X10423333Y-38579271D02*
X9697618Y-38579271D01*
X10060475Y-38579271D02*
X10060475Y-37309271D01*
X10060475Y-37309271D02*
X9939523Y-37490699D01*
X9939523Y-37490699D02*
X9818571Y-37611652D01*
X9818571Y-37611652D02*
X9697618Y-37672128D01*
X10846666Y-37309271D02*
X11632857Y-37309271D01*
X11632857Y-37309271D02*
X11209523Y-37793080D01*
X11209523Y-37793080D02*
X11390952Y-37793080D01*
X11390952Y-37793080D02*
X11511904Y-37853556D01*
X11511904Y-37853556D02*
X11572380Y-37914033D01*
X11572380Y-37914033D02*
X11632857Y-38034985D01*
X11632857Y-38034985D02*
X11632857Y-38337366D01*
X11632857Y-38337366D02*
X11572380Y-38458318D01*
X11572380Y-38458318D02*
X11511904Y-38518795D01*
X11511904Y-38518795D02*
X11390952Y-38579271D01*
X11390952Y-38579271D02*
X11028095Y-38579271D01*
X11028095Y-38579271D02*
X10907142Y-38518795D01*
X10907142Y-38518795D02*
X10846666Y-38458318D01*
X8427618Y-42309271D02*
X8427618Y-43337366D01*
X8427618Y-43337366D02*
X8488095Y-43458318D01*
X8488095Y-43458318D02*
X8548571Y-43518795D01*
X8548571Y-43518795D02*
X8669523Y-43579271D01*
X8669523Y-43579271D02*
X8911428Y-43579271D01*
X8911428Y-43579271D02*
X9032380Y-43518795D01*
X9032380Y-43518795D02*
X9092857Y-43458318D01*
X9092857Y-43458318D02*
X9153333Y-43337366D01*
X9153333Y-43337366D02*
X9153333Y-42309271D01*
X10423333Y-43579271D02*
X9697618Y-43579271D01*
X10060475Y-43579271D02*
X10060475Y-42309271D01*
X10060475Y-42309271D02*
X9939523Y-42490699D01*
X9939523Y-42490699D02*
X9818571Y-42611652D01*
X9818571Y-42611652D02*
X9697618Y-42672128D01*
X11511904Y-42732604D02*
X11511904Y-43579271D01*
X11209523Y-42248795D02*
X10907142Y-43155937D01*
X10907142Y-43155937D02*
X11693333Y-43155937D01*
X13427618Y-2309271D02*
X13427618Y-3337366D01*
X13427618Y-3337366D02*
X13488095Y-3458318D01*
X13488095Y-3458318D02*
X13548571Y-3518795D01*
X13548571Y-3518795D02*
X13669523Y-3579271D01*
X13669523Y-3579271D02*
X13911428Y-3579271D01*
X13911428Y-3579271D02*
X14032380Y-3518795D01*
X14032380Y-3518795D02*
X14092857Y-3458318D01*
X14092857Y-3458318D02*
X14153333Y-3337366D01*
X14153333Y-3337366D02*
X14153333Y-2309271D01*
X15423333Y-3579271D02*
X14697618Y-3579271D01*
X15060475Y-3579271D02*
X15060475Y-2309271D01*
X15060475Y-2309271D02*
X14939523Y-2490699D01*
X14939523Y-2490699D02*
X14818571Y-2611652D01*
X14818571Y-2611652D02*
X14697618Y-2672128D01*
X16572380Y-2309271D02*
X15967618Y-2309271D01*
X15967618Y-2309271D02*
X15907142Y-2914033D01*
X15907142Y-2914033D02*
X15967618Y-2853556D01*
X15967618Y-2853556D02*
X16088571Y-2793080D01*
X16088571Y-2793080D02*
X16390952Y-2793080D01*
X16390952Y-2793080D02*
X16511904Y-2853556D01*
X16511904Y-2853556D02*
X16572380Y-2914033D01*
X16572380Y-2914033D02*
X16632857Y-3034985D01*
X16632857Y-3034985D02*
X16632857Y-3337366D01*
X16632857Y-3337366D02*
X16572380Y-3458318D01*
X16572380Y-3458318D02*
X16511904Y-3518795D01*
X16511904Y-3518795D02*
X16390952Y-3579271D01*
X16390952Y-3579271D02*
X16088571Y-3579271D01*
X16088571Y-3579271D02*
X15967618Y-3518795D01*
X15967618Y-3518795D02*
X15907142Y-3458318D01*
X13427618Y-6309271D02*
X13427618Y-7337366D01*
X13427618Y-7337366D02*
X13488095Y-7458318D01*
X13488095Y-7458318D02*
X13548571Y-7518795D01*
X13548571Y-7518795D02*
X13669523Y-7579271D01*
X13669523Y-7579271D02*
X13911428Y-7579271D01*
X13911428Y-7579271D02*
X14032380Y-7518795D01*
X14032380Y-7518795D02*
X14092857Y-7458318D01*
X14092857Y-7458318D02*
X14153333Y-7337366D01*
X14153333Y-7337366D02*
X14153333Y-6309271D01*
X14697618Y-6430223D02*
X14758094Y-6369747D01*
X14758094Y-6369747D02*
X14879047Y-6309271D01*
X14879047Y-6309271D02*
X15181428Y-6309271D01*
X15181428Y-6309271D02*
X15302380Y-6369747D01*
X15302380Y-6369747D02*
X15362856Y-6430223D01*
X15362856Y-6430223D02*
X15423333Y-6551175D01*
X15423333Y-6551175D02*
X15423333Y-6672128D01*
X15423333Y-6672128D02*
X15362856Y-6853556D01*
X15362856Y-6853556D02*
X14637142Y-7579271D01*
X14637142Y-7579271D02*
X15423333Y-7579271D01*
X16209523Y-6309271D02*
X16330476Y-6309271D01*
X16330476Y-6309271D02*
X16451428Y-6369747D01*
X16451428Y-6369747D02*
X16511904Y-6430223D01*
X16511904Y-6430223D02*
X16572380Y-6551175D01*
X16572380Y-6551175D02*
X16632857Y-6793080D01*
X16632857Y-6793080D02*
X16632857Y-7095461D01*
X16632857Y-7095461D02*
X16572380Y-7337366D01*
X16572380Y-7337366D02*
X16511904Y-7458318D01*
X16511904Y-7458318D02*
X16451428Y-7518795D01*
X16451428Y-7518795D02*
X16330476Y-7579271D01*
X16330476Y-7579271D02*
X16209523Y-7579271D01*
X16209523Y-7579271D02*
X16088571Y-7518795D01*
X16088571Y-7518795D02*
X16028095Y-7458318D01*
X16028095Y-7458318D02*
X15967618Y-7337366D01*
X15967618Y-7337366D02*
X15907142Y-7095461D01*
X15907142Y-7095461D02*
X15907142Y-6793080D01*
X15907142Y-6793080D02*
X15967618Y-6551175D01*
X15967618Y-6551175D02*
X16028095Y-6430223D01*
X16028095Y-6430223D02*
X16088571Y-6369747D01*
X16088571Y-6369747D02*
X16209523Y-6309271D01*
X13427618Y-12309271D02*
X13427618Y-13337366D01*
X13427618Y-13337366D02*
X13488095Y-13458318D01*
X13488095Y-13458318D02*
X13548571Y-13518795D01*
X13548571Y-13518795D02*
X13669523Y-13579271D01*
X13669523Y-13579271D02*
X13911428Y-13579271D01*
X13911428Y-13579271D02*
X14032380Y-13518795D01*
X14032380Y-13518795D02*
X14092857Y-13458318D01*
X14092857Y-13458318D02*
X14153333Y-13337366D01*
X14153333Y-13337366D02*
X14153333Y-12309271D01*
X14637142Y-12309271D02*
X15423333Y-12309271D01*
X15423333Y-12309271D02*
X14999999Y-12793080D01*
X14999999Y-12793080D02*
X15181428Y-12793080D01*
X15181428Y-12793080D02*
X15302380Y-12853556D01*
X15302380Y-12853556D02*
X15362856Y-12914033D01*
X15362856Y-12914033D02*
X15423333Y-13034985D01*
X15423333Y-13034985D02*
X15423333Y-13337366D01*
X15423333Y-13337366D02*
X15362856Y-13458318D01*
X15362856Y-13458318D02*
X15302380Y-13518795D01*
X15302380Y-13518795D02*
X15181428Y-13579271D01*
X15181428Y-13579271D02*
X14818571Y-13579271D01*
X14818571Y-13579271D02*
X14697618Y-13518795D01*
X14697618Y-13518795D02*
X14637142Y-13458318D01*
X16632857Y-13579271D02*
X15907142Y-13579271D01*
X16269999Y-13579271D02*
X16269999Y-12309271D01*
X16269999Y-12309271D02*
X16149047Y-12490699D01*
X16149047Y-12490699D02*
X16028095Y-12611652D01*
X16028095Y-12611652D02*
X15907142Y-12672128D01*
X13427618Y-17309271D02*
X13427618Y-18337366D01*
X13427618Y-18337366D02*
X13488095Y-18458318D01*
X13488095Y-18458318D02*
X13548571Y-18518795D01*
X13548571Y-18518795D02*
X13669523Y-18579271D01*
X13669523Y-18579271D02*
X13911428Y-18579271D01*
X13911428Y-18579271D02*
X14032380Y-18518795D01*
X14032380Y-18518795D02*
X14092857Y-18458318D01*
X14092857Y-18458318D02*
X14153333Y-18337366D01*
X14153333Y-18337366D02*
X14153333Y-17309271D01*
X14637142Y-17309271D02*
X15423333Y-17309271D01*
X15423333Y-17309271D02*
X14999999Y-17793080D01*
X14999999Y-17793080D02*
X15181428Y-17793080D01*
X15181428Y-17793080D02*
X15302380Y-17853556D01*
X15302380Y-17853556D02*
X15362856Y-17914033D01*
X15362856Y-17914033D02*
X15423333Y-18034985D01*
X15423333Y-18034985D02*
X15423333Y-18337366D01*
X15423333Y-18337366D02*
X15362856Y-18458318D01*
X15362856Y-18458318D02*
X15302380Y-18518795D01*
X15302380Y-18518795D02*
X15181428Y-18579271D01*
X15181428Y-18579271D02*
X14818571Y-18579271D01*
X14818571Y-18579271D02*
X14697618Y-18518795D01*
X14697618Y-18518795D02*
X14637142Y-18458318D01*
X15907142Y-17430223D02*
X15967618Y-17369747D01*
X15967618Y-17369747D02*
X16088571Y-17309271D01*
X16088571Y-17309271D02*
X16390952Y-17309271D01*
X16390952Y-17309271D02*
X16511904Y-17369747D01*
X16511904Y-17369747D02*
X16572380Y-17430223D01*
X16572380Y-17430223D02*
X16632857Y-17551175D01*
X16632857Y-17551175D02*
X16632857Y-17672128D01*
X16632857Y-17672128D02*
X16572380Y-17853556D01*
X16572380Y-17853556D02*
X15846666Y-18579271D01*
X15846666Y-18579271D02*
X16632857Y-18579271D01*
X13427618Y-22309271D02*
X13427618Y-23337366D01*
X13427618Y-23337366D02*
X13488095Y-23458318D01*
X13488095Y-23458318D02*
X13548571Y-23518795D01*
X13548571Y-23518795D02*
X13669523Y-23579271D01*
X13669523Y-23579271D02*
X13911428Y-23579271D01*
X13911428Y-23579271D02*
X14032380Y-23518795D01*
X14032380Y-23518795D02*
X14092857Y-23458318D01*
X14092857Y-23458318D02*
X14153333Y-23337366D01*
X14153333Y-23337366D02*
X14153333Y-22309271D01*
X14637142Y-22309271D02*
X15423333Y-22309271D01*
X15423333Y-22309271D02*
X14999999Y-22793080D01*
X14999999Y-22793080D02*
X15181428Y-22793080D01*
X15181428Y-22793080D02*
X15302380Y-22853556D01*
X15302380Y-22853556D02*
X15362856Y-22914033D01*
X15362856Y-22914033D02*
X15423333Y-23034985D01*
X15423333Y-23034985D02*
X15423333Y-23337366D01*
X15423333Y-23337366D02*
X15362856Y-23458318D01*
X15362856Y-23458318D02*
X15302380Y-23518795D01*
X15302380Y-23518795D02*
X15181428Y-23579271D01*
X15181428Y-23579271D02*
X14818571Y-23579271D01*
X14818571Y-23579271D02*
X14697618Y-23518795D01*
X14697618Y-23518795D02*
X14637142Y-23458318D01*
X15846666Y-22309271D02*
X16632857Y-22309271D01*
X16632857Y-22309271D02*
X16209523Y-22793080D01*
X16209523Y-22793080D02*
X16390952Y-22793080D01*
X16390952Y-22793080D02*
X16511904Y-22853556D01*
X16511904Y-22853556D02*
X16572380Y-22914033D01*
X16572380Y-22914033D02*
X16632857Y-23034985D01*
X16632857Y-23034985D02*
X16632857Y-23337366D01*
X16632857Y-23337366D02*
X16572380Y-23458318D01*
X16572380Y-23458318D02*
X16511904Y-23518795D01*
X16511904Y-23518795D02*
X16390952Y-23579271D01*
X16390952Y-23579271D02*
X16028095Y-23579271D01*
X16028095Y-23579271D02*
X15907142Y-23518795D01*
X15907142Y-23518795D02*
X15846666Y-23458318D01*
X13427618Y-27309271D02*
X13427618Y-28337366D01*
X13427618Y-28337366D02*
X13488095Y-28458318D01*
X13488095Y-28458318D02*
X13548571Y-28518795D01*
X13548571Y-28518795D02*
X13669523Y-28579271D01*
X13669523Y-28579271D02*
X13911428Y-28579271D01*
X13911428Y-28579271D02*
X14032380Y-28518795D01*
X14032380Y-28518795D02*
X14092857Y-28458318D01*
X14092857Y-28458318D02*
X14153333Y-28337366D01*
X14153333Y-28337366D02*
X14153333Y-27309271D01*
X14637142Y-27309271D02*
X15423333Y-27309271D01*
X15423333Y-27309271D02*
X14999999Y-27793080D01*
X14999999Y-27793080D02*
X15181428Y-27793080D01*
X15181428Y-27793080D02*
X15302380Y-27853556D01*
X15302380Y-27853556D02*
X15362856Y-27914033D01*
X15362856Y-27914033D02*
X15423333Y-28034985D01*
X15423333Y-28034985D02*
X15423333Y-28337366D01*
X15423333Y-28337366D02*
X15362856Y-28458318D01*
X15362856Y-28458318D02*
X15302380Y-28518795D01*
X15302380Y-28518795D02*
X15181428Y-28579271D01*
X15181428Y-28579271D02*
X14818571Y-28579271D01*
X14818571Y-28579271D02*
X14697618Y-28518795D01*
X14697618Y-28518795D02*
X14637142Y-28458318D01*
X16511904Y-27732604D02*
X16511904Y-28579271D01*
X16209523Y-27248795D02*
X15907142Y-28155937D01*
X15907142Y-28155937D02*
X16693333Y-28155937D01*
X13427618Y-27959271D02*
X13427618Y-28987366D01*
X13427618Y-28987366D02*
X13488095Y-29108318D01*
X13488095Y-29108318D02*
X13548571Y-29168795D01*
X13548571Y-29168795D02*
X13669523Y-29229271D01*
X13669523Y-29229271D02*
X13911428Y-29229271D01*
X13911428Y-29229271D02*
X14032380Y-29168795D01*
X14032380Y-29168795D02*
X14092857Y-29108318D01*
X14092857Y-29108318D02*
X14153333Y-28987366D01*
X14153333Y-28987366D02*
X14153333Y-27959271D01*
X15302380Y-28382604D02*
X15302380Y-29229271D01*
X14999999Y-27898795D02*
X14697618Y-28805937D01*
X14697618Y-28805937D02*
X15483809Y-28805937D01*
X16209523Y-27959271D02*
X16330476Y-27959271D01*
X16330476Y-27959271D02*
X16451428Y-28019747D01*
X16451428Y-28019747D02*
X16511904Y-28080223D01*
X16511904Y-28080223D02*
X16572380Y-28201175D01*
X16572380Y-28201175D02*
X16632857Y-28443080D01*
X16632857Y-28443080D02*
X16632857Y-28745461D01*
X16632857Y-28745461D02*
X16572380Y-28987366D01*
X16572380Y-28987366D02*
X16511904Y-29108318D01*
X16511904Y-29108318D02*
X16451428Y-29168795D01*
X16451428Y-29168795D02*
X16330476Y-29229271D01*
X16330476Y-29229271D02*
X16209523Y-29229271D01*
X16209523Y-29229271D02*
X16088571Y-29168795D01*
X16088571Y-29168795D02*
X16028095Y-29108318D01*
X16028095Y-29108318D02*
X15967618Y-28987366D01*
X15967618Y-28987366D02*
X15907142Y-28745461D01*
X15907142Y-28745461D02*
X15907142Y-28443080D01*
X15907142Y-28443080D02*
X15967618Y-28201175D01*
X15967618Y-28201175D02*
X16028095Y-28080223D01*
X16028095Y-28080223D02*
X16088571Y-28019747D01*
X16088571Y-28019747D02*
X16209523Y-27959271D01*
X13427618Y-37309271D02*
X13427618Y-38337366D01*
X13427618Y-38337366D02*
X13488095Y-38458318D01*
X13488095Y-38458318D02*
X13548571Y-38518795D01*
X13548571Y-38518795D02*
X13669523Y-38579271D01*
X13669523Y-38579271D02*
X13911428Y-38579271D01*
X13911428Y-38579271D02*
X14032380Y-38518795D01*
X14032380Y-38518795D02*
X14092857Y-38458318D01*
X14092857Y-38458318D02*
X14153333Y-38337366D01*
X14153333Y-38337366D02*
X14153333Y-37309271D01*
X15302380Y-37732604D02*
X15302380Y-38579271D01*
X14999999Y-37248795D02*
X14697618Y-38155937D01*
X14697618Y-38155937D02*
X15483809Y-38155937D01*
X16632857Y-38579271D02*
X15907142Y-38579271D01*
X16269999Y-38579271D02*
X16269999Y-37309271D01*
X16269999Y-37309271D02*
X16149047Y-37490699D01*
X16149047Y-37490699D02*
X16028095Y-37611652D01*
X16028095Y-37611652D02*
X15907142Y-37672128D01*
X14062618Y-43039271D02*
X14062618Y-41769271D01*
X14788333Y-43039271D02*
X14244047Y-42313556D01*
X14788333Y-41769271D02*
X14062618Y-42494985D01*
X15997857Y-43039271D02*
X15272142Y-43039271D01*
X15634999Y-43039271D02*
X15634999Y-41769271D01*
X15634999Y-41769271D02*
X15514047Y-41950699D01*
X15514047Y-41950699D02*
X15393095Y-42071652D01*
X15393095Y-42071652D02*
X15272142Y-42132128D01*
X19062618Y-3039271D02*
X19062618Y-1769271D01*
X19788333Y-3039271D02*
X19244047Y-2313556D01*
X19788333Y-1769271D02*
X19062618Y-2494985D01*
X20272142Y-1890223D02*
X20332618Y-1829747D01*
X20332618Y-1829747D02*
X20453571Y-1769271D01*
X20453571Y-1769271D02*
X20755952Y-1769271D01*
X20755952Y-1769271D02*
X20876904Y-1829747D01*
X20876904Y-1829747D02*
X20937380Y-1890223D01*
X20937380Y-1890223D02*
X20997857Y-2011175D01*
X20997857Y-2011175D02*
X20997857Y-2132128D01*
X20997857Y-2132128D02*
X20937380Y-2313556D01*
X20937380Y-2313556D02*
X20211666Y-3039271D01*
X20211666Y-3039271D02*
X20997857Y-3039271D01*
X19879047Y-8700223D02*
X19758095Y-8639747D01*
X19758095Y-8639747D02*
X19637142Y-8518795D01*
X19637142Y-8518795D02*
X19455714Y-8337366D01*
X19455714Y-8337366D02*
X19334761Y-8276890D01*
X19334761Y-8276890D02*
X19213809Y-8276890D01*
X19274285Y-8579271D02*
X19153333Y-8518795D01*
X19153333Y-8518795D02*
X19032380Y-8397842D01*
X19032380Y-8397842D02*
X18971904Y-8155937D01*
X18971904Y-8155937D02*
X18971904Y-7732604D01*
X18971904Y-7732604D02*
X19032380Y-7490699D01*
X19032380Y-7490699D02*
X19153333Y-7369747D01*
X19153333Y-7369747D02*
X19274285Y-7309271D01*
X19274285Y-7309271D02*
X19516190Y-7309271D01*
X19516190Y-7309271D02*
X19637142Y-7369747D01*
X19637142Y-7369747D02*
X19758095Y-7490699D01*
X19758095Y-7490699D02*
X19818571Y-7732604D01*
X19818571Y-7732604D02*
X19818571Y-8155937D01*
X19818571Y-8155937D02*
X19758095Y-8397842D01*
X19758095Y-8397842D02*
X19637142Y-8518795D01*
X19637142Y-8518795D02*
X19516190Y-8579271D01*
X19516190Y-8579271D02*
X19274285Y-8579271D01*
X21028095Y-8579271D02*
X20302380Y-8579271D01*
X20665237Y-8579271D02*
X20665237Y-7309271D01*
X20665237Y-7309271D02*
X20544285Y-7490699D01*
X20544285Y-7490699D02*
X20423333Y-7611652D01*
X20423333Y-7611652D02*
X20302380Y-7672128D01*
X19879047Y-13700223D02*
X19758095Y-13639747D01*
X19758095Y-13639747D02*
X19637142Y-13518795D01*
X19637142Y-13518795D02*
X19455714Y-13337366D01*
X19455714Y-13337366D02*
X19334761Y-13276890D01*
X19334761Y-13276890D02*
X19213809Y-13276890D01*
X19274285Y-13579271D02*
X19153333Y-13518795D01*
X19153333Y-13518795D02*
X19032380Y-13397842D01*
X19032380Y-13397842D02*
X18971904Y-13155937D01*
X18971904Y-13155937D02*
X18971904Y-12732604D01*
X18971904Y-12732604D02*
X19032380Y-12490699D01*
X19032380Y-12490699D02*
X19153333Y-12369747D01*
X19153333Y-12369747D02*
X19274285Y-12309271D01*
X19274285Y-12309271D02*
X19516190Y-12309271D01*
X19516190Y-12309271D02*
X19637142Y-12369747D01*
X19637142Y-12369747D02*
X19758095Y-12490699D01*
X19758095Y-12490699D02*
X19818571Y-12732604D01*
X19818571Y-12732604D02*
X19818571Y-13155937D01*
X19818571Y-13155937D02*
X19758095Y-13397842D01*
X19758095Y-13397842D02*
X19637142Y-13518795D01*
X19637142Y-13518795D02*
X19516190Y-13579271D01*
X19516190Y-13579271D02*
X19274285Y-13579271D01*
X20302380Y-12430223D02*
X20362856Y-12369747D01*
X20362856Y-12369747D02*
X20483809Y-12309271D01*
X20483809Y-12309271D02*
X20786190Y-12309271D01*
X20786190Y-12309271D02*
X20907142Y-12369747D01*
X20907142Y-12369747D02*
X20967618Y-12430223D01*
X20967618Y-12430223D02*
X21028095Y-12551175D01*
X21028095Y-12551175D02*
X21028095Y-12672128D01*
X21028095Y-12672128D02*
X20967618Y-12853556D01*
X20967618Y-12853556D02*
X20241904Y-13579271D01*
X20241904Y-13579271D02*
X21028095Y-13579271D01*
X19879047Y-18700223D02*
X19758095Y-18639747D01*
X19758095Y-18639747D02*
X19637142Y-18518795D01*
X19637142Y-18518795D02*
X19455714Y-18337366D01*
X19455714Y-18337366D02*
X19334761Y-18276890D01*
X19334761Y-18276890D02*
X19213809Y-18276890D01*
X19274285Y-18579271D02*
X19153333Y-18518795D01*
X19153333Y-18518795D02*
X19032380Y-18397842D01*
X19032380Y-18397842D02*
X18971904Y-18155937D01*
X18971904Y-18155937D02*
X18971904Y-17732604D01*
X18971904Y-17732604D02*
X19032380Y-17490699D01*
X19032380Y-17490699D02*
X19153333Y-17369747D01*
X19153333Y-17369747D02*
X19274285Y-17309271D01*
X19274285Y-17309271D02*
X19516190Y-17309271D01*
X19516190Y-17309271D02*
X19637142Y-17369747D01*
X19637142Y-17369747D02*
X19758095Y-17490699D01*
X19758095Y-17490699D02*
X19818571Y-17732604D01*
X19818571Y-17732604D02*
X19818571Y-18155937D01*
X19818571Y-18155937D02*
X19758095Y-18397842D01*
X19758095Y-18397842D02*
X19637142Y-18518795D01*
X19637142Y-18518795D02*
X19516190Y-18579271D01*
X19516190Y-18579271D02*
X19274285Y-18579271D01*
X20241904Y-17309271D02*
X21028095Y-17309271D01*
X21028095Y-17309271D02*
X20604761Y-17793080D01*
X20604761Y-17793080D02*
X20786190Y-17793080D01*
X20786190Y-17793080D02*
X20907142Y-17853556D01*
X20907142Y-17853556D02*
X20967618Y-17914033D01*
X20967618Y-17914033D02*
X21028095Y-18034985D01*
X21028095Y-18034985D02*
X21028095Y-18337366D01*
X21028095Y-18337366D02*
X20967618Y-18458318D01*
X20967618Y-18458318D02*
X20907142Y-18518795D01*
X20907142Y-18518795D02*
X20786190Y-18579271D01*
X20786190Y-18579271D02*
X20423333Y-18579271D01*
X20423333Y-18579271D02*
X20302380Y-18518795D01*
X20302380Y-18518795D02*
X20241904Y-18458318D01*
X19879047Y-23700223D02*
X19758095Y-23639747D01*
X19758095Y-23639747D02*
X19637142Y-23518795D01*
X19637142Y-23518795D02*
X19455714Y-23337366D01*
X19455714Y-23337366D02*
X19334761Y-23276890D01*
X19334761Y-23276890D02*
X19213809Y-23276890D01*
X19274285Y-23579271D02*
X19153333Y-23518795D01*
X19153333Y-23518795D02*
X19032380Y-23397842D01*
X19032380Y-23397842D02*
X18971904Y-23155937D01*
X18971904Y-23155937D02*
X18971904Y-22732604D01*
X18971904Y-22732604D02*
X19032380Y-22490699D01*
X19032380Y-22490699D02*
X19153333Y-22369747D01*
X19153333Y-22369747D02*
X19274285Y-22309271D01*
X19274285Y-22309271D02*
X19516190Y-22309271D01*
X19516190Y-22309271D02*
X19637142Y-22369747D01*
X19637142Y-22369747D02*
X19758095Y-22490699D01*
X19758095Y-22490699D02*
X19818571Y-22732604D01*
X19818571Y-22732604D02*
X19818571Y-23155937D01*
X19818571Y-23155937D02*
X19758095Y-23397842D01*
X19758095Y-23397842D02*
X19637142Y-23518795D01*
X19637142Y-23518795D02*
X19516190Y-23579271D01*
X19516190Y-23579271D02*
X19274285Y-23579271D01*
X20907142Y-22732604D02*
X20907142Y-23579271D01*
X20604761Y-22248795D02*
X20302380Y-23155937D01*
X20302380Y-23155937D02*
X21088571Y-23155937D01*
X19879047Y-28700223D02*
X19758095Y-28639747D01*
X19758095Y-28639747D02*
X19637142Y-28518795D01*
X19637142Y-28518795D02*
X19455714Y-28337366D01*
X19455714Y-28337366D02*
X19334761Y-28276890D01*
X19334761Y-28276890D02*
X19213809Y-28276890D01*
X19274285Y-28579271D02*
X19153333Y-28518795D01*
X19153333Y-28518795D02*
X19032380Y-28397842D01*
X19032380Y-28397842D02*
X18971904Y-28155937D01*
X18971904Y-28155937D02*
X18971904Y-27732604D01*
X18971904Y-27732604D02*
X19032380Y-27490699D01*
X19032380Y-27490699D02*
X19153333Y-27369747D01*
X19153333Y-27369747D02*
X19274285Y-27309271D01*
X19274285Y-27309271D02*
X19516190Y-27309271D01*
X19516190Y-27309271D02*
X19637142Y-27369747D01*
X19637142Y-27369747D02*
X19758095Y-27490699D01*
X19758095Y-27490699D02*
X19818571Y-27732604D01*
X19818571Y-27732604D02*
X19818571Y-28155937D01*
X19818571Y-28155937D02*
X19758095Y-28397842D01*
X19758095Y-28397842D02*
X19637142Y-28518795D01*
X19637142Y-28518795D02*
X19516190Y-28579271D01*
X19516190Y-28579271D02*
X19274285Y-28579271D01*
X20967618Y-27309271D02*
X20362856Y-27309271D01*
X20362856Y-27309271D02*
X20302380Y-27914033D01*
X20302380Y-27914033D02*
X20362856Y-27853556D01*
X20362856Y-27853556D02*
X20483809Y-27793080D01*
X20483809Y-27793080D02*
X20786190Y-27793080D01*
X20786190Y-27793080D02*
X20907142Y-27853556D01*
X20907142Y-27853556D02*
X20967618Y-27914033D01*
X20967618Y-27914033D02*
X21028095Y-28034985D01*
X21028095Y-28034985D02*
X21028095Y-28337366D01*
X21028095Y-28337366D02*
X20967618Y-28458318D01*
X20967618Y-28458318D02*
X20907142Y-28518795D01*
X20907142Y-28518795D02*
X20786190Y-28579271D01*
X20786190Y-28579271D02*
X20483809Y-28579271D01*
X20483809Y-28579271D02*
X20362856Y-28518795D01*
X20362856Y-28518795D02*
X20302380Y-28458318D01*
X19879047Y-33700223D02*
X19758095Y-33639747D01*
X19758095Y-33639747D02*
X19637142Y-33518795D01*
X19637142Y-33518795D02*
X19455714Y-33337366D01*
X19455714Y-33337366D02*
X19334761Y-33276890D01*
X19334761Y-33276890D02*
X19213809Y-33276890D01*
X19274285Y-33579271D02*
X19153333Y-33518795D01*
X19153333Y-33518795D02*
X19032380Y-33397842D01*
X19032380Y-33397842D02*
X18971904Y-33155937D01*
X18971904Y-33155937D02*
X18971904Y-32732604D01*
X18971904Y-32732604D02*
X19032380Y-32490699D01*
X19032380Y-32490699D02*
X19153333Y-32369747D01*
X19153333Y-32369747D02*
X19274285Y-32309271D01*
X19274285Y-32309271D02*
X19516190Y-32309271D01*
X19516190Y-32309271D02*
X19637142Y-32369747D01*
X19637142Y-32369747D02*
X19758095Y-32490699D01*
X19758095Y-32490699D02*
X19818571Y-32732604D01*
X19818571Y-32732604D02*
X19818571Y-33155937D01*
X19818571Y-33155937D02*
X19758095Y-33397842D01*
X19758095Y-33397842D02*
X19637142Y-33518795D01*
X19637142Y-33518795D02*
X19516190Y-33579271D01*
X19516190Y-33579271D02*
X19274285Y-33579271D01*
X20241904Y-32309271D02*
X21088571Y-32309271D01*
X21088571Y-32309271D02*
X20544285Y-33579271D01*
X19274285Y-38700223D02*
X19153333Y-38639747D01*
X19153333Y-38639747D02*
X19032380Y-38518795D01*
X19032380Y-38518795D02*
X18850952Y-38337366D01*
X18850952Y-38337366D02*
X18729999Y-38276890D01*
X18729999Y-38276890D02*
X18609047Y-38276890D01*
X18669523Y-38579271D02*
X18548571Y-38518795D01*
X18548571Y-38518795D02*
X18427618Y-38397842D01*
X18427618Y-38397842D02*
X18367142Y-38155937D01*
X18367142Y-38155937D02*
X18367142Y-37732604D01*
X18367142Y-37732604D02*
X18427618Y-37490699D01*
X18427618Y-37490699D02*
X18548571Y-37369747D01*
X18548571Y-37369747D02*
X18669523Y-37309271D01*
X18669523Y-37309271D02*
X18911428Y-37309271D01*
X18911428Y-37309271D02*
X19032380Y-37369747D01*
X19032380Y-37369747D02*
X19153333Y-37490699D01*
X19153333Y-37490699D02*
X19213809Y-37732604D01*
X19213809Y-37732604D02*
X19213809Y-38155937D01*
X19213809Y-38155937D02*
X19153333Y-38397842D01*
X19153333Y-38397842D02*
X19032380Y-38518795D01*
X19032380Y-38518795D02*
X18911428Y-38579271D01*
X18911428Y-38579271D02*
X18669523Y-38579271D01*
X19637142Y-37309271D02*
X20423333Y-37309271D01*
X20423333Y-37309271D02*
X19999999Y-37793080D01*
X19999999Y-37793080D02*
X20181428Y-37793080D01*
X20181428Y-37793080D02*
X20302380Y-37853556D01*
X20302380Y-37853556D02*
X20362856Y-37914033D01*
X20362856Y-37914033D02*
X20423333Y-38034985D01*
X20423333Y-38034985D02*
X20423333Y-38337366D01*
X20423333Y-38337366D02*
X20362856Y-38458318D01*
X20362856Y-38458318D02*
X20302380Y-38518795D01*
X20302380Y-38518795D02*
X20181428Y-38579271D01*
X20181428Y-38579271D02*
X19818571Y-38579271D01*
X19818571Y-38579271D02*
X19697618Y-38518795D01*
X19697618Y-38518795D02*
X19637142Y-38458318D01*
X21209523Y-37309271D02*
X21330476Y-37309271D01*
X21330476Y-37309271D02*
X21451428Y-37369747D01*
X21451428Y-37369747D02*
X21511904Y-37430223D01*
X21511904Y-37430223D02*
X21572380Y-37551175D01*
X21572380Y-37551175D02*
X21632857Y-37793080D01*
X21632857Y-37793080D02*
X21632857Y-38095461D01*
X21632857Y-38095461D02*
X21572380Y-38337366D01*
X21572380Y-38337366D02*
X21511904Y-38458318D01*
X21511904Y-38458318D02*
X21451428Y-38518795D01*
X21451428Y-38518795D02*
X21330476Y-38579271D01*
X21330476Y-38579271D02*
X21209523Y-38579271D01*
X21209523Y-38579271D02*
X21088571Y-38518795D01*
X21088571Y-38518795D02*
X21028095Y-38458318D01*
X21028095Y-38458318D02*
X20967618Y-38337366D01*
X20967618Y-38337366D02*
X20907142Y-38095461D01*
X20907142Y-38095461D02*
X20907142Y-37793080D01*
X20907142Y-37793080D02*
X20967618Y-37551175D01*
X20967618Y-37551175D02*
X21028095Y-37430223D01*
X21028095Y-37430223D02*
X21088571Y-37369747D01*
X21088571Y-37369747D02*
X21209523Y-37309271D01*
X19062618Y-43579271D02*
X19062618Y-42309271D01*
X19062618Y-42309271D02*
X19364999Y-42309271D01*
X19364999Y-42309271D02*
X19546428Y-42369747D01*
X19546428Y-42369747D02*
X19667380Y-42490699D01*
X19667380Y-42490699D02*
X19727857Y-42611652D01*
X19727857Y-42611652D02*
X19788333Y-42853556D01*
X19788333Y-42853556D02*
X19788333Y-43034985D01*
X19788333Y-43034985D02*
X19727857Y-43276890D01*
X19727857Y-43276890D02*
X19667380Y-43397842D01*
X19667380Y-43397842D02*
X19546428Y-43518795D01*
X19546428Y-43518795D02*
X19364999Y-43579271D01*
X19364999Y-43579271D02*
X19062618Y-43579271D01*
X20997857Y-43579271D02*
X20272142Y-43579271D01*
X20634999Y-43579271D02*
X20634999Y-42309271D01*
X20634999Y-42309271D02*
X20514047Y-42490699D01*
X20514047Y-42490699D02*
X20393095Y-42611652D01*
X20393095Y-42611652D02*
X20272142Y-42672128D01*
X23457856Y-3579271D02*
X23457856Y-2309271D01*
X23457856Y-2309271D02*
X23760237Y-2309271D01*
X23760237Y-2309271D02*
X23941666Y-2369747D01*
X23941666Y-2369747D02*
X24062618Y-2490699D01*
X24062618Y-2490699D02*
X24123095Y-2611652D01*
X24123095Y-2611652D02*
X24183571Y-2853556D01*
X24183571Y-2853556D02*
X24183571Y-3034985D01*
X24183571Y-3034985D02*
X24123095Y-3276890D01*
X24123095Y-3276890D02*
X24062618Y-3397842D01*
X24062618Y-3397842D02*
X23941666Y-3518795D01*
X23941666Y-3518795D02*
X23760237Y-3579271D01*
X23760237Y-3579271D02*
X23457856Y-3579271D01*
X24667380Y-2430223D02*
X24727856Y-2369747D01*
X24727856Y-2369747D02*
X24848809Y-2309271D01*
X24848809Y-2309271D02*
X25151190Y-2309271D01*
X25151190Y-2309271D02*
X25272142Y-2369747D01*
X25272142Y-2369747D02*
X25332618Y-2430223D01*
X25332618Y-2430223D02*
X25393095Y-2551175D01*
X25393095Y-2551175D02*
X25393095Y-2672128D01*
X25393095Y-2672128D02*
X25332618Y-2853556D01*
X25332618Y-2853556D02*
X24606904Y-3579271D01*
X24606904Y-3579271D02*
X25393095Y-3579271D01*
X26179285Y-2309271D02*
X26300238Y-2309271D01*
X26300238Y-2309271D02*
X26421190Y-2369747D01*
X26421190Y-2369747D02*
X26481666Y-2430223D01*
X26481666Y-2430223D02*
X26542142Y-2551175D01*
X26542142Y-2551175D02*
X26602619Y-2793080D01*
X26602619Y-2793080D02*
X26602619Y-3095461D01*
X26602619Y-3095461D02*
X26542142Y-3337366D01*
X26542142Y-3337366D02*
X26481666Y-3458318D01*
X26481666Y-3458318D02*
X26421190Y-3518795D01*
X26421190Y-3518795D02*
X26300238Y-3579271D01*
X26300238Y-3579271D02*
X26179285Y-3579271D01*
X26179285Y-3579271D02*
X26058333Y-3518795D01*
X26058333Y-3518795D02*
X25997857Y-3458318D01*
X25997857Y-3458318D02*
X25937380Y-3337366D01*
X25937380Y-3337366D02*
X25876904Y-3095461D01*
X25876904Y-3095461D02*
X25876904Y-2793080D01*
X25876904Y-2793080D02*
X25937380Y-2551175D01*
X25937380Y-2551175D02*
X25997857Y-2430223D01*
X25997857Y-2430223D02*
X26058333Y-2369747D01*
X26058333Y-2369747D02*
X26179285Y-2309271D01*
X23457856Y-8579271D02*
X23457856Y-7309271D01*
X23457856Y-7309271D02*
X23760237Y-7309271D01*
X23760237Y-7309271D02*
X23941666Y-7369747D01*
X23941666Y-7369747D02*
X24062618Y-7490699D01*
X24062618Y-7490699D02*
X24123095Y-7611652D01*
X24123095Y-7611652D02*
X24183571Y-7853556D01*
X24183571Y-7853556D02*
X24183571Y-8034985D01*
X24183571Y-8034985D02*
X24123095Y-8276890D01*
X24123095Y-8276890D02*
X24062618Y-8397842D01*
X24062618Y-8397842D02*
X23941666Y-8518795D01*
X23941666Y-8518795D02*
X23760237Y-8579271D01*
X23760237Y-8579271D02*
X23457856Y-8579271D01*
X24667380Y-7430223D02*
X24727856Y-7369747D01*
X24727856Y-7369747D02*
X24848809Y-7309271D01*
X24848809Y-7309271D02*
X25151190Y-7309271D01*
X25151190Y-7309271D02*
X25272142Y-7369747D01*
X25272142Y-7369747D02*
X25332618Y-7430223D01*
X25332618Y-7430223D02*
X25393095Y-7551175D01*
X25393095Y-7551175D02*
X25393095Y-7672128D01*
X25393095Y-7672128D02*
X25332618Y-7853556D01*
X25332618Y-7853556D02*
X24606904Y-8579271D01*
X24606904Y-8579271D02*
X25393095Y-8579271D01*
X26602619Y-8579271D02*
X25876904Y-8579271D01*
X26239761Y-8579271D02*
X26239761Y-7309271D01*
X26239761Y-7309271D02*
X26118809Y-7490699D01*
X26118809Y-7490699D02*
X25997857Y-7611652D01*
X25997857Y-7611652D02*
X25876904Y-7672128D01*
X23457856Y-13579271D02*
X23457856Y-12309271D01*
X23457856Y-12309271D02*
X23760237Y-12309271D01*
X23760237Y-12309271D02*
X23941666Y-12369747D01*
X23941666Y-12369747D02*
X24062618Y-12490699D01*
X24062618Y-12490699D02*
X24123095Y-12611652D01*
X24123095Y-12611652D02*
X24183571Y-12853556D01*
X24183571Y-12853556D02*
X24183571Y-13034985D01*
X24183571Y-13034985D02*
X24123095Y-13276890D01*
X24123095Y-13276890D02*
X24062618Y-13397842D01*
X24062618Y-13397842D02*
X23941666Y-13518795D01*
X23941666Y-13518795D02*
X23760237Y-13579271D01*
X23760237Y-13579271D02*
X23457856Y-13579271D01*
X24606904Y-12309271D02*
X25393095Y-12309271D01*
X25393095Y-12309271D02*
X24969761Y-12793080D01*
X24969761Y-12793080D02*
X25151190Y-12793080D01*
X25151190Y-12793080D02*
X25272142Y-12853556D01*
X25272142Y-12853556D02*
X25332618Y-12914033D01*
X25332618Y-12914033D02*
X25393095Y-13034985D01*
X25393095Y-13034985D02*
X25393095Y-13337366D01*
X25393095Y-13337366D02*
X25332618Y-13458318D01*
X25332618Y-13458318D02*
X25272142Y-13518795D01*
X25272142Y-13518795D02*
X25151190Y-13579271D01*
X25151190Y-13579271D02*
X24788333Y-13579271D01*
X24788333Y-13579271D02*
X24667380Y-13518795D01*
X24667380Y-13518795D02*
X24606904Y-13458318D01*
X26179285Y-12309271D02*
X26300238Y-12309271D01*
X26300238Y-12309271D02*
X26421190Y-12369747D01*
X26421190Y-12369747D02*
X26481666Y-12430223D01*
X26481666Y-12430223D02*
X26542142Y-12551175D01*
X26542142Y-12551175D02*
X26602619Y-12793080D01*
X26602619Y-12793080D02*
X26602619Y-13095461D01*
X26602619Y-13095461D02*
X26542142Y-13337366D01*
X26542142Y-13337366D02*
X26481666Y-13458318D01*
X26481666Y-13458318D02*
X26421190Y-13518795D01*
X26421190Y-13518795D02*
X26300238Y-13579271D01*
X26300238Y-13579271D02*
X26179285Y-13579271D01*
X26179285Y-13579271D02*
X26058333Y-13518795D01*
X26058333Y-13518795D02*
X25997857Y-13458318D01*
X25997857Y-13458318D02*
X25937380Y-13337366D01*
X25937380Y-13337366D02*
X25876904Y-13095461D01*
X25876904Y-13095461D02*
X25876904Y-12793080D01*
X25876904Y-12793080D02*
X25937380Y-12551175D01*
X25937380Y-12551175D02*
X25997857Y-12430223D01*
X25997857Y-12430223D02*
X26058333Y-12369747D01*
X26058333Y-12369747D02*
X26179285Y-12309271D01*
X24576667Y-18914033D02*
X24153333Y-18914033D01*
X24153333Y-19579271D02*
X24153333Y-18309271D01*
X24153333Y-18309271D02*
X24758095Y-18309271D01*
X25907143Y-19579271D02*
X25181428Y-19579271D01*
X25544285Y-19579271D02*
X25544285Y-18309271D01*
X25544285Y-18309271D02*
X25423333Y-18490699D01*
X25423333Y-18490699D02*
X25302381Y-18611652D01*
X25302381Y-18611652D02*
X25181428Y-18672128D01*
X24788333Y-24579271D02*
X24183571Y-24579271D01*
X24183571Y-24579271D02*
X24183571Y-23309271D01*
X25876905Y-24579271D02*
X25151190Y-24579271D01*
X25514047Y-24579271D02*
X25514047Y-23309271D01*
X25514047Y-23309271D02*
X25393095Y-23490699D01*
X25393095Y-23490699D02*
X25272143Y-23611652D01*
X25272143Y-23611652D02*
X25151190Y-23672128D01*
X21522619Y-28579271D02*
X21099285Y-27974509D01*
X20796904Y-28579271D02*
X20796904Y-27309271D01*
X20796904Y-27309271D02*
X21280714Y-27309271D01*
X21280714Y-27309271D02*
X21401666Y-27369747D01*
X21401666Y-27369747D02*
X21462143Y-27430223D01*
X21462143Y-27430223D02*
X21522619Y-27551175D01*
X21522619Y-27551175D02*
X21522619Y-27732604D01*
X21522619Y-27732604D02*
X21462143Y-27853556D01*
X21462143Y-27853556D02*
X21401666Y-27914033D01*
X21401666Y-27914033D02*
X21280714Y-27974509D01*
X21280714Y-27974509D02*
X20796904Y-27974509D01*
X21764524Y-28700223D02*
X22732143Y-28700223D01*
X23034523Y-27914033D02*
X23457857Y-27914033D01*
X23639285Y-28579271D02*
X23034523Y-28579271D01*
X23034523Y-28579271D02*
X23034523Y-27309271D01*
X23034523Y-27309271D02*
X23639285Y-27309271D01*
X24183571Y-28579271D02*
X24183571Y-27309271D01*
X24183571Y-27309271D02*
X24485952Y-27309271D01*
X24485952Y-27309271D02*
X24667381Y-27369747D01*
X24667381Y-27369747D02*
X24788333Y-27490699D01*
X24788333Y-27490699D02*
X24848810Y-27611652D01*
X24848810Y-27611652D02*
X24909286Y-27853556D01*
X24909286Y-27853556D02*
X24909286Y-28034985D01*
X24909286Y-28034985D02*
X24848810Y-28276890D01*
X24848810Y-28276890D02*
X24788333Y-28397842D01*
X24788333Y-28397842D02*
X24667381Y-28518795D01*
X24667381Y-28518795D02*
X24485952Y-28579271D01*
X24485952Y-28579271D02*
X24183571Y-28579271D01*
X25393095Y-28216414D02*
X25997857Y-28216414D01*
X25272143Y-28579271D02*
X25695476Y-27309271D01*
X25695476Y-27309271D02*
X26118810Y-28579271D01*
X26239762Y-28700223D02*
X27207381Y-28700223D01*
X27449285Y-28216414D02*
X28054047Y-28216414D01*
X27328333Y-28579271D02*
X27751666Y-27309271D01*
X27751666Y-27309271D02*
X28175000Y-28579271D01*
X29263571Y-28579271D02*
X28537856Y-28579271D01*
X28900713Y-28579271D02*
X28900713Y-27309271D01*
X28900713Y-27309271D02*
X28779761Y-27490699D01*
X28779761Y-27490699D02*
X28658809Y-27611652D01*
X28658809Y-27611652D02*
X28537856Y-27672128D01*
X21522619Y-33579271D02*
X21099285Y-32974509D01*
X20796904Y-33579271D02*
X20796904Y-32309271D01*
X20796904Y-32309271D02*
X21280714Y-32309271D01*
X21280714Y-32309271D02*
X21401666Y-32369747D01*
X21401666Y-32369747D02*
X21462143Y-32430223D01*
X21462143Y-32430223D02*
X21522619Y-32551175D01*
X21522619Y-32551175D02*
X21522619Y-32732604D01*
X21522619Y-32732604D02*
X21462143Y-32853556D01*
X21462143Y-32853556D02*
X21401666Y-32914033D01*
X21401666Y-32914033D02*
X21280714Y-32974509D01*
X21280714Y-32974509D02*
X20796904Y-32974509D01*
X21764524Y-33700223D02*
X22732143Y-33700223D01*
X23034523Y-32914033D02*
X23457857Y-32914033D01*
X23639285Y-33579271D02*
X23034523Y-33579271D01*
X23034523Y-33579271D02*
X23034523Y-32309271D01*
X23034523Y-32309271D02*
X23639285Y-32309271D01*
X24183571Y-33579271D02*
X24183571Y-32309271D01*
X24183571Y-32309271D02*
X24485952Y-32309271D01*
X24485952Y-32309271D02*
X24667381Y-32369747D01*
X24667381Y-32369747D02*
X24788333Y-32490699D01*
X24788333Y-32490699D02*
X24848810Y-32611652D01*
X24848810Y-32611652D02*
X24909286Y-32853556D01*
X24909286Y-32853556D02*
X24909286Y-33034985D01*
X24909286Y-33034985D02*
X24848810Y-33276890D01*
X24848810Y-33276890D02*
X24788333Y-33397842D01*
X24788333Y-33397842D02*
X24667381Y-33518795D01*
X24667381Y-33518795D02*
X24485952Y-33579271D01*
X24485952Y-33579271D02*
X24183571Y-33579271D01*
X25393095Y-33216414D02*
X25997857Y-33216414D01*
X25272143Y-33579271D02*
X25695476Y-32309271D01*
X25695476Y-32309271D02*
X26118810Y-33579271D01*
X26239762Y-33700223D02*
X27207381Y-33700223D01*
X27449285Y-33216414D02*
X28054047Y-33216414D01*
X27328333Y-33579271D02*
X27751666Y-32309271D01*
X27751666Y-32309271D02*
X28175000Y-33579271D01*
X28537856Y-32430223D02*
X28598332Y-32369747D01*
X28598332Y-32369747D02*
X28719285Y-32309271D01*
X28719285Y-32309271D02*
X29021666Y-32309271D01*
X29021666Y-32309271D02*
X29142618Y-32369747D01*
X29142618Y-32369747D02*
X29203094Y-32430223D01*
X29203094Y-32430223D02*
X29263571Y-32551175D01*
X29263571Y-32551175D02*
X29263571Y-32672128D01*
X29263571Y-32672128D02*
X29203094Y-32853556D01*
X29203094Y-32853556D02*
X28477380Y-33579271D01*
X28477380Y-33579271D02*
X29263571Y-33579271D01*
X21431905Y-38579271D02*
X21008571Y-37974509D01*
X20706190Y-38579271D02*
X20706190Y-37309271D01*
X20706190Y-37309271D02*
X21190000Y-37309271D01*
X21190000Y-37309271D02*
X21310952Y-37369747D01*
X21310952Y-37369747D02*
X21371429Y-37430223D01*
X21371429Y-37430223D02*
X21431905Y-37551175D01*
X21431905Y-37551175D02*
X21431905Y-37732604D01*
X21431905Y-37732604D02*
X21371429Y-37853556D01*
X21371429Y-37853556D02*
X21310952Y-37914033D01*
X21310952Y-37914033D02*
X21190000Y-37974509D01*
X21190000Y-37974509D02*
X20706190Y-37974509D01*
X21673810Y-38700223D02*
X22641429Y-38700223D01*
X22943809Y-37914033D02*
X23367143Y-37914033D01*
X23548571Y-38579271D02*
X22943809Y-38579271D01*
X22943809Y-38579271D02*
X22943809Y-37309271D01*
X22943809Y-37309271D02*
X23548571Y-37309271D01*
X24092857Y-38579271D02*
X24092857Y-37309271D01*
X24092857Y-37309271D02*
X24395238Y-37309271D01*
X24395238Y-37309271D02*
X24576667Y-37369747D01*
X24576667Y-37369747D02*
X24697619Y-37490699D01*
X24697619Y-37490699D02*
X24758096Y-37611652D01*
X24758096Y-37611652D02*
X24818572Y-37853556D01*
X24818572Y-37853556D02*
X24818572Y-38034985D01*
X24818572Y-38034985D02*
X24758096Y-38276890D01*
X24758096Y-38276890D02*
X24697619Y-38397842D01*
X24697619Y-38397842D02*
X24576667Y-38518795D01*
X24576667Y-38518795D02*
X24395238Y-38579271D01*
X24395238Y-38579271D02*
X24092857Y-38579271D01*
X25302381Y-38216414D02*
X25907143Y-38216414D01*
X25181429Y-38579271D02*
X25604762Y-37309271D01*
X25604762Y-37309271D02*
X26028096Y-38579271D01*
X26149048Y-38700223D02*
X27116667Y-38700223D01*
X27842381Y-37914033D02*
X28023809Y-37974509D01*
X28023809Y-37974509D02*
X28084286Y-38034985D01*
X28084286Y-38034985D02*
X28144762Y-38155937D01*
X28144762Y-38155937D02*
X28144762Y-38337366D01*
X28144762Y-38337366D02*
X28084286Y-38458318D01*
X28084286Y-38458318D02*
X28023809Y-38518795D01*
X28023809Y-38518795D02*
X27902857Y-38579271D01*
X27902857Y-38579271D02*
X27419047Y-38579271D01*
X27419047Y-38579271D02*
X27419047Y-37309271D01*
X27419047Y-37309271D02*
X27842381Y-37309271D01*
X27842381Y-37309271D02*
X27963333Y-37369747D01*
X27963333Y-37369747D02*
X28023809Y-37430223D01*
X28023809Y-37430223D02*
X28084286Y-37551175D01*
X28084286Y-37551175D02*
X28084286Y-37672128D01*
X28084286Y-37672128D02*
X28023809Y-37793080D01*
X28023809Y-37793080D02*
X27963333Y-37853556D01*
X27963333Y-37853556D02*
X27842381Y-37914033D01*
X27842381Y-37914033D02*
X27419047Y-37914033D01*
X29354286Y-38579271D02*
X28628571Y-38579271D01*
X28991428Y-38579271D02*
X28991428Y-37309271D01*
X28991428Y-37309271D02*
X28870476Y-37490699D01*
X28870476Y-37490699D02*
X28749524Y-37611652D01*
X28749524Y-37611652D02*
X28628571Y-37672128D01*
X21431905Y-43579271D02*
X21008571Y-42974509D01*
X20706190Y-43579271D02*
X20706190Y-42309271D01*
X20706190Y-42309271D02*
X21190000Y-42309271D01*
X21190000Y-42309271D02*
X21310952Y-42369747D01*
X21310952Y-42369747D02*
X21371429Y-42430223D01*
X21371429Y-42430223D02*
X21431905Y-42551175D01*
X21431905Y-42551175D02*
X21431905Y-42732604D01*
X21431905Y-42732604D02*
X21371429Y-42853556D01*
X21371429Y-42853556D02*
X21310952Y-42914033D01*
X21310952Y-42914033D02*
X21190000Y-42974509D01*
X21190000Y-42974509D02*
X20706190Y-42974509D01*
X21673810Y-43700223D02*
X22641429Y-43700223D01*
X22943809Y-42914033D02*
X23367143Y-42914033D01*
X23548571Y-43579271D02*
X22943809Y-43579271D01*
X22943809Y-43579271D02*
X22943809Y-42309271D01*
X22943809Y-42309271D02*
X23548571Y-42309271D01*
X24092857Y-43579271D02*
X24092857Y-42309271D01*
X24092857Y-42309271D02*
X24395238Y-42309271D01*
X24395238Y-42309271D02*
X24576667Y-42369747D01*
X24576667Y-42369747D02*
X24697619Y-42490699D01*
X24697619Y-42490699D02*
X24758096Y-42611652D01*
X24758096Y-42611652D02*
X24818572Y-42853556D01*
X24818572Y-42853556D02*
X24818572Y-43034985D01*
X24818572Y-43034985D02*
X24758096Y-43276890D01*
X24758096Y-43276890D02*
X24697619Y-43397842D01*
X24697619Y-43397842D02*
X24576667Y-43518795D01*
X24576667Y-43518795D02*
X24395238Y-43579271D01*
X24395238Y-43579271D02*
X24092857Y-43579271D01*
X25302381Y-43216414D02*
X25907143Y-43216414D01*
X25181429Y-43579271D02*
X25604762Y-42309271D01*
X25604762Y-42309271D02*
X26028096Y-43579271D01*
X26149048Y-43700223D02*
X27116667Y-43700223D01*
X27842381Y-42914033D02*
X28023809Y-42974509D01*
X28023809Y-42974509D02*
X28084286Y-43034985D01*
X28084286Y-43034985D02*
X28144762Y-43155937D01*
X28144762Y-43155937D02*
X28144762Y-43337366D01*
X28144762Y-43337366D02*
X28084286Y-43458318D01*
X28084286Y-43458318D02*
X28023809Y-43518795D01*
X28023809Y-43518795D02*
X27902857Y-43579271D01*
X27902857Y-43579271D02*
X27419047Y-43579271D01*
X27419047Y-43579271D02*
X27419047Y-42309271D01*
X27419047Y-42309271D02*
X27842381Y-42309271D01*
X27842381Y-42309271D02*
X27963333Y-42369747D01*
X27963333Y-42369747D02*
X28023809Y-42430223D01*
X28023809Y-42430223D02*
X28084286Y-42551175D01*
X28084286Y-42551175D02*
X28084286Y-42672128D01*
X28084286Y-42672128D02*
X28023809Y-42793080D01*
X28023809Y-42793080D02*
X27963333Y-42853556D01*
X27963333Y-42853556D02*
X27842381Y-42914033D01*
X27842381Y-42914033D02*
X27419047Y-42914033D01*
X28628571Y-42430223D02*
X28689047Y-42369747D01*
X28689047Y-42369747D02*
X28810000Y-42309271D01*
X28810000Y-42309271D02*
X29112381Y-42309271D01*
X29112381Y-42309271D02*
X29233333Y-42369747D01*
X29233333Y-42369747D02*
X29293809Y-42430223D01*
X29293809Y-42430223D02*
X29354286Y-42551175D01*
X29354286Y-42551175D02*
X29354286Y-42672128D01*
X29354286Y-42672128D02*
X29293809Y-42853556D01*
X29293809Y-42853556D02*
X28568095Y-43579271D01*
X28568095Y-43579271D02*
X29354286Y-43579271D01*
X29788333Y-4579271D02*
X29364999Y-3974509D01*
X29062618Y-4579271D02*
X29062618Y-3309271D01*
X29062618Y-3309271D02*
X29546428Y-3309271D01*
X29546428Y-3309271D02*
X29667380Y-3369747D01*
X29667380Y-3369747D02*
X29727857Y-3430223D01*
X29727857Y-3430223D02*
X29788333Y-3551175D01*
X29788333Y-3551175D02*
X29788333Y-3732604D01*
X29788333Y-3732604D02*
X29727857Y-3853556D01*
X29727857Y-3853556D02*
X29667380Y-3914033D01*
X29667380Y-3914033D02*
X29546428Y-3974509D01*
X29546428Y-3974509D02*
X29062618Y-3974509D01*
X30997857Y-4579271D02*
X30272142Y-4579271D01*
X30634999Y-4579271D02*
X30634999Y-3309271D01*
X30634999Y-3309271D02*
X30514047Y-3490699D01*
X30514047Y-3490699D02*
X30393095Y-3611652D01*
X30393095Y-3611652D02*
X30272142Y-3672128D01*
X29788333Y-9579271D02*
X29364999Y-8974509D01*
X29062618Y-9579271D02*
X29062618Y-8309271D01*
X29062618Y-8309271D02*
X29546428Y-8309271D01*
X29546428Y-8309271D02*
X29667380Y-8369747D01*
X29667380Y-8369747D02*
X29727857Y-8430223D01*
X29727857Y-8430223D02*
X29788333Y-8551175D01*
X29788333Y-8551175D02*
X29788333Y-8732604D01*
X29788333Y-8732604D02*
X29727857Y-8853556D01*
X29727857Y-8853556D02*
X29667380Y-8914033D01*
X29667380Y-8914033D02*
X29546428Y-8974509D01*
X29546428Y-8974509D02*
X29062618Y-8974509D01*
X30272142Y-8430223D02*
X30332618Y-8369747D01*
X30332618Y-8369747D02*
X30453571Y-8309271D01*
X30453571Y-8309271D02*
X30755952Y-8309271D01*
X30755952Y-8309271D02*
X30876904Y-8369747D01*
X30876904Y-8369747D02*
X30937380Y-8430223D01*
X30937380Y-8430223D02*
X30997857Y-8551175D01*
X30997857Y-8551175D02*
X30997857Y-8672128D01*
X30997857Y-8672128D02*
X30937380Y-8853556D01*
X30937380Y-8853556D02*
X30211666Y-9579271D01*
X30211666Y-9579271D02*
X30997857Y-9579271D01*
X29788333Y-14579271D02*
X29364999Y-13974509D01*
X29062618Y-14579271D02*
X29062618Y-13309271D01*
X29062618Y-13309271D02*
X29546428Y-13309271D01*
X29546428Y-13309271D02*
X29667380Y-13369747D01*
X29667380Y-13369747D02*
X29727857Y-13430223D01*
X29727857Y-13430223D02*
X29788333Y-13551175D01*
X29788333Y-13551175D02*
X29788333Y-13732604D01*
X29788333Y-13732604D02*
X29727857Y-13853556D01*
X29727857Y-13853556D02*
X29667380Y-13914033D01*
X29667380Y-13914033D02*
X29546428Y-13974509D01*
X29546428Y-13974509D02*
X29062618Y-13974509D01*
X30211666Y-13309271D02*
X30997857Y-13309271D01*
X30997857Y-13309271D02*
X30574523Y-13793080D01*
X30574523Y-13793080D02*
X30755952Y-13793080D01*
X30755952Y-13793080D02*
X30876904Y-13853556D01*
X30876904Y-13853556D02*
X30937380Y-13914033D01*
X30937380Y-13914033D02*
X30997857Y-14034985D01*
X30997857Y-14034985D02*
X30997857Y-14337366D01*
X30997857Y-14337366D02*
X30937380Y-14458318D01*
X30937380Y-14458318D02*
X30876904Y-14518795D01*
X30876904Y-14518795D02*
X30755952Y-14579271D01*
X30755952Y-14579271D02*
X30393095Y-14579271D01*
X30393095Y-14579271D02*
X30272142Y-14518795D01*
X30272142Y-14518795D02*
X30211666Y-14458318D01*
X29788333Y-19579271D02*
X29364999Y-18974509D01*
X29062618Y-19579271D02*
X29062618Y-18309271D01*
X29062618Y-18309271D02*
X29546428Y-18309271D01*
X29546428Y-18309271D02*
X29667380Y-18369747D01*
X29667380Y-18369747D02*
X29727857Y-18430223D01*
X29727857Y-18430223D02*
X29788333Y-18551175D01*
X29788333Y-18551175D02*
X29788333Y-18732604D01*
X29788333Y-18732604D02*
X29727857Y-18853556D01*
X29727857Y-18853556D02*
X29667380Y-18914033D01*
X29667380Y-18914033D02*
X29546428Y-18974509D01*
X29546428Y-18974509D02*
X29062618Y-18974509D01*
X30876904Y-18732604D02*
X30876904Y-19579271D01*
X30574523Y-18248795D02*
X30272142Y-19155937D01*
X30272142Y-19155937D02*
X31058333Y-19155937D01*
X28548571Y-23579271D02*
X28125237Y-22974509D01*
X27822856Y-23579271D02*
X27822856Y-22309271D01*
X27822856Y-22309271D02*
X28306666Y-22309271D01*
X28306666Y-22309271D02*
X28427618Y-22369747D01*
X28427618Y-22369747D02*
X28488095Y-22430223D01*
X28488095Y-22430223D02*
X28548571Y-22551175D01*
X28548571Y-22551175D02*
X28548571Y-22732604D01*
X28548571Y-22732604D02*
X28488095Y-22853556D01*
X28488095Y-22853556D02*
X28427618Y-22914033D01*
X28427618Y-22914033D02*
X28306666Y-22974509D01*
X28306666Y-22974509D02*
X27822856Y-22974509D01*
X29032380Y-23518795D02*
X29213809Y-23579271D01*
X29213809Y-23579271D02*
X29516190Y-23579271D01*
X29516190Y-23579271D02*
X29637142Y-23518795D01*
X29637142Y-23518795D02*
X29697618Y-23458318D01*
X29697618Y-23458318D02*
X29758095Y-23337366D01*
X29758095Y-23337366D02*
X29758095Y-23216414D01*
X29758095Y-23216414D02*
X29697618Y-23095461D01*
X29697618Y-23095461D02*
X29637142Y-23034985D01*
X29637142Y-23034985D02*
X29516190Y-22974509D01*
X29516190Y-22974509D02*
X29274285Y-22914033D01*
X29274285Y-22914033D02*
X29153333Y-22853556D01*
X29153333Y-22853556D02*
X29092856Y-22793080D01*
X29092856Y-22793080D02*
X29032380Y-22672128D01*
X29032380Y-22672128D02*
X29032380Y-22551175D01*
X29032380Y-22551175D02*
X29092856Y-22430223D01*
X29092856Y-22430223D02*
X29153333Y-22369747D01*
X29153333Y-22369747D02*
X29274285Y-22309271D01*
X29274285Y-22309271D02*
X29576666Y-22309271D01*
X29576666Y-22309271D02*
X29758095Y-22369747D01*
X30302380Y-23579271D02*
X30302380Y-22309271D01*
X30302380Y-22309271D02*
X30604761Y-22309271D01*
X30604761Y-22309271D02*
X30786190Y-22369747D01*
X30786190Y-22369747D02*
X30907142Y-22490699D01*
X30907142Y-22490699D02*
X30967619Y-22611652D01*
X30967619Y-22611652D02*
X31028095Y-22853556D01*
X31028095Y-22853556D02*
X31028095Y-23034985D01*
X31028095Y-23034985D02*
X30967619Y-23276890D01*
X30967619Y-23276890D02*
X30907142Y-23397842D01*
X30907142Y-23397842D02*
X30786190Y-23518795D01*
X30786190Y-23518795D02*
X30604761Y-23579271D01*
X30604761Y-23579271D02*
X30302380Y-23579271D01*
X32237619Y-23579271D02*
X31511904Y-23579271D01*
X31874761Y-23579271D02*
X31874761Y-22309271D01*
X31874761Y-22309271D02*
X31753809Y-22490699D01*
X31753809Y-22490699D02*
X31632857Y-22611652D01*
X31632857Y-22611652D02*
X31511904Y-22672128D01*
X28548571Y-28579271D02*
X28125237Y-27974509D01*
X27822856Y-28579271D02*
X27822856Y-27309271D01*
X27822856Y-27309271D02*
X28306666Y-27309271D01*
X28306666Y-27309271D02*
X28427618Y-27369747D01*
X28427618Y-27369747D02*
X28488095Y-27430223D01*
X28488095Y-27430223D02*
X28548571Y-27551175D01*
X28548571Y-27551175D02*
X28548571Y-27732604D01*
X28548571Y-27732604D02*
X28488095Y-27853556D01*
X28488095Y-27853556D02*
X28427618Y-27914033D01*
X28427618Y-27914033D02*
X28306666Y-27974509D01*
X28306666Y-27974509D02*
X27822856Y-27974509D01*
X29032380Y-28518795D02*
X29213809Y-28579271D01*
X29213809Y-28579271D02*
X29516190Y-28579271D01*
X29516190Y-28579271D02*
X29637142Y-28518795D01*
X29637142Y-28518795D02*
X29697618Y-28458318D01*
X29697618Y-28458318D02*
X29758095Y-28337366D01*
X29758095Y-28337366D02*
X29758095Y-28216414D01*
X29758095Y-28216414D02*
X29697618Y-28095461D01*
X29697618Y-28095461D02*
X29637142Y-28034985D01*
X29637142Y-28034985D02*
X29516190Y-27974509D01*
X29516190Y-27974509D02*
X29274285Y-27914033D01*
X29274285Y-27914033D02*
X29153333Y-27853556D01*
X29153333Y-27853556D02*
X29092856Y-27793080D01*
X29092856Y-27793080D02*
X29032380Y-27672128D01*
X29032380Y-27672128D02*
X29032380Y-27551175D01*
X29032380Y-27551175D02*
X29092856Y-27430223D01*
X29092856Y-27430223D02*
X29153333Y-27369747D01*
X29153333Y-27369747D02*
X29274285Y-27309271D01*
X29274285Y-27309271D02*
X29576666Y-27309271D01*
X29576666Y-27309271D02*
X29758095Y-27369747D01*
X30302380Y-28579271D02*
X30302380Y-27309271D01*
X30302380Y-27309271D02*
X30604761Y-27309271D01*
X30604761Y-27309271D02*
X30786190Y-27369747D01*
X30786190Y-27369747D02*
X30907142Y-27490699D01*
X30907142Y-27490699D02*
X30967619Y-27611652D01*
X30967619Y-27611652D02*
X31028095Y-27853556D01*
X31028095Y-27853556D02*
X31028095Y-28034985D01*
X31028095Y-28034985D02*
X30967619Y-28276890D01*
X30967619Y-28276890D02*
X30907142Y-28397842D01*
X30907142Y-28397842D02*
X30786190Y-28518795D01*
X30786190Y-28518795D02*
X30604761Y-28579271D01*
X30604761Y-28579271D02*
X30302380Y-28579271D01*
X31511904Y-27430223D02*
X31572380Y-27369747D01*
X31572380Y-27369747D02*
X31693333Y-27309271D01*
X31693333Y-27309271D02*
X31995714Y-27309271D01*
X31995714Y-27309271D02*
X32116666Y-27369747D01*
X32116666Y-27369747D02*
X32177142Y-27430223D01*
X32177142Y-27430223D02*
X32237619Y-27551175D01*
X32237619Y-27551175D02*
X32237619Y-27672128D01*
X32237619Y-27672128D02*
X32177142Y-27853556D01*
X32177142Y-27853556D02*
X31451428Y-28579271D01*
X31451428Y-28579271D02*
X32237619Y-28579271D01*
X28548571Y-33579271D02*
X28125237Y-32974509D01*
X27822856Y-33579271D02*
X27822856Y-32309271D01*
X27822856Y-32309271D02*
X28306666Y-32309271D01*
X28306666Y-32309271D02*
X28427618Y-32369747D01*
X28427618Y-32369747D02*
X28488095Y-32430223D01*
X28488095Y-32430223D02*
X28548571Y-32551175D01*
X28548571Y-32551175D02*
X28548571Y-32732604D01*
X28548571Y-32732604D02*
X28488095Y-32853556D01*
X28488095Y-32853556D02*
X28427618Y-32914033D01*
X28427618Y-32914033D02*
X28306666Y-32974509D01*
X28306666Y-32974509D02*
X27822856Y-32974509D01*
X29032380Y-33518795D02*
X29213809Y-33579271D01*
X29213809Y-33579271D02*
X29516190Y-33579271D01*
X29516190Y-33579271D02*
X29637142Y-33518795D01*
X29637142Y-33518795D02*
X29697618Y-33458318D01*
X29697618Y-33458318D02*
X29758095Y-33337366D01*
X29758095Y-33337366D02*
X29758095Y-33216414D01*
X29758095Y-33216414D02*
X29697618Y-33095461D01*
X29697618Y-33095461D02*
X29637142Y-33034985D01*
X29637142Y-33034985D02*
X29516190Y-32974509D01*
X29516190Y-32974509D02*
X29274285Y-32914033D01*
X29274285Y-32914033D02*
X29153333Y-32853556D01*
X29153333Y-32853556D02*
X29092856Y-32793080D01*
X29092856Y-32793080D02*
X29032380Y-32672128D01*
X29032380Y-32672128D02*
X29032380Y-32551175D01*
X29032380Y-32551175D02*
X29092856Y-32430223D01*
X29092856Y-32430223D02*
X29153333Y-32369747D01*
X29153333Y-32369747D02*
X29274285Y-32309271D01*
X29274285Y-32309271D02*
X29576666Y-32309271D01*
X29576666Y-32309271D02*
X29758095Y-32369747D01*
X30302380Y-33579271D02*
X30302380Y-32309271D01*
X30302380Y-32309271D02*
X30604761Y-32309271D01*
X30604761Y-32309271D02*
X30786190Y-32369747D01*
X30786190Y-32369747D02*
X30907142Y-32490699D01*
X30907142Y-32490699D02*
X30967619Y-32611652D01*
X30967619Y-32611652D02*
X31028095Y-32853556D01*
X31028095Y-32853556D02*
X31028095Y-33034985D01*
X31028095Y-33034985D02*
X30967619Y-33276890D01*
X30967619Y-33276890D02*
X30907142Y-33397842D01*
X30907142Y-33397842D02*
X30786190Y-33518795D01*
X30786190Y-33518795D02*
X30604761Y-33579271D01*
X30604761Y-33579271D02*
X30302380Y-33579271D01*
X31451428Y-32309271D02*
X32237619Y-32309271D01*
X32237619Y-32309271D02*
X31814285Y-32793080D01*
X31814285Y-32793080D02*
X31995714Y-32793080D01*
X31995714Y-32793080D02*
X32116666Y-32853556D01*
X32116666Y-32853556D02*
X32177142Y-32914033D01*
X32177142Y-32914033D02*
X32237619Y-33034985D01*
X32237619Y-33034985D02*
X32237619Y-33337366D01*
X32237619Y-33337366D02*
X32177142Y-33458318D01*
X32177142Y-33458318D02*
X32116666Y-33518795D01*
X32116666Y-33518795D02*
X31995714Y-33579271D01*
X31995714Y-33579271D02*
X31632857Y-33579271D01*
X31632857Y-33579271D02*
X31511904Y-33518795D01*
X31511904Y-33518795D02*
X31451428Y-33458318D01*
X28548571Y-38579271D02*
X28125237Y-37974509D01*
X27822856Y-38579271D02*
X27822856Y-37309271D01*
X27822856Y-37309271D02*
X28306666Y-37309271D01*
X28306666Y-37309271D02*
X28427618Y-37369747D01*
X28427618Y-37369747D02*
X28488095Y-37430223D01*
X28488095Y-37430223D02*
X28548571Y-37551175D01*
X28548571Y-37551175D02*
X28548571Y-37732604D01*
X28548571Y-37732604D02*
X28488095Y-37853556D01*
X28488095Y-37853556D02*
X28427618Y-37914033D01*
X28427618Y-37914033D02*
X28306666Y-37974509D01*
X28306666Y-37974509D02*
X27822856Y-37974509D01*
X29032380Y-38518795D02*
X29213809Y-38579271D01*
X29213809Y-38579271D02*
X29516190Y-38579271D01*
X29516190Y-38579271D02*
X29637142Y-38518795D01*
X29637142Y-38518795D02*
X29697618Y-38458318D01*
X29697618Y-38458318D02*
X29758095Y-38337366D01*
X29758095Y-38337366D02*
X29758095Y-38216414D01*
X29758095Y-38216414D02*
X29697618Y-38095461D01*
X29697618Y-38095461D02*
X29637142Y-38034985D01*
X29637142Y-38034985D02*
X29516190Y-37974509D01*
X29516190Y-37974509D02*
X29274285Y-37914033D01*
X29274285Y-37914033D02*
X29153333Y-37853556D01*
X29153333Y-37853556D02*
X29092856Y-37793080D01*
X29092856Y-37793080D02*
X29032380Y-37672128D01*
X29032380Y-37672128D02*
X29032380Y-37551175D01*
X29032380Y-37551175D02*
X29092856Y-37430223D01*
X29092856Y-37430223D02*
X29153333Y-37369747D01*
X29153333Y-37369747D02*
X29274285Y-37309271D01*
X29274285Y-37309271D02*
X29576666Y-37309271D01*
X29576666Y-37309271D02*
X29758095Y-37369747D01*
X30302380Y-38579271D02*
X30302380Y-37309271D01*
X30302380Y-37309271D02*
X30604761Y-37309271D01*
X30604761Y-37309271D02*
X30786190Y-37369747D01*
X30786190Y-37369747D02*
X30907142Y-37490699D01*
X30907142Y-37490699D02*
X30967619Y-37611652D01*
X30967619Y-37611652D02*
X31028095Y-37853556D01*
X31028095Y-37853556D02*
X31028095Y-38034985D01*
X31028095Y-38034985D02*
X30967619Y-38276890D01*
X30967619Y-38276890D02*
X30907142Y-38397842D01*
X30907142Y-38397842D02*
X30786190Y-38518795D01*
X30786190Y-38518795D02*
X30604761Y-38579271D01*
X30604761Y-38579271D02*
X30302380Y-38579271D01*
X32116666Y-37732604D02*
X32116666Y-38579271D01*
X31814285Y-37248795D02*
X31511904Y-38155937D01*
X31511904Y-38155937D02*
X32298095Y-38155937D01*
X28548571Y-43579271D02*
X28125237Y-42974509D01*
X27822856Y-43579271D02*
X27822856Y-42309271D01*
X27822856Y-42309271D02*
X28306666Y-42309271D01*
X28306666Y-42309271D02*
X28427618Y-42369747D01*
X28427618Y-42369747D02*
X28488095Y-42430223D01*
X28488095Y-42430223D02*
X28548571Y-42551175D01*
X28548571Y-42551175D02*
X28548571Y-42732604D01*
X28548571Y-42732604D02*
X28488095Y-42853556D01*
X28488095Y-42853556D02*
X28427618Y-42914033D01*
X28427618Y-42914033D02*
X28306666Y-42974509D01*
X28306666Y-42974509D02*
X27822856Y-42974509D01*
X29032380Y-43518795D02*
X29213809Y-43579271D01*
X29213809Y-43579271D02*
X29516190Y-43579271D01*
X29516190Y-43579271D02*
X29637142Y-43518795D01*
X29637142Y-43518795D02*
X29697618Y-43458318D01*
X29697618Y-43458318D02*
X29758095Y-43337366D01*
X29758095Y-43337366D02*
X29758095Y-43216414D01*
X29758095Y-43216414D02*
X29697618Y-43095461D01*
X29697618Y-43095461D02*
X29637142Y-43034985D01*
X29637142Y-43034985D02*
X29516190Y-42974509D01*
X29516190Y-42974509D02*
X29274285Y-42914033D01*
X29274285Y-42914033D02*
X29153333Y-42853556D01*
X29153333Y-42853556D02*
X29092856Y-42793080D01*
X29092856Y-42793080D02*
X29032380Y-42672128D01*
X29032380Y-42672128D02*
X29032380Y-42551175D01*
X29032380Y-42551175D02*
X29092856Y-42430223D01*
X29092856Y-42430223D02*
X29153333Y-42369747D01*
X29153333Y-42369747D02*
X29274285Y-42309271D01*
X29274285Y-42309271D02*
X29576666Y-42309271D01*
X29576666Y-42309271D02*
X29758095Y-42369747D01*
X30302380Y-43579271D02*
X30302380Y-42309271D01*
X30302380Y-42309271D02*
X30604761Y-42309271D01*
X30604761Y-42309271D02*
X30786190Y-42369747D01*
X30786190Y-42369747D02*
X30907142Y-42490699D01*
X30907142Y-42490699D02*
X30967619Y-42611652D01*
X30967619Y-42611652D02*
X31028095Y-42853556D01*
X31028095Y-42853556D02*
X31028095Y-43034985D01*
X31028095Y-43034985D02*
X30967619Y-43276890D01*
X30967619Y-43276890D02*
X30907142Y-43397842D01*
X30907142Y-43397842D02*
X30786190Y-43518795D01*
X30786190Y-43518795D02*
X30604761Y-43579271D01*
X30604761Y-43579271D02*
X30302380Y-43579271D01*
X32177142Y-42309271D02*
X31572380Y-42309271D01*
X31572380Y-42309271D02*
X31511904Y-42914033D01*
X31511904Y-42914033D02*
X31572380Y-42853556D01*
X31572380Y-42853556D02*
X31693333Y-42793080D01*
X31693333Y-42793080D02*
X31995714Y-42793080D01*
X31995714Y-42793080D02*
X32116666Y-42853556D01*
X32116666Y-42853556D02*
X32177142Y-42914033D01*
X32177142Y-42914033D02*
X32237619Y-43034985D01*
X32237619Y-43034985D02*
X32237619Y-43337366D01*
X32237619Y-43337366D02*
X32177142Y-43458318D01*
X32177142Y-43458318D02*
X32116666Y-43518795D01*
X32116666Y-43518795D02*
X31995714Y-43579271D01*
X31995714Y-43579271D02*
X31693333Y-43579271D01*
X31693333Y-43579271D02*
X31572380Y-43518795D01*
X31572380Y-43518795D02*
X31511904Y-43458318D01*
X33548571Y-3579271D02*
X33125237Y-2974509D01*
X32822856Y-3579271D02*
X32822856Y-2309271D01*
X32822856Y-2309271D02*
X33306666Y-2309271D01*
X33306666Y-2309271D02*
X33427618Y-2369747D01*
X33427618Y-2369747D02*
X33488095Y-2430223D01*
X33488095Y-2430223D02*
X33548571Y-2551175D01*
X33548571Y-2551175D02*
X33548571Y-2732604D01*
X33548571Y-2732604D02*
X33488095Y-2853556D01*
X33488095Y-2853556D02*
X33427618Y-2914033D01*
X33427618Y-2914033D02*
X33306666Y-2974509D01*
X33306666Y-2974509D02*
X32822856Y-2974509D01*
X34032380Y-3518795D02*
X34213809Y-3579271D01*
X34213809Y-3579271D02*
X34516190Y-3579271D01*
X34516190Y-3579271D02*
X34637142Y-3518795D01*
X34637142Y-3518795D02*
X34697618Y-3458318D01*
X34697618Y-3458318D02*
X34758095Y-3337366D01*
X34758095Y-3337366D02*
X34758095Y-3216414D01*
X34758095Y-3216414D02*
X34697618Y-3095461D01*
X34697618Y-3095461D02*
X34637142Y-3034985D01*
X34637142Y-3034985D02*
X34516190Y-2974509D01*
X34516190Y-2974509D02*
X34274285Y-2914033D01*
X34274285Y-2914033D02*
X34153333Y-2853556D01*
X34153333Y-2853556D02*
X34092856Y-2793080D01*
X34092856Y-2793080D02*
X34032380Y-2672128D01*
X34032380Y-2672128D02*
X34032380Y-2551175D01*
X34032380Y-2551175D02*
X34092856Y-2430223D01*
X34092856Y-2430223D02*
X34153333Y-2369747D01*
X34153333Y-2369747D02*
X34274285Y-2309271D01*
X34274285Y-2309271D02*
X34576666Y-2309271D01*
X34576666Y-2309271D02*
X34758095Y-2369747D01*
X35302380Y-3579271D02*
X35302380Y-2309271D01*
X35302380Y-2309271D02*
X35604761Y-2309271D01*
X35604761Y-2309271D02*
X35786190Y-2369747D01*
X35786190Y-2369747D02*
X35907142Y-2490699D01*
X35907142Y-2490699D02*
X35967619Y-2611652D01*
X35967619Y-2611652D02*
X36028095Y-2853556D01*
X36028095Y-2853556D02*
X36028095Y-3034985D01*
X36028095Y-3034985D02*
X35967619Y-3276890D01*
X35967619Y-3276890D02*
X35907142Y-3397842D01*
X35907142Y-3397842D02*
X35786190Y-3518795D01*
X35786190Y-3518795D02*
X35604761Y-3579271D01*
X35604761Y-3579271D02*
X35302380Y-3579271D01*
X37116666Y-2309271D02*
X36874761Y-2309271D01*
X36874761Y-2309271D02*
X36753809Y-2369747D01*
X36753809Y-2369747D02*
X36693333Y-2430223D01*
X36693333Y-2430223D02*
X36572380Y-2611652D01*
X36572380Y-2611652D02*
X36511904Y-2853556D01*
X36511904Y-2853556D02*
X36511904Y-3337366D01*
X36511904Y-3337366D02*
X36572380Y-3458318D01*
X36572380Y-3458318D02*
X36632857Y-3518795D01*
X36632857Y-3518795D02*
X36753809Y-3579271D01*
X36753809Y-3579271D02*
X36995714Y-3579271D01*
X36995714Y-3579271D02*
X37116666Y-3518795D01*
X37116666Y-3518795D02*
X37177142Y-3458318D01*
X37177142Y-3458318D02*
X37237619Y-3337366D01*
X37237619Y-3337366D02*
X37237619Y-3034985D01*
X37237619Y-3034985D02*
X37177142Y-2914033D01*
X37177142Y-2914033D02*
X37116666Y-2853556D01*
X37116666Y-2853556D02*
X36995714Y-2793080D01*
X36995714Y-2793080D02*
X36753809Y-2793080D01*
X36753809Y-2793080D02*
X36632857Y-2853556D01*
X36632857Y-2853556D02*
X36572380Y-2914033D01*
X36572380Y-2914033D02*
X36511904Y-3034985D01*
X33518333Y-9579271D02*
X33094999Y-8974509D01*
X32792618Y-9579271D02*
X32792618Y-8309271D01*
X32792618Y-8309271D02*
X33276428Y-8309271D01*
X33276428Y-8309271D02*
X33397380Y-8369747D01*
X33397380Y-8369747D02*
X33457857Y-8430223D01*
X33457857Y-8430223D02*
X33518333Y-8551175D01*
X33518333Y-8551175D02*
X33518333Y-8732604D01*
X33518333Y-8732604D02*
X33457857Y-8853556D01*
X33457857Y-8853556D02*
X33397380Y-8914033D01*
X33397380Y-8914033D02*
X33276428Y-8974509D01*
X33276428Y-8974509D02*
X32792618Y-8974509D01*
X34002142Y-9518795D02*
X34183571Y-9579271D01*
X34183571Y-9579271D02*
X34485952Y-9579271D01*
X34485952Y-9579271D02*
X34606904Y-9518795D01*
X34606904Y-9518795D02*
X34667380Y-9458318D01*
X34667380Y-9458318D02*
X34727857Y-9337366D01*
X34727857Y-9337366D02*
X34727857Y-9216414D01*
X34727857Y-9216414D02*
X34667380Y-9095461D01*
X34667380Y-9095461D02*
X34606904Y-9034985D01*
X34606904Y-9034985D02*
X34485952Y-8974509D01*
X34485952Y-8974509D02*
X34244047Y-8914033D01*
X34244047Y-8914033D02*
X34123095Y-8853556D01*
X34123095Y-8853556D02*
X34062618Y-8793080D01*
X34062618Y-8793080D02*
X34002142Y-8672128D01*
X34002142Y-8672128D02*
X34002142Y-8551175D01*
X34002142Y-8551175D02*
X34062618Y-8430223D01*
X34062618Y-8430223D02*
X34123095Y-8369747D01*
X34123095Y-8369747D02*
X34244047Y-8309271D01*
X34244047Y-8309271D02*
X34546428Y-8309271D01*
X34546428Y-8309271D02*
X34727857Y-8369747D01*
X35272142Y-9579271D02*
X35272142Y-8309271D01*
X35272142Y-8914033D02*
X35997857Y-8914033D01*
X35997857Y-9579271D02*
X35997857Y-8309271D01*
X37267857Y-9579271D02*
X36542142Y-9579271D01*
X36904999Y-9579271D02*
X36904999Y-8309271D01*
X36904999Y-8309271D02*
X36784047Y-8490699D01*
X36784047Y-8490699D02*
X36663095Y-8611652D01*
X36663095Y-8611652D02*
X36542142Y-8672128D01*
X33518333Y-14579271D02*
X33094999Y-13974509D01*
X32792618Y-14579271D02*
X32792618Y-13309271D01*
X32792618Y-13309271D02*
X33276428Y-13309271D01*
X33276428Y-13309271D02*
X33397380Y-13369747D01*
X33397380Y-13369747D02*
X33457857Y-13430223D01*
X33457857Y-13430223D02*
X33518333Y-13551175D01*
X33518333Y-13551175D02*
X33518333Y-13732604D01*
X33518333Y-13732604D02*
X33457857Y-13853556D01*
X33457857Y-13853556D02*
X33397380Y-13914033D01*
X33397380Y-13914033D02*
X33276428Y-13974509D01*
X33276428Y-13974509D02*
X32792618Y-13974509D01*
X34002142Y-14518795D02*
X34183571Y-14579271D01*
X34183571Y-14579271D02*
X34485952Y-14579271D01*
X34485952Y-14579271D02*
X34606904Y-14518795D01*
X34606904Y-14518795D02*
X34667380Y-14458318D01*
X34667380Y-14458318D02*
X34727857Y-14337366D01*
X34727857Y-14337366D02*
X34727857Y-14216414D01*
X34727857Y-14216414D02*
X34667380Y-14095461D01*
X34667380Y-14095461D02*
X34606904Y-14034985D01*
X34606904Y-14034985D02*
X34485952Y-13974509D01*
X34485952Y-13974509D02*
X34244047Y-13914033D01*
X34244047Y-13914033D02*
X34123095Y-13853556D01*
X34123095Y-13853556D02*
X34062618Y-13793080D01*
X34062618Y-13793080D02*
X34002142Y-13672128D01*
X34002142Y-13672128D02*
X34002142Y-13551175D01*
X34002142Y-13551175D02*
X34062618Y-13430223D01*
X34062618Y-13430223D02*
X34123095Y-13369747D01*
X34123095Y-13369747D02*
X34244047Y-13309271D01*
X34244047Y-13309271D02*
X34546428Y-13309271D01*
X34546428Y-13309271D02*
X34727857Y-13369747D01*
X35272142Y-14579271D02*
X35272142Y-13309271D01*
X35272142Y-13914033D02*
X35997857Y-13914033D01*
X35997857Y-14579271D02*
X35997857Y-13309271D01*
X36542142Y-13430223D02*
X36602618Y-13369747D01*
X36602618Y-13369747D02*
X36723571Y-13309271D01*
X36723571Y-13309271D02*
X37025952Y-13309271D01*
X37025952Y-13309271D02*
X37146904Y-13369747D01*
X37146904Y-13369747D02*
X37207380Y-13430223D01*
X37207380Y-13430223D02*
X37267857Y-13551175D01*
X37267857Y-13551175D02*
X37267857Y-13672128D01*
X37267857Y-13672128D02*
X37207380Y-13853556D01*
X37207380Y-13853556D02*
X36481666Y-14579271D01*
X36481666Y-14579271D02*
X37267857Y-14579271D01*
X33518333Y-19579271D02*
X33094999Y-18974509D01*
X32792618Y-19579271D02*
X32792618Y-18309271D01*
X32792618Y-18309271D02*
X33276428Y-18309271D01*
X33276428Y-18309271D02*
X33397380Y-18369747D01*
X33397380Y-18369747D02*
X33457857Y-18430223D01*
X33457857Y-18430223D02*
X33518333Y-18551175D01*
X33518333Y-18551175D02*
X33518333Y-18732604D01*
X33518333Y-18732604D02*
X33457857Y-18853556D01*
X33457857Y-18853556D02*
X33397380Y-18914033D01*
X33397380Y-18914033D02*
X33276428Y-18974509D01*
X33276428Y-18974509D02*
X32792618Y-18974509D01*
X34002142Y-19518795D02*
X34183571Y-19579271D01*
X34183571Y-19579271D02*
X34485952Y-19579271D01*
X34485952Y-19579271D02*
X34606904Y-19518795D01*
X34606904Y-19518795D02*
X34667380Y-19458318D01*
X34667380Y-19458318D02*
X34727857Y-19337366D01*
X34727857Y-19337366D02*
X34727857Y-19216414D01*
X34727857Y-19216414D02*
X34667380Y-19095461D01*
X34667380Y-19095461D02*
X34606904Y-19034985D01*
X34606904Y-19034985D02*
X34485952Y-18974509D01*
X34485952Y-18974509D02*
X34244047Y-18914033D01*
X34244047Y-18914033D02*
X34123095Y-18853556D01*
X34123095Y-18853556D02*
X34062618Y-18793080D01*
X34062618Y-18793080D02*
X34002142Y-18672128D01*
X34002142Y-18672128D02*
X34002142Y-18551175D01*
X34002142Y-18551175D02*
X34062618Y-18430223D01*
X34062618Y-18430223D02*
X34123095Y-18369747D01*
X34123095Y-18369747D02*
X34244047Y-18309271D01*
X34244047Y-18309271D02*
X34546428Y-18309271D01*
X34546428Y-18309271D02*
X34727857Y-18369747D01*
X35272142Y-19579271D02*
X35272142Y-18309271D01*
X35272142Y-18914033D02*
X35997857Y-18914033D01*
X35997857Y-19579271D02*
X35997857Y-18309271D01*
X36481666Y-18309271D02*
X37267857Y-18309271D01*
X37267857Y-18309271D02*
X36844523Y-18793080D01*
X36844523Y-18793080D02*
X37025952Y-18793080D01*
X37025952Y-18793080D02*
X37146904Y-18853556D01*
X37146904Y-18853556D02*
X37207380Y-18914033D01*
X37207380Y-18914033D02*
X37267857Y-19034985D01*
X37267857Y-19034985D02*
X37267857Y-19337366D01*
X37267857Y-19337366D02*
X37207380Y-19458318D01*
X37207380Y-19458318D02*
X37146904Y-19518795D01*
X37146904Y-19518795D02*
X37025952Y-19579271D01*
X37025952Y-19579271D02*
X36663095Y-19579271D01*
X36663095Y-19579271D02*
X36542142Y-19518795D01*
X36542142Y-19518795D02*
X36481666Y-19458318D01*
X33518333Y-24579271D02*
X33094999Y-23974509D01*
X32792618Y-24579271D02*
X32792618Y-23309271D01*
X32792618Y-23309271D02*
X33276428Y-23309271D01*
X33276428Y-23309271D02*
X33397380Y-23369747D01*
X33397380Y-23369747D02*
X33457857Y-23430223D01*
X33457857Y-23430223D02*
X33518333Y-23551175D01*
X33518333Y-23551175D02*
X33518333Y-23732604D01*
X33518333Y-23732604D02*
X33457857Y-23853556D01*
X33457857Y-23853556D02*
X33397380Y-23914033D01*
X33397380Y-23914033D02*
X33276428Y-23974509D01*
X33276428Y-23974509D02*
X32792618Y-23974509D01*
X34002142Y-24518795D02*
X34183571Y-24579271D01*
X34183571Y-24579271D02*
X34485952Y-24579271D01*
X34485952Y-24579271D02*
X34606904Y-24518795D01*
X34606904Y-24518795D02*
X34667380Y-24458318D01*
X34667380Y-24458318D02*
X34727857Y-24337366D01*
X34727857Y-24337366D02*
X34727857Y-24216414D01*
X34727857Y-24216414D02*
X34667380Y-24095461D01*
X34667380Y-24095461D02*
X34606904Y-24034985D01*
X34606904Y-24034985D02*
X34485952Y-23974509D01*
X34485952Y-23974509D02*
X34244047Y-23914033D01*
X34244047Y-23914033D02*
X34123095Y-23853556D01*
X34123095Y-23853556D02*
X34062618Y-23793080D01*
X34062618Y-23793080D02*
X34002142Y-23672128D01*
X34002142Y-23672128D02*
X34002142Y-23551175D01*
X34002142Y-23551175D02*
X34062618Y-23430223D01*
X34062618Y-23430223D02*
X34123095Y-23369747D01*
X34123095Y-23369747D02*
X34244047Y-23309271D01*
X34244047Y-23309271D02*
X34546428Y-23309271D01*
X34546428Y-23309271D02*
X34727857Y-23369747D01*
X35272142Y-24579271D02*
X35272142Y-23309271D01*
X35272142Y-23914033D02*
X35997857Y-23914033D01*
X35997857Y-24579271D02*
X35997857Y-23309271D01*
X37146904Y-23732604D02*
X37146904Y-24579271D01*
X36844523Y-23248795D02*
X36542142Y-24155937D01*
X36542142Y-24155937D02*
X37328333Y-24155937D01*
X33518333Y-29579271D02*
X33094999Y-28974509D01*
X32792618Y-29579271D02*
X32792618Y-28309271D01*
X32792618Y-28309271D02*
X33276428Y-28309271D01*
X33276428Y-28309271D02*
X33397380Y-28369747D01*
X33397380Y-28369747D02*
X33457857Y-28430223D01*
X33457857Y-28430223D02*
X33518333Y-28551175D01*
X33518333Y-28551175D02*
X33518333Y-28732604D01*
X33518333Y-28732604D02*
X33457857Y-28853556D01*
X33457857Y-28853556D02*
X33397380Y-28914033D01*
X33397380Y-28914033D02*
X33276428Y-28974509D01*
X33276428Y-28974509D02*
X32792618Y-28974509D01*
X34002142Y-29518795D02*
X34183571Y-29579271D01*
X34183571Y-29579271D02*
X34485952Y-29579271D01*
X34485952Y-29579271D02*
X34606904Y-29518795D01*
X34606904Y-29518795D02*
X34667380Y-29458318D01*
X34667380Y-29458318D02*
X34727857Y-29337366D01*
X34727857Y-29337366D02*
X34727857Y-29216414D01*
X34727857Y-29216414D02*
X34667380Y-29095461D01*
X34667380Y-29095461D02*
X34606904Y-29034985D01*
X34606904Y-29034985D02*
X34485952Y-28974509D01*
X34485952Y-28974509D02*
X34244047Y-28914033D01*
X34244047Y-28914033D02*
X34123095Y-28853556D01*
X34123095Y-28853556D02*
X34062618Y-28793080D01*
X34062618Y-28793080D02*
X34002142Y-28672128D01*
X34002142Y-28672128D02*
X34002142Y-28551175D01*
X34002142Y-28551175D02*
X34062618Y-28430223D01*
X34062618Y-28430223D02*
X34123095Y-28369747D01*
X34123095Y-28369747D02*
X34244047Y-28309271D01*
X34244047Y-28309271D02*
X34546428Y-28309271D01*
X34546428Y-28309271D02*
X34727857Y-28369747D01*
X35272142Y-29579271D02*
X35272142Y-28309271D01*
X35272142Y-28914033D02*
X35997857Y-28914033D01*
X35997857Y-29579271D02*
X35997857Y-28309271D01*
X37207380Y-28309271D02*
X36602618Y-28309271D01*
X36602618Y-28309271D02*
X36542142Y-28914033D01*
X36542142Y-28914033D02*
X36602618Y-28853556D01*
X36602618Y-28853556D02*
X36723571Y-28793080D01*
X36723571Y-28793080D02*
X37025952Y-28793080D01*
X37025952Y-28793080D02*
X37146904Y-28853556D01*
X37146904Y-28853556D02*
X37207380Y-28914033D01*
X37207380Y-28914033D02*
X37267857Y-29034985D01*
X37267857Y-29034985D02*
X37267857Y-29337366D01*
X37267857Y-29337366D02*
X37207380Y-29458318D01*
X37207380Y-29458318D02*
X37146904Y-29518795D01*
X37146904Y-29518795D02*
X37025952Y-29579271D01*
X37025952Y-29579271D02*
X36723571Y-29579271D01*
X36723571Y-29579271D02*
X36602618Y-29518795D01*
X36602618Y-29518795D02*
X36542142Y-29458318D01*
X33518333Y-34579271D02*
X33094999Y-33974509D01*
X32792618Y-34579271D02*
X32792618Y-33309271D01*
X32792618Y-33309271D02*
X33276428Y-33309271D01*
X33276428Y-33309271D02*
X33397380Y-33369747D01*
X33397380Y-33369747D02*
X33457857Y-33430223D01*
X33457857Y-33430223D02*
X33518333Y-33551175D01*
X33518333Y-33551175D02*
X33518333Y-33732604D01*
X33518333Y-33732604D02*
X33457857Y-33853556D01*
X33457857Y-33853556D02*
X33397380Y-33914033D01*
X33397380Y-33914033D02*
X33276428Y-33974509D01*
X33276428Y-33974509D02*
X32792618Y-33974509D01*
X34002142Y-34518795D02*
X34183571Y-34579271D01*
X34183571Y-34579271D02*
X34485952Y-34579271D01*
X34485952Y-34579271D02*
X34606904Y-34518795D01*
X34606904Y-34518795D02*
X34667380Y-34458318D01*
X34667380Y-34458318D02*
X34727857Y-34337366D01*
X34727857Y-34337366D02*
X34727857Y-34216414D01*
X34727857Y-34216414D02*
X34667380Y-34095461D01*
X34667380Y-34095461D02*
X34606904Y-34034985D01*
X34606904Y-34034985D02*
X34485952Y-33974509D01*
X34485952Y-33974509D02*
X34244047Y-33914033D01*
X34244047Y-33914033D02*
X34123095Y-33853556D01*
X34123095Y-33853556D02*
X34062618Y-33793080D01*
X34062618Y-33793080D02*
X34002142Y-33672128D01*
X34002142Y-33672128D02*
X34002142Y-33551175D01*
X34002142Y-33551175D02*
X34062618Y-33430223D01*
X34062618Y-33430223D02*
X34123095Y-33369747D01*
X34123095Y-33369747D02*
X34244047Y-33309271D01*
X34244047Y-33309271D02*
X34546428Y-33309271D01*
X34546428Y-33309271D02*
X34727857Y-33369747D01*
X35272142Y-34579271D02*
X35272142Y-33309271D01*
X35272142Y-33914033D02*
X35997857Y-33914033D01*
X35997857Y-34579271D02*
X35997857Y-33309271D01*
X37146904Y-33309271D02*
X36904999Y-33309271D01*
X36904999Y-33309271D02*
X36784047Y-33369747D01*
X36784047Y-33369747D02*
X36723571Y-33430223D01*
X36723571Y-33430223D02*
X36602618Y-33611652D01*
X36602618Y-33611652D02*
X36542142Y-33853556D01*
X36542142Y-33853556D02*
X36542142Y-34337366D01*
X36542142Y-34337366D02*
X36602618Y-34458318D01*
X36602618Y-34458318D02*
X36663095Y-34518795D01*
X36663095Y-34518795D02*
X36784047Y-34579271D01*
X36784047Y-34579271D02*
X37025952Y-34579271D01*
X37025952Y-34579271D02*
X37146904Y-34518795D01*
X37146904Y-34518795D02*
X37207380Y-34458318D01*
X37207380Y-34458318D02*
X37267857Y-34337366D01*
X37267857Y-34337366D02*
X37267857Y-34034985D01*
X37267857Y-34034985D02*
X37207380Y-33914033D01*
X37207380Y-33914033D02*
X37146904Y-33853556D01*
X37146904Y-33853556D02*
X37025952Y-33793080D01*
X37025952Y-33793080D02*
X36784047Y-33793080D01*
X36784047Y-33793080D02*
X36663095Y-33853556D01*
X36663095Y-33853556D02*
X36602618Y-33914033D01*
X36602618Y-33914033D02*
X36542142Y-34034985D01*
X34576667Y-37309271D02*
X34576667Y-38216414D01*
X34576667Y-38216414D02*
X34516190Y-38397842D01*
X34516190Y-38397842D02*
X34395238Y-38518795D01*
X34395238Y-38518795D02*
X34213809Y-38579271D01*
X34213809Y-38579271D02*
X34092857Y-38579271D01*
X35120952Y-37430223D02*
X35181428Y-37369747D01*
X35181428Y-37369747D02*
X35302381Y-37309271D01*
X35302381Y-37309271D02*
X35604762Y-37309271D01*
X35604762Y-37309271D02*
X35725714Y-37369747D01*
X35725714Y-37369747D02*
X35786190Y-37430223D01*
X35786190Y-37430223D02*
X35846667Y-37551175D01*
X35846667Y-37551175D02*
X35846667Y-37672128D01*
X35846667Y-37672128D02*
X35786190Y-37853556D01*
X35786190Y-37853556D02*
X35060476Y-38579271D01*
X35060476Y-38579271D02*
X35846667Y-38579271D01*
X34576667Y-42309271D02*
X34576667Y-43216414D01*
X34576667Y-43216414D02*
X34516190Y-43397842D01*
X34516190Y-43397842D02*
X34395238Y-43518795D01*
X34395238Y-43518795D02*
X34213809Y-43579271D01*
X34213809Y-43579271D02*
X34092857Y-43579271D01*
X35060476Y-42309271D02*
X35846667Y-42309271D01*
X35846667Y-42309271D02*
X35423333Y-42793080D01*
X35423333Y-42793080D02*
X35604762Y-42793080D01*
X35604762Y-42793080D02*
X35725714Y-42853556D01*
X35725714Y-42853556D02*
X35786190Y-42914033D01*
X35786190Y-42914033D02*
X35846667Y-43034985D01*
X35846667Y-43034985D02*
X35846667Y-43337366D01*
X35846667Y-43337366D02*
X35786190Y-43458318D01*
X35786190Y-43458318D02*
X35725714Y-43518795D01*
X35725714Y-43518795D02*
X35604762Y-43579271D01*
X35604762Y-43579271D02*
X35241905Y-43579271D01*
X35241905Y-43579271D02*
X35120952Y-43518795D01*
X35120952Y-43518795D02*
X35060476Y-43458318D01*
X38971905Y-2309271D02*
X38971905Y-3216414D01*
X38971905Y-3216414D02*
X38911428Y-3397842D01*
X38911428Y-3397842D02*
X38790476Y-3518795D01*
X38790476Y-3518795D02*
X38609047Y-3579271D01*
X38609047Y-3579271D02*
X38488095Y-3579271D01*
X40241905Y-3579271D02*
X39516190Y-3579271D01*
X39879047Y-3579271D02*
X39879047Y-2309271D01*
X39879047Y-2309271D02*
X39758095Y-2490699D01*
X39758095Y-2490699D02*
X39637143Y-2611652D01*
X39637143Y-2611652D02*
X39516190Y-2672128D01*
X41028095Y-2309271D02*
X41149048Y-2309271D01*
X41149048Y-2309271D02*
X41270000Y-2369747D01*
X41270000Y-2369747D02*
X41330476Y-2430223D01*
X41330476Y-2430223D02*
X41390952Y-2551175D01*
X41390952Y-2551175D02*
X41451429Y-2793080D01*
X41451429Y-2793080D02*
X41451429Y-3095461D01*
X41451429Y-3095461D02*
X41390952Y-3337366D01*
X41390952Y-3337366D02*
X41330476Y-3458318D01*
X41330476Y-3458318D02*
X41270000Y-3518795D01*
X41270000Y-3518795D02*
X41149048Y-3579271D01*
X41149048Y-3579271D02*
X41028095Y-3579271D01*
X41028095Y-3579271D02*
X40907143Y-3518795D01*
X40907143Y-3518795D02*
X40846667Y-3458318D01*
X40846667Y-3458318D02*
X40786190Y-3337366D01*
X40786190Y-3337366D02*
X40725714Y-3095461D01*
X40725714Y-3095461D02*
X40725714Y-2793080D01*
X40725714Y-2793080D02*
X40786190Y-2551175D01*
X40786190Y-2551175D02*
X40846667Y-2430223D01*
X40846667Y-2430223D02*
X40907143Y-2369747D01*
X40907143Y-2369747D02*
X41028095Y-2309271D01*
X38971905Y-7309271D02*
X38971905Y-8216414D01*
X38971905Y-8216414D02*
X38911428Y-8397842D01*
X38911428Y-8397842D02*
X38790476Y-8518795D01*
X38790476Y-8518795D02*
X38609047Y-8579271D01*
X38609047Y-8579271D02*
X38488095Y-8579271D01*
X40241905Y-8579271D02*
X39516190Y-8579271D01*
X39879047Y-8579271D02*
X39879047Y-7309271D01*
X39879047Y-7309271D02*
X39758095Y-7490699D01*
X39758095Y-7490699D02*
X39637143Y-7611652D01*
X39637143Y-7611652D02*
X39516190Y-7672128D01*
X41451429Y-8579271D02*
X40725714Y-8579271D01*
X41088571Y-8579271D02*
X41088571Y-7309271D01*
X41088571Y-7309271D02*
X40967619Y-7490699D01*
X40967619Y-7490699D02*
X40846667Y-7611652D01*
X40846667Y-7611652D02*
X40725714Y-7672128D01*
X38971905Y-12309271D02*
X38971905Y-13216414D01*
X38971905Y-13216414D02*
X38911428Y-13397842D01*
X38911428Y-13397842D02*
X38790476Y-13518795D01*
X38790476Y-13518795D02*
X38609047Y-13579271D01*
X38609047Y-13579271D02*
X38488095Y-13579271D01*
X39516190Y-12430223D02*
X39576666Y-12369747D01*
X39576666Y-12369747D02*
X39697619Y-12309271D01*
X39697619Y-12309271D02*
X40000000Y-12309271D01*
X40000000Y-12309271D02*
X40120952Y-12369747D01*
X40120952Y-12369747D02*
X40181428Y-12430223D01*
X40181428Y-12430223D02*
X40241905Y-12551175D01*
X40241905Y-12551175D02*
X40241905Y-12672128D01*
X40241905Y-12672128D02*
X40181428Y-12853556D01*
X40181428Y-12853556D02*
X39455714Y-13579271D01*
X39455714Y-13579271D02*
X40241905Y-13579271D01*
X41028095Y-12309271D02*
X41149048Y-12309271D01*
X41149048Y-12309271D02*
X41270000Y-12369747D01*
X41270000Y-12369747D02*
X41330476Y-12430223D01*
X41330476Y-12430223D02*
X41390952Y-12551175D01*
X41390952Y-12551175D02*
X41451429Y-12793080D01*
X41451429Y-12793080D02*
X41451429Y-13095461D01*
X41451429Y-13095461D02*
X41390952Y-13337366D01*
X41390952Y-13337366D02*
X41330476Y-13458318D01*
X41330476Y-13458318D02*
X41270000Y-13518795D01*
X41270000Y-13518795D02*
X41149048Y-13579271D01*
X41149048Y-13579271D02*
X41028095Y-13579271D01*
X41028095Y-13579271D02*
X40907143Y-13518795D01*
X40907143Y-13518795D02*
X40846667Y-13458318D01*
X40846667Y-13458318D02*
X40786190Y-13337366D01*
X40786190Y-13337366D02*
X40725714Y-13095461D01*
X40725714Y-13095461D02*
X40725714Y-12793080D01*
X40725714Y-12793080D02*
X40786190Y-12551175D01*
X40786190Y-12551175D02*
X40846667Y-12430223D01*
X40846667Y-12430223D02*
X40907143Y-12369747D01*
X40907143Y-12369747D02*
X41028095Y-12309271D01*
X38971905Y-17309271D02*
X38971905Y-18216414D01*
X38971905Y-18216414D02*
X38911428Y-18397842D01*
X38911428Y-18397842D02*
X38790476Y-18518795D01*
X38790476Y-18518795D02*
X38609047Y-18579271D01*
X38609047Y-18579271D02*
X38488095Y-18579271D01*
X39516190Y-17430223D02*
X39576666Y-17369747D01*
X39576666Y-17369747D02*
X39697619Y-17309271D01*
X39697619Y-17309271D02*
X40000000Y-17309271D01*
X40000000Y-17309271D02*
X40120952Y-17369747D01*
X40120952Y-17369747D02*
X40181428Y-17430223D01*
X40181428Y-17430223D02*
X40241905Y-17551175D01*
X40241905Y-17551175D02*
X40241905Y-17672128D01*
X40241905Y-17672128D02*
X40181428Y-17853556D01*
X40181428Y-17853556D02*
X39455714Y-18579271D01*
X39455714Y-18579271D02*
X40241905Y-18579271D01*
X41451429Y-18579271D02*
X40725714Y-18579271D01*
X41088571Y-18579271D02*
X41088571Y-17309271D01*
X41088571Y-17309271D02*
X40967619Y-17490699D01*
X40967619Y-17490699D02*
X40846667Y-17611652D01*
X40846667Y-17611652D02*
X40725714Y-17672128D01*
X38971905Y-22309271D02*
X38971905Y-23216414D01*
X38971905Y-23216414D02*
X38911428Y-23397842D01*
X38911428Y-23397842D02*
X38790476Y-23518795D01*
X38790476Y-23518795D02*
X38609047Y-23579271D01*
X38609047Y-23579271D02*
X38488095Y-23579271D01*
X39455714Y-22309271D02*
X40241905Y-22309271D01*
X40241905Y-22309271D02*
X39818571Y-22793080D01*
X39818571Y-22793080D02*
X40000000Y-22793080D01*
X40000000Y-22793080D02*
X40120952Y-22853556D01*
X40120952Y-22853556D02*
X40181428Y-22914033D01*
X40181428Y-22914033D02*
X40241905Y-23034985D01*
X40241905Y-23034985D02*
X40241905Y-23337366D01*
X40241905Y-23337366D02*
X40181428Y-23458318D01*
X40181428Y-23458318D02*
X40120952Y-23518795D01*
X40120952Y-23518795D02*
X40000000Y-23579271D01*
X40000000Y-23579271D02*
X39637143Y-23579271D01*
X39637143Y-23579271D02*
X39516190Y-23518795D01*
X39516190Y-23518795D02*
X39455714Y-23458318D01*
X41028095Y-22309271D02*
X41149048Y-22309271D01*
X41149048Y-22309271D02*
X41270000Y-22369747D01*
X41270000Y-22369747D02*
X41330476Y-22430223D01*
X41330476Y-22430223D02*
X41390952Y-22551175D01*
X41390952Y-22551175D02*
X41451429Y-22793080D01*
X41451429Y-22793080D02*
X41451429Y-23095461D01*
X41451429Y-23095461D02*
X41390952Y-23337366D01*
X41390952Y-23337366D02*
X41330476Y-23458318D01*
X41330476Y-23458318D02*
X41270000Y-23518795D01*
X41270000Y-23518795D02*
X41149048Y-23579271D01*
X41149048Y-23579271D02*
X41028095Y-23579271D01*
X41028095Y-23579271D02*
X40907143Y-23518795D01*
X40907143Y-23518795D02*
X40846667Y-23458318D01*
X40846667Y-23458318D02*
X40786190Y-23337366D01*
X40786190Y-23337366D02*
X40725714Y-23095461D01*
X40725714Y-23095461D02*
X40725714Y-22793080D01*
X40725714Y-22793080D02*
X40786190Y-22551175D01*
X40786190Y-22551175D02*
X40846667Y-22430223D01*
X40846667Y-22430223D02*
X40907143Y-22369747D01*
X40907143Y-22369747D02*
X41028095Y-22309271D01*
X38971905Y-27309271D02*
X38971905Y-28216414D01*
X38971905Y-28216414D02*
X38911428Y-28397842D01*
X38911428Y-28397842D02*
X38790476Y-28518795D01*
X38790476Y-28518795D02*
X38609047Y-28579271D01*
X38609047Y-28579271D02*
X38488095Y-28579271D01*
X39455714Y-27309271D02*
X40241905Y-27309271D01*
X40241905Y-27309271D02*
X39818571Y-27793080D01*
X39818571Y-27793080D02*
X40000000Y-27793080D01*
X40000000Y-27793080D02*
X40120952Y-27853556D01*
X40120952Y-27853556D02*
X40181428Y-27914033D01*
X40181428Y-27914033D02*
X40241905Y-28034985D01*
X40241905Y-28034985D02*
X40241905Y-28337366D01*
X40241905Y-28337366D02*
X40181428Y-28458318D01*
X40181428Y-28458318D02*
X40120952Y-28518795D01*
X40120952Y-28518795D02*
X40000000Y-28579271D01*
X40000000Y-28579271D02*
X39637143Y-28579271D01*
X39637143Y-28579271D02*
X39516190Y-28518795D01*
X39516190Y-28518795D02*
X39455714Y-28458318D01*
X41451429Y-28579271D02*
X40725714Y-28579271D01*
X41088571Y-28579271D02*
X41088571Y-27309271D01*
X41088571Y-27309271D02*
X40967619Y-27490699D01*
X40967619Y-27490699D02*
X40846667Y-27611652D01*
X40846667Y-27611652D02*
X40725714Y-27672128D01*
X38971905Y-32309271D02*
X38971905Y-33216414D01*
X38971905Y-33216414D02*
X38911428Y-33397842D01*
X38911428Y-33397842D02*
X38790476Y-33518795D01*
X38790476Y-33518795D02*
X38609047Y-33579271D01*
X38609047Y-33579271D02*
X38488095Y-33579271D01*
X40120952Y-32732604D02*
X40120952Y-33579271D01*
X39818571Y-32248795D02*
X39516190Y-33155937D01*
X39516190Y-33155937D02*
X40302381Y-33155937D01*
X41028095Y-32309271D02*
X41149048Y-32309271D01*
X41149048Y-32309271D02*
X41270000Y-32369747D01*
X41270000Y-32369747D02*
X41330476Y-32430223D01*
X41330476Y-32430223D02*
X41390952Y-32551175D01*
X41390952Y-32551175D02*
X41451429Y-32793080D01*
X41451429Y-32793080D02*
X41451429Y-33095461D01*
X41451429Y-33095461D02*
X41390952Y-33337366D01*
X41390952Y-33337366D02*
X41330476Y-33458318D01*
X41330476Y-33458318D02*
X41270000Y-33518795D01*
X41270000Y-33518795D02*
X41149048Y-33579271D01*
X41149048Y-33579271D02*
X41028095Y-33579271D01*
X41028095Y-33579271D02*
X40907143Y-33518795D01*
X40907143Y-33518795D02*
X40846667Y-33458318D01*
X40846667Y-33458318D02*
X40786190Y-33337366D01*
X40786190Y-33337366D02*
X40725714Y-33095461D01*
X40725714Y-33095461D02*
X40725714Y-32793080D01*
X40725714Y-32793080D02*
X40786190Y-32551175D01*
X40786190Y-32551175D02*
X40846667Y-32430223D01*
X40846667Y-32430223D02*
X40907143Y-32369747D01*
X40907143Y-32369747D02*
X41028095Y-32309271D01*
X38971905Y-37309271D02*
X38971905Y-38216414D01*
X38971905Y-38216414D02*
X38911428Y-38397842D01*
X38911428Y-38397842D02*
X38790476Y-38518795D01*
X38790476Y-38518795D02*
X38609047Y-38579271D01*
X38609047Y-38579271D02*
X38488095Y-38579271D01*
X40120952Y-37732604D02*
X40120952Y-38579271D01*
X39818571Y-37248795D02*
X39516190Y-38155937D01*
X39516190Y-38155937D02*
X40302381Y-38155937D01*
X41451429Y-38579271D02*
X40725714Y-38579271D01*
X41088571Y-38579271D02*
X41088571Y-37309271D01*
X41088571Y-37309271D02*
X40967619Y-37490699D01*
X40967619Y-37490699D02*
X40846667Y-37611652D01*
X40846667Y-37611652D02*
X40725714Y-37672128D01*
X38971905Y-42309271D02*
X38971905Y-43216414D01*
X38971905Y-43216414D02*
X38911428Y-43397842D01*
X38911428Y-43397842D02*
X38790476Y-43518795D01*
X38790476Y-43518795D02*
X38609047Y-43579271D01*
X38609047Y-43579271D02*
X38488095Y-43579271D01*
X40120952Y-42732604D02*
X40120952Y-43579271D01*
X39818571Y-42248795D02*
X39516190Y-43155937D01*
X39516190Y-43155937D02*
X40302381Y-43155937D01*
X40725714Y-42430223D02*
X40786190Y-42369747D01*
X40786190Y-42369747D02*
X40907143Y-42309271D01*
X40907143Y-42309271D02*
X41209524Y-42309271D01*
X41209524Y-42309271D02*
X41330476Y-42369747D01*
X41330476Y-42369747D02*
X41390952Y-42430223D01*
X41390952Y-42430223D02*
X41451429Y-42551175D01*
X41451429Y-42551175D02*
X41451429Y-42672128D01*
X41451429Y-42672128D02*
X41390952Y-42853556D01*
X41390952Y-42853556D02*
X40665238Y-43579271D01*
X40665238Y-43579271D02*
X41451429Y-43579271D01*
X44032380Y-4518795D02*
X44213809Y-4579271D01*
X44213809Y-4579271D02*
X44516190Y-4579271D01*
X44516190Y-4579271D02*
X44637142Y-4518795D01*
X44637142Y-4518795D02*
X44697618Y-4458318D01*
X44697618Y-4458318D02*
X44758095Y-4337366D01*
X44758095Y-4337366D02*
X44758095Y-4216414D01*
X44758095Y-4216414D02*
X44697618Y-4095461D01*
X44697618Y-4095461D02*
X44637142Y-4034985D01*
X44637142Y-4034985D02*
X44516190Y-3974509D01*
X44516190Y-3974509D02*
X44274285Y-3914033D01*
X44274285Y-3914033D02*
X44153333Y-3853556D01*
X44153333Y-3853556D02*
X44092856Y-3793080D01*
X44092856Y-3793080D02*
X44032380Y-3672128D01*
X44032380Y-3672128D02*
X44032380Y-3551175D01*
X44032380Y-3551175D02*
X44092856Y-3430223D01*
X44092856Y-3430223D02*
X44153333Y-3369747D01*
X44153333Y-3369747D02*
X44274285Y-3309271D01*
X44274285Y-3309271D02*
X44576666Y-3309271D01*
X44576666Y-3309271D02*
X44758095Y-3369747D01*
X45967619Y-4579271D02*
X45241904Y-4579271D01*
X45604761Y-4579271D02*
X45604761Y-3309271D01*
X45604761Y-3309271D02*
X45483809Y-3490699D01*
X45483809Y-3490699D02*
X45362857Y-3611652D01*
X45362857Y-3611652D02*
X45241904Y-3672128D01*
X44032380Y-9518795D02*
X44213809Y-9579271D01*
X44213809Y-9579271D02*
X44516190Y-9579271D01*
X44516190Y-9579271D02*
X44637142Y-9518795D01*
X44637142Y-9518795D02*
X44697618Y-9458318D01*
X44697618Y-9458318D02*
X44758095Y-9337366D01*
X44758095Y-9337366D02*
X44758095Y-9216414D01*
X44758095Y-9216414D02*
X44697618Y-9095461D01*
X44697618Y-9095461D02*
X44637142Y-9034985D01*
X44637142Y-9034985D02*
X44516190Y-8974509D01*
X44516190Y-8974509D02*
X44274285Y-8914033D01*
X44274285Y-8914033D02*
X44153333Y-8853556D01*
X44153333Y-8853556D02*
X44092856Y-8793080D01*
X44092856Y-8793080D02*
X44032380Y-8672128D01*
X44032380Y-8672128D02*
X44032380Y-8551175D01*
X44032380Y-8551175D02*
X44092856Y-8430223D01*
X44092856Y-8430223D02*
X44153333Y-8369747D01*
X44153333Y-8369747D02*
X44274285Y-8309271D01*
X44274285Y-8309271D02*
X44576666Y-8309271D01*
X44576666Y-8309271D02*
X44758095Y-8369747D01*
X45241904Y-8430223D02*
X45302380Y-8369747D01*
X45302380Y-8369747D02*
X45423333Y-8309271D01*
X45423333Y-8309271D02*
X45725714Y-8309271D01*
X45725714Y-8309271D02*
X45846666Y-8369747D01*
X45846666Y-8369747D02*
X45907142Y-8430223D01*
X45907142Y-8430223D02*
X45967619Y-8551175D01*
X45967619Y-8551175D02*
X45967619Y-8672128D01*
X45967619Y-8672128D02*
X45907142Y-8853556D01*
X45907142Y-8853556D02*
X45181428Y-9579271D01*
X45181428Y-9579271D02*
X45967619Y-9579271D01*
X43427618Y-14518795D02*
X43609047Y-14579271D01*
X43609047Y-14579271D02*
X43911428Y-14579271D01*
X43911428Y-14579271D02*
X44032380Y-14518795D01*
X44032380Y-14518795D02*
X44092856Y-14458318D01*
X44092856Y-14458318D02*
X44153333Y-14337366D01*
X44153333Y-14337366D02*
X44153333Y-14216414D01*
X44153333Y-14216414D02*
X44092856Y-14095461D01*
X44092856Y-14095461D02*
X44032380Y-14034985D01*
X44032380Y-14034985D02*
X43911428Y-13974509D01*
X43911428Y-13974509D02*
X43669523Y-13914033D01*
X43669523Y-13914033D02*
X43548571Y-13853556D01*
X43548571Y-13853556D02*
X43488094Y-13793080D01*
X43488094Y-13793080D02*
X43427618Y-13672128D01*
X43427618Y-13672128D02*
X43427618Y-13551175D01*
X43427618Y-13551175D02*
X43488094Y-13430223D01*
X43488094Y-13430223D02*
X43548571Y-13369747D01*
X43548571Y-13369747D02*
X43669523Y-13309271D01*
X43669523Y-13309271D02*
X43971904Y-13309271D01*
X43971904Y-13309271D02*
X44153333Y-13369747D01*
X44637142Y-13430223D02*
X44697618Y-13369747D01*
X44697618Y-13369747D02*
X44818571Y-13309271D01*
X44818571Y-13309271D02*
X45120952Y-13309271D01*
X45120952Y-13309271D02*
X45241904Y-13369747D01*
X45241904Y-13369747D02*
X45302380Y-13430223D01*
X45302380Y-13430223D02*
X45362857Y-13551175D01*
X45362857Y-13551175D02*
X45362857Y-13672128D01*
X45362857Y-13672128D02*
X45302380Y-13853556D01*
X45302380Y-13853556D02*
X44576666Y-14579271D01*
X44576666Y-14579271D02*
X45362857Y-14579271D01*
X46149047Y-13309271D02*
X46270000Y-13309271D01*
X46270000Y-13309271D02*
X46390952Y-13369747D01*
X46390952Y-13369747D02*
X46451428Y-13430223D01*
X46451428Y-13430223D02*
X46511904Y-13551175D01*
X46511904Y-13551175D02*
X46572381Y-13793080D01*
X46572381Y-13793080D02*
X46572381Y-14095461D01*
X46572381Y-14095461D02*
X46511904Y-14337366D01*
X46511904Y-14337366D02*
X46451428Y-14458318D01*
X46451428Y-14458318D02*
X46390952Y-14518795D01*
X46390952Y-14518795D02*
X46270000Y-14579271D01*
X46270000Y-14579271D02*
X46149047Y-14579271D01*
X46149047Y-14579271D02*
X46028095Y-14518795D01*
X46028095Y-14518795D02*
X45967619Y-14458318D01*
X45967619Y-14458318D02*
X45907142Y-14337366D01*
X45907142Y-14337366D02*
X45846666Y-14095461D01*
X45846666Y-14095461D02*
X45846666Y-13793080D01*
X45846666Y-13793080D02*
X45907142Y-13551175D01*
X45907142Y-13551175D02*
X45967619Y-13430223D01*
X45967619Y-13430223D02*
X46028095Y-13369747D01*
X46028095Y-13369747D02*
X46149047Y-13309271D01*
X43397381Y-18309271D02*
X44123095Y-18309271D01*
X43760238Y-19579271D02*
X43760238Y-18309271D01*
X44546428Y-19579271D02*
X44546428Y-18309271D01*
X44546428Y-18309271D02*
X45030238Y-18309271D01*
X45030238Y-18309271D02*
X45151190Y-18369747D01*
X45151190Y-18369747D02*
X45211667Y-18430223D01*
X45211667Y-18430223D02*
X45272143Y-18551175D01*
X45272143Y-18551175D02*
X45272143Y-18732604D01*
X45272143Y-18732604D02*
X45211667Y-18853556D01*
X45211667Y-18853556D02*
X45151190Y-18914033D01*
X45151190Y-18914033D02*
X45030238Y-18974509D01*
X45030238Y-18974509D02*
X44546428Y-18974509D01*
X46481667Y-19579271D02*
X45755952Y-19579271D01*
X46118809Y-19579271D02*
X46118809Y-18309271D01*
X46118809Y-18309271D02*
X45997857Y-18490699D01*
X45997857Y-18490699D02*
X45876905Y-18611652D01*
X45876905Y-18611652D02*
X45755952Y-18672128D01*
X43397381Y-23309271D02*
X44123095Y-23309271D01*
X43760238Y-24579271D02*
X43760238Y-23309271D01*
X44546428Y-24579271D02*
X44546428Y-23309271D01*
X44546428Y-23309271D02*
X45030238Y-23309271D01*
X45030238Y-23309271D02*
X45151190Y-23369747D01*
X45151190Y-23369747D02*
X45211667Y-23430223D01*
X45211667Y-23430223D02*
X45272143Y-23551175D01*
X45272143Y-23551175D02*
X45272143Y-23732604D01*
X45272143Y-23732604D02*
X45211667Y-23853556D01*
X45211667Y-23853556D02*
X45151190Y-23914033D01*
X45151190Y-23914033D02*
X45030238Y-23974509D01*
X45030238Y-23974509D02*
X44546428Y-23974509D01*
X45755952Y-23430223D02*
X45816428Y-23369747D01*
X45816428Y-23369747D02*
X45937381Y-23309271D01*
X45937381Y-23309271D02*
X46239762Y-23309271D01*
X46239762Y-23309271D02*
X46360714Y-23369747D01*
X46360714Y-23369747D02*
X46421190Y-23430223D01*
X46421190Y-23430223D02*
X46481667Y-23551175D01*
X46481667Y-23551175D02*
X46481667Y-23672128D01*
X46481667Y-23672128D02*
X46421190Y-23853556D01*
X46421190Y-23853556D02*
X45695476Y-24579271D01*
X45695476Y-24579271D02*
X46481667Y-24579271D01*
X43397381Y-28309271D02*
X44123095Y-28309271D01*
X43760238Y-29579271D02*
X43760238Y-28309271D01*
X44546428Y-29579271D02*
X44546428Y-28309271D01*
X44546428Y-28309271D02*
X45030238Y-28309271D01*
X45030238Y-28309271D02*
X45151190Y-28369747D01*
X45151190Y-28369747D02*
X45211667Y-28430223D01*
X45211667Y-28430223D02*
X45272143Y-28551175D01*
X45272143Y-28551175D02*
X45272143Y-28732604D01*
X45272143Y-28732604D02*
X45211667Y-28853556D01*
X45211667Y-28853556D02*
X45151190Y-28914033D01*
X45151190Y-28914033D02*
X45030238Y-28974509D01*
X45030238Y-28974509D02*
X44546428Y-28974509D01*
X45695476Y-28309271D02*
X46481667Y-28309271D01*
X46481667Y-28309271D02*
X46058333Y-28793080D01*
X46058333Y-28793080D02*
X46239762Y-28793080D01*
X46239762Y-28793080D02*
X46360714Y-28853556D01*
X46360714Y-28853556D02*
X46421190Y-28914033D01*
X46421190Y-28914033D02*
X46481667Y-29034985D01*
X46481667Y-29034985D02*
X46481667Y-29337366D01*
X46481667Y-29337366D02*
X46421190Y-29458318D01*
X46421190Y-29458318D02*
X46360714Y-29518795D01*
X46360714Y-29518795D02*
X46239762Y-29579271D01*
X46239762Y-29579271D02*
X45876905Y-29579271D01*
X45876905Y-29579271D02*
X45755952Y-29518795D01*
X45755952Y-29518795D02*
X45695476Y-29458318D01*
X43397381Y-33309271D02*
X44123095Y-33309271D01*
X43760238Y-34579271D02*
X43760238Y-33309271D01*
X44546428Y-34579271D02*
X44546428Y-33309271D01*
X44546428Y-33309271D02*
X45030238Y-33309271D01*
X45030238Y-33309271D02*
X45151190Y-33369747D01*
X45151190Y-33369747D02*
X45211667Y-33430223D01*
X45211667Y-33430223D02*
X45272143Y-33551175D01*
X45272143Y-33551175D02*
X45272143Y-33732604D01*
X45272143Y-33732604D02*
X45211667Y-33853556D01*
X45211667Y-33853556D02*
X45151190Y-33914033D01*
X45151190Y-33914033D02*
X45030238Y-33974509D01*
X45030238Y-33974509D02*
X44546428Y-33974509D01*
X46360714Y-33732604D02*
X46360714Y-34579271D01*
X46058333Y-33248795D02*
X45755952Y-34155937D01*
X45755952Y-34155937D02*
X46542143Y-34155937D01*
X43397381Y-38309271D02*
X44123095Y-38309271D01*
X43760238Y-39579271D02*
X43760238Y-38309271D01*
X44546428Y-39579271D02*
X44546428Y-38309271D01*
X44546428Y-38309271D02*
X45030238Y-38309271D01*
X45030238Y-38309271D02*
X45151190Y-38369747D01*
X45151190Y-38369747D02*
X45211667Y-38430223D01*
X45211667Y-38430223D02*
X45272143Y-38551175D01*
X45272143Y-38551175D02*
X45272143Y-38732604D01*
X45272143Y-38732604D02*
X45211667Y-38853556D01*
X45211667Y-38853556D02*
X45151190Y-38914033D01*
X45151190Y-38914033D02*
X45030238Y-38974509D01*
X45030238Y-38974509D02*
X44546428Y-38974509D01*
X46421190Y-38309271D02*
X45816428Y-38309271D01*
X45816428Y-38309271D02*
X45755952Y-38914033D01*
X45755952Y-38914033D02*
X45816428Y-38853556D01*
X45816428Y-38853556D02*
X45937381Y-38793080D01*
X45937381Y-38793080D02*
X46239762Y-38793080D01*
X46239762Y-38793080D02*
X46360714Y-38853556D01*
X46360714Y-38853556D02*
X46421190Y-38914033D01*
X46421190Y-38914033D02*
X46481667Y-39034985D01*
X46481667Y-39034985D02*
X46481667Y-39337366D01*
X46481667Y-39337366D02*
X46421190Y-39458318D01*
X46421190Y-39458318D02*
X46360714Y-39518795D01*
X46360714Y-39518795D02*
X46239762Y-39579271D01*
X46239762Y-39579271D02*
X45937381Y-39579271D01*
X45937381Y-39579271D02*
X45816428Y-39518795D01*
X45816428Y-39518795D02*
X45755952Y-39458318D01*
X43397381Y-43309271D02*
X44123095Y-43309271D01*
X43760238Y-44579271D02*
X43760238Y-43309271D01*
X44546428Y-44579271D02*
X44546428Y-43309271D01*
X44546428Y-43309271D02*
X45030238Y-43309271D01*
X45030238Y-43309271D02*
X45151190Y-43369747D01*
X45151190Y-43369747D02*
X45211667Y-43430223D01*
X45211667Y-43430223D02*
X45272143Y-43551175D01*
X45272143Y-43551175D02*
X45272143Y-43732604D01*
X45272143Y-43732604D02*
X45211667Y-43853556D01*
X45211667Y-43853556D02*
X45151190Y-43914033D01*
X45151190Y-43914033D02*
X45030238Y-43974509D01*
X45030238Y-43974509D02*
X44546428Y-43974509D01*
X46360714Y-43309271D02*
X46118809Y-43309271D01*
X46118809Y-43309271D02*
X45997857Y-43369747D01*
X45997857Y-43369747D02*
X45937381Y-43430223D01*
X45937381Y-43430223D02*
X45816428Y-43611652D01*
X45816428Y-43611652D02*
X45755952Y-43853556D01*
X45755952Y-43853556D02*
X45755952Y-44337366D01*
X45755952Y-44337366D02*
X45816428Y-44458318D01*
X45816428Y-44458318D02*
X45876905Y-44518795D01*
X45876905Y-44518795D02*
X45997857Y-44579271D01*
X45997857Y-44579271D02*
X46239762Y-44579271D01*
X46239762Y-44579271D02*
X46360714Y-44518795D01*
X46360714Y-44518795D02*
X46421190Y-44458318D01*
X46421190Y-44458318D02*
X46481667Y-44337366D01*
X46481667Y-44337366D02*
X46481667Y-44034985D01*
X46481667Y-44034985D02*
X46421190Y-43914033D01*
X46421190Y-43914033D02*
X46360714Y-43853556D01*
X46360714Y-43853556D02*
X46239762Y-43793080D01*
X46239762Y-43793080D02*
X45997857Y-43793080D01*
X45997857Y-43793080D02*
X45876905Y-43853556D01*
X45876905Y-43853556D02*
X45816428Y-43914033D01*
X45816428Y-43914033D02*
X45755952Y-44034985D01*
X48397381Y-3309271D02*
X49123095Y-3309271D01*
X48760238Y-4579271D02*
X48760238Y-3309271D01*
X49546428Y-4579271D02*
X49546428Y-3309271D01*
X49546428Y-3309271D02*
X50030238Y-3309271D01*
X50030238Y-3309271D02*
X50151190Y-3369747D01*
X50151190Y-3369747D02*
X50211667Y-3430223D01*
X50211667Y-3430223D02*
X50272143Y-3551175D01*
X50272143Y-3551175D02*
X50272143Y-3732604D01*
X50272143Y-3732604D02*
X50211667Y-3853556D01*
X50211667Y-3853556D02*
X50151190Y-3914033D01*
X50151190Y-3914033D02*
X50030238Y-3974509D01*
X50030238Y-3974509D02*
X49546428Y-3974509D01*
X50695476Y-3309271D02*
X51542143Y-3309271D01*
X51542143Y-3309271D02*
X50997857Y-4579271D01*
X48397381Y-8309271D02*
X49123095Y-8309271D01*
X48760238Y-9579271D02*
X48760238Y-8309271D01*
X49546428Y-9579271D02*
X49546428Y-8309271D01*
X49546428Y-8309271D02*
X50030238Y-8309271D01*
X50030238Y-8309271D02*
X50151190Y-8369747D01*
X50151190Y-8369747D02*
X50211667Y-8430223D01*
X50211667Y-8430223D02*
X50272143Y-8551175D01*
X50272143Y-8551175D02*
X50272143Y-8732604D01*
X50272143Y-8732604D02*
X50211667Y-8853556D01*
X50211667Y-8853556D02*
X50151190Y-8914033D01*
X50151190Y-8914033D02*
X50030238Y-8974509D01*
X50030238Y-8974509D02*
X49546428Y-8974509D01*
X50997857Y-8853556D02*
X50876905Y-8793080D01*
X50876905Y-8793080D02*
X50816428Y-8732604D01*
X50816428Y-8732604D02*
X50755952Y-8611652D01*
X50755952Y-8611652D02*
X50755952Y-8551175D01*
X50755952Y-8551175D02*
X50816428Y-8430223D01*
X50816428Y-8430223D02*
X50876905Y-8369747D01*
X50876905Y-8369747D02*
X50997857Y-8309271D01*
X50997857Y-8309271D02*
X51239762Y-8309271D01*
X51239762Y-8309271D02*
X51360714Y-8369747D01*
X51360714Y-8369747D02*
X51421190Y-8430223D01*
X51421190Y-8430223D02*
X51481667Y-8551175D01*
X51481667Y-8551175D02*
X51481667Y-8611652D01*
X51481667Y-8611652D02*
X51421190Y-8732604D01*
X51421190Y-8732604D02*
X51360714Y-8793080D01*
X51360714Y-8793080D02*
X51239762Y-8853556D01*
X51239762Y-8853556D02*
X50997857Y-8853556D01*
X50997857Y-8853556D02*
X50876905Y-8914033D01*
X50876905Y-8914033D02*
X50816428Y-8974509D01*
X50816428Y-8974509D02*
X50755952Y-9095461D01*
X50755952Y-9095461D02*
X50755952Y-9337366D01*
X50755952Y-9337366D02*
X50816428Y-9458318D01*
X50816428Y-9458318D02*
X50876905Y-9518795D01*
X50876905Y-9518795D02*
X50997857Y-9579271D01*
X50997857Y-9579271D02*
X51239762Y-9579271D01*
X51239762Y-9579271D02*
X51360714Y-9518795D01*
X51360714Y-9518795D02*
X51421190Y-9458318D01*
X51421190Y-9458318D02*
X51481667Y-9337366D01*
X51481667Y-9337366D02*
X51481667Y-9095461D01*
X51481667Y-9095461D02*
X51421190Y-8974509D01*
X51421190Y-8974509D02*
X51360714Y-8914033D01*
X51360714Y-8914033D02*
X51239762Y-8853556D01*
X48397381Y-13309271D02*
X49123095Y-13309271D01*
X48760238Y-14579271D02*
X48760238Y-13309271D01*
X49546428Y-14579271D02*
X49546428Y-13309271D01*
X49546428Y-13309271D02*
X50030238Y-13309271D01*
X50030238Y-13309271D02*
X50151190Y-13369747D01*
X50151190Y-13369747D02*
X50211667Y-13430223D01*
X50211667Y-13430223D02*
X50272143Y-13551175D01*
X50272143Y-13551175D02*
X50272143Y-13732604D01*
X50272143Y-13732604D02*
X50211667Y-13853556D01*
X50211667Y-13853556D02*
X50151190Y-13914033D01*
X50151190Y-13914033D02*
X50030238Y-13974509D01*
X50030238Y-13974509D02*
X49546428Y-13974509D01*
X50876905Y-14579271D02*
X51118809Y-14579271D01*
X51118809Y-14579271D02*
X51239762Y-14518795D01*
X51239762Y-14518795D02*
X51300238Y-14458318D01*
X51300238Y-14458318D02*
X51421190Y-14276890D01*
X51421190Y-14276890D02*
X51481667Y-14034985D01*
X51481667Y-14034985D02*
X51481667Y-13551175D01*
X51481667Y-13551175D02*
X51421190Y-13430223D01*
X51421190Y-13430223D02*
X51360714Y-13369747D01*
X51360714Y-13369747D02*
X51239762Y-13309271D01*
X51239762Y-13309271D02*
X50997857Y-13309271D01*
X50997857Y-13309271D02*
X50876905Y-13369747D01*
X50876905Y-13369747D02*
X50816428Y-13430223D01*
X50816428Y-13430223D02*
X50755952Y-13551175D01*
X50755952Y-13551175D02*
X50755952Y-13853556D01*
X50755952Y-13853556D02*
X50816428Y-13974509D01*
X50816428Y-13974509D02*
X50876905Y-14034985D01*
X50876905Y-14034985D02*
X50997857Y-14095461D01*
X50997857Y-14095461D02*
X51239762Y-14095461D01*
X51239762Y-14095461D02*
X51360714Y-14034985D01*
X51360714Y-14034985D02*
X51421190Y-13974509D01*
X51421190Y-13974509D02*
X51481667Y-13853556D01*
X47792619Y-18309271D02*
X48518333Y-18309271D01*
X48155476Y-19579271D02*
X48155476Y-18309271D01*
X48941666Y-19579271D02*
X48941666Y-18309271D01*
X48941666Y-18309271D02*
X49425476Y-18309271D01*
X49425476Y-18309271D02*
X49546428Y-18369747D01*
X49546428Y-18369747D02*
X49606905Y-18430223D01*
X49606905Y-18430223D02*
X49667381Y-18551175D01*
X49667381Y-18551175D02*
X49667381Y-18732604D01*
X49667381Y-18732604D02*
X49606905Y-18853556D01*
X49606905Y-18853556D02*
X49546428Y-18914033D01*
X49546428Y-18914033D02*
X49425476Y-18974509D01*
X49425476Y-18974509D02*
X48941666Y-18974509D01*
X50876905Y-19579271D02*
X50151190Y-19579271D01*
X50514047Y-19579271D02*
X50514047Y-18309271D01*
X50514047Y-18309271D02*
X50393095Y-18490699D01*
X50393095Y-18490699D02*
X50272143Y-18611652D01*
X50272143Y-18611652D02*
X50151190Y-18672128D01*
X51663095Y-18309271D02*
X51784048Y-18309271D01*
X51784048Y-18309271D02*
X51905000Y-18369747D01*
X51905000Y-18369747D02*
X51965476Y-18430223D01*
X51965476Y-18430223D02*
X52025952Y-18551175D01*
X52025952Y-18551175D02*
X52086429Y-18793080D01*
X52086429Y-18793080D02*
X52086429Y-19095461D01*
X52086429Y-19095461D02*
X52025952Y-19337366D01*
X52025952Y-19337366D02*
X51965476Y-19458318D01*
X51965476Y-19458318D02*
X51905000Y-19518795D01*
X51905000Y-19518795D02*
X51784048Y-19579271D01*
X51784048Y-19579271D02*
X51663095Y-19579271D01*
X51663095Y-19579271D02*
X51542143Y-19518795D01*
X51542143Y-19518795D02*
X51481667Y-19458318D01*
X51481667Y-19458318D02*
X51421190Y-19337366D01*
X51421190Y-19337366D02*
X51360714Y-19095461D01*
X51360714Y-19095461D02*
X51360714Y-18793080D01*
X51360714Y-18793080D02*
X51421190Y-18551175D01*
X51421190Y-18551175D02*
X51481667Y-18430223D01*
X51481667Y-18430223D02*
X51542143Y-18369747D01*
X51542143Y-18369747D02*
X51663095Y-18309271D01*
X47792619Y-23309271D02*
X48518333Y-23309271D01*
X48155476Y-24579271D02*
X48155476Y-23309271D01*
X48941666Y-24579271D02*
X48941666Y-23309271D01*
X48941666Y-23309271D02*
X49425476Y-23309271D01*
X49425476Y-23309271D02*
X49546428Y-23369747D01*
X49546428Y-23369747D02*
X49606905Y-23430223D01*
X49606905Y-23430223D02*
X49667381Y-23551175D01*
X49667381Y-23551175D02*
X49667381Y-23732604D01*
X49667381Y-23732604D02*
X49606905Y-23853556D01*
X49606905Y-23853556D02*
X49546428Y-23914033D01*
X49546428Y-23914033D02*
X49425476Y-23974509D01*
X49425476Y-23974509D02*
X48941666Y-23974509D01*
X50876905Y-24579271D02*
X50151190Y-24579271D01*
X50514047Y-24579271D02*
X50514047Y-23309271D01*
X50514047Y-23309271D02*
X50393095Y-23490699D01*
X50393095Y-23490699D02*
X50272143Y-23611652D01*
X50272143Y-23611652D02*
X50151190Y-23672128D01*
X52086429Y-24579271D02*
X51360714Y-24579271D01*
X51723571Y-24579271D02*
X51723571Y-23309271D01*
X51723571Y-23309271D02*
X51602619Y-23490699D01*
X51602619Y-23490699D02*
X51481667Y-23611652D01*
X51481667Y-23611652D02*
X51360714Y-23672128D01*
X47792619Y-28309271D02*
X48518333Y-28309271D01*
X48155476Y-29579271D02*
X48155476Y-28309271D01*
X48941666Y-29579271D02*
X48941666Y-28309271D01*
X48941666Y-28309271D02*
X49425476Y-28309271D01*
X49425476Y-28309271D02*
X49546428Y-28369747D01*
X49546428Y-28369747D02*
X49606905Y-28430223D01*
X49606905Y-28430223D02*
X49667381Y-28551175D01*
X49667381Y-28551175D02*
X49667381Y-28732604D01*
X49667381Y-28732604D02*
X49606905Y-28853556D01*
X49606905Y-28853556D02*
X49546428Y-28914033D01*
X49546428Y-28914033D02*
X49425476Y-28974509D01*
X49425476Y-28974509D02*
X48941666Y-28974509D01*
X50876905Y-29579271D02*
X50151190Y-29579271D01*
X50514047Y-29579271D02*
X50514047Y-28309271D01*
X50514047Y-28309271D02*
X50393095Y-28490699D01*
X50393095Y-28490699D02*
X50272143Y-28611652D01*
X50272143Y-28611652D02*
X50151190Y-28672128D01*
X51360714Y-28430223D02*
X51421190Y-28369747D01*
X51421190Y-28369747D02*
X51542143Y-28309271D01*
X51542143Y-28309271D02*
X51844524Y-28309271D01*
X51844524Y-28309271D02*
X51965476Y-28369747D01*
X51965476Y-28369747D02*
X52025952Y-28430223D01*
X52025952Y-28430223D02*
X52086429Y-28551175D01*
X52086429Y-28551175D02*
X52086429Y-28672128D01*
X52086429Y-28672128D02*
X52025952Y-28853556D01*
X52025952Y-28853556D02*
X51300238Y-29579271D01*
X51300238Y-29579271D02*
X52086429Y-29579271D01*
X47792619Y-33309271D02*
X48518333Y-33309271D01*
X48155476Y-34579271D02*
X48155476Y-33309271D01*
X48941666Y-34579271D02*
X48941666Y-33309271D01*
X48941666Y-33309271D02*
X49425476Y-33309271D01*
X49425476Y-33309271D02*
X49546428Y-33369747D01*
X49546428Y-33369747D02*
X49606905Y-33430223D01*
X49606905Y-33430223D02*
X49667381Y-33551175D01*
X49667381Y-33551175D02*
X49667381Y-33732604D01*
X49667381Y-33732604D02*
X49606905Y-33853556D01*
X49606905Y-33853556D02*
X49546428Y-33914033D01*
X49546428Y-33914033D02*
X49425476Y-33974509D01*
X49425476Y-33974509D02*
X48941666Y-33974509D01*
X50876905Y-34579271D02*
X50151190Y-34579271D01*
X50514047Y-34579271D02*
X50514047Y-33309271D01*
X50514047Y-33309271D02*
X50393095Y-33490699D01*
X50393095Y-33490699D02*
X50272143Y-33611652D01*
X50272143Y-33611652D02*
X50151190Y-33672128D01*
X51300238Y-33309271D02*
X52086429Y-33309271D01*
X52086429Y-33309271D02*
X51663095Y-33793080D01*
X51663095Y-33793080D02*
X51844524Y-33793080D01*
X51844524Y-33793080D02*
X51965476Y-33853556D01*
X51965476Y-33853556D02*
X52025952Y-33914033D01*
X52025952Y-33914033D02*
X52086429Y-34034985D01*
X52086429Y-34034985D02*
X52086429Y-34337366D01*
X52086429Y-34337366D02*
X52025952Y-34458318D01*
X52025952Y-34458318D02*
X51965476Y-34518795D01*
X51965476Y-34518795D02*
X51844524Y-34579271D01*
X51844524Y-34579271D02*
X51481667Y-34579271D01*
X51481667Y-34579271D02*
X51360714Y-34518795D01*
X51360714Y-34518795D02*
X51300238Y-34458318D01*
X47792619Y-38309271D02*
X48518333Y-38309271D01*
X48155476Y-39579271D02*
X48155476Y-38309271D01*
X48941666Y-39579271D02*
X48941666Y-38309271D01*
X48941666Y-38309271D02*
X49425476Y-38309271D01*
X49425476Y-38309271D02*
X49546428Y-38369747D01*
X49546428Y-38369747D02*
X49606905Y-38430223D01*
X49606905Y-38430223D02*
X49667381Y-38551175D01*
X49667381Y-38551175D02*
X49667381Y-38732604D01*
X49667381Y-38732604D02*
X49606905Y-38853556D01*
X49606905Y-38853556D02*
X49546428Y-38914033D01*
X49546428Y-38914033D02*
X49425476Y-38974509D01*
X49425476Y-38974509D02*
X48941666Y-38974509D01*
X50876905Y-39579271D02*
X50151190Y-39579271D01*
X50514047Y-39579271D02*
X50514047Y-38309271D01*
X50514047Y-38309271D02*
X50393095Y-38490699D01*
X50393095Y-38490699D02*
X50272143Y-38611652D01*
X50272143Y-38611652D02*
X50151190Y-38672128D01*
X51965476Y-38732604D02*
X51965476Y-39579271D01*
X51663095Y-38248795D02*
X51360714Y-39155937D01*
X51360714Y-39155937D02*
X52146905Y-39155937D01*
X47792619Y-43309271D02*
X48518333Y-43309271D01*
X48155476Y-44579271D02*
X48155476Y-43309271D01*
X48941666Y-44579271D02*
X48941666Y-43309271D01*
X48941666Y-43309271D02*
X49425476Y-43309271D01*
X49425476Y-43309271D02*
X49546428Y-43369747D01*
X49546428Y-43369747D02*
X49606905Y-43430223D01*
X49606905Y-43430223D02*
X49667381Y-43551175D01*
X49667381Y-43551175D02*
X49667381Y-43732604D01*
X49667381Y-43732604D02*
X49606905Y-43853556D01*
X49606905Y-43853556D02*
X49546428Y-43914033D01*
X49546428Y-43914033D02*
X49425476Y-43974509D01*
X49425476Y-43974509D02*
X48941666Y-43974509D01*
X50876905Y-44579271D02*
X50151190Y-44579271D01*
X50514047Y-44579271D02*
X50514047Y-43309271D01*
X50514047Y-43309271D02*
X50393095Y-43490699D01*
X50393095Y-43490699D02*
X50272143Y-43611652D01*
X50272143Y-43611652D02*
X50151190Y-43672128D01*
X52025952Y-43309271D02*
X51421190Y-43309271D01*
X51421190Y-43309271D02*
X51360714Y-43914033D01*
X51360714Y-43914033D02*
X51421190Y-43853556D01*
X51421190Y-43853556D02*
X51542143Y-43793080D01*
X51542143Y-43793080D02*
X51844524Y-43793080D01*
X51844524Y-43793080D02*
X51965476Y-43853556D01*
X51965476Y-43853556D02*
X52025952Y-43914033D01*
X52025952Y-43914033D02*
X52086429Y-44034985D01*
X52086429Y-44034985D02*
X52086429Y-44337366D01*
X52086429Y-44337366D02*
X52025952Y-44458318D01*
X52025952Y-44458318D02*
X51965476Y-44518795D01*
X51965476Y-44518795D02*
X51844524Y-44579271D01*
X51844524Y-44579271D02*
X51542143Y-44579271D01*
X51542143Y-44579271D02*
X51421190Y-44518795D01*
X51421190Y-44518795D02*
X51360714Y-44458318D01*
X52792619Y-3309271D02*
X53518333Y-3309271D01*
X53155476Y-4579271D02*
X53155476Y-3309271D01*
X53941666Y-4579271D02*
X53941666Y-3309271D01*
X53941666Y-3309271D02*
X54425476Y-3309271D01*
X54425476Y-3309271D02*
X54546428Y-3369747D01*
X54546428Y-3369747D02*
X54606905Y-3430223D01*
X54606905Y-3430223D02*
X54667381Y-3551175D01*
X54667381Y-3551175D02*
X54667381Y-3732604D01*
X54667381Y-3732604D02*
X54606905Y-3853556D01*
X54606905Y-3853556D02*
X54546428Y-3914033D01*
X54546428Y-3914033D02*
X54425476Y-3974509D01*
X54425476Y-3974509D02*
X53941666Y-3974509D01*
X55876905Y-4579271D02*
X55151190Y-4579271D01*
X55514047Y-4579271D02*
X55514047Y-3309271D01*
X55514047Y-3309271D02*
X55393095Y-3490699D01*
X55393095Y-3490699D02*
X55272143Y-3611652D01*
X55272143Y-3611652D02*
X55151190Y-3672128D01*
X56965476Y-3309271D02*
X56723571Y-3309271D01*
X56723571Y-3309271D02*
X56602619Y-3369747D01*
X56602619Y-3369747D02*
X56542143Y-3430223D01*
X56542143Y-3430223D02*
X56421190Y-3611652D01*
X56421190Y-3611652D02*
X56360714Y-3853556D01*
X56360714Y-3853556D02*
X56360714Y-4337366D01*
X56360714Y-4337366D02*
X56421190Y-4458318D01*
X56421190Y-4458318D02*
X56481667Y-4518795D01*
X56481667Y-4518795D02*
X56602619Y-4579271D01*
X56602619Y-4579271D02*
X56844524Y-4579271D01*
X56844524Y-4579271D02*
X56965476Y-4518795D01*
X56965476Y-4518795D02*
X57025952Y-4458318D01*
X57025952Y-4458318D02*
X57086429Y-4337366D01*
X57086429Y-4337366D02*
X57086429Y-4034985D01*
X57086429Y-4034985D02*
X57025952Y-3914033D01*
X57025952Y-3914033D02*
X56965476Y-3853556D01*
X56965476Y-3853556D02*
X56844524Y-3793080D01*
X56844524Y-3793080D02*
X56602619Y-3793080D01*
X56602619Y-3793080D02*
X56481667Y-3853556D01*
X56481667Y-3853556D02*
X56421190Y-3914033D01*
X56421190Y-3914033D02*
X56360714Y-4034985D01*
X53941667Y-7309271D02*
X53941667Y-8216414D01*
X53941667Y-8216414D02*
X53881190Y-8397842D01*
X53881190Y-8397842D02*
X53760238Y-8518795D01*
X53760238Y-8518795D02*
X53578809Y-8579271D01*
X53578809Y-8579271D02*
X53457857Y-8579271D01*
X54546428Y-8579271D02*
X54546428Y-7309271D01*
X54546428Y-7309271D02*
X55030238Y-7309271D01*
X55030238Y-7309271D02*
X55151190Y-7369747D01*
X55151190Y-7369747D02*
X55211667Y-7430223D01*
X55211667Y-7430223D02*
X55272143Y-7551175D01*
X55272143Y-7551175D02*
X55272143Y-7732604D01*
X55272143Y-7732604D02*
X55211667Y-7853556D01*
X55211667Y-7853556D02*
X55151190Y-7914033D01*
X55151190Y-7914033D02*
X55030238Y-7974509D01*
X55030238Y-7974509D02*
X54546428Y-7974509D01*
X56481667Y-8579271D02*
X55755952Y-8579271D01*
X56118809Y-8579271D02*
X56118809Y-7309271D01*
X56118809Y-7309271D02*
X55997857Y-7490699D01*
X55997857Y-7490699D02*
X55876905Y-7611652D01*
X55876905Y-7611652D02*
X55755952Y-7672128D01*
X53941667Y-12309271D02*
X53941667Y-13216414D01*
X53941667Y-13216414D02*
X53881190Y-13397842D01*
X53881190Y-13397842D02*
X53760238Y-13518795D01*
X53760238Y-13518795D02*
X53578809Y-13579271D01*
X53578809Y-13579271D02*
X53457857Y-13579271D01*
X54546428Y-13579271D02*
X54546428Y-12309271D01*
X54546428Y-12309271D02*
X55030238Y-12309271D01*
X55030238Y-12309271D02*
X55151190Y-12369747D01*
X55151190Y-12369747D02*
X55211667Y-12430223D01*
X55211667Y-12430223D02*
X55272143Y-12551175D01*
X55272143Y-12551175D02*
X55272143Y-12732604D01*
X55272143Y-12732604D02*
X55211667Y-12853556D01*
X55211667Y-12853556D02*
X55151190Y-12914033D01*
X55151190Y-12914033D02*
X55030238Y-12974509D01*
X55030238Y-12974509D02*
X54546428Y-12974509D01*
X55755952Y-12430223D02*
X55816428Y-12369747D01*
X55816428Y-12369747D02*
X55937381Y-12309271D01*
X55937381Y-12309271D02*
X56239762Y-12309271D01*
X56239762Y-12309271D02*
X56360714Y-12369747D01*
X56360714Y-12369747D02*
X56421190Y-12430223D01*
X56421190Y-12430223D02*
X56481667Y-12551175D01*
X56481667Y-12551175D02*
X56481667Y-12672128D01*
X56481667Y-12672128D02*
X56421190Y-12853556D01*
X56421190Y-12853556D02*
X55695476Y-13579271D01*
X55695476Y-13579271D02*
X56481667Y-13579271D01*
X53941667Y-17309271D02*
X53941667Y-18216414D01*
X53941667Y-18216414D02*
X53881190Y-18397842D01*
X53881190Y-18397842D02*
X53760238Y-18518795D01*
X53760238Y-18518795D02*
X53578809Y-18579271D01*
X53578809Y-18579271D02*
X53457857Y-18579271D01*
X54546428Y-18579271D02*
X54546428Y-17309271D01*
X54546428Y-17309271D02*
X55030238Y-17309271D01*
X55030238Y-17309271D02*
X55151190Y-17369747D01*
X55151190Y-17369747D02*
X55211667Y-17430223D01*
X55211667Y-17430223D02*
X55272143Y-17551175D01*
X55272143Y-17551175D02*
X55272143Y-17732604D01*
X55272143Y-17732604D02*
X55211667Y-17853556D01*
X55211667Y-17853556D02*
X55151190Y-17914033D01*
X55151190Y-17914033D02*
X55030238Y-17974509D01*
X55030238Y-17974509D02*
X54546428Y-17974509D01*
X55695476Y-17309271D02*
X56481667Y-17309271D01*
X56481667Y-17309271D02*
X56058333Y-17793080D01*
X56058333Y-17793080D02*
X56239762Y-17793080D01*
X56239762Y-17793080D02*
X56360714Y-17853556D01*
X56360714Y-17853556D02*
X56421190Y-17914033D01*
X56421190Y-17914033D02*
X56481667Y-18034985D01*
X56481667Y-18034985D02*
X56481667Y-18337366D01*
X56481667Y-18337366D02*
X56421190Y-18458318D01*
X56421190Y-18458318D02*
X56360714Y-18518795D01*
X56360714Y-18518795D02*
X56239762Y-18579271D01*
X56239762Y-18579271D02*
X55876905Y-18579271D01*
X55876905Y-18579271D02*
X55755952Y-18518795D01*
X55755952Y-18518795D02*
X55695476Y-18458318D01*
X53941667Y-22309271D02*
X53941667Y-23216414D01*
X53941667Y-23216414D02*
X53881190Y-23397842D01*
X53881190Y-23397842D02*
X53760238Y-23518795D01*
X53760238Y-23518795D02*
X53578809Y-23579271D01*
X53578809Y-23579271D02*
X53457857Y-23579271D01*
X54546428Y-23579271D02*
X54546428Y-22309271D01*
X54546428Y-22309271D02*
X55030238Y-22309271D01*
X55030238Y-22309271D02*
X55151190Y-22369747D01*
X55151190Y-22369747D02*
X55211667Y-22430223D01*
X55211667Y-22430223D02*
X55272143Y-22551175D01*
X55272143Y-22551175D02*
X55272143Y-22732604D01*
X55272143Y-22732604D02*
X55211667Y-22853556D01*
X55211667Y-22853556D02*
X55151190Y-22914033D01*
X55151190Y-22914033D02*
X55030238Y-22974509D01*
X55030238Y-22974509D02*
X54546428Y-22974509D01*
X56360714Y-22732604D02*
X56360714Y-23579271D01*
X56058333Y-22248795D02*
X55755952Y-23155937D01*
X55755952Y-23155937D02*
X56542143Y-23155937D01*
X53941667Y-27309271D02*
X53941667Y-28216414D01*
X53941667Y-28216414D02*
X53881190Y-28397842D01*
X53881190Y-28397842D02*
X53760238Y-28518795D01*
X53760238Y-28518795D02*
X53578809Y-28579271D01*
X53578809Y-28579271D02*
X53457857Y-28579271D01*
X54546428Y-28579271D02*
X54546428Y-27309271D01*
X54546428Y-27309271D02*
X55030238Y-27309271D01*
X55030238Y-27309271D02*
X55151190Y-27369747D01*
X55151190Y-27369747D02*
X55211667Y-27430223D01*
X55211667Y-27430223D02*
X55272143Y-27551175D01*
X55272143Y-27551175D02*
X55272143Y-27732604D01*
X55272143Y-27732604D02*
X55211667Y-27853556D01*
X55211667Y-27853556D02*
X55151190Y-27914033D01*
X55151190Y-27914033D02*
X55030238Y-27974509D01*
X55030238Y-27974509D02*
X54546428Y-27974509D01*
X56421190Y-27309271D02*
X55816428Y-27309271D01*
X55816428Y-27309271D02*
X55755952Y-27914033D01*
X55755952Y-27914033D02*
X55816428Y-27853556D01*
X55816428Y-27853556D02*
X55937381Y-27793080D01*
X55937381Y-27793080D02*
X56239762Y-27793080D01*
X56239762Y-27793080D02*
X56360714Y-27853556D01*
X56360714Y-27853556D02*
X56421190Y-27914033D01*
X56421190Y-27914033D02*
X56481667Y-28034985D01*
X56481667Y-28034985D02*
X56481667Y-28337366D01*
X56481667Y-28337366D02*
X56421190Y-28458318D01*
X56421190Y-28458318D02*
X56360714Y-28518795D01*
X56360714Y-28518795D02*
X56239762Y-28579271D01*
X56239762Y-28579271D02*
X55937381Y-28579271D01*
X55937381Y-28579271D02*
X55816428Y-28518795D01*
X55816428Y-28518795D02*
X55755952Y-28458318D01*
X53941667Y-32309271D02*
X53941667Y-33216414D01*
X53941667Y-33216414D02*
X53881190Y-33397842D01*
X53881190Y-33397842D02*
X53760238Y-33518795D01*
X53760238Y-33518795D02*
X53578809Y-33579271D01*
X53578809Y-33579271D02*
X53457857Y-33579271D01*
X54546428Y-33579271D02*
X54546428Y-32309271D01*
X54546428Y-32309271D02*
X55030238Y-32309271D01*
X55030238Y-32309271D02*
X55151190Y-32369747D01*
X55151190Y-32369747D02*
X55211667Y-32430223D01*
X55211667Y-32430223D02*
X55272143Y-32551175D01*
X55272143Y-32551175D02*
X55272143Y-32732604D01*
X55272143Y-32732604D02*
X55211667Y-32853556D01*
X55211667Y-32853556D02*
X55151190Y-32914033D01*
X55151190Y-32914033D02*
X55030238Y-32974509D01*
X55030238Y-32974509D02*
X54546428Y-32974509D01*
X56360714Y-32309271D02*
X56118809Y-32309271D01*
X56118809Y-32309271D02*
X55997857Y-32369747D01*
X55997857Y-32369747D02*
X55937381Y-32430223D01*
X55937381Y-32430223D02*
X55816428Y-32611652D01*
X55816428Y-32611652D02*
X55755952Y-32853556D01*
X55755952Y-32853556D02*
X55755952Y-33337366D01*
X55755952Y-33337366D02*
X55816428Y-33458318D01*
X55816428Y-33458318D02*
X55876905Y-33518795D01*
X55876905Y-33518795D02*
X55997857Y-33579271D01*
X55997857Y-33579271D02*
X56239762Y-33579271D01*
X56239762Y-33579271D02*
X56360714Y-33518795D01*
X56360714Y-33518795D02*
X56421190Y-33458318D01*
X56421190Y-33458318D02*
X56481667Y-33337366D01*
X56481667Y-33337366D02*
X56481667Y-33034985D01*
X56481667Y-33034985D02*
X56421190Y-32914033D01*
X56421190Y-32914033D02*
X56360714Y-32853556D01*
X56360714Y-32853556D02*
X56239762Y-32793080D01*
X56239762Y-32793080D02*
X55997857Y-32793080D01*
X55997857Y-32793080D02*
X55876905Y-32853556D01*
X55876905Y-32853556D02*
X55816428Y-32914033D01*
X55816428Y-32914033D02*
X55755952Y-33034985D01*
M02*
