%TF.GenerationSoftware,KiCad,Pcbnew,10.0.5*%
%TF.CreationDate,2026-08-17T13:20:09-04:00*%
%TF.ProjectId,circle-main,63697263-6c65-42d6-9d61-696e2e6b6963,rev?*%
%TF.SameCoordinates,Original*%
%TF.FileFunction,Legend,Top*%
%TF.FilePolarity,Positive*%
%FSLAX46Y46*%
G04 Gerber Fmt 4.6, Leading zero omitted, Abs format (unit mm)*
G04 Created by KiCad (PCBNEW 10.0.5) date 2026-08-17 13:20:09*
%MOMM*%
%LPD*%
G01*
G04 APERTURE LIST*
%ADD10C,0.200000*%
%ADD11C,0.250000*%
%ADD12C,0.150000*%
G04 APERTURE END LIST*
D10*
X72544742Y-47900000D02*
X71973314Y-48300000D01*
X72544742Y-48585714D02*
X71344742Y-48585714D01*
X71344742Y-48585714D02*
X71344742Y-48128571D01*
X71344742Y-48128571D02*
X71401885Y-48014286D01*
X71401885Y-48014286D02*
X71459028Y-47957143D01*
X71459028Y-47957143D02*
X71573314Y-47900000D01*
X71573314Y-47900000D02*
X71744742Y-47900000D01*
X71744742Y-47900000D02*
X71859028Y-47957143D01*
X71859028Y-47957143D02*
X71916171Y-48014286D01*
X71916171Y-48014286D02*
X71973314Y-48128571D01*
X71973314Y-48128571D02*
X71973314Y-48585714D01*
X71916171Y-47385714D02*
X71916171Y-46985714D01*
X72544742Y-46814286D02*
X72544742Y-47385714D01*
X72544742Y-47385714D02*
X71344742Y-47385714D01*
X71344742Y-47385714D02*
X71344742Y-46814286D01*
X72544742Y-46300000D02*
X71344742Y-46300000D01*
X72544742Y-45728571D02*
X71344742Y-45728571D01*
X71344742Y-45728571D02*
X72544742Y-45042857D01*
X72544742Y-45042857D02*
X71344742Y-45042857D01*
X71916171Y-44071428D02*
X71916171Y-44471428D01*
X72544742Y-44471428D02*
X71344742Y-44471428D01*
X71344742Y-44471428D02*
X71344742Y-43900000D01*
X71344742Y-43214286D02*
X71344742Y-42985714D01*
X71344742Y-42985714D02*
X71401885Y-42871429D01*
X71401885Y-42871429D02*
X71516171Y-42757143D01*
X71516171Y-42757143D02*
X71744742Y-42700000D01*
X71744742Y-42700000D02*
X72144742Y-42700000D01*
X72144742Y-42700000D02*
X72373314Y-42757143D01*
X72373314Y-42757143D02*
X72487600Y-42871429D01*
X72487600Y-42871429D02*
X72544742Y-42985714D01*
X72544742Y-42985714D02*
X72544742Y-43214286D01*
X72544742Y-43214286D02*
X72487600Y-43328572D01*
X72487600Y-43328572D02*
X72373314Y-43442857D01*
X72373314Y-43442857D02*
X72144742Y-43500000D01*
X72144742Y-43500000D02*
X71744742Y-43500000D01*
X71744742Y-43500000D02*
X71516171Y-43442857D01*
X71516171Y-43442857D02*
X71401885Y-43328572D01*
X71401885Y-43328572D02*
X71344742Y-43214286D01*
X72544742Y-41500000D02*
X71973314Y-41900000D01*
X72544742Y-42185714D02*
X71344742Y-42185714D01*
X71344742Y-42185714D02*
X71344742Y-41728571D01*
X71344742Y-41728571D02*
X71401885Y-41614286D01*
X71401885Y-41614286D02*
X71459028Y-41557143D01*
X71459028Y-41557143D02*
X71573314Y-41500000D01*
X71573314Y-41500000D02*
X71744742Y-41500000D01*
X71744742Y-41500000D02*
X71859028Y-41557143D01*
X71859028Y-41557143D02*
X71916171Y-41614286D01*
X71916171Y-41614286D02*
X71973314Y-41728571D01*
X71973314Y-41728571D02*
X71973314Y-42185714D01*
X72430457Y-40300000D02*
X72487600Y-40357143D01*
X72487600Y-40357143D02*
X72544742Y-40528571D01*
X72544742Y-40528571D02*
X72544742Y-40642857D01*
X72544742Y-40642857D02*
X72487600Y-40814286D01*
X72487600Y-40814286D02*
X72373314Y-40928571D01*
X72373314Y-40928571D02*
X72259028Y-40985714D01*
X72259028Y-40985714D02*
X72030457Y-41042857D01*
X72030457Y-41042857D02*
X71859028Y-41042857D01*
X71859028Y-41042857D02*
X71630457Y-40985714D01*
X71630457Y-40985714D02*
X71516171Y-40928571D01*
X71516171Y-40928571D02*
X71401885Y-40814286D01*
X71401885Y-40814286D02*
X71344742Y-40642857D01*
X71344742Y-40642857D02*
X71344742Y-40528571D01*
X71344742Y-40528571D02*
X71401885Y-40357143D01*
X71401885Y-40357143D02*
X71459028Y-40300000D01*
X71916171Y-39785714D02*
X71916171Y-39385714D01*
X72544742Y-39214286D02*
X72544742Y-39785714D01*
X72544742Y-39785714D02*
X71344742Y-39785714D01*
X71344742Y-39785714D02*
X71344742Y-39214286D01*
X72544742Y-38700000D02*
X71344742Y-38700000D01*
X71344742Y-38700000D02*
X71344742Y-38414286D01*
X71344742Y-38414286D02*
X71401885Y-38242857D01*
X71401885Y-38242857D02*
X71516171Y-38128572D01*
X71516171Y-38128572D02*
X71630457Y-38071429D01*
X71630457Y-38071429D02*
X71859028Y-38014286D01*
X71859028Y-38014286D02*
X72030457Y-38014286D01*
X72030457Y-38014286D02*
X72259028Y-38071429D01*
X72259028Y-38071429D02*
X72373314Y-38128572D01*
X72373314Y-38128572D02*
X72487600Y-38242857D01*
X72487600Y-38242857D02*
X72544742Y-38414286D01*
X72544742Y-38414286D02*
X72544742Y-38700000D01*
X72544742Y-36585714D02*
X71344742Y-36585714D01*
X72487600Y-36071428D02*
X72544742Y-35900000D01*
X72544742Y-35900000D02*
X72544742Y-35614285D01*
X72544742Y-35614285D02*
X72487600Y-35500000D01*
X72487600Y-35500000D02*
X72430457Y-35442857D01*
X72430457Y-35442857D02*
X72316171Y-35385714D01*
X72316171Y-35385714D02*
X72201885Y-35385714D01*
X72201885Y-35385714D02*
X72087600Y-35442857D01*
X72087600Y-35442857D02*
X72030457Y-35500000D01*
X72030457Y-35500000D02*
X71973314Y-35614285D01*
X71973314Y-35614285D02*
X71916171Y-35842857D01*
X71916171Y-35842857D02*
X71859028Y-35957142D01*
X71859028Y-35957142D02*
X71801885Y-36014285D01*
X71801885Y-36014285D02*
X71687600Y-36071428D01*
X71687600Y-36071428D02*
X71573314Y-36071428D01*
X71573314Y-36071428D02*
X71459028Y-36014285D01*
X71459028Y-36014285D02*
X71401885Y-35957142D01*
X71401885Y-35957142D02*
X71344742Y-35842857D01*
X71344742Y-35842857D02*
X71344742Y-35557142D01*
X71344742Y-35557142D02*
X71401885Y-35385714D01*
X71344742Y-34642857D02*
X71344742Y-34414285D01*
X71344742Y-34414285D02*
X71401885Y-34300000D01*
X71401885Y-34300000D02*
X71516171Y-34185714D01*
X71516171Y-34185714D02*
X71744742Y-34128571D01*
X71744742Y-34128571D02*
X72144742Y-34128571D01*
X72144742Y-34128571D02*
X72373314Y-34185714D01*
X72373314Y-34185714D02*
X72487600Y-34300000D01*
X72487600Y-34300000D02*
X72544742Y-34414285D01*
X72544742Y-34414285D02*
X72544742Y-34642857D01*
X72544742Y-34642857D02*
X72487600Y-34757143D01*
X72487600Y-34757143D02*
X72373314Y-34871428D01*
X72373314Y-34871428D02*
X72144742Y-34928571D01*
X72144742Y-34928571D02*
X71744742Y-34928571D01*
X71744742Y-34928571D02*
X71516171Y-34871428D01*
X71516171Y-34871428D02*
X71401885Y-34757143D01*
X71401885Y-34757143D02*
X71344742Y-34642857D01*
X72544742Y-33042857D02*
X72544742Y-33614285D01*
X72544742Y-33614285D02*
X71344742Y-33614285D01*
X72201885Y-32699999D02*
X72201885Y-32128571D01*
X72544742Y-32814285D02*
X71344742Y-32414285D01*
X71344742Y-32414285D02*
X72544742Y-32014285D01*
X71344742Y-31785714D02*
X71344742Y-31100000D01*
X72544742Y-31442857D02*
X71344742Y-31442857D01*
X72544742Y-30699999D02*
X71344742Y-30699999D01*
X71344742Y-29899999D02*
X71344742Y-29671427D01*
X71344742Y-29671427D02*
X71401885Y-29557142D01*
X71401885Y-29557142D02*
X71516171Y-29442856D01*
X71516171Y-29442856D02*
X71744742Y-29385713D01*
X71744742Y-29385713D02*
X72144742Y-29385713D01*
X72144742Y-29385713D02*
X72373314Y-29442856D01*
X72373314Y-29442856D02*
X72487600Y-29557142D01*
X72487600Y-29557142D02*
X72544742Y-29671427D01*
X72544742Y-29671427D02*
X72544742Y-29899999D01*
X72544742Y-29899999D02*
X72487600Y-30014285D01*
X72487600Y-30014285D02*
X72373314Y-30128570D01*
X72373314Y-30128570D02*
X72144742Y-30185713D01*
X72144742Y-30185713D02*
X71744742Y-30185713D01*
X71744742Y-30185713D02*
X71516171Y-30128570D01*
X71516171Y-30128570D02*
X71401885Y-30014285D01*
X71401885Y-30014285D02*
X71344742Y-29899999D01*
X72544742Y-28871427D02*
X71344742Y-28871427D01*
X71344742Y-28871427D02*
X72544742Y-28185713D01*
X72544742Y-28185713D02*
X71344742Y-28185713D01*
X71916171Y-26299998D02*
X71973314Y-26128570D01*
X71973314Y-26128570D02*
X72030457Y-26071427D01*
X72030457Y-26071427D02*
X72144742Y-26014284D01*
X72144742Y-26014284D02*
X72316171Y-26014284D01*
X72316171Y-26014284D02*
X72430457Y-26071427D01*
X72430457Y-26071427D02*
X72487600Y-26128570D01*
X72487600Y-26128570D02*
X72544742Y-26242855D01*
X72544742Y-26242855D02*
X72544742Y-26699998D01*
X72544742Y-26699998D02*
X71344742Y-26699998D01*
X71344742Y-26699998D02*
X71344742Y-26299998D01*
X71344742Y-26299998D02*
X71401885Y-26185713D01*
X71401885Y-26185713D02*
X71459028Y-26128570D01*
X71459028Y-26128570D02*
X71573314Y-26071427D01*
X71573314Y-26071427D02*
X71687600Y-26071427D01*
X71687600Y-26071427D02*
X71801885Y-26128570D01*
X71801885Y-26128570D02*
X71859028Y-26185713D01*
X71859028Y-26185713D02*
X71916171Y-26299998D01*
X71916171Y-26299998D02*
X71916171Y-26699998D01*
X72201885Y-25557141D02*
X72201885Y-24985713D01*
X72544742Y-25671427D02*
X71344742Y-25271427D01*
X71344742Y-25271427D02*
X72544742Y-24871427D01*
X72544742Y-23785713D02*
X71973314Y-24185713D01*
X72544742Y-24471427D02*
X71344742Y-24471427D01*
X71344742Y-24471427D02*
X71344742Y-24014284D01*
X71344742Y-24014284D02*
X71401885Y-23899999D01*
X71401885Y-23899999D02*
X71459028Y-23842856D01*
X71459028Y-23842856D02*
X71573314Y-23785713D01*
X71573314Y-23785713D02*
X71744742Y-23785713D01*
X71744742Y-23785713D02*
X71859028Y-23842856D01*
X71859028Y-23842856D02*
X71916171Y-23899999D01*
X71916171Y-23899999D02*
X71973314Y-24014284D01*
X71973314Y-24014284D02*
X71973314Y-24471427D01*
X72544742Y-22585713D02*
X71973314Y-22985713D01*
X72544742Y-23271427D02*
X71344742Y-23271427D01*
X71344742Y-23271427D02*
X71344742Y-22814284D01*
X71344742Y-22814284D02*
X71401885Y-22699999D01*
X71401885Y-22699999D02*
X71459028Y-22642856D01*
X71459028Y-22642856D02*
X71573314Y-22585713D01*
X71573314Y-22585713D02*
X71744742Y-22585713D01*
X71744742Y-22585713D02*
X71859028Y-22642856D01*
X71859028Y-22642856D02*
X71916171Y-22699999D01*
X71916171Y-22699999D02*
X71973314Y-22814284D01*
X71973314Y-22814284D02*
X71973314Y-23271427D01*
X72544742Y-22071427D02*
X71344742Y-22071427D01*
X71916171Y-21499998D02*
X71916171Y-21099998D01*
X72544742Y-20928570D02*
X72544742Y-21499998D01*
X72544742Y-21499998D02*
X71344742Y-21499998D01*
X71344742Y-21499998D02*
X71344742Y-20928570D01*
X72544742Y-19728570D02*
X71973314Y-20128570D01*
X72544742Y-20414284D02*
X71344742Y-20414284D01*
X71344742Y-20414284D02*
X71344742Y-19957141D01*
X71344742Y-19957141D02*
X71401885Y-19842856D01*
X71401885Y-19842856D02*
X71459028Y-19785713D01*
X71459028Y-19785713D02*
X71573314Y-19728570D01*
X71573314Y-19728570D02*
X71744742Y-19728570D01*
X71744742Y-19728570D02*
X71859028Y-19785713D01*
X71859028Y-19785713D02*
X71916171Y-19842856D01*
X71916171Y-19842856D02*
X71973314Y-19957141D01*
X71973314Y-19957141D02*
X71973314Y-20414284D01*
X73001885Y-17957141D02*
X72944742Y-18014284D01*
X72944742Y-18014284D02*
X72773314Y-18128570D01*
X72773314Y-18128570D02*
X72659028Y-18185713D01*
X72659028Y-18185713D02*
X72487600Y-18242855D01*
X72487600Y-18242855D02*
X72201885Y-18299998D01*
X72201885Y-18299998D02*
X71973314Y-18299998D01*
X71973314Y-18299998D02*
X71687600Y-18242855D01*
X71687600Y-18242855D02*
X71516171Y-18185713D01*
X71516171Y-18185713D02*
X71401885Y-18128570D01*
X71401885Y-18128570D02*
X71230457Y-18014284D01*
X71230457Y-18014284D02*
X71173314Y-17957141D01*
X71744742Y-17499998D02*
X72087600Y-16585713D01*
X72087600Y-16585713D02*
X72430457Y-17499998D01*
X71916171Y-16014284D02*
X71916171Y-15099999D01*
X72259028Y-15099999D02*
X72259028Y-16014284D01*
X71859028Y-13442856D02*
X71801885Y-13557141D01*
X71801885Y-13557141D02*
X71744742Y-13614284D01*
X71744742Y-13614284D02*
X71630457Y-13671427D01*
X71630457Y-13671427D02*
X71573314Y-13671427D01*
X71573314Y-13671427D02*
X71459028Y-13614284D01*
X71459028Y-13614284D02*
X71401885Y-13557141D01*
X71401885Y-13557141D02*
X71344742Y-13442856D01*
X71344742Y-13442856D02*
X71344742Y-13214284D01*
X71344742Y-13214284D02*
X71401885Y-13099999D01*
X71401885Y-13099999D02*
X71459028Y-13042856D01*
X71459028Y-13042856D02*
X71573314Y-12985713D01*
X71573314Y-12985713D02*
X71630457Y-12985713D01*
X71630457Y-12985713D02*
X71744742Y-13042856D01*
X71744742Y-13042856D02*
X71801885Y-13099999D01*
X71801885Y-13099999D02*
X71859028Y-13214284D01*
X71859028Y-13214284D02*
X71859028Y-13442856D01*
X71859028Y-13442856D02*
X71916171Y-13557141D01*
X71916171Y-13557141D02*
X71973314Y-13614284D01*
X71973314Y-13614284D02*
X72087600Y-13671427D01*
X72087600Y-13671427D02*
X72316171Y-13671427D01*
X72316171Y-13671427D02*
X72430457Y-13614284D01*
X72430457Y-13614284D02*
X72487600Y-13557141D01*
X72487600Y-13557141D02*
X72544742Y-13442856D01*
X72544742Y-13442856D02*
X72544742Y-13214284D01*
X72544742Y-13214284D02*
X72487600Y-13099999D01*
X72487600Y-13099999D02*
X72430457Y-13042856D01*
X72430457Y-13042856D02*
X72316171Y-12985713D01*
X72316171Y-12985713D02*
X72087600Y-12985713D01*
X72087600Y-12985713D02*
X71973314Y-13042856D01*
X71973314Y-13042856D02*
X71916171Y-13099999D01*
X71916171Y-13099999D02*
X71859028Y-13214284D01*
X72430457Y-12471427D02*
X72487600Y-12414284D01*
X72487600Y-12414284D02*
X72544742Y-12471427D01*
X72544742Y-12471427D02*
X72487600Y-12528570D01*
X72487600Y-12528570D02*
X72430457Y-12471427D01*
X72430457Y-12471427D02*
X72544742Y-12471427D01*
X71344742Y-11671427D02*
X71344742Y-11557141D01*
X71344742Y-11557141D02*
X71401885Y-11442855D01*
X71401885Y-11442855D02*
X71459028Y-11385713D01*
X71459028Y-11385713D02*
X71573314Y-11328570D01*
X71573314Y-11328570D02*
X71801885Y-11271427D01*
X71801885Y-11271427D02*
X72087600Y-11271427D01*
X72087600Y-11271427D02*
X72316171Y-11328570D01*
X72316171Y-11328570D02*
X72430457Y-11385713D01*
X72430457Y-11385713D02*
X72487600Y-11442855D01*
X72487600Y-11442855D02*
X72544742Y-11557141D01*
X72544742Y-11557141D02*
X72544742Y-11671427D01*
X72544742Y-11671427D02*
X72487600Y-11785713D01*
X72487600Y-11785713D02*
X72430457Y-11842855D01*
X72430457Y-11842855D02*
X72316171Y-11899998D01*
X72316171Y-11899998D02*
X72087600Y-11957141D01*
X72087600Y-11957141D02*
X71801885Y-11957141D01*
X71801885Y-11957141D02*
X71573314Y-11899998D01*
X71573314Y-11899998D02*
X71459028Y-11842855D01*
X71459028Y-11842855D02*
X71401885Y-11785713D01*
X71401885Y-11785713D02*
X71344742Y-11671427D01*
X72544742Y-9842855D02*
X71744742Y-9842855D01*
X71859028Y-9842855D02*
X71801885Y-9785712D01*
X71801885Y-9785712D02*
X71744742Y-9671427D01*
X71744742Y-9671427D02*
X71744742Y-9499998D01*
X71744742Y-9499998D02*
X71801885Y-9385712D01*
X71801885Y-9385712D02*
X71916171Y-9328570D01*
X71916171Y-9328570D02*
X72544742Y-9328570D01*
X71916171Y-9328570D02*
X71801885Y-9271427D01*
X71801885Y-9271427D02*
X71744742Y-9157141D01*
X71744742Y-9157141D02*
X71744742Y-8985712D01*
X71744742Y-8985712D02*
X71801885Y-8871427D01*
X71801885Y-8871427D02*
X71916171Y-8814284D01*
X71916171Y-8814284D02*
X72544742Y-8814284D01*
X72544742Y-8242855D02*
X71744742Y-8242855D01*
X71859028Y-8242855D02*
X71801885Y-8185712D01*
X71801885Y-8185712D02*
X71744742Y-8071427D01*
X71744742Y-8071427D02*
X71744742Y-7899998D01*
X71744742Y-7899998D02*
X71801885Y-7785712D01*
X71801885Y-7785712D02*
X71916171Y-7728570D01*
X71916171Y-7728570D02*
X72544742Y-7728570D01*
X71916171Y-7728570D02*
X71801885Y-7671427D01*
X71801885Y-7671427D02*
X71744742Y-7557141D01*
X71744742Y-7557141D02*
X71744742Y-7385712D01*
X71744742Y-7385712D02*
X71801885Y-7271427D01*
X71801885Y-7271427D02*
X71916171Y-7214284D01*
X71916171Y-7214284D02*
X72544742Y-7214284D01*
X73001885Y-6757141D02*
X72944742Y-6699998D01*
X72944742Y-6699998D02*
X72773314Y-6585712D01*
X72773314Y-6585712D02*
X72659028Y-6528570D01*
X72659028Y-6528570D02*
X72487600Y-6471427D01*
X72487600Y-6471427D02*
X72201885Y-6414284D01*
X72201885Y-6414284D02*
X71973314Y-6414284D01*
X71973314Y-6414284D02*
X71687600Y-6471427D01*
X71687600Y-6471427D02*
X71516171Y-6528570D01*
X71516171Y-6528570D02*
X71401885Y-6585712D01*
X71401885Y-6585712D02*
X71230457Y-6699998D01*
X71230457Y-6699998D02*
X71173314Y-6757141D01*
D11*
X25399999Y-2901333D02*
X25599999Y-2968000D01*
X25599999Y-2968000D02*
X25666665Y-3034666D01*
X25666665Y-3034666D02*
X25733332Y-3168000D01*
X25733332Y-3168000D02*
X25733332Y-3368000D01*
X25733332Y-3368000D02*
X25666665Y-3501333D01*
X25666665Y-3501333D02*
X25599999Y-3568000D01*
X25599999Y-3568000D02*
X25466665Y-3634666D01*
X25466665Y-3634666D02*
X24933332Y-3634666D01*
X24933332Y-3634666D02*
X24933332Y-2234666D01*
X24933332Y-2234666D02*
X25399999Y-2234666D01*
X25399999Y-2234666D02*
X25533332Y-2301333D01*
X25533332Y-2301333D02*
X25599999Y-2368000D01*
X25599999Y-2368000D02*
X25666665Y-2501333D01*
X25666665Y-2501333D02*
X25666665Y-2634666D01*
X25666665Y-2634666D02*
X25599999Y-2768000D01*
X25599999Y-2768000D02*
X25533332Y-2834666D01*
X25533332Y-2834666D02*
X25399999Y-2901333D01*
X25399999Y-2901333D02*
X24933332Y-2901333D01*
X26266665Y-3234666D02*
X26933332Y-3234666D01*
X26133332Y-3634666D02*
X26599999Y-2234666D01*
X26599999Y-2234666D02*
X27066665Y-3634666D01*
X27333332Y-2234666D02*
X28133332Y-2234666D01*
X27733332Y-3634666D02*
X27733332Y-2234666D01*
X28266666Y-3768000D02*
X29333332Y-3768000D01*
X29666666Y-3634666D02*
X29666666Y-2234666D01*
X29666666Y-2901333D02*
X30466666Y-2901333D01*
X30466666Y-3634666D02*
X30466666Y-2234666D01*
X31133333Y-2234666D02*
X31133333Y-3368000D01*
X31133333Y-3368000D02*
X31200000Y-3501333D01*
X31200000Y-3501333D02*
X31266666Y-3568000D01*
X31266666Y-3568000D02*
X31400000Y-3634666D01*
X31400000Y-3634666D02*
X31666666Y-3634666D01*
X31666666Y-3634666D02*
X31800000Y-3568000D01*
X31800000Y-3568000D02*
X31866666Y-3501333D01*
X31866666Y-3501333D02*
X31933333Y-3368000D01*
X31933333Y-3368000D02*
X31933333Y-2234666D01*
X32600000Y-3634666D02*
X32600000Y-2234666D01*
X32600000Y-2234666D02*
X33066667Y-3234666D01*
X33066667Y-3234666D02*
X33533333Y-2234666D01*
X33533333Y-2234666D02*
X33533333Y-3634666D01*
X34133333Y-3234666D02*
X34800000Y-3234666D01*
X34000000Y-3634666D02*
X34466667Y-2234666D01*
X34466667Y-2234666D02*
X34933333Y-3634666D01*
X35400000Y-3634666D02*
X35400000Y-2234666D01*
X35400000Y-2234666D02*
X36200000Y-3634666D01*
X36200000Y-3634666D02*
X36200000Y-2234666D01*
X37933334Y-3634666D02*
X37933334Y-2234666D01*
X37933334Y-2234666D02*
X38266667Y-2234666D01*
X38266667Y-2234666D02*
X38466667Y-2301333D01*
X38466667Y-2301333D02*
X38600001Y-2434666D01*
X38600001Y-2434666D02*
X38666667Y-2568000D01*
X38666667Y-2568000D02*
X38733334Y-2834666D01*
X38733334Y-2834666D02*
X38733334Y-3034666D01*
X38733334Y-3034666D02*
X38666667Y-3301333D01*
X38666667Y-3301333D02*
X38600001Y-3434666D01*
X38600001Y-3434666D02*
X38466667Y-3568000D01*
X38466667Y-3568000D02*
X38266667Y-3634666D01*
X38266667Y-3634666D02*
X37933334Y-3634666D01*
X39600001Y-2234666D02*
X39866667Y-2234666D01*
X39866667Y-2234666D02*
X40000001Y-2301333D01*
X40000001Y-2301333D02*
X40133334Y-2434666D01*
X40133334Y-2434666D02*
X40200001Y-2701333D01*
X40200001Y-2701333D02*
X40200001Y-3168000D01*
X40200001Y-3168000D02*
X40133334Y-3434666D01*
X40133334Y-3434666D02*
X40000001Y-3568000D01*
X40000001Y-3568000D02*
X39866667Y-3634666D01*
X39866667Y-3634666D02*
X39600001Y-3634666D01*
X39600001Y-3634666D02*
X39466667Y-3568000D01*
X39466667Y-3568000D02*
X39333334Y-3434666D01*
X39333334Y-3434666D02*
X39266667Y-3168000D01*
X39266667Y-3168000D02*
X39266667Y-2701333D01*
X39266667Y-2701333D02*
X39333334Y-2434666D01*
X39333334Y-2434666D02*
X39466667Y-2301333D01*
X39466667Y-2301333D02*
X39600001Y-2234666D01*
X40800001Y-3634666D02*
X40800001Y-2234666D01*
X40800001Y-2234666D02*
X41266668Y-3234666D01*
X41266668Y-3234666D02*
X41733334Y-2234666D01*
X41733334Y-2234666D02*
X41733334Y-3634666D01*
X42333334Y-3234666D02*
X43000001Y-3234666D01*
X42200001Y-3634666D02*
X42666668Y-2234666D01*
X42666668Y-2234666D02*
X43133334Y-3634666D01*
X43600001Y-3634666D02*
X43600001Y-2234666D01*
X44266668Y-3634666D02*
X44266668Y-2234666D01*
X44266668Y-2234666D02*
X45066668Y-3634666D01*
X45066668Y-3634666D02*
X45066668Y-2234666D01*
X72433333Y-8634666D02*
X71766666Y-8634666D01*
X71766666Y-8634666D02*
X71766666Y-7234666D01*
X72833332Y-8234666D02*
X73499999Y-8234666D01*
X72699999Y-8634666D02*
X73166666Y-7234666D01*
X73166666Y-7234666D02*
X73633332Y-8634666D01*
X74566666Y-7901333D02*
X74766666Y-7968000D01*
X74766666Y-7968000D02*
X74833332Y-8034666D01*
X74833332Y-8034666D02*
X74899999Y-8168000D01*
X74899999Y-8168000D02*
X74899999Y-8368000D01*
X74899999Y-8368000D02*
X74833332Y-8501333D01*
X74833332Y-8501333D02*
X74766666Y-8568000D01*
X74766666Y-8568000D02*
X74633332Y-8634666D01*
X74633332Y-8634666D02*
X74099999Y-8634666D01*
X74099999Y-8634666D02*
X74099999Y-7234666D01*
X74099999Y-7234666D02*
X74566666Y-7234666D01*
X74566666Y-7234666D02*
X74699999Y-7301333D01*
X74699999Y-7301333D02*
X74766666Y-7368000D01*
X74766666Y-7368000D02*
X74833332Y-7501333D01*
X74833332Y-7501333D02*
X74833332Y-7634666D01*
X74833332Y-7634666D02*
X74766666Y-7768000D01*
X74766666Y-7768000D02*
X74699999Y-7834666D01*
X74699999Y-7834666D02*
X74566666Y-7901333D01*
X74566666Y-7901333D02*
X74099999Y-7901333D01*
X75166666Y-8768000D02*
X76233332Y-8768000D01*
X76566666Y-8634666D02*
X76566666Y-7234666D01*
X77166666Y-8568000D02*
X77366666Y-8634666D01*
X77366666Y-8634666D02*
X77700000Y-8634666D01*
X77700000Y-8634666D02*
X77833333Y-8568000D01*
X77833333Y-8568000D02*
X77900000Y-8501333D01*
X77900000Y-8501333D02*
X77966666Y-8368000D01*
X77966666Y-8368000D02*
X77966666Y-8234666D01*
X77966666Y-8234666D02*
X77900000Y-8101333D01*
X77900000Y-8101333D02*
X77833333Y-8034666D01*
X77833333Y-8034666D02*
X77700000Y-7968000D01*
X77700000Y-7968000D02*
X77433333Y-7901333D01*
X77433333Y-7901333D02*
X77300000Y-7834666D01*
X77300000Y-7834666D02*
X77233333Y-7768000D01*
X77233333Y-7768000D02*
X77166666Y-7634666D01*
X77166666Y-7634666D02*
X77166666Y-7501333D01*
X77166666Y-7501333D02*
X77233333Y-7368000D01*
X77233333Y-7368000D02*
X77300000Y-7301333D01*
X77300000Y-7301333D02*
X77433333Y-7234666D01*
X77433333Y-7234666D02*
X77766666Y-7234666D01*
X77766666Y-7234666D02*
X77966666Y-7301333D01*
X78833333Y-7234666D02*
X79099999Y-7234666D01*
X79099999Y-7234666D02*
X79233333Y-7301333D01*
X79233333Y-7301333D02*
X79366666Y-7434666D01*
X79366666Y-7434666D02*
X79433333Y-7701333D01*
X79433333Y-7701333D02*
X79433333Y-8168000D01*
X79433333Y-8168000D02*
X79366666Y-8434666D01*
X79366666Y-8434666D02*
X79233333Y-8568000D01*
X79233333Y-8568000D02*
X79099999Y-8634666D01*
X79099999Y-8634666D02*
X78833333Y-8634666D01*
X78833333Y-8634666D02*
X78699999Y-8568000D01*
X78699999Y-8568000D02*
X78566666Y-8434666D01*
X78566666Y-8434666D02*
X78499999Y-8168000D01*
X78499999Y-8168000D02*
X78499999Y-7701333D01*
X78499999Y-7701333D02*
X78566666Y-7434666D01*
X78566666Y-7434666D02*
X78699999Y-7301333D01*
X78699999Y-7301333D02*
X78833333Y-7234666D01*
X81100000Y-8634666D02*
X81100000Y-7234666D01*
X81100000Y-7234666D02*
X81433333Y-7234666D01*
X81433333Y-7234666D02*
X81633333Y-7301333D01*
X81633333Y-7301333D02*
X81766667Y-7434666D01*
X81766667Y-7434666D02*
X81833333Y-7568000D01*
X81833333Y-7568000D02*
X81900000Y-7834666D01*
X81900000Y-7834666D02*
X81900000Y-8034666D01*
X81900000Y-8034666D02*
X81833333Y-8301333D01*
X81833333Y-8301333D02*
X81766667Y-8434666D01*
X81766667Y-8434666D02*
X81633333Y-8568000D01*
X81633333Y-8568000D02*
X81433333Y-8634666D01*
X81433333Y-8634666D02*
X81100000Y-8634666D01*
X82766667Y-7234666D02*
X83033333Y-7234666D01*
X83033333Y-7234666D02*
X83166667Y-7301333D01*
X83166667Y-7301333D02*
X83300000Y-7434666D01*
X83300000Y-7434666D02*
X83366667Y-7701333D01*
X83366667Y-7701333D02*
X83366667Y-8168000D01*
X83366667Y-8168000D02*
X83300000Y-8434666D01*
X83300000Y-8434666D02*
X83166667Y-8568000D01*
X83166667Y-8568000D02*
X83033333Y-8634666D01*
X83033333Y-8634666D02*
X82766667Y-8634666D01*
X82766667Y-8634666D02*
X82633333Y-8568000D01*
X82633333Y-8568000D02*
X82500000Y-8434666D01*
X82500000Y-8434666D02*
X82433333Y-8168000D01*
X82433333Y-8168000D02*
X82433333Y-7701333D01*
X82433333Y-7701333D02*
X82500000Y-7434666D01*
X82500000Y-7434666D02*
X82633333Y-7301333D01*
X82633333Y-7301333D02*
X82766667Y-7234666D01*
X83966667Y-8634666D02*
X83966667Y-7234666D01*
X83966667Y-7234666D02*
X84433334Y-8234666D01*
X84433334Y-8234666D02*
X84900000Y-7234666D01*
X84900000Y-7234666D02*
X84900000Y-8634666D01*
X85500000Y-8234666D02*
X86166667Y-8234666D01*
X85366667Y-8634666D02*
X85833334Y-7234666D01*
X85833334Y-7234666D02*
X86300000Y-8634666D01*
X86766667Y-8634666D02*
X86766667Y-7234666D01*
X87433334Y-8634666D02*
X87433334Y-7234666D01*
X87433334Y-7234666D02*
X88233334Y-8634666D01*
X88233334Y-8634666D02*
X88233334Y-7234666D01*
D10*
X21428571Y-52430457D02*
X21371428Y-52487600D01*
X21371428Y-52487600D02*
X21200000Y-52544742D01*
X21200000Y-52544742D02*
X21085714Y-52544742D01*
X21085714Y-52544742D02*
X20914285Y-52487600D01*
X20914285Y-52487600D02*
X20800000Y-52373314D01*
X20800000Y-52373314D02*
X20742857Y-52259028D01*
X20742857Y-52259028D02*
X20685714Y-52030457D01*
X20685714Y-52030457D02*
X20685714Y-51859028D01*
X20685714Y-51859028D02*
X20742857Y-51630457D01*
X20742857Y-51630457D02*
X20800000Y-51516171D01*
X20800000Y-51516171D02*
X20914285Y-51401885D01*
X20914285Y-51401885D02*
X21085714Y-51344742D01*
X21085714Y-51344742D02*
X21200000Y-51344742D01*
X21200000Y-51344742D02*
X21371428Y-51401885D01*
X21371428Y-51401885D02*
X21428571Y-51459028D01*
X21942857Y-52544742D02*
X21942857Y-51344742D01*
X23200000Y-52544742D02*
X22800000Y-51973314D01*
X22514286Y-52544742D02*
X22514286Y-51344742D01*
X22514286Y-51344742D02*
X22971429Y-51344742D01*
X22971429Y-51344742D02*
X23085714Y-51401885D01*
X23085714Y-51401885D02*
X23142857Y-51459028D01*
X23142857Y-51459028D02*
X23200000Y-51573314D01*
X23200000Y-51573314D02*
X23200000Y-51744742D01*
X23200000Y-51744742D02*
X23142857Y-51859028D01*
X23142857Y-51859028D02*
X23085714Y-51916171D01*
X23085714Y-51916171D02*
X22971429Y-51973314D01*
X22971429Y-51973314D02*
X22514286Y-51973314D01*
X24400000Y-52430457D02*
X24342857Y-52487600D01*
X24342857Y-52487600D02*
X24171429Y-52544742D01*
X24171429Y-52544742D02*
X24057143Y-52544742D01*
X24057143Y-52544742D02*
X23885714Y-52487600D01*
X23885714Y-52487600D02*
X23771429Y-52373314D01*
X23771429Y-52373314D02*
X23714286Y-52259028D01*
X23714286Y-52259028D02*
X23657143Y-52030457D01*
X23657143Y-52030457D02*
X23657143Y-51859028D01*
X23657143Y-51859028D02*
X23714286Y-51630457D01*
X23714286Y-51630457D02*
X23771429Y-51516171D01*
X23771429Y-51516171D02*
X23885714Y-51401885D01*
X23885714Y-51401885D02*
X24057143Y-51344742D01*
X24057143Y-51344742D02*
X24171429Y-51344742D01*
X24171429Y-51344742D02*
X24342857Y-51401885D01*
X24342857Y-51401885D02*
X24400000Y-51459028D01*
X25485714Y-52544742D02*
X24914286Y-52544742D01*
X24914286Y-52544742D02*
X24914286Y-51344742D01*
X25885715Y-51916171D02*
X26285715Y-51916171D01*
X26457143Y-52544742D02*
X25885715Y-52544742D01*
X25885715Y-52544742D02*
X25885715Y-51344742D01*
X25885715Y-51344742D02*
X26457143Y-51344742D01*
X28571429Y-52544742D02*
X28171429Y-51973314D01*
X27885715Y-52544742D02*
X27885715Y-51344742D01*
X27885715Y-51344742D02*
X28342858Y-51344742D01*
X28342858Y-51344742D02*
X28457143Y-51401885D01*
X28457143Y-51401885D02*
X28514286Y-51459028D01*
X28514286Y-51459028D02*
X28571429Y-51573314D01*
X28571429Y-51573314D02*
X28571429Y-51744742D01*
X28571429Y-51744742D02*
X28514286Y-51859028D01*
X28514286Y-51859028D02*
X28457143Y-51916171D01*
X28457143Y-51916171D02*
X28342858Y-51973314D01*
X28342858Y-51973314D02*
X27885715Y-51973314D01*
X29542858Y-52487600D02*
X29428572Y-52544742D01*
X29428572Y-52544742D02*
X29200001Y-52544742D01*
X29200001Y-52544742D02*
X29085715Y-52487600D01*
X29085715Y-52487600D02*
X29028572Y-52373314D01*
X29028572Y-52373314D02*
X29028572Y-51916171D01*
X29028572Y-51916171D02*
X29085715Y-51801885D01*
X29085715Y-51801885D02*
X29200001Y-51744742D01*
X29200001Y-51744742D02*
X29428572Y-51744742D01*
X29428572Y-51744742D02*
X29542858Y-51801885D01*
X29542858Y-51801885D02*
X29600001Y-51916171D01*
X29600001Y-51916171D02*
X29600001Y-52030457D01*
X29600001Y-52030457D02*
X29028572Y-52144742D01*
X30000000Y-51744742D02*
X30285714Y-52544742D01*
X30285714Y-52544742D02*
X30571429Y-51744742D01*
X32342858Y-51916171D02*
X32514286Y-51973314D01*
X32514286Y-51973314D02*
X32571429Y-52030457D01*
X32571429Y-52030457D02*
X32628572Y-52144742D01*
X32628572Y-52144742D02*
X32628572Y-52316171D01*
X32628572Y-52316171D02*
X32571429Y-52430457D01*
X32571429Y-52430457D02*
X32514286Y-52487600D01*
X32514286Y-52487600D02*
X32400001Y-52544742D01*
X32400001Y-52544742D02*
X31942858Y-52544742D01*
X31942858Y-52544742D02*
X31942858Y-51344742D01*
X31942858Y-51344742D02*
X32342858Y-51344742D01*
X32342858Y-51344742D02*
X32457144Y-51401885D01*
X32457144Y-51401885D02*
X32514286Y-51459028D01*
X32514286Y-51459028D02*
X32571429Y-51573314D01*
X32571429Y-51573314D02*
X32571429Y-51687600D01*
X32571429Y-51687600D02*
X32514286Y-51801885D01*
X32514286Y-51801885D02*
X32457144Y-51859028D01*
X32457144Y-51859028D02*
X32342858Y-51916171D01*
X32342858Y-51916171D02*
X31942858Y-51916171D01*
X34057144Y-52087600D02*
X34971430Y-52087600D01*
X36285715Y-51344742D02*
X36685715Y-52544742D01*
X36685715Y-52544742D02*
X37085715Y-51344742D01*
X37942858Y-52487600D02*
X37828572Y-52544742D01*
X37828572Y-52544742D02*
X37600001Y-52544742D01*
X37600001Y-52544742D02*
X37485715Y-52487600D01*
X37485715Y-52487600D02*
X37428572Y-52373314D01*
X37428572Y-52373314D02*
X37428572Y-51916171D01*
X37428572Y-51916171D02*
X37485715Y-51801885D01*
X37485715Y-51801885D02*
X37600001Y-51744742D01*
X37600001Y-51744742D02*
X37828572Y-51744742D01*
X37828572Y-51744742D02*
X37942858Y-51801885D01*
X37942858Y-51801885D02*
X38000001Y-51916171D01*
X38000001Y-51916171D02*
X38000001Y-52030457D01*
X38000001Y-52030457D02*
X37428572Y-52144742D01*
X38514286Y-52544742D02*
X38514286Y-51744742D01*
X38514286Y-51973314D02*
X38571429Y-51859028D01*
X38571429Y-51859028D02*
X38628572Y-51801885D01*
X38628572Y-51801885D02*
X38742857Y-51744742D01*
X38742857Y-51744742D02*
X38857143Y-51744742D01*
X39200000Y-52487600D02*
X39314286Y-52544742D01*
X39314286Y-52544742D02*
X39542857Y-52544742D01*
X39542857Y-52544742D02*
X39657143Y-52487600D01*
X39657143Y-52487600D02*
X39714286Y-52373314D01*
X39714286Y-52373314D02*
X39714286Y-52316171D01*
X39714286Y-52316171D02*
X39657143Y-52201885D01*
X39657143Y-52201885D02*
X39542857Y-52144742D01*
X39542857Y-52144742D02*
X39371429Y-52144742D01*
X39371429Y-52144742D02*
X39257143Y-52087600D01*
X39257143Y-52087600D02*
X39200000Y-51973314D01*
X39200000Y-51973314D02*
X39200000Y-51916171D01*
X39200000Y-51916171D02*
X39257143Y-51801885D01*
X39257143Y-51801885D02*
X39371429Y-51744742D01*
X39371429Y-51744742D02*
X39542857Y-51744742D01*
X39542857Y-51744742D02*
X39657143Y-51801885D01*
X40114286Y-51344742D02*
X40857143Y-51344742D01*
X40857143Y-51344742D02*
X40457143Y-51801885D01*
X40457143Y-51801885D02*
X40628572Y-51801885D01*
X40628572Y-51801885D02*
X40742858Y-51859028D01*
X40742858Y-51859028D02*
X40800000Y-51916171D01*
X40800000Y-51916171D02*
X40857143Y-52030457D01*
X40857143Y-52030457D02*
X40857143Y-52316171D01*
X40857143Y-52316171D02*
X40800000Y-52430457D01*
X40800000Y-52430457D02*
X40742858Y-52487600D01*
X40742858Y-52487600D02*
X40628572Y-52544742D01*
X40628572Y-52544742D02*
X40285715Y-52544742D01*
X40285715Y-52544742D02*
X40171429Y-52487600D01*
X40171429Y-52487600D02*
X40114286Y-52430457D01*
X41371429Y-52544742D02*
X41371429Y-51344742D01*
X41371429Y-51344742D02*
X41657143Y-51344742D01*
X41657143Y-51344742D02*
X41828572Y-51401885D01*
X41828572Y-51401885D02*
X41942857Y-51516171D01*
X41942857Y-51516171D02*
X42000000Y-51630457D01*
X42000000Y-51630457D02*
X42057143Y-51859028D01*
X42057143Y-51859028D02*
X42057143Y-52030457D01*
X42057143Y-52030457D02*
X42000000Y-52259028D01*
X42000000Y-52259028D02*
X41942857Y-52373314D01*
X41942857Y-52373314D02*
X41828572Y-52487600D01*
X41828572Y-52487600D02*
X41657143Y-52544742D01*
X41657143Y-52544742D02*
X41371429Y-52544742D01*
X42457143Y-51744742D02*
X42742857Y-52544742D01*
X43028572Y-51744742D02*
X42742857Y-52544742D01*
X42742857Y-52544742D02*
X42628572Y-52830457D01*
X42628572Y-52830457D02*
X42571429Y-52887600D01*
X42571429Y-52887600D02*
X42457143Y-52944742D01*
X43485715Y-51744742D02*
X43485715Y-52544742D01*
X43485715Y-51859028D02*
X43542858Y-51801885D01*
X43542858Y-51801885D02*
X43657143Y-51744742D01*
X43657143Y-51744742D02*
X43828572Y-51744742D01*
X43828572Y-51744742D02*
X43942858Y-51801885D01*
X43942858Y-51801885D02*
X44000001Y-51916171D01*
X44000001Y-51916171D02*
X44000001Y-52544742D01*
X45085715Y-52544742D02*
X45085715Y-51916171D01*
X45085715Y-51916171D02*
X45028572Y-51801885D01*
X45028572Y-51801885D02*
X44914286Y-51744742D01*
X44914286Y-51744742D02*
X44685715Y-51744742D01*
X44685715Y-51744742D02*
X44571429Y-51801885D01*
X45085715Y-52487600D02*
X44971429Y-52544742D01*
X44971429Y-52544742D02*
X44685715Y-52544742D01*
X44685715Y-52544742D02*
X44571429Y-52487600D01*
X44571429Y-52487600D02*
X44514286Y-52373314D01*
X44514286Y-52373314D02*
X44514286Y-52259028D01*
X44514286Y-52259028D02*
X44571429Y-52144742D01*
X44571429Y-52144742D02*
X44685715Y-52087600D01*
X44685715Y-52087600D02*
X44971429Y-52087600D01*
X44971429Y-52087600D02*
X45085715Y-52030457D01*
X45657143Y-52544742D02*
X45657143Y-51744742D01*
X45657143Y-51859028D02*
X45714286Y-51801885D01*
X45714286Y-51801885D02*
X45828571Y-51744742D01*
X45828571Y-51744742D02*
X46000000Y-51744742D01*
X46000000Y-51744742D02*
X46114286Y-51801885D01*
X46114286Y-51801885D02*
X46171429Y-51916171D01*
X46171429Y-51916171D02*
X46171429Y-52544742D01*
X46171429Y-51916171D02*
X46228571Y-51801885D01*
X46228571Y-51801885D02*
X46342857Y-51744742D01*
X46342857Y-51744742D02*
X46514286Y-51744742D01*
X46514286Y-51744742D02*
X46628571Y-51801885D01*
X46628571Y-51801885D02*
X46685714Y-51916171D01*
X46685714Y-51916171D02*
X46685714Y-52544742D01*
X47257143Y-52544742D02*
X47257143Y-51744742D01*
X47257143Y-51344742D02*
X47200000Y-51401885D01*
X47200000Y-51401885D02*
X47257143Y-51459028D01*
X47257143Y-51459028D02*
X47314286Y-51401885D01*
X47314286Y-51401885D02*
X47257143Y-51344742D01*
X47257143Y-51344742D02*
X47257143Y-51459028D01*
X48342858Y-52487600D02*
X48228572Y-52544742D01*
X48228572Y-52544742D02*
X48000000Y-52544742D01*
X48000000Y-52544742D02*
X47885715Y-52487600D01*
X47885715Y-52487600D02*
X47828572Y-52430457D01*
X47828572Y-52430457D02*
X47771429Y-52316171D01*
X47771429Y-52316171D02*
X47771429Y-51973314D01*
X47771429Y-51973314D02*
X47828572Y-51859028D01*
X47828572Y-51859028D02*
X47885715Y-51801885D01*
X47885715Y-51801885D02*
X48000000Y-51744742D01*
X48000000Y-51744742D02*
X48228572Y-51744742D01*
X48228572Y-51744742D02*
X48342858Y-51801885D01*
X48800000Y-52487600D02*
X48914286Y-52544742D01*
X48914286Y-52544742D02*
X49142857Y-52544742D01*
X49142857Y-52544742D02*
X49257143Y-52487600D01*
X49257143Y-52487600D02*
X49314286Y-52373314D01*
X49314286Y-52373314D02*
X49314286Y-52316171D01*
X49314286Y-52316171D02*
X49257143Y-52201885D01*
X49257143Y-52201885D02*
X49142857Y-52144742D01*
X49142857Y-52144742D02*
X48971429Y-52144742D01*
X48971429Y-52144742D02*
X48857143Y-52087600D01*
X48857143Y-52087600D02*
X48800000Y-51973314D01*
X48800000Y-51973314D02*
X48800000Y-51916171D01*
X48800000Y-51916171D02*
X48857143Y-51801885D01*
X48857143Y-51801885D02*
X48971429Y-51744742D01*
X48971429Y-51744742D02*
X49142857Y-51744742D01*
X49142857Y-51744742D02*
X49257143Y-51801885D01*
D12*
X95238095Y-31454819D02*
X95238095Y-32264342D01*
X95238095Y-32264342D02*
X95285714Y-32359580D01*
X95285714Y-32359580D02*
X95333333Y-32407200D01*
X95333333Y-32407200D02*
X95428571Y-32454819D01*
X95428571Y-32454819D02*
X95619047Y-32454819D01*
X95619047Y-32454819D02*
X95714285Y-32407200D01*
X95714285Y-32407200D02*
X95761904Y-32359580D01*
X95761904Y-32359580D02*
X95809523Y-32264342D01*
X95809523Y-32264342D02*
X95809523Y-31454819D01*
X96809523Y-32454819D02*
X96238095Y-32454819D01*
X96523809Y-32454819D02*
X96523809Y-31454819D01*
X96523809Y-31454819D02*
X96428571Y-31597676D01*
X96428571Y-31597676D02*
X96333333Y-31692914D01*
X96333333Y-31692914D02*
X96238095Y-31740533D01*
X31238095Y-32454819D02*
X31238095Y-33264342D01*
X31238095Y-33264342D02*
X31285714Y-33359580D01*
X31285714Y-33359580D02*
X31333333Y-33407200D01*
X31333333Y-33407200D02*
X31428571Y-33454819D01*
X31428571Y-33454819D02*
X31619047Y-33454819D01*
X31619047Y-33454819D02*
X31714285Y-33407200D01*
X31714285Y-33407200D02*
X31761904Y-33359580D01*
X31761904Y-33359580D02*
X31809523Y-33264342D01*
X31809523Y-33264342D02*
X31809523Y-32454819D01*
X32238095Y-32550057D02*
X32285714Y-32502438D01*
X32285714Y-32502438D02*
X32380952Y-32454819D01*
X32380952Y-32454819D02*
X32619047Y-32454819D01*
X32619047Y-32454819D02*
X32714285Y-32502438D01*
X32714285Y-32502438D02*
X32761904Y-32550057D01*
X32761904Y-32550057D02*
X32809523Y-32645295D01*
X32809523Y-32645295D02*
X32809523Y-32740533D01*
X32809523Y-32740533D02*
X32761904Y-32883390D01*
X32761904Y-32883390D02*
X32190476Y-33454819D01*
X32190476Y-33454819D02*
X32809523Y-33454819D01*
X47238095Y-32454819D02*
X47238095Y-33264342D01*
X47238095Y-33264342D02*
X47285714Y-33359580D01*
X47285714Y-33359580D02*
X47333333Y-33407200D01*
X47333333Y-33407200D02*
X47428571Y-33454819D01*
X47428571Y-33454819D02*
X47619047Y-33454819D01*
X47619047Y-33454819D02*
X47714285Y-33407200D01*
X47714285Y-33407200D02*
X47761904Y-33359580D01*
X47761904Y-33359580D02*
X47809523Y-33264342D01*
X47809523Y-33264342D02*
X47809523Y-32454819D01*
X48190476Y-32454819D02*
X48809523Y-32454819D01*
X48809523Y-32454819D02*
X48476190Y-32835771D01*
X48476190Y-32835771D02*
X48619047Y-32835771D01*
X48619047Y-32835771D02*
X48714285Y-32883390D01*
X48714285Y-32883390D02*
X48761904Y-32931009D01*
X48761904Y-32931009D02*
X48809523Y-33026247D01*
X48809523Y-33026247D02*
X48809523Y-33264342D01*
X48809523Y-33264342D02*
X48761904Y-33359580D01*
X48761904Y-33359580D02*
X48714285Y-33407200D01*
X48714285Y-33407200D02*
X48619047Y-33454819D01*
X48619047Y-33454819D02*
X48333333Y-33454819D01*
X48333333Y-33454819D02*
X48238095Y-33407200D01*
X48238095Y-33407200D02*
X48190476Y-33359580D01*
X142761905Y-46954819D02*
X142761905Y-47764342D01*
X142761905Y-47764342D02*
X142809524Y-47859580D01*
X142809524Y-47859580D02*
X142857143Y-47907200D01*
X142857143Y-47907200D02*
X142952381Y-47954819D01*
X142952381Y-47954819D02*
X143142857Y-47954819D01*
X143142857Y-47954819D02*
X143238095Y-47907200D01*
X143238095Y-47907200D02*
X143285714Y-47859580D01*
X143285714Y-47859580D02*
X143333333Y-47764342D01*
X143333333Y-47764342D02*
X143333333Y-46954819D01*
X143714286Y-46954819D02*
X144333333Y-46954819D01*
X144333333Y-46954819D02*
X144000000Y-47335771D01*
X144000000Y-47335771D02*
X144142857Y-47335771D01*
X144142857Y-47335771D02*
X144238095Y-47383390D01*
X144238095Y-47383390D02*
X144285714Y-47431009D01*
X144285714Y-47431009D02*
X144333333Y-47526247D01*
X144333333Y-47526247D02*
X144333333Y-47764342D01*
X144333333Y-47764342D02*
X144285714Y-47859580D01*
X144285714Y-47859580D02*
X144238095Y-47907200D01*
X144238095Y-47907200D02*
X144142857Y-47954819D01*
X144142857Y-47954819D02*
X143857143Y-47954819D01*
X143857143Y-47954819D02*
X143761905Y-47907200D01*
X143761905Y-47907200D02*
X143714286Y-47859580D01*
X144952381Y-46954819D02*
X145047619Y-46954819D01*
X145047619Y-46954819D02*
X145142857Y-47002438D01*
X145142857Y-47002438D02*
X145190476Y-47050057D01*
X145190476Y-47050057D02*
X145238095Y-47145295D01*
X145238095Y-47145295D02*
X145285714Y-47335771D01*
X145285714Y-47335771D02*
X145285714Y-47573866D01*
X145285714Y-47573866D02*
X145238095Y-47764342D01*
X145238095Y-47764342D02*
X145190476Y-47859580D01*
X145190476Y-47859580D02*
X145142857Y-47907200D01*
X145142857Y-47907200D02*
X145047619Y-47954819D01*
X145047619Y-47954819D02*
X144952381Y-47954819D01*
X144952381Y-47954819D02*
X144857143Y-47907200D01*
X144857143Y-47907200D02*
X144809524Y-47859580D01*
X144809524Y-47859580D02*
X144761905Y-47764342D01*
X144761905Y-47764342D02*
X144714286Y-47573866D01*
X144714286Y-47573866D02*
X144714286Y-47335771D01*
X144714286Y-47335771D02*
X144761905Y-47145295D01*
X144761905Y-47145295D02*
X144809524Y-47050057D01*
X144809524Y-47050057D02*
X144857143Y-47002438D01*
X144857143Y-47002438D02*
X144952381Y-46954819D01*
X29166666Y-20954819D02*
X29166666Y-21669104D01*
X29166666Y-21669104D02*
X29119047Y-21811961D01*
X29119047Y-21811961D02*
X29023809Y-21907200D01*
X29023809Y-21907200D02*
X28880952Y-21954819D01*
X28880952Y-21954819D02*
X28785714Y-21954819D01*
X30166666Y-21954819D02*
X29595238Y-21954819D01*
X29880952Y-21954819D02*
X29880952Y-20954819D01*
X29880952Y-20954819D02*
X29785714Y-21097676D01*
X29785714Y-21097676D02*
X29690476Y-21192914D01*
X29690476Y-21192914D02*
X29595238Y-21240533D01*
X23666666Y-7454819D02*
X23666666Y-8169104D01*
X23666666Y-8169104D02*
X23619047Y-8311961D01*
X23619047Y-8311961D02*
X23523809Y-8407200D01*
X23523809Y-8407200D02*
X23380952Y-8454819D01*
X23380952Y-8454819D02*
X23285714Y-8454819D01*
X24095238Y-7550057D02*
X24142857Y-7502438D01*
X24142857Y-7502438D02*
X24238095Y-7454819D01*
X24238095Y-7454819D02*
X24476190Y-7454819D01*
X24476190Y-7454819D02*
X24571428Y-7502438D01*
X24571428Y-7502438D02*
X24619047Y-7550057D01*
X24619047Y-7550057D02*
X24666666Y-7645295D01*
X24666666Y-7645295D02*
X24666666Y-7740533D01*
X24666666Y-7740533D02*
X24619047Y-7883390D01*
X24619047Y-7883390D02*
X24047619Y-8454819D01*
X24047619Y-8454819D02*
X24666666Y-8454819D01*
X53190476Y-42454819D02*
X53190476Y-43169104D01*
X53190476Y-43169104D02*
X53142857Y-43311961D01*
X53142857Y-43311961D02*
X53047619Y-43407200D01*
X53047619Y-43407200D02*
X52904762Y-43454819D01*
X52904762Y-43454819D02*
X52809524Y-43454819D01*
X54190476Y-43454819D02*
X53619048Y-43454819D01*
X53904762Y-43454819D02*
X53904762Y-42454819D01*
X53904762Y-42454819D02*
X53809524Y-42597676D01*
X53809524Y-42597676D02*
X53714286Y-42692914D01*
X53714286Y-42692914D02*
X53619048Y-42740533D01*
X54809524Y-42454819D02*
X54904762Y-42454819D01*
X54904762Y-42454819D02*
X55000000Y-42502438D01*
X55000000Y-42502438D02*
X55047619Y-42550057D01*
X55047619Y-42550057D02*
X55095238Y-42645295D01*
X55095238Y-42645295D02*
X55142857Y-42835771D01*
X55142857Y-42835771D02*
X55142857Y-43073866D01*
X55142857Y-43073866D02*
X55095238Y-43264342D01*
X55095238Y-43264342D02*
X55047619Y-43359580D01*
X55047619Y-43359580D02*
X55000000Y-43407200D01*
X55000000Y-43407200D02*
X54904762Y-43454819D01*
X54904762Y-43454819D02*
X54809524Y-43454819D01*
X54809524Y-43454819D02*
X54714286Y-43407200D01*
X54714286Y-43407200D02*
X54666667Y-43359580D01*
X54666667Y-43359580D02*
X54619048Y-43264342D01*
X54619048Y-43264342D02*
X54571429Y-43073866D01*
X54571429Y-43073866D02*
X54571429Y-42835771D01*
X54571429Y-42835771D02*
X54619048Y-42645295D01*
X54619048Y-42645295D02*
X54666667Y-42550057D01*
X54666667Y-42550057D02*
X54714286Y-42502438D01*
X54714286Y-42502438D02*
X54809524Y-42454819D01*
X-809523Y-6454819D02*
X-809523Y-7169104D01*
X-809523Y-7169104D02*
X-857142Y-7311961D01*
X-857142Y-7311961D02*
X-952380Y-7407200D01*
X-952380Y-7407200D02*
X-1095237Y-7454819D01*
X-1095237Y-7454819D02*
X-1190475Y-7454819D01*
X-428570Y-6454819D02*
X190476Y-6454819D01*
X190476Y-6454819D02*
X-142856Y-6835771D01*
X-142856Y-6835771D02*
X0Y-6835771D01*
X0Y-6835771D02*
X95238Y-6883390D01*
X95238Y-6883390D02*
X142857Y-6931009D01*
X142857Y-6931009D02*
X190476Y-7026247D01*
X190476Y-7026247D02*
X190476Y-7264342D01*
X190476Y-7264342D02*
X142857Y-7359580D01*
X142857Y-7359580D02*
X95238Y-7407200D01*
X95238Y-7407200D02*
X0Y-7454819D01*
X0Y-7454819D02*
X-285713Y-7454819D01*
X-285713Y-7454819D02*
X-380951Y-7407200D01*
X-380951Y-7407200D02*
X-428570Y-7359580D01*
X809524Y-6454819D02*
X904762Y-6454819D01*
X904762Y-6454819D02*
X1000000Y-6502438D01*
X1000000Y-6502438D02*
X1047619Y-6550057D01*
X1047619Y-6550057D02*
X1095238Y-6645295D01*
X1095238Y-6645295D02*
X1142857Y-6835771D01*
X1142857Y-6835771D02*
X1142857Y-7073866D01*
X1142857Y-7073866D02*
X1095238Y-7264342D01*
X1095238Y-7264342D02*
X1047619Y-7359580D01*
X1047619Y-7359580D02*
X1000000Y-7407200D01*
X1000000Y-7407200D02*
X904762Y-7454819D01*
X904762Y-7454819D02*
X809524Y-7454819D01*
X809524Y-7454819D02*
X714286Y-7407200D01*
X714286Y-7407200D02*
X666667Y-7359580D01*
X666667Y-7359580D02*
X619048Y-7264342D01*
X619048Y-7264342D02*
X571429Y-7073866D01*
X571429Y-7073866D02*
X571429Y-6835771D01*
X571429Y-6835771D02*
X619048Y-6645295D01*
X619048Y-6645295D02*
X666667Y-6550057D01*
X666667Y-6550057D02*
X714286Y-6502438D01*
X714286Y-6502438D02*
X809524Y-6454819D01*
X-809523Y-6454819D02*
X-809523Y-7169104D01*
X-809523Y-7169104D02*
X-857142Y-7311961D01*
X-857142Y-7311961D02*
X-952380Y-7407200D01*
X-952380Y-7407200D02*
X-1095237Y-7454819D01*
X-1095237Y-7454819D02*
X-1190475Y-7454819D01*
X-428570Y-6454819D02*
X190476Y-6454819D01*
X190476Y-6454819D02*
X-142856Y-6835771D01*
X-142856Y-6835771D02*
X0Y-6835771D01*
X0Y-6835771D02*
X95238Y-6883390D01*
X95238Y-6883390D02*
X142857Y-6931009D01*
X142857Y-6931009D02*
X190476Y-7026247D01*
X190476Y-7026247D02*
X190476Y-7264342D01*
X190476Y-7264342D02*
X142857Y-7359580D01*
X142857Y-7359580D02*
X95238Y-7407200D01*
X95238Y-7407200D02*
X0Y-7454819D01*
X0Y-7454819D02*
X-285713Y-7454819D01*
X-285713Y-7454819D02*
X-380951Y-7407200D01*
X-380951Y-7407200D02*
X-428570Y-7359580D01*
X1142857Y-7454819D02*
X571429Y-7454819D01*
X857143Y-7454819D02*
X857143Y-6454819D01*
X857143Y-6454819D02*
X761905Y-6597676D01*
X761905Y-6597676D02*
X666667Y-6692914D01*
X666667Y-6692914D02*
X571429Y-6740533D01*
M02*
