M48
; DRILL file KiCad 10.0.5 date 2026-08-17T17:48:05
; FORMAT={-:-/ absolute / metric / decimal}
; #@! TF.CreationDate,2026-08-17T17:48:05-04:00
; #@! TF.GenerationSoftware,Kicad,Pcbnew,10.0.5
; #@! TF.FileFunction,MixedPlating,1,4
FMAT,2
METRIC
; #@! TA.AperFunction,Plated,PTH,ViaDrill
T1C0.300
; #@! TA.AperFunction,Plated,PTH,ComponentDrill
T2C0.800
%
G90
G05
T1
X8.0Y-6.745
X8.0Y-8.015
X8.0Y-9.285
X8.0Y-10.555
X8.0Y-11.825
X8.0Y-13.095
X8.0Y-14.365
X8.0Y-15.635
X8.0Y-16.905
X8.0Y-18.175
X8.0Y-19.445
X8.0Y-20.715
X8.0Y-21.985
X8.0Y-23.255
X8.5Y-10.9
X8.5Y-19.0
X8.5Y-19.95
X8.5Y-20.9
X11.5Y-9.0
X11.5Y-9.95
X11.5Y-10.9
X11.5Y-19.0
X11.5Y-19.95
X11.5Y-20.9
X12.0Y-10.555
X12.0Y-11.825
X12.0Y-13.095
X12.0Y-14.365
X12.0Y-15.635
X12.0Y-16.905
X12.0Y-18.175
X12.0Y-19.445
X12.0Y-20.715
X12.0Y-21.985
X12.0Y-23.255
X12.0Y-33.095
X12.0Y-34.365
X12.0Y-35.635
X13.0Y-32.46
X13.0Y-33.73
X13.0Y-35.0
X13.0Y-36.27
X13.0Y-37.54
X13.5Y-14.95
X13.5Y-15.9
X13.5Y-19.0
X13.5Y-19.95
X13.5Y-20.9
X13.5Y-24.0
X13.5Y-24.95
X13.5Y-25.9
X13.5Y-29.0
X13.5Y-29.95
X13.5Y-30.9
X13.5Y-39.0
X13.5Y-39.95
X13.5Y-40.9
X16.5Y-14.0
X16.5Y-14.95
X16.5Y-15.9
X16.5Y-19.0
X16.5Y-19.95
X16.5Y-20.9
X16.5Y-24.0
X16.5Y-24.95
X16.5Y-25.9
X16.5Y-29.0
X16.5Y-29.95
X16.5Y-30.9
X16.5Y-39.95
X16.5Y-40.9
X17.0Y-32.46
X17.0Y-37.54
X18.5Y-44.0
X21.5Y-39.0
X21.5Y-44.95
X28.5Y-44.0
X31.0Y-40.0
X31.0Y-45.0
X31.5Y-39.0
X31.5Y-39.95
X31.5Y-44.0
X31.5Y-44.95
X33.0Y-12.8
X33.0Y-13.6
X33.0Y-14.4
X33.0Y-15.2
X33.0Y-16.0
X33.0Y-16.8
X33.0Y-17.6
X33.0Y-18.4
X33.0Y-19.2
X33.0Y-20.0
X33.0Y-20.8
X33.0Y-21.6
X33.0Y-22.4
X33.0Y-23.2
X33.0Y-24.0
X33.0Y-24.8
X33.0Y-25.6
X33.0Y-26.4
X33.0Y-27.2
X33.0Y-28.0
X33.0Y-28.8
X33.0Y-29.6
X33.0Y-30.4
X33.0Y-31.2
X33.0Y-32.0
X33.0Y-32.8
X33.0Y-33.6
X33.0Y-34.4
X33.0Y-35.2
X33.0Y-36.0
X33.0Y-36.8
X33.0Y-37.6
X33.0Y-38.4
X33.0Y-39.2
X33.0Y-40.0
X33.0Y-40.0
X33.0Y-40.8
X33.0Y-41.6
X33.0Y-42.4
X33.0Y-45.0
X33.5Y-4.0
X34.5Y-10.0
X34.5Y-15.0
X34.5Y-20.0
X34.5Y-25.0
X34.5Y-30.0
X34.5Y-35.0
X35.0Y-40.0
X35.0Y-45.0
X35.5Y-10.0
X35.5Y-15.0
X35.5Y-20.0
X35.5Y-25.0
X35.5Y-30.0
X35.5Y-35.0
X36.0Y-5.0
X36.0Y-35.0
X36.5Y-4.0
X36.5Y-4.95
X37.0Y-40.0
X38.0Y-5.0
X38.0Y-35.0
X39.0Y-40.0
X40.0Y-5.0
X41.0Y-40.0
X42.0Y-5.0
X44.0Y-5.0
X46.0Y-5.0
X46.0Y-30.0
X49.5Y-30.0
X49.5Y-35.0
X49.5Y-40.0
X49.5Y-45.0
X50.5Y-30.0
X50.5Y-35.0
X50.5Y-40.0
X50.5Y-45.0
T2
X-11.0Y-27.5
X-9.0Y-27.5
X-7.0Y-27.5
X-5.0Y-27.5
X-3.0Y-27.5
X-1.0Y-27.5
X1.0Y-27.5
X3.0Y-27.5
X5.0Y-27.5
X7.0Y-27.5
X9.0Y-27.5
X11.0Y-27.5
X13.0Y-27.5
X15.0Y-27.5
X17.0Y-27.5
X19.0Y-27.5
X31.0Y-40.0
X31.0Y-45.0
X33.0Y-40.0
X33.0Y-45.0
X35.0Y-40.0
X35.0Y-45.0
X36.0Y-5.0
X36.0Y-10.0
X36.0Y-15.0
X36.0Y-20.0
X36.0Y-25.0
X36.0Y-30.0
X36.0Y-35.0
X36.0Y-40.0
X36.0Y-45.0
X37.0Y-40.0
X37.0Y-45.0
X38.0Y-5.0
X38.0Y-10.0
X38.0Y-15.0
X38.0Y-20.0
X38.0Y-25.0
X38.0Y-30.0
X38.0Y-35.0
X38.0Y-40.0
X38.0Y-45.0
X39.0Y-40.0
X39.0Y-45.0
X40.0Y-5.0
X40.0Y-10.0
X40.0Y-15.0
X40.0Y-20.0
X40.0Y-25.0
X40.0Y-30.0
X40.0Y-35.0
X40.0Y-40.0
X40.0Y-45.0
X41.0Y-40.0
X41.0Y-45.0
X42.0Y-5.0
X42.0Y-10.0
X42.0Y-15.0
X42.0Y-20.0
X42.0Y-25.0
X42.0Y-30.0
X42.0Y-35.0
X42.0Y-40.0
X42.0Y-45.0
X44.0Y-5.0
X44.0Y-10.0
X44.0Y-15.0
X44.0Y-20.0
X44.0Y-25.0
X44.0Y-30.0
X44.0Y-35.0
X44.0Y-40.0
X44.0Y-45.0
X46.0Y-5.0
X46.0Y-10.0
X46.0Y-15.0
X46.0Y-20.0
X46.0Y-25.0
X46.0Y-30.0
X46.0Y-35.0
X46.0Y-40.0
X46.0Y-45.0
X51.0Y-10.0
X51.0Y-15.0
X51.0Y-20.0
X51.0Y-25.0
X51.0Y-30.0
X51.0Y-35.0
X53.0Y-10.0
X53.0Y-15.0
X53.0Y-20.0
X53.0Y-25.0
X53.0Y-30.0
X53.0Y-35.0
X55.0Y-10.0
X55.0Y-15.0
X55.0Y-20.0
X55.0Y-25.0
X55.0Y-30.0
X55.0Y-35.0
X57.0Y-10.0
X57.0Y-15.0
X57.0Y-20.0
X57.0Y-25.0
X57.0Y-30.0
X57.0Y-35.0
X59.0Y-10.0
X59.0Y-15.0
X59.0Y-20.0
X59.0Y-25.0
X59.0Y-30.0
X59.0Y-35.0
X61.0Y-10.0
X61.0Y-15.0
X61.0Y-20.0
X61.0Y-25.0
X61.0Y-30.0
X61.0Y-35.0
M30
