%TF.GenerationSoftware,KiCad,Pcbnew,10.0.5*%
%TF.CreationDate,2026-08-17T19:03:04-04:00*%
%TF.ProjectId,circle-main,63697263-6c65-42d6-9d61-696e2e6b6963,rev?*%
%TF.SameCoordinates,Original*%
%TF.FileFunction,Copper,L4,Bot*%
%TF.FilePolarity,Positive*%
%FSLAX46Y46*%
G04 Gerber Fmt 4.6, Leading zero omitted, Abs format (unit mm)*
G04 Created by KiCad (PCBNEW 10.0.5) date 2026-08-17 19:03:04*
%MOMM*%
%LPD*%
G01*
G04 APERTURE LIST*
G04 Aperture macros list*
%AMRoundRect*
0 Rectangle with rounded corners*
0 $1 Rounding radius*
0 $2 $3 $4 $5 $6 $7 $8 $9 X,Y pos of 4 corners*
0 Add a 4 corners polygon primitive as box body*
4,1,4,$2,$3,$4,$5,$6,$7,$8,$9,$2,$3,0*
0 Add four circle primitives for the rounded corners*
1,1,$1+$1,$2,$3*
1,1,$1+$1,$4,$5*
1,1,$1+$1,$6,$7*
1,1,$1+$1,$8,$9*
0 Add four rect primitives between the rounded corners*
20,1,$1+$1,$2,$3,$4,$5,0*
20,1,$1+$1,$4,$5,$6,$7,0*
20,1,$1+$1,$6,$7,$8,$9,0*
20,1,$1+$1,$8,$9,$2,$3,0*%
G04 Aperture macros list end*
%TA.AperFunction,ComponentPad*%
%ADD10C,1.400000*%
%TD*%
%TA.AperFunction,ComponentPad*%
%ADD11RoundRect,0.325000X-0.325000X-0.325000X0.325000X-0.325000X0.325000X0.325000X-0.325000X0.325000X0*%
%TD*%
%TA.AperFunction,ComponentPad*%
%ADD12C,1.300000*%
%TD*%
%TA.AperFunction,ComponentPad*%
%ADD13C,1.500000*%
%TD*%
%TA.AperFunction,ComponentPad*%
%ADD14C,1.700000*%
%TD*%
%TA.AperFunction,ComponentPad*%
%ADD15C,1.200000*%
%TD*%
%TA.AperFunction,ComponentPad*%
%ADD16C,1.100000*%
%TD*%
G04 APERTURE END LIST*
D10*
%TO.P,J1,SH1*%
%TO.N,BAT_HUMAN_GND*%
X5000000Y-31000000D03*
%TO.P,J1,SH2*%
X5000000Y-24000000D03*
%TD*%
D11*
%TO.P,J2,1*%
%TO.N,VBAT*%
X10000000Y-7000000D03*
D12*
%TO.P,J2,2*%
%TO.N,BAT_HUMAN_GND*%
X12000000Y-7000000D03*
%TO.P,J2,3*%
X14000000Y-7000000D03*
%TD*%
D13*
%TO.P,J30,1*%
%TO.N,SYNC_IN_LAB*%
X80000000Y-14000000D03*
D14*
%TO.P,J30,2*%
%TO.N,LAB_ISO_GND*%
X82540000Y-11460000D03*
%TO.P,J30,3*%
X77460000Y-11460000D03*
%TD*%
D13*
%TO.P,J31,1*%
%TO.N,SYNC_OUT_LAB*%
X80000000Y-41000000D03*
D14*
%TO.P,J31,2*%
%TO.N,LAB_ISO_GND*%
X82540000Y-38460000D03*
%TO.P,J31,3*%
X77460000Y-38460000D03*
%TD*%
D11*
%TO.P,J10,1*%
%TO.N,EDA_DRIVE_P*%
X3000000Y-46000000D03*
D12*
%TO.P,J10,2*%
%TO.N,EDA_DRIVE_N*%
X5000000Y-46000000D03*
%TO.P,J10,3*%
%TO.N,EDA_SENSE_P*%
X7000000Y-46000000D03*
%TO.P,J10,4*%
%TO.N,EDA_SENSE_N*%
X9000000Y-46000000D03*
%TD*%
D15*
%TO.P,J20,1*%
%TO.N,N/C*%
X39400000Y-48000000D03*
%TO.P,J20,2*%
%TO.N,PPG_LED_PWR*%
X40800000Y-48000000D03*
%TO.P,J20,3*%
%TO.N,PPG_SDA_3V3*%
X42200000Y-48000000D03*
%TO.P,J20,4*%
%TO.N,PPG_SCL_3V3*%
X43600000Y-48000000D03*
%TO.P,J20,5*%
%TO.N,PPG_INT*%
X45000000Y-48000000D03*
%TO.P,J20,6*%
%TO.N,PPG_MOTION_INT*%
X46400000Y-48000000D03*
%TO.P,J20,7*%
%TO.N,PPG_BOARD_ID*%
X47800000Y-48000000D03*
%TO.P,J20,8*%
%TO.N,BAT_HUMAN_GND*%
X49200000Y-48000000D03*
%TO.P,J20,9*%
X50600000Y-48000000D03*
%TD*%
D16*
%TO.P,J21,1*%
%TO.N,SD_D0*%
X55450000Y-48000000D03*
%TO.P,J21,2*%
%TO.N,SD_D1*%
X56750000Y-48000000D03*
%TO.P,J21,3*%
%TO.N,SD_D2*%
X58050000Y-48000000D03*
%TO.P,J21,4*%
%TO.N,SD_D3*%
X59350000Y-48000000D03*
%TO.P,J21,5*%
%TO.N,SD_CLK*%
X60650000Y-48000000D03*
%TO.P,J21,6*%
%TO.N,SD_CMD*%
X61950000Y-48000000D03*
%TO.P,J21,7*%
%TO.N,BAT_HUMAN_GND*%
X63250000Y-48000000D03*
%TO.P,J21,8*%
%TO.N,+3V3_DIG*%
X64550000Y-48000000D03*
%TD*%
D12*
%TO.P,J40,1*%
%TO.N,HAPTIC_VDRV*%
X34200000Y-7000000D03*
%TO.P,J40,2*%
%TO.N,HAPTIC_CURRENT_EDGE*%
X36000000Y-7000000D03*
%TO.P,J40,3*%
%TO.N,BAT_HUMAN_GND*%
X37800000Y-7000000D03*
%TD*%
%TO.P,J41,1*%
%TO.N,SYS_I2C_SDA*%
X41300000Y-7000000D03*
%TO.P,J41,2*%
%TO.N,SYS_I2C_SCL*%
X43100000Y-7000000D03*
%TO.P,J41,3*%
%TO.N,BAT_HUMAN_GND*%
X44900000Y-7000000D03*
%TO.P,J41,4*%
%TO.N,+3V3_DIG*%
X46700000Y-7000000D03*
%TD*%
%TO.P,J42,1*%
%TO.N,EXP_3V3*%
X49400000Y-7000000D03*
%TO.P,J42,2*%
%TO.N,EXP_UART_TX*%
X51200000Y-7000000D03*
%TO.P,J42,3*%
%TO.N,EXP_UART_RX*%
X53000000Y-7000000D03*
%TO.P,J42,4*%
%TO.N,EXTERNAL_EXPANSION_ATTACHED*%
X54800000Y-7000000D03*
%TO.P,J42,5*%
%TO.N,BAT_HUMAN_GND*%
X56600000Y-7000000D03*
%TD*%
%TO.P,J11,1*%
%TO.N,EDA_DRIVE_P*%
X10100000Y-40000000D03*
%TO.P,J11,2*%
%TO.N,EDA_DRIVE_N*%
X11900000Y-40000000D03*
%TD*%
M02*
