%TF.GenerationSoftware,KiCad,Pcbnew,10.0.5*%
%TF.CreationDate,2026-08-17T19:03:04-04:00*%
%TF.ProjectId,circle-main,63697263-6c65-42d6-9d61-696e2e6b6963,rev?*%
%TF.SameCoordinates,Original*%
%TF.FileFunction,Soldermask,Bot*%
%TF.FilePolarity,Negative*%
%FSLAX46Y46*%
G04 Gerber Fmt 4.6, Leading zero omitted, Abs format (unit mm)*
G04 Created by KiCad (PCBNEW 10.0.5) date 2026-08-17 19:03:04*
%MOMM*%
%LPD*%
G01*
G04 APERTURE LIST*
G04 APERTURE END LIST*
G36*
X39579976Y-47406697D02*
G01*
X39692266Y-47453209D01*
X39793324Y-47520734D01*
X39879266Y-47606676D01*
X39946791Y-47707734D01*
X39993303Y-47820024D01*
X40017015Y-47939229D01*
X40017015Y-48060771D01*
X39993303Y-48179976D01*
X39946791Y-48292266D01*
X39879266Y-48393324D01*
X39793324Y-48479266D01*
X39692266Y-48546791D01*
X39579976Y-48593303D01*
X39460771Y-48617015D01*
X39339229Y-48617015D01*
X39220024Y-48593303D01*
X39107734Y-48546791D01*
X39006676Y-48479266D01*
X38920734Y-48393324D01*
X38853209Y-48292266D01*
X38806697Y-48179976D01*
X38782985Y-48060771D01*
X38782985Y-47939229D01*
X38806697Y-47820024D01*
X38853209Y-47707734D01*
X38920734Y-47606676D01*
X39006676Y-47520734D01*
X39107734Y-47453209D01*
X39220024Y-47406697D01*
X39339229Y-47382985D01*
X39460771Y-47382985D01*
X39579976Y-47406697D01*
G37*
G36*
X40979976Y-47406697D02*
G01*
X41092266Y-47453209D01*
X41193324Y-47520734D01*
X41279266Y-47606676D01*
X41346791Y-47707734D01*
X41393303Y-47820024D01*
X41417015Y-47939229D01*
X41417015Y-48060771D01*
X41393303Y-48179976D01*
X41346791Y-48292266D01*
X41279266Y-48393324D01*
X41193324Y-48479266D01*
X41092266Y-48546791D01*
X40979976Y-48593303D01*
X40860771Y-48617015D01*
X40739229Y-48617015D01*
X40620024Y-48593303D01*
X40507734Y-48546791D01*
X40406676Y-48479266D01*
X40320734Y-48393324D01*
X40253209Y-48292266D01*
X40206697Y-48179976D01*
X40182985Y-48060771D01*
X40182985Y-47939229D01*
X40206697Y-47820024D01*
X40253209Y-47707734D01*
X40320734Y-47606676D01*
X40406676Y-47520734D01*
X40507734Y-47453209D01*
X40620024Y-47406697D01*
X40739229Y-47382985D01*
X40860771Y-47382985D01*
X40979976Y-47406697D01*
G37*
G36*
X42379976Y-47406697D02*
G01*
X42492266Y-47453209D01*
X42593324Y-47520734D01*
X42679266Y-47606676D01*
X42746791Y-47707734D01*
X42793303Y-47820024D01*
X42817015Y-47939229D01*
X42817015Y-48060771D01*
X42793303Y-48179976D01*
X42746791Y-48292266D01*
X42679266Y-48393324D01*
X42593324Y-48479266D01*
X42492266Y-48546791D01*
X42379976Y-48593303D01*
X42260771Y-48617015D01*
X42139229Y-48617015D01*
X42020024Y-48593303D01*
X41907734Y-48546791D01*
X41806676Y-48479266D01*
X41720734Y-48393324D01*
X41653209Y-48292266D01*
X41606697Y-48179976D01*
X41582985Y-48060771D01*
X41582985Y-47939229D01*
X41606697Y-47820024D01*
X41653209Y-47707734D01*
X41720734Y-47606676D01*
X41806676Y-47520734D01*
X41907734Y-47453209D01*
X42020024Y-47406697D01*
X42139229Y-47382985D01*
X42260771Y-47382985D01*
X42379976Y-47406697D01*
G37*
G36*
X43779976Y-47406697D02*
G01*
X43892266Y-47453209D01*
X43993324Y-47520734D01*
X44079266Y-47606676D01*
X44146791Y-47707734D01*
X44193303Y-47820024D01*
X44217015Y-47939229D01*
X44217015Y-48060771D01*
X44193303Y-48179976D01*
X44146791Y-48292266D01*
X44079266Y-48393324D01*
X43993324Y-48479266D01*
X43892266Y-48546791D01*
X43779976Y-48593303D01*
X43660771Y-48617015D01*
X43539229Y-48617015D01*
X43420024Y-48593303D01*
X43307734Y-48546791D01*
X43206676Y-48479266D01*
X43120734Y-48393324D01*
X43053209Y-48292266D01*
X43006697Y-48179976D01*
X42982985Y-48060771D01*
X42982985Y-47939229D01*
X43006697Y-47820024D01*
X43053209Y-47707734D01*
X43120734Y-47606676D01*
X43206676Y-47520734D01*
X43307734Y-47453209D01*
X43420024Y-47406697D01*
X43539229Y-47382985D01*
X43660771Y-47382985D01*
X43779976Y-47406697D01*
G37*
G36*
X45179976Y-47406697D02*
G01*
X45292266Y-47453209D01*
X45393324Y-47520734D01*
X45479266Y-47606676D01*
X45546791Y-47707734D01*
X45593303Y-47820024D01*
X45617015Y-47939229D01*
X45617015Y-48060771D01*
X45593303Y-48179976D01*
X45546791Y-48292266D01*
X45479266Y-48393324D01*
X45393324Y-48479266D01*
X45292266Y-48546791D01*
X45179976Y-48593303D01*
X45060771Y-48617015D01*
X44939229Y-48617015D01*
X44820024Y-48593303D01*
X44707734Y-48546791D01*
X44606676Y-48479266D01*
X44520734Y-48393324D01*
X44453209Y-48292266D01*
X44406697Y-48179976D01*
X44382985Y-48060771D01*
X44382985Y-47939229D01*
X44406697Y-47820024D01*
X44453209Y-47707734D01*
X44520734Y-47606676D01*
X44606676Y-47520734D01*
X44707734Y-47453209D01*
X44820024Y-47406697D01*
X44939229Y-47382985D01*
X45060771Y-47382985D01*
X45179976Y-47406697D01*
G37*
G36*
X46579976Y-47406697D02*
G01*
X46692266Y-47453209D01*
X46793324Y-47520734D01*
X46879266Y-47606676D01*
X46946791Y-47707734D01*
X46993303Y-47820024D01*
X47017015Y-47939229D01*
X47017015Y-48060771D01*
X46993303Y-48179976D01*
X46946791Y-48292266D01*
X46879266Y-48393324D01*
X46793324Y-48479266D01*
X46692266Y-48546791D01*
X46579976Y-48593303D01*
X46460771Y-48617015D01*
X46339229Y-48617015D01*
X46220024Y-48593303D01*
X46107734Y-48546791D01*
X46006676Y-48479266D01*
X45920734Y-48393324D01*
X45853209Y-48292266D01*
X45806697Y-48179976D01*
X45782985Y-48060771D01*
X45782985Y-47939229D01*
X45806697Y-47820024D01*
X45853209Y-47707734D01*
X45920734Y-47606676D01*
X46006676Y-47520734D01*
X46107734Y-47453209D01*
X46220024Y-47406697D01*
X46339229Y-47382985D01*
X46460771Y-47382985D01*
X46579976Y-47406697D01*
G37*
G36*
X47979976Y-47406697D02*
G01*
X48092266Y-47453209D01*
X48193324Y-47520734D01*
X48279266Y-47606676D01*
X48346791Y-47707734D01*
X48393303Y-47820024D01*
X48417015Y-47939229D01*
X48417015Y-48060771D01*
X48393303Y-48179976D01*
X48346791Y-48292266D01*
X48279266Y-48393324D01*
X48193324Y-48479266D01*
X48092266Y-48546791D01*
X47979976Y-48593303D01*
X47860771Y-48617015D01*
X47739229Y-48617015D01*
X47620024Y-48593303D01*
X47507734Y-48546791D01*
X47406676Y-48479266D01*
X47320734Y-48393324D01*
X47253209Y-48292266D01*
X47206697Y-48179976D01*
X47182985Y-48060771D01*
X47182985Y-47939229D01*
X47206697Y-47820024D01*
X47253209Y-47707734D01*
X47320734Y-47606676D01*
X47406676Y-47520734D01*
X47507734Y-47453209D01*
X47620024Y-47406697D01*
X47739229Y-47382985D01*
X47860771Y-47382985D01*
X47979976Y-47406697D01*
G37*
G36*
X49379976Y-47406697D02*
G01*
X49492266Y-47453209D01*
X49593324Y-47520734D01*
X49679266Y-47606676D01*
X49746791Y-47707734D01*
X49793303Y-47820024D01*
X49817015Y-47939229D01*
X49817015Y-48060771D01*
X49793303Y-48179976D01*
X49746791Y-48292266D01*
X49679266Y-48393324D01*
X49593324Y-48479266D01*
X49492266Y-48546791D01*
X49379976Y-48593303D01*
X49260771Y-48617015D01*
X49139229Y-48617015D01*
X49020024Y-48593303D01*
X48907734Y-48546791D01*
X48806676Y-48479266D01*
X48720734Y-48393324D01*
X48653209Y-48292266D01*
X48606697Y-48179976D01*
X48582985Y-48060771D01*
X48582985Y-47939229D01*
X48606697Y-47820024D01*
X48653209Y-47707734D01*
X48720734Y-47606676D01*
X48806676Y-47520734D01*
X48907734Y-47453209D01*
X49020024Y-47406697D01*
X49139229Y-47382985D01*
X49260771Y-47382985D01*
X49379976Y-47406697D01*
G37*
G36*
X50779976Y-47406697D02*
G01*
X50892266Y-47453209D01*
X50993324Y-47520734D01*
X51079266Y-47606676D01*
X51146791Y-47707734D01*
X51193303Y-47820024D01*
X51217015Y-47939229D01*
X51217015Y-48060771D01*
X51193303Y-48179976D01*
X51146791Y-48292266D01*
X51079266Y-48393324D01*
X50993324Y-48479266D01*
X50892266Y-48546791D01*
X50779976Y-48593303D01*
X50660771Y-48617015D01*
X50539229Y-48617015D01*
X50420024Y-48593303D01*
X50307734Y-48546791D01*
X50206676Y-48479266D01*
X50120734Y-48393324D01*
X50053209Y-48292266D01*
X50006697Y-48179976D01*
X49982985Y-48060771D01*
X49982985Y-47939229D01*
X50006697Y-47820024D01*
X50053209Y-47707734D01*
X50120734Y-47606676D01*
X50206676Y-47520734D01*
X50307734Y-47453209D01*
X50420024Y-47406697D01*
X50539229Y-47382985D01*
X50660771Y-47382985D01*
X50779976Y-47406697D01*
G37*
G36*
X55668130Y-47473389D02*
G01*
X55796994Y-47547789D01*
X55902211Y-47653006D01*
X55976611Y-47781870D01*
X56015124Y-47925600D01*
X56015124Y-48074400D01*
X55976611Y-48218130D01*
X55902211Y-48346994D01*
X55796994Y-48452211D01*
X55668130Y-48526611D01*
X55524400Y-48565124D01*
X55375600Y-48565124D01*
X55231870Y-48526611D01*
X55103006Y-48452211D01*
X54997789Y-48346994D01*
X54923389Y-48218130D01*
X54884876Y-48074400D01*
X54884876Y-47925600D01*
X54923389Y-47781870D01*
X54997789Y-47653006D01*
X55103006Y-47547789D01*
X55231870Y-47473389D01*
X55375600Y-47434876D01*
X55524400Y-47434876D01*
X55668130Y-47473389D01*
G37*
G36*
X56968130Y-47473389D02*
G01*
X57096994Y-47547789D01*
X57202211Y-47653006D01*
X57276611Y-47781870D01*
X57315124Y-47925600D01*
X57315124Y-48074400D01*
X57276611Y-48218130D01*
X57202211Y-48346994D01*
X57096994Y-48452211D01*
X56968130Y-48526611D01*
X56824400Y-48565124D01*
X56675600Y-48565124D01*
X56531870Y-48526611D01*
X56403006Y-48452211D01*
X56297789Y-48346994D01*
X56223389Y-48218130D01*
X56184876Y-48074400D01*
X56184876Y-47925600D01*
X56223389Y-47781870D01*
X56297789Y-47653006D01*
X56403006Y-47547789D01*
X56531870Y-47473389D01*
X56675600Y-47434876D01*
X56824400Y-47434876D01*
X56968130Y-47473389D01*
G37*
G36*
X58268130Y-47473389D02*
G01*
X58396994Y-47547789D01*
X58502211Y-47653006D01*
X58576611Y-47781870D01*
X58615124Y-47925600D01*
X58615124Y-48074400D01*
X58576611Y-48218130D01*
X58502211Y-48346994D01*
X58396994Y-48452211D01*
X58268130Y-48526611D01*
X58124400Y-48565124D01*
X57975600Y-48565124D01*
X57831870Y-48526611D01*
X57703006Y-48452211D01*
X57597789Y-48346994D01*
X57523389Y-48218130D01*
X57484876Y-48074400D01*
X57484876Y-47925600D01*
X57523389Y-47781870D01*
X57597789Y-47653006D01*
X57703006Y-47547789D01*
X57831870Y-47473389D01*
X57975600Y-47434876D01*
X58124400Y-47434876D01*
X58268130Y-47473389D01*
G37*
G36*
X59568130Y-47473389D02*
G01*
X59696994Y-47547789D01*
X59802211Y-47653006D01*
X59876611Y-47781870D01*
X59915124Y-47925600D01*
X59915124Y-48074400D01*
X59876611Y-48218130D01*
X59802211Y-48346994D01*
X59696994Y-48452211D01*
X59568130Y-48526611D01*
X59424400Y-48565124D01*
X59275600Y-48565124D01*
X59131870Y-48526611D01*
X59003006Y-48452211D01*
X58897789Y-48346994D01*
X58823389Y-48218130D01*
X58784876Y-48074400D01*
X58784876Y-47925600D01*
X58823389Y-47781870D01*
X58897789Y-47653006D01*
X59003006Y-47547789D01*
X59131870Y-47473389D01*
X59275600Y-47434876D01*
X59424400Y-47434876D01*
X59568130Y-47473389D01*
G37*
G36*
X60868130Y-47473389D02*
G01*
X60996994Y-47547789D01*
X61102211Y-47653006D01*
X61176611Y-47781870D01*
X61215124Y-47925600D01*
X61215124Y-48074400D01*
X61176611Y-48218130D01*
X61102211Y-48346994D01*
X60996994Y-48452211D01*
X60868130Y-48526611D01*
X60724400Y-48565124D01*
X60575600Y-48565124D01*
X60431870Y-48526611D01*
X60303006Y-48452211D01*
X60197789Y-48346994D01*
X60123389Y-48218130D01*
X60084876Y-48074400D01*
X60084876Y-47925600D01*
X60123389Y-47781870D01*
X60197789Y-47653006D01*
X60303006Y-47547789D01*
X60431870Y-47473389D01*
X60575600Y-47434876D01*
X60724400Y-47434876D01*
X60868130Y-47473389D01*
G37*
G36*
X62168130Y-47473389D02*
G01*
X62296994Y-47547789D01*
X62402211Y-47653006D01*
X62476611Y-47781870D01*
X62515124Y-47925600D01*
X62515124Y-48074400D01*
X62476611Y-48218130D01*
X62402211Y-48346994D01*
X62296994Y-48452211D01*
X62168130Y-48526611D01*
X62024400Y-48565124D01*
X61875600Y-48565124D01*
X61731870Y-48526611D01*
X61603006Y-48452211D01*
X61497789Y-48346994D01*
X61423389Y-48218130D01*
X61384876Y-48074400D01*
X61384876Y-47925600D01*
X61423389Y-47781870D01*
X61497789Y-47653006D01*
X61603006Y-47547789D01*
X61731870Y-47473389D01*
X61875600Y-47434876D01*
X62024400Y-47434876D01*
X62168130Y-47473389D01*
G37*
G36*
X63468130Y-47473389D02*
G01*
X63596994Y-47547789D01*
X63702211Y-47653006D01*
X63776611Y-47781870D01*
X63815124Y-47925600D01*
X63815124Y-48074400D01*
X63776611Y-48218130D01*
X63702211Y-48346994D01*
X63596994Y-48452211D01*
X63468130Y-48526611D01*
X63324400Y-48565124D01*
X63175600Y-48565124D01*
X63031870Y-48526611D01*
X62903006Y-48452211D01*
X62797789Y-48346994D01*
X62723389Y-48218130D01*
X62684876Y-48074400D01*
X62684876Y-47925600D01*
X62723389Y-47781870D01*
X62797789Y-47653006D01*
X62903006Y-47547789D01*
X63031870Y-47473389D01*
X63175600Y-47434876D01*
X63324400Y-47434876D01*
X63468130Y-47473389D01*
G37*
G36*
X64768130Y-47473389D02*
G01*
X64896994Y-47547789D01*
X65002211Y-47653006D01*
X65076611Y-47781870D01*
X65115124Y-47925600D01*
X65115124Y-48074400D01*
X65076611Y-48218130D01*
X65002211Y-48346994D01*
X64896994Y-48452211D01*
X64768130Y-48526611D01*
X64624400Y-48565124D01*
X64475600Y-48565124D01*
X64331870Y-48526611D01*
X64203006Y-48452211D01*
X64097789Y-48346994D01*
X64023389Y-48218130D01*
X63984876Y-48074400D01*
X63984876Y-47925600D01*
X64023389Y-47781870D01*
X64097789Y-47653006D01*
X64203006Y-47547789D01*
X64331870Y-47473389D01*
X64475600Y-47434876D01*
X64624400Y-47434876D01*
X64768130Y-47473389D01*
G37*
G36*
X3414293Y-45341756D02*
G01*
X3418860Y-45343886D01*
X3423171Y-45344514D01*
X3484428Y-45374460D01*
X3522884Y-45392393D01*
X3524581Y-45394090D01*
X3525311Y-45394447D01*
X3605552Y-45474688D01*
X3605908Y-45475417D01*
X3607607Y-45477116D01*
X3625549Y-45515594D01*
X3655485Y-45576828D01*
X3656112Y-45581136D01*
X3658244Y-45585707D01*
X3670000Y-45675000D01*
X3670000Y-46325000D01*
X3658244Y-46414293D01*
X3656112Y-46418863D01*
X3655485Y-46423171D01*
X3625559Y-46484383D01*
X3607607Y-46522884D01*
X3605907Y-46524583D01*
X3605552Y-46525311D01*
X3525311Y-46605552D01*
X3524583Y-46605907D01*
X3522884Y-46607607D01*
X3484383Y-46625559D01*
X3423171Y-46655485D01*
X3418864Y-46656112D01*
X3414293Y-46658244D01*
X3325000Y-46670000D01*
X2675000Y-46670000D01*
X2585707Y-46658244D01*
X2581136Y-46656112D01*
X2576828Y-46655485D01*
X2515594Y-46625549D01*
X2477116Y-46607607D01*
X2475417Y-46605908D01*
X2474688Y-46605552D01*
X2394447Y-46525311D01*
X2394090Y-46524581D01*
X2392393Y-46522884D01*
X2374460Y-46484428D01*
X2344514Y-46423171D01*
X2343886Y-46418860D01*
X2341756Y-46414293D01*
X2330000Y-46325000D01*
X2330000Y-45675000D01*
X2341756Y-45585707D01*
X2343885Y-45581139D01*
X2344514Y-45576828D01*
X2374470Y-45515550D01*
X2392393Y-45477116D01*
X2394089Y-45475419D01*
X2394447Y-45474688D01*
X2474688Y-45394447D01*
X2475419Y-45394089D01*
X2477116Y-45392393D01*
X2515550Y-45374470D01*
X2576828Y-45344514D01*
X2581139Y-45343885D01*
X2585707Y-45341756D01*
X2675000Y-45330000D01*
X3325000Y-45330000D01*
X3414293Y-45341756D01*
G37*
G36*
X5194491Y-45358850D02*
G01*
X5315836Y-45409113D01*
X5425044Y-45482083D01*
X5517917Y-45574956D01*
X5590887Y-45684164D01*
X5641150Y-45805509D01*
X5666774Y-45934329D01*
X5666774Y-46065671D01*
X5641150Y-46194491D01*
X5590887Y-46315836D01*
X5517917Y-46425044D01*
X5425044Y-46517917D01*
X5315836Y-46590887D01*
X5194491Y-46641150D01*
X5065671Y-46666774D01*
X4934329Y-46666774D01*
X4805509Y-46641150D01*
X4684164Y-46590887D01*
X4574956Y-46517917D01*
X4482083Y-46425044D01*
X4409113Y-46315836D01*
X4358850Y-46194491D01*
X4333226Y-46065671D01*
X4333226Y-45934329D01*
X4358850Y-45805509D01*
X4409113Y-45684164D01*
X4482083Y-45574956D01*
X4574956Y-45482083D01*
X4684164Y-45409113D01*
X4805509Y-45358850D01*
X4934329Y-45333226D01*
X5065671Y-45333226D01*
X5194491Y-45358850D01*
G37*
G36*
X7194491Y-45358850D02*
G01*
X7315836Y-45409113D01*
X7425044Y-45482083D01*
X7517917Y-45574956D01*
X7590887Y-45684164D01*
X7641150Y-45805509D01*
X7666774Y-45934329D01*
X7666774Y-46065671D01*
X7641150Y-46194491D01*
X7590887Y-46315836D01*
X7517917Y-46425044D01*
X7425044Y-46517917D01*
X7315836Y-46590887D01*
X7194491Y-46641150D01*
X7065671Y-46666774D01*
X6934329Y-46666774D01*
X6805509Y-46641150D01*
X6684164Y-46590887D01*
X6574956Y-46517917D01*
X6482083Y-46425044D01*
X6409113Y-46315836D01*
X6358850Y-46194491D01*
X6333226Y-46065671D01*
X6333226Y-45934329D01*
X6358850Y-45805509D01*
X6409113Y-45684164D01*
X6482083Y-45574956D01*
X6574956Y-45482083D01*
X6684164Y-45409113D01*
X6805509Y-45358850D01*
X6934329Y-45333226D01*
X7065671Y-45333226D01*
X7194491Y-45358850D01*
G37*
G36*
X9194491Y-45358850D02*
G01*
X9315836Y-45409113D01*
X9425044Y-45482083D01*
X9517917Y-45574956D01*
X9590887Y-45684164D01*
X9641150Y-45805509D01*
X9666774Y-45934329D01*
X9666774Y-46065671D01*
X9641150Y-46194491D01*
X9590887Y-46315836D01*
X9517917Y-46425044D01*
X9425044Y-46517917D01*
X9315836Y-46590887D01*
X9194491Y-46641150D01*
X9065671Y-46666774D01*
X8934329Y-46666774D01*
X8805509Y-46641150D01*
X8684164Y-46590887D01*
X8574956Y-46517917D01*
X8482083Y-46425044D01*
X8409113Y-46315836D01*
X8358850Y-46194491D01*
X8333226Y-46065671D01*
X8333226Y-45934329D01*
X8358850Y-45805509D01*
X8409113Y-45684164D01*
X8482083Y-45574956D01*
X8574956Y-45482083D01*
X8684164Y-45409113D01*
X8805509Y-45358850D01*
X8934329Y-45333226D01*
X9065671Y-45333226D01*
X9194491Y-45358850D01*
G37*
G36*
X80223519Y-40263156D02*
G01*
X80362975Y-40320921D01*
X80488483Y-40404782D01*
X80595218Y-40511517D01*
X80679079Y-40637025D01*
X80736844Y-40776481D01*
X80766292Y-40924527D01*
X80766292Y-41075473D01*
X80736844Y-41223519D01*
X80679079Y-41362975D01*
X80595218Y-41488483D01*
X80488483Y-41595218D01*
X80362975Y-41679079D01*
X80223519Y-41736844D01*
X80075473Y-41766292D01*
X79924527Y-41766292D01*
X79776481Y-41736844D01*
X79637025Y-41679079D01*
X79511517Y-41595218D01*
X79404782Y-41488483D01*
X79320921Y-41362975D01*
X79263156Y-41223519D01*
X79233708Y-41075473D01*
X79233708Y-40924527D01*
X79263156Y-40776481D01*
X79320921Y-40637025D01*
X79404782Y-40511517D01*
X79511517Y-40404782D01*
X79637025Y-40320921D01*
X79776481Y-40263156D01*
X79924527Y-40233708D01*
X80075473Y-40233708D01*
X80223519Y-40263156D01*
G37*
G36*
X10294491Y-39358850D02*
G01*
X10415836Y-39409113D01*
X10525044Y-39482083D01*
X10617917Y-39574956D01*
X10690887Y-39684164D01*
X10741150Y-39805509D01*
X10766774Y-39934329D01*
X10766774Y-40065671D01*
X10741150Y-40194491D01*
X10690887Y-40315836D01*
X10617917Y-40425044D01*
X10525044Y-40517917D01*
X10415836Y-40590887D01*
X10294491Y-40641150D01*
X10165671Y-40666774D01*
X10034329Y-40666774D01*
X9905509Y-40641150D01*
X9784164Y-40590887D01*
X9674956Y-40517917D01*
X9582083Y-40425044D01*
X9509113Y-40315836D01*
X9458850Y-40194491D01*
X9433226Y-40065671D01*
X9433226Y-39934329D01*
X9458850Y-39805509D01*
X9509113Y-39684164D01*
X9582083Y-39574956D01*
X9674956Y-39482083D01*
X9784164Y-39409113D01*
X9905509Y-39358850D01*
X10034329Y-39333226D01*
X10165671Y-39333226D01*
X10294491Y-39358850D01*
G37*
G36*
X12094491Y-39358850D02*
G01*
X12215836Y-39409113D01*
X12325044Y-39482083D01*
X12417917Y-39574956D01*
X12490887Y-39684164D01*
X12541150Y-39805509D01*
X12566774Y-39934329D01*
X12566774Y-40065671D01*
X12541150Y-40194491D01*
X12490887Y-40315836D01*
X12417917Y-40425044D01*
X12325044Y-40517917D01*
X12215836Y-40590887D01*
X12094491Y-40641150D01*
X11965671Y-40666774D01*
X11834329Y-40666774D01*
X11705509Y-40641150D01*
X11584164Y-40590887D01*
X11474956Y-40517917D01*
X11382083Y-40425044D01*
X11309113Y-40315836D01*
X11258850Y-40194491D01*
X11233226Y-40065671D01*
X11233226Y-39934329D01*
X11258850Y-39805509D01*
X11309113Y-39684164D01*
X11382083Y-39574956D01*
X11474956Y-39482083D01*
X11584164Y-39409113D01*
X11705509Y-39358850D01*
X11834329Y-39333226D01*
X11965671Y-39333226D01*
X12094491Y-39358850D01*
G37*
G36*
X77712548Y-37627462D02*
G01*
X77870115Y-37692729D01*
X78011922Y-37787481D01*
X78132519Y-37908078D01*
X78227271Y-38049885D01*
X78292538Y-38207452D01*
X78325811Y-38374725D01*
X78325811Y-38545275D01*
X78292538Y-38712548D01*
X78227271Y-38870115D01*
X78132519Y-39011922D01*
X78011922Y-39132519D01*
X77870115Y-39227271D01*
X77712548Y-39292538D01*
X77545275Y-39325811D01*
X77374725Y-39325811D01*
X77207452Y-39292538D01*
X77049885Y-39227271D01*
X76908078Y-39132519D01*
X76787481Y-39011922D01*
X76692729Y-38870115D01*
X76627462Y-38712548D01*
X76594189Y-38545275D01*
X76594189Y-38374725D01*
X76627462Y-38207452D01*
X76692729Y-38049885D01*
X76787481Y-37908078D01*
X76908078Y-37787481D01*
X77049885Y-37692729D01*
X77207452Y-37627462D01*
X77374725Y-37594189D01*
X77545275Y-37594189D01*
X77712548Y-37627462D01*
G37*
G36*
X82792548Y-37627462D02*
G01*
X82950115Y-37692729D01*
X83091922Y-37787481D01*
X83212519Y-37908078D01*
X83307271Y-38049885D01*
X83372538Y-38207452D01*
X83405811Y-38374725D01*
X83405811Y-38545275D01*
X83372538Y-38712548D01*
X83307271Y-38870115D01*
X83212519Y-39011922D01*
X83091922Y-39132519D01*
X82950115Y-39227271D01*
X82792548Y-39292538D01*
X82625275Y-39325811D01*
X82454725Y-39325811D01*
X82287452Y-39292538D01*
X82129885Y-39227271D01*
X81988078Y-39132519D01*
X81867481Y-39011922D01*
X81772729Y-38870115D01*
X81707462Y-38712548D01*
X81674189Y-38545275D01*
X81674189Y-38374725D01*
X81707462Y-38207452D01*
X81772729Y-38049885D01*
X81867481Y-37908078D01*
X81988078Y-37787481D01*
X82129885Y-37692729D01*
X82287452Y-37627462D01*
X82454725Y-37594189D01*
X82625275Y-37594189D01*
X82792548Y-37627462D01*
G37*
G36*
X5209005Y-30311003D02*
G01*
X5339406Y-30365017D01*
X5456763Y-30443432D01*
X5556568Y-30543237D01*
X5634983Y-30660594D01*
X5688997Y-30790995D01*
X5716533Y-30929428D01*
X5716533Y-31070572D01*
X5688997Y-31209005D01*
X5634983Y-31339406D01*
X5556568Y-31456763D01*
X5456763Y-31556568D01*
X5339406Y-31634983D01*
X5209005Y-31688997D01*
X5070572Y-31716533D01*
X4929428Y-31716533D01*
X4790995Y-31688997D01*
X4660594Y-31634983D01*
X4543237Y-31556568D01*
X4443432Y-31456763D01*
X4365017Y-31339406D01*
X4311003Y-31209005D01*
X4283467Y-31070572D01*
X4283467Y-30929428D01*
X4311003Y-30790995D01*
X4365017Y-30660594D01*
X4443432Y-30543237D01*
X4543237Y-30443432D01*
X4660594Y-30365017D01*
X4790995Y-30311003D01*
X4929428Y-30283467D01*
X5070572Y-30283467D01*
X5209005Y-30311003D01*
G37*
G36*
X5209005Y-23311003D02*
G01*
X5339406Y-23365017D01*
X5456763Y-23443432D01*
X5556568Y-23543237D01*
X5634983Y-23660594D01*
X5688997Y-23790995D01*
X5716533Y-23929428D01*
X5716533Y-24070572D01*
X5688997Y-24209005D01*
X5634983Y-24339406D01*
X5556568Y-24456763D01*
X5456763Y-24556568D01*
X5339406Y-24634983D01*
X5209005Y-24688997D01*
X5070572Y-24716533D01*
X4929428Y-24716533D01*
X4790995Y-24688997D01*
X4660594Y-24634983D01*
X4543237Y-24556568D01*
X4443432Y-24456763D01*
X4365017Y-24339406D01*
X4311003Y-24209005D01*
X4283467Y-24070572D01*
X4283467Y-23929428D01*
X4311003Y-23790995D01*
X4365017Y-23660594D01*
X4443432Y-23543237D01*
X4543237Y-23443432D01*
X4660594Y-23365017D01*
X4790995Y-23311003D01*
X4929428Y-23283467D01*
X5070572Y-23283467D01*
X5209005Y-23311003D01*
G37*
G36*
X80223519Y-13263156D02*
G01*
X80362975Y-13320921D01*
X80488483Y-13404782D01*
X80595218Y-13511517D01*
X80679079Y-13637025D01*
X80736844Y-13776481D01*
X80766292Y-13924527D01*
X80766292Y-14075473D01*
X80736844Y-14223519D01*
X80679079Y-14362975D01*
X80595218Y-14488483D01*
X80488483Y-14595218D01*
X80362975Y-14679079D01*
X80223519Y-14736844D01*
X80075473Y-14766292D01*
X79924527Y-14766292D01*
X79776481Y-14736844D01*
X79637025Y-14679079D01*
X79511517Y-14595218D01*
X79404782Y-14488483D01*
X79320921Y-14362975D01*
X79263156Y-14223519D01*
X79233708Y-14075473D01*
X79233708Y-13924527D01*
X79263156Y-13776481D01*
X79320921Y-13637025D01*
X79404782Y-13511517D01*
X79511517Y-13404782D01*
X79637025Y-13320921D01*
X79776481Y-13263156D01*
X79924527Y-13233708D01*
X80075473Y-13233708D01*
X80223519Y-13263156D01*
G37*
G36*
X77712548Y-10627462D02*
G01*
X77870115Y-10692729D01*
X78011922Y-10787481D01*
X78132519Y-10908078D01*
X78227271Y-11049885D01*
X78292538Y-11207452D01*
X78325811Y-11374725D01*
X78325811Y-11545275D01*
X78292538Y-11712548D01*
X78227271Y-11870115D01*
X78132519Y-12011922D01*
X78011922Y-12132519D01*
X77870115Y-12227271D01*
X77712548Y-12292538D01*
X77545275Y-12325811D01*
X77374725Y-12325811D01*
X77207452Y-12292538D01*
X77049885Y-12227271D01*
X76908078Y-12132519D01*
X76787481Y-12011922D01*
X76692729Y-11870115D01*
X76627462Y-11712548D01*
X76594189Y-11545275D01*
X76594189Y-11374725D01*
X76627462Y-11207452D01*
X76692729Y-11049885D01*
X76787481Y-10908078D01*
X76908078Y-10787481D01*
X77049885Y-10692729D01*
X77207452Y-10627462D01*
X77374725Y-10594189D01*
X77545275Y-10594189D01*
X77712548Y-10627462D01*
G37*
G36*
X82792548Y-10627462D02*
G01*
X82950115Y-10692729D01*
X83091922Y-10787481D01*
X83212519Y-10908078D01*
X83307271Y-11049885D01*
X83372538Y-11207452D01*
X83405811Y-11374725D01*
X83405811Y-11545275D01*
X83372538Y-11712548D01*
X83307271Y-11870115D01*
X83212519Y-12011922D01*
X83091922Y-12132519D01*
X82950115Y-12227271D01*
X82792548Y-12292538D01*
X82625275Y-12325811D01*
X82454725Y-12325811D01*
X82287452Y-12292538D01*
X82129885Y-12227271D01*
X81988078Y-12132519D01*
X81867481Y-12011922D01*
X81772729Y-11870115D01*
X81707462Y-11712548D01*
X81674189Y-11545275D01*
X81674189Y-11374725D01*
X81707462Y-11207452D01*
X81772729Y-11049885D01*
X81867481Y-10908078D01*
X81988078Y-10787481D01*
X82129885Y-10692729D01*
X82287452Y-10627462D01*
X82454725Y-10594189D01*
X82625275Y-10594189D01*
X82792548Y-10627462D01*
G37*
G36*
X10414293Y-6341756D02*
G01*
X10418860Y-6343886D01*
X10423171Y-6344514D01*
X10484428Y-6374460D01*
X10522884Y-6392393D01*
X10524581Y-6394090D01*
X10525311Y-6394447D01*
X10605552Y-6474688D01*
X10605908Y-6475417D01*
X10607607Y-6477116D01*
X10625549Y-6515594D01*
X10655485Y-6576828D01*
X10656112Y-6581136D01*
X10658244Y-6585707D01*
X10670000Y-6675000D01*
X10670000Y-7325000D01*
X10658244Y-7414293D01*
X10656112Y-7418863D01*
X10655485Y-7423171D01*
X10625559Y-7484383D01*
X10607607Y-7522884D01*
X10605907Y-7524583D01*
X10605552Y-7525311D01*
X10525311Y-7605552D01*
X10524583Y-7605907D01*
X10522884Y-7607607D01*
X10484383Y-7625559D01*
X10423171Y-7655485D01*
X10418864Y-7656112D01*
X10414293Y-7658244D01*
X10325000Y-7670000D01*
X9675000Y-7670000D01*
X9585707Y-7658244D01*
X9581136Y-7656112D01*
X9576828Y-7655485D01*
X9515594Y-7625549D01*
X9477116Y-7607607D01*
X9475417Y-7605908D01*
X9474688Y-7605552D01*
X9394447Y-7525311D01*
X9394090Y-7524581D01*
X9392393Y-7522884D01*
X9374460Y-7484428D01*
X9344514Y-7423171D01*
X9343886Y-7418860D01*
X9341756Y-7414293D01*
X9330000Y-7325000D01*
X9330000Y-6675000D01*
X9341756Y-6585707D01*
X9343885Y-6581139D01*
X9344514Y-6576828D01*
X9374470Y-6515550D01*
X9392393Y-6477116D01*
X9394089Y-6475419D01*
X9394447Y-6474688D01*
X9474688Y-6394447D01*
X9475419Y-6394089D01*
X9477116Y-6392393D01*
X9515550Y-6374470D01*
X9576828Y-6344514D01*
X9581139Y-6343885D01*
X9585707Y-6341756D01*
X9675000Y-6330000D01*
X10325000Y-6330000D01*
X10414293Y-6341756D01*
G37*
G36*
X12194491Y-6358850D02*
G01*
X12315836Y-6409113D01*
X12425044Y-6482083D01*
X12517917Y-6574956D01*
X12590887Y-6684164D01*
X12641150Y-6805509D01*
X12666774Y-6934329D01*
X12666774Y-7065671D01*
X12641150Y-7194491D01*
X12590887Y-7315836D01*
X12517917Y-7425044D01*
X12425044Y-7517917D01*
X12315836Y-7590887D01*
X12194491Y-7641150D01*
X12065671Y-7666774D01*
X11934329Y-7666774D01*
X11805509Y-7641150D01*
X11684164Y-7590887D01*
X11574956Y-7517917D01*
X11482083Y-7425044D01*
X11409113Y-7315836D01*
X11358850Y-7194491D01*
X11333226Y-7065671D01*
X11333226Y-6934329D01*
X11358850Y-6805509D01*
X11409113Y-6684164D01*
X11482083Y-6574956D01*
X11574956Y-6482083D01*
X11684164Y-6409113D01*
X11805509Y-6358850D01*
X11934329Y-6333226D01*
X12065671Y-6333226D01*
X12194491Y-6358850D01*
G37*
G36*
X14194491Y-6358850D02*
G01*
X14315836Y-6409113D01*
X14425044Y-6482083D01*
X14517917Y-6574956D01*
X14590887Y-6684164D01*
X14641150Y-6805509D01*
X14666774Y-6934329D01*
X14666774Y-7065671D01*
X14641150Y-7194491D01*
X14590887Y-7315836D01*
X14517917Y-7425044D01*
X14425044Y-7517917D01*
X14315836Y-7590887D01*
X14194491Y-7641150D01*
X14065671Y-7666774D01*
X13934329Y-7666774D01*
X13805509Y-7641150D01*
X13684164Y-7590887D01*
X13574956Y-7517917D01*
X13482083Y-7425044D01*
X13409113Y-7315836D01*
X13358850Y-7194491D01*
X13333226Y-7065671D01*
X13333226Y-6934329D01*
X13358850Y-6805509D01*
X13409113Y-6684164D01*
X13482083Y-6574956D01*
X13574956Y-6482083D01*
X13684164Y-6409113D01*
X13805509Y-6358850D01*
X13934329Y-6333226D01*
X14065671Y-6333226D01*
X14194491Y-6358850D01*
G37*
G36*
X34394491Y-6358850D02*
G01*
X34515836Y-6409113D01*
X34625044Y-6482083D01*
X34717917Y-6574956D01*
X34790887Y-6684164D01*
X34841150Y-6805509D01*
X34866774Y-6934329D01*
X34866774Y-7065671D01*
X34841150Y-7194491D01*
X34790887Y-7315836D01*
X34717917Y-7425044D01*
X34625044Y-7517917D01*
X34515836Y-7590887D01*
X34394491Y-7641150D01*
X34265671Y-7666774D01*
X34134329Y-7666774D01*
X34005509Y-7641150D01*
X33884164Y-7590887D01*
X33774956Y-7517917D01*
X33682083Y-7425044D01*
X33609113Y-7315836D01*
X33558850Y-7194491D01*
X33533226Y-7065671D01*
X33533226Y-6934329D01*
X33558850Y-6805509D01*
X33609113Y-6684164D01*
X33682083Y-6574956D01*
X33774956Y-6482083D01*
X33884164Y-6409113D01*
X34005509Y-6358850D01*
X34134329Y-6333226D01*
X34265671Y-6333226D01*
X34394491Y-6358850D01*
G37*
G36*
X36194491Y-6358850D02*
G01*
X36315836Y-6409113D01*
X36425044Y-6482083D01*
X36517917Y-6574956D01*
X36590887Y-6684164D01*
X36641150Y-6805509D01*
X36666774Y-6934329D01*
X36666774Y-7065671D01*
X36641150Y-7194491D01*
X36590887Y-7315836D01*
X36517917Y-7425044D01*
X36425044Y-7517917D01*
X36315836Y-7590887D01*
X36194491Y-7641150D01*
X36065671Y-7666774D01*
X35934329Y-7666774D01*
X35805509Y-7641150D01*
X35684164Y-7590887D01*
X35574956Y-7517917D01*
X35482083Y-7425044D01*
X35409113Y-7315836D01*
X35358850Y-7194491D01*
X35333226Y-7065671D01*
X35333226Y-6934329D01*
X35358850Y-6805509D01*
X35409113Y-6684164D01*
X35482083Y-6574956D01*
X35574956Y-6482083D01*
X35684164Y-6409113D01*
X35805509Y-6358850D01*
X35934329Y-6333226D01*
X36065671Y-6333226D01*
X36194491Y-6358850D01*
G37*
G36*
X37994491Y-6358850D02*
G01*
X38115836Y-6409113D01*
X38225044Y-6482083D01*
X38317917Y-6574956D01*
X38390887Y-6684164D01*
X38441150Y-6805509D01*
X38466774Y-6934329D01*
X38466774Y-7065671D01*
X38441150Y-7194491D01*
X38390887Y-7315836D01*
X38317917Y-7425044D01*
X38225044Y-7517917D01*
X38115836Y-7590887D01*
X37994491Y-7641150D01*
X37865671Y-7666774D01*
X37734329Y-7666774D01*
X37605509Y-7641150D01*
X37484164Y-7590887D01*
X37374956Y-7517917D01*
X37282083Y-7425044D01*
X37209113Y-7315836D01*
X37158850Y-7194491D01*
X37133226Y-7065671D01*
X37133226Y-6934329D01*
X37158850Y-6805509D01*
X37209113Y-6684164D01*
X37282083Y-6574956D01*
X37374956Y-6482083D01*
X37484164Y-6409113D01*
X37605509Y-6358850D01*
X37734329Y-6333226D01*
X37865671Y-6333226D01*
X37994491Y-6358850D01*
G37*
G36*
X41494491Y-6358850D02*
G01*
X41615836Y-6409113D01*
X41725044Y-6482083D01*
X41817917Y-6574956D01*
X41890887Y-6684164D01*
X41941150Y-6805509D01*
X41966774Y-6934329D01*
X41966774Y-7065671D01*
X41941150Y-7194491D01*
X41890887Y-7315836D01*
X41817917Y-7425044D01*
X41725044Y-7517917D01*
X41615836Y-7590887D01*
X41494491Y-7641150D01*
X41365671Y-7666774D01*
X41234329Y-7666774D01*
X41105509Y-7641150D01*
X40984164Y-7590887D01*
X40874956Y-7517917D01*
X40782083Y-7425044D01*
X40709113Y-7315836D01*
X40658850Y-7194491D01*
X40633226Y-7065671D01*
X40633226Y-6934329D01*
X40658850Y-6805509D01*
X40709113Y-6684164D01*
X40782083Y-6574956D01*
X40874956Y-6482083D01*
X40984164Y-6409113D01*
X41105509Y-6358850D01*
X41234329Y-6333226D01*
X41365671Y-6333226D01*
X41494491Y-6358850D01*
G37*
G36*
X43294491Y-6358850D02*
G01*
X43415836Y-6409113D01*
X43525044Y-6482083D01*
X43617917Y-6574956D01*
X43690887Y-6684164D01*
X43741150Y-6805509D01*
X43766774Y-6934329D01*
X43766774Y-7065671D01*
X43741150Y-7194491D01*
X43690887Y-7315836D01*
X43617917Y-7425044D01*
X43525044Y-7517917D01*
X43415836Y-7590887D01*
X43294491Y-7641150D01*
X43165671Y-7666774D01*
X43034329Y-7666774D01*
X42905509Y-7641150D01*
X42784164Y-7590887D01*
X42674956Y-7517917D01*
X42582083Y-7425044D01*
X42509113Y-7315836D01*
X42458850Y-7194491D01*
X42433226Y-7065671D01*
X42433226Y-6934329D01*
X42458850Y-6805509D01*
X42509113Y-6684164D01*
X42582083Y-6574956D01*
X42674956Y-6482083D01*
X42784164Y-6409113D01*
X42905509Y-6358850D01*
X43034329Y-6333226D01*
X43165671Y-6333226D01*
X43294491Y-6358850D01*
G37*
G36*
X45094491Y-6358850D02*
G01*
X45215836Y-6409113D01*
X45325044Y-6482083D01*
X45417917Y-6574956D01*
X45490887Y-6684164D01*
X45541150Y-6805509D01*
X45566774Y-6934329D01*
X45566774Y-7065671D01*
X45541150Y-7194491D01*
X45490887Y-7315836D01*
X45417917Y-7425044D01*
X45325044Y-7517917D01*
X45215836Y-7590887D01*
X45094491Y-7641150D01*
X44965671Y-7666774D01*
X44834329Y-7666774D01*
X44705509Y-7641150D01*
X44584164Y-7590887D01*
X44474956Y-7517917D01*
X44382083Y-7425044D01*
X44309113Y-7315836D01*
X44258850Y-7194491D01*
X44233226Y-7065671D01*
X44233226Y-6934329D01*
X44258850Y-6805509D01*
X44309113Y-6684164D01*
X44382083Y-6574956D01*
X44474956Y-6482083D01*
X44584164Y-6409113D01*
X44705509Y-6358850D01*
X44834329Y-6333226D01*
X44965671Y-6333226D01*
X45094491Y-6358850D01*
G37*
G36*
X46894491Y-6358850D02*
G01*
X47015836Y-6409113D01*
X47125044Y-6482083D01*
X47217917Y-6574956D01*
X47290887Y-6684164D01*
X47341150Y-6805509D01*
X47366774Y-6934329D01*
X47366774Y-7065671D01*
X47341150Y-7194491D01*
X47290887Y-7315836D01*
X47217917Y-7425044D01*
X47125044Y-7517917D01*
X47015836Y-7590887D01*
X46894491Y-7641150D01*
X46765671Y-7666774D01*
X46634329Y-7666774D01*
X46505509Y-7641150D01*
X46384164Y-7590887D01*
X46274956Y-7517917D01*
X46182083Y-7425044D01*
X46109113Y-7315836D01*
X46058850Y-7194491D01*
X46033226Y-7065671D01*
X46033226Y-6934329D01*
X46058850Y-6805509D01*
X46109113Y-6684164D01*
X46182083Y-6574956D01*
X46274956Y-6482083D01*
X46384164Y-6409113D01*
X46505509Y-6358850D01*
X46634329Y-6333226D01*
X46765671Y-6333226D01*
X46894491Y-6358850D01*
G37*
G36*
X49594491Y-6358850D02*
G01*
X49715836Y-6409113D01*
X49825044Y-6482083D01*
X49917917Y-6574956D01*
X49990887Y-6684164D01*
X50041150Y-6805509D01*
X50066774Y-6934329D01*
X50066774Y-7065671D01*
X50041150Y-7194491D01*
X49990887Y-7315836D01*
X49917917Y-7425044D01*
X49825044Y-7517917D01*
X49715836Y-7590887D01*
X49594491Y-7641150D01*
X49465671Y-7666774D01*
X49334329Y-7666774D01*
X49205509Y-7641150D01*
X49084164Y-7590887D01*
X48974956Y-7517917D01*
X48882083Y-7425044D01*
X48809113Y-7315836D01*
X48758850Y-7194491D01*
X48733226Y-7065671D01*
X48733226Y-6934329D01*
X48758850Y-6805509D01*
X48809113Y-6684164D01*
X48882083Y-6574956D01*
X48974956Y-6482083D01*
X49084164Y-6409113D01*
X49205509Y-6358850D01*
X49334329Y-6333226D01*
X49465671Y-6333226D01*
X49594491Y-6358850D01*
G37*
G36*
X51394491Y-6358850D02*
G01*
X51515836Y-6409113D01*
X51625044Y-6482083D01*
X51717917Y-6574956D01*
X51790887Y-6684164D01*
X51841150Y-6805509D01*
X51866774Y-6934329D01*
X51866774Y-7065671D01*
X51841150Y-7194491D01*
X51790887Y-7315836D01*
X51717917Y-7425044D01*
X51625044Y-7517917D01*
X51515836Y-7590887D01*
X51394491Y-7641150D01*
X51265671Y-7666774D01*
X51134329Y-7666774D01*
X51005509Y-7641150D01*
X50884164Y-7590887D01*
X50774956Y-7517917D01*
X50682083Y-7425044D01*
X50609113Y-7315836D01*
X50558850Y-7194491D01*
X50533226Y-7065671D01*
X50533226Y-6934329D01*
X50558850Y-6805509D01*
X50609113Y-6684164D01*
X50682083Y-6574956D01*
X50774956Y-6482083D01*
X50884164Y-6409113D01*
X51005509Y-6358850D01*
X51134329Y-6333226D01*
X51265671Y-6333226D01*
X51394491Y-6358850D01*
G37*
G36*
X53194491Y-6358850D02*
G01*
X53315836Y-6409113D01*
X53425044Y-6482083D01*
X53517917Y-6574956D01*
X53590887Y-6684164D01*
X53641150Y-6805509D01*
X53666774Y-6934329D01*
X53666774Y-7065671D01*
X53641150Y-7194491D01*
X53590887Y-7315836D01*
X53517917Y-7425044D01*
X53425044Y-7517917D01*
X53315836Y-7590887D01*
X53194491Y-7641150D01*
X53065671Y-7666774D01*
X52934329Y-7666774D01*
X52805509Y-7641150D01*
X52684164Y-7590887D01*
X52574956Y-7517917D01*
X52482083Y-7425044D01*
X52409113Y-7315836D01*
X52358850Y-7194491D01*
X52333226Y-7065671D01*
X52333226Y-6934329D01*
X52358850Y-6805509D01*
X52409113Y-6684164D01*
X52482083Y-6574956D01*
X52574956Y-6482083D01*
X52684164Y-6409113D01*
X52805509Y-6358850D01*
X52934329Y-6333226D01*
X53065671Y-6333226D01*
X53194491Y-6358850D01*
G37*
G36*
X54994491Y-6358850D02*
G01*
X55115836Y-6409113D01*
X55225044Y-6482083D01*
X55317917Y-6574956D01*
X55390887Y-6684164D01*
X55441150Y-6805509D01*
X55466774Y-6934329D01*
X55466774Y-7065671D01*
X55441150Y-7194491D01*
X55390887Y-7315836D01*
X55317917Y-7425044D01*
X55225044Y-7517917D01*
X55115836Y-7590887D01*
X54994491Y-7641150D01*
X54865671Y-7666774D01*
X54734329Y-7666774D01*
X54605509Y-7641150D01*
X54484164Y-7590887D01*
X54374956Y-7517917D01*
X54282083Y-7425044D01*
X54209113Y-7315836D01*
X54158850Y-7194491D01*
X54133226Y-7065671D01*
X54133226Y-6934329D01*
X54158850Y-6805509D01*
X54209113Y-6684164D01*
X54282083Y-6574956D01*
X54374956Y-6482083D01*
X54484164Y-6409113D01*
X54605509Y-6358850D01*
X54734329Y-6333226D01*
X54865671Y-6333226D01*
X54994491Y-6358850D01*
G37*
G36*
X56794491Y-6358850D02*
G01*
X56915836Y-6409113D01*
X57025044Y-6482083D01*
X57117917Y-6574956D01*
X57190887Y-6684164D01*
X57241150Y-6805509D01*
X57266774Y-6934329D01*
X57266774Y-7065671D01*
X57241150Y-7194491D01*
X57190887Y-7315836D01*
X57117917Y-7425044D01*
X57025044Y-7517917D01*
X56915836Y-7590887D01*
X56794491Y-7641150D01*
X56665671Y-7666774D01*
X56534329Y-7666774D01*
X56405509Y-7641150D01*
X56284164Y-7590887D01*
X56174956Y-7517917D01*
X56082083Y-7425044D01*
X56009113Y-7315836D01*
X55958850Y-7194491D01*
X55933226Y-7065671D01*
X55933226Y-6934329D01*
X55958850Y-6805509D01*
X56009113Y-6684164D01*
X56082083Y-6574956D01*
X56174956Y-6482083D01*
X56284164Y-6409113D01*
X56405509Y-6358850D01*
X56534329Y-6333226D01*
X56665671Y-6333226D01*
X56794491Y-6358850D01*
G37*
M02*
