M48
; DRILL file KiCad 10.0.5 date 2026-08-17T19:03:05
; FORMAT={-:-/ absolute / metric / decimal}
; #@! TF.CreationDate,2026-08-17T19:03:05-04:00
; #@! TF.GenerationSoftware,Kicad,Pcbnew,10.0.5
; #@! TF.FileFunction,MixedPlating,1,4
FMAT,2
METRIC
; #@! TA.AperFunction,Plated,PTH,ComponentDrill
T1C0.650
; #@! TA.AperFunction,Plated,PTH,ComponentDrill
T2C0.700
; #@! TA.AperFunction,Plated,PTH,ComponentDrill
T3C0.800
; #@! TA.AperFunction,Plated,PTH,ComponentDrill
T4C0.900
; #@! TA.AperFunction,Plated,PTH,ComponentDrill
T5C1.100
%
G90
G05
T1
X55.45Y-48.0
X56.75Y-48.0
X58.05Y-48.0
X59.35Y-48.0
X60.65Y-48.0
X61.95Y-48.0
X63.25Y-48.0
X64.55Y-48.0
T2
X39.4Y-48.0
X40.8Y-48.0
X42.2Y-48.0
X43.6Y-48.0
X45.0Y-48.0
X46.4Y-48.0
X47.8Y-48.0
X49.2Y-48.0
X50.6Y-48.0
T3
X3.0Y-46.0
X5.0Y-46.0
X7.0Y-46.0
X9.0Y-46.0
X10.0Y-7.0
X10.1Y-40.0
X11.9Y-40.0
X12.0Y-7.0
X14.0Y-7.0
X34.2Y-7.0
X36.0Y-7.0
X37.8Y-7.0
X41.3Y-7.0
X43.1Y-7.0
X44.9Y-7.0
X46.7Y-7.0
X49.4Y-7.0
X51.2Y-7.0
X53.0Y-7.0
X54.8Y-7.0
X56.6Y-7.0
T4
X5.0Y-24.0
X5.0Y-31.0
X80.0Y-14.0
X80.0Y-41.0
T5
X77.46Y-11.46
X77.46Y-38.46
X82.54Y-11.46
X82.54Y-38.46
M30
