%TF.GenerationSoftware,KiCad,Pcbnew,10.0.5*%
%TF.CreationDate,2026-08-17T13:20:10-04:00*%
%TF.ProjectId,circle-main,63697263-6c65-42d6-9d61-696e2e6b6963,rev?*%
%TF.SameCoordinates,Original*%
%TF.FileFunction,Other,Comment*%
%FSLAX46Y46*%
G04 Gerber Fmt 4.6, Leading zero omitted, Abs format (unit mm)*
G04 Created by KiCad (PCBNEW 10.0.5) date 2026-08-17 13:20:10*
%MOMM*%
%LPD*%
G01*
G04 APERTURE LIST*
%ADD10C,0.200000*%
%ADD11C,0.150000*%
G04 APERTURE END LIST*
D10*
X67000000Y-2000000D02*
X69200000Y-2000000D01*
X70000000Y-2000000D02*
X72200000Y-2000000D01*
X73000000Y-2000000D02*
X75200000Y-2000000D01*
X76000000Y-2000000D02*
X77000000Y-2000000D01*
X77000000Y-2000000D02*
X77000000Y-4200000D01*
X77000000Y-5000000D02*
X77000000Y-7200000D01*
X77000000Y-8000000D02*
X77000000Y-10200000D01*
X77000000Y-11000000D02*
X77000000Y-13200000D01*
X77000000Y-14000000D02*
X77000000Y-16200000D01*
X77000000Y-17000000D02*
X77000000Y-19200000D01*
X77000000Y-20000000D02*
X77000000Y-22200000D01*
X77000000Y-23000000D02*
X77000000Y-25200000D01*
X77000000Y-26000000D02*
X77000000Y-28200000D01*
X77000000Y-29000000D02*
X77000000Y-31200000D01*
X77000000Y-32000000D02*
X77000000Y-34200000D01*
X77000000Y-35000000D02*
X77000000Y-37200000D01*
X77000000Y-38000000D02*
X77000000Y-40200000D01*
X77000000Y-41000000D02*
X77000000Y-43200000D01*
X77000000Y-44000000D02*
X77000000Y-46200000D01*
X77000000Y-47000000D02*
X77000000Y-49200000D01*
X77000000Y-50000000D02*
X77000000Y-52200000D01*
X77000000Y-53000000D02*
X77000000Y-53000000D01*
X77000000Y-53000000D02*
X74800000Y-53000000D01*
X74000000Y-53000000D02*
X71800000Y-53000000D01*
X71000000Y-53000000D02*
X68800000Y-53000000D01*
X68000000Y-53000000D02*
X67000000Y-53000000D01*
X67000000Y-53000000D02*
X67000000Y-50800000D01*
X67000000Y-50000000D02*
X67000000Y-47800000D01*
X67000000Y-47000000D02*
X67000000Y-44800000D01*
X67000000Y-44000000D02*
X67000000Y-41800000D01*
X67000000Y-41000000D02*
X67000000Y-38800000D01*
X67000000Y-38000000D02*
X67000000Y-35800000D01*
X67000000Y-35000000D02*
X67000000Y-32800000D01*
X67000000Y-32000000D02*
X67000000Y-29800000D01*
X67000000Y-29000000D02*
X67000000Y-26800000D01*
X67000000Y-26000000D02*
X67000000Y-23800000D01*
X67000000Y-23000000D02*
X67000000Y-20800000D01*
X67000000Y-20000000D02*
X67000000Y-17800000D01*
X67000000Y-17000000D02*
X67000000Y-14800000D01*
X67000000Y-14000000D02*
X67000000Y-11800000D01*
X67000000Y-11000000D02*
X67000000Y-8800000D01*
X67000000Y-8000000D02*
X67000000Y-5800000D01*
X67000000Y-5000000D02*
X67000000Y-2800000D01*
X67000000Y-2000000D02*
X67000000Y-2000000D01*
D11*
X34457142Y-2133723D02*
X34838095Y-2133723D01*
X34380952Y-2362295D02*
X34647619Y-1562295D01*
X34647619Y-1562295D02*
X34914285Y-2362295D01*
X35180952Y-2362295D02*
X35180952Y-1562295D01*
X35180952Y-1562295D02*
X35638095Y-2362295D01*
X35638095Y-2362295D02*
X35638095Y-1562295D01*
X35904761Y-1562295D02*
X36361904Y-1562295D01*
X36133332Y-2362295D02*
X36133332Y-1562295D01*
X36628571Y-1943247D02*
X36895237Y-1943247D01*
X37009523Y-2362295D02*
X36628571Y-2362295D01*
X36628571Y-2362295D02*
X36628571Y-1562295D01*
X36628571Y-1562295D02*
X37009523Y-1562295D01*
X37352381Y-2362295D02*
X37352381Y-1562295D01*
X37352381Y-1562295D02*
X37809524Y-2362295D01*
X37809524Y-2362295D02*
X37809524Y-1562295D01*
X38190476Y-2362295D02*
X38190476Y-1562295D01*
X38190476Y-1562295D02*
X38647619Y-2362295D01*
X38647619Y-2362295D02*
X38647619Y-1562295D01*
X38990475Y-2133723D02*
X39371428Y-2133723D01*
X38914285Y-2362295D02*
X39180952Y-1562295D01*
X39180952Y-1562295D02*
X39447618Y-2362295D01*
X40323809Y-2362295D02*
X40323809Y-1562295D01*
X40780952Y-2362295D02*
X40438094Y-1905152D01*
X40780952Y-1562295D02*
X40323809Y-2019438D01*
X41123809Y-1943247D02*
X41390475Y-1943247D01*
X41504761Y-2362295D02*
X41123809Y-2362295D01*
X41123809Y-2362295D02*
X41123809Y-1562295D01*
X41123809Y-1562295D02*
X41504761Y-1562295D01*
X41847619Y-1943247D02*
X42114285Y-1943247D01*
X42228571Y-2362295D02*
X41847619Y-2362295D01*
X41847619Y-2362295D02*
X41847619Y-1562295D01*
X41847619Y-1562295D02*
X42228571Y-1562295D01*
X42571429Y-2362295D02*
X42571429Y-1562295D01*
X42571429Y-1562295D02*
X42876191Y-1562295D01*
X42876191Y-1562295D02*
X42952381Y-1600390D01*
X42952381Y-1600390D02*
X42990476Y-1638485D01*
X42990476Y-1638485D02*
X43028572Y-1714676D01*
X43028572Y-1714676D02*
X43028572Y-1828961D01*
X43028572Y-1828961D02*
X42990476Y-1905152D01*
X42990476Y-1905152D02*
X42952381Y-1943247D01*
X42952381Y-1943247D02*
X42876191Y-1981342D01*
X42876191Y-1981342D02*
X42571429Y-1981342D01*
X43523810Y-1562295D02*
X43676191Y-1562295D01*
X43676191Y-1562295D02*
X43752381Y-1600390D01*
X43752381Y-1600390D02*
X43828572Y-1676580D01*
X43828572Y-1676580D02*
X43866667Y-1828961D01*
X43866667Y-1828961D02*
X43866667Y-2095628D01*
X43866667Y-2095628D02*
X43828572Y-2248009D01*
X43828572Y-2248009D02*
X43752381Y-2324200D01*
X43752381Y-2324200D02*
X43676191Y-2362295D01*
X43676191Y-2362295D02*
X43523810Y-2362295D01*
X43523810Y-2362295D02*
X43447619Y-2324200D01*
X43447619Y-2324200D02*
X43371429Y-2248009D01*
X43371429Y-2248009D02*
X43333333Y-2095628D01*
X43333333Y-2095628D02*
X43333333Y-1828961D01*
X43333333Y-1828961D02*
X43371429Y-1676580D01*
X43371429Y-1676580D02*
X43447619Y-1600390D01*
X43447619Y-1600390D02*
X43523810Y-1562295D01*
X44209524Y-1562295D02*
X44209524Y-2209914D01*
X44209524Y-2209914D02*
X44247619Y-2286104D01*
X44247619Y-2286104D02*
X44285714Y-2324200D01*
X44285714Y-2324200D02*
X44361905Y-2362295D01*
X44361905Y-2362295D02*
X44514286Y-2362295D01*
X44514286Y-2362295D02*
X44590476Y-2324200D01*
X44590476Y-2324200D02*
X44628571Y-2286104D01*
X44628571Y-2286104D02*
X44666667Y-2209914D01*
X44666667Y-2209914D02*
X44666667Y-1562295D01*
X44933333Y-1562295D02*
X45390476Y-1562295D01*
X45161904Y-2362295D02*
X45161904Y-1562295D01*
X46495238Y-2667057D02*
X46457143Y-2628961D01*
X46457143Y-2628961D02*
X46380952Y-2514676D01*
X46380952Y-2514676D02*
X46342857Y-2438485D01*
X46342857Y-2438485D02*
X46304762Y-2324200D01*
X46304762Y-2324200D02*
X46266667Y-2133723D01*
X46266667Y-2133723D02*
X46266667Y-1981342D01*
X46266667Y-1981342D02*
X46304762Y-1790866D01*
X46304762Y-1790866D02*
X46342857Y-1676580D01*
X46342857Y-1676580D02*
X46380952Y-1600390D01*
X46380952Y-1600390D02*
X46457143Y-1486104D01*
X46457143Y-1486104D02*
X46495238Y-1448009D01*
X46800000Y-2362295D02*
X46800000Y-1562295D01*
X46800000Y-1562295D02*
X47257143Y-2362295D01*
X47257143Y-2362295D02*
X47257143Y-1562295D01*
X47790476Y-1562295D02*
X47942857Y-1562295D01*
X47942857Y-1562295D02*
X48019047Y-1600390D01*
X48019047Y-1600390D02*
X48095238Y-1676580D01*
X48095238Y-1676580D02*
X48133333Y-1828961D01*
X48133333Y-1828961D02*
X48133333Y-2095628D01*
X48133333Y-2095628D02*
X48095238Y-2248009D01*
X48095238Y-2248009D02*
X48019047Y-2324200D01*
X48019047Y-2324200D02*
X47942857Y-2362295D01*
X47942857Y-2362295D02*
X47790476Y-2362295D01*
X47790476Y-2362295D02*
X47714285Y-2324200D01*
X47714285Y-2324200D02*
X47638095Y-2248009D01*
X47638095Y-2248009D02*
X47599999Y-2095628D01*
X47599999Y-2095628D02*
X47599999Y-1828961D01*
X47599999Y-1828961D02*
X47638095Y-1676580D01*
X47638095Y-1676580D02*
X47714285Y-1600390D01*
X47714285Y-1600390D02*
X47790476Y-1562295D01*
X49542857Y-2286104D02*
X49504761Y-2324200D01*
X49504761Y-2324200D02*
X49390476Y-2362295D01*
X49390476Y-2362295D02*
X49314285Y-2362295D01*
X49314285Y-2362295D02*
X49199999Y-2324200D01*
X49199999Y-2324200D02*
X49123809Y-2248009D01*
X49123809Y-2248009D02*
X49085714Y-2171819D01*
X49085714Y-2171819D02*
X49047618Y-2019438D01*
X49047618Y-2019438D02*
X49047618Y-1905152D01*
X49047618Y-1905152D02*
X49085714Y-1752771D01*
X49085714Y-1752771D02*
X49123809Y-1676580D01*
X49123809Y-1676580D02*
X49199999Y-1600390D01*
X49199999Y-1600390D02*
X49314285Y-1562295D01*
X49314285Y-1562295D02*
X49390476Y-1562295D01*
X49390476Y-1562295D02*
X49504761Y-1600390D01*
X49504761Y-1600390D02*
X49542857Y-1638485D01*
X50038095Y-1562295D02*
X50190476Y-1562295D01*
X50190476Y-1562295D02*
X50266666Y-1600390D01*
X50266666Y-1600390D02*
X50342857Y-1676580D01*
X50342857Y-1676580D02*
X50380952Y-1828961D01*
X50380952Y-1828961D02*
X50380952Y-2095628D01*
X50380952Y-2095628D02*
X50342857Y-2248009D01*
X50342857Y-2248009D02*
X50266666Y-2324200D01*
X50266666Y-2324200D02*
X50190476Y-2362295D01*
X50190476Y-2362295D02*
X50038095Y-2362295D01*
X50038095Y-2362295D02*
X49961904Y-2324200D01*
X49961904Y-2324200D02*
X49885714Y-2248009D01*
X49885714Y-2248009D02*
X49847618Y-2095628D01*
X49847618Y-2095628D02*
X49847618Y-1828961D01*
X49847618Y-1828961D02*
X49885714Y-1676580D01*
X49885714Y-1676580D02*
X49961904Y-1600390D01*
X49961904Y-1600390D02*
X50038095Y-1562295D01*
X50723809Y-2362295D02*
X50723809Y-1562295D01*
X50723809Y-1562295D02*
X51028571Y-1562295D01*
X51028571Y-1562295D02*
X51104761Y-1600390D01*
X51104761Y-1600390D02*
X51142856Y-1638485D01*
X51142856Y-1638485D02*
X51180952Y-1714676D01*
X51180952Y-1714676D02*
X51180952Y-1828961D01*
X51180952Y-1828961D02*
X51142856Y-1905152D01*
X51142856Y-1905152D02*
X51104761Y-1943247D01*
X51104761Y-1943247D02*
X51028571Y-1981342D01*
X51028571Y-1981342D02*
X50723809Y-1981342D01*
X51523809Y-2362295D02*
X51523809Y-1562295D01*
X51523809Y-1562295D02*
X51828571Y-1562295D01*
X51828571Y-1562295D02*
X51904761Y-1600390D01*
X51904761Y-1600390D02*
X51942856Y-1638485D01*
X51942856Y-1638485D02*
X51980952Y-1714676D01*
X51980952Y-1714676D02*
X51980952Y-1828961D01*
X51980952Y-1828961D02*
X51942856Y-1905152D01*
X51942856Y-1905152D02*
X51904761Y-1943247D01*
X51904761Y-1943247D02*
X51828571Y-1981342D01*
X51828571Y-1981342D02*
X51523809Y-1981342D01*
X52323809Y-1943247D02*
X52590475Y-1943247D01*
X52704761Y-2362295D02*
X52323809Y-2362295D01*
X52323809Y-2362295D02*
X52323809Y-1562295D01*
X52323809Y-1562295D02*
X52704761Y-1562295D01*
X53504762Y-2362295D02*
X53238095Y-1981342D01*
X53047619Y-2362295D02*
X53047619Y-1562295D01*
X53047619Y-1562295D02*
X53352381Y-1562295D01*
X53352381Y-1562295D02*
X53428571Y-1600390D01*
X53428571Y-1600390D02*
X53466666Y-1638485D01*
X53466666Y-1638485D02*
X53504762Y-1714676D01*
X53504762Y-1714676D02*
X53504762Y-1828961D01*
X53504762Y-1828961D02*
X53466666Y-1905152D01*
X53466666Y-1905152D02*
X53428571Y-1943247D01*
X53428571Y-1943247D02*
X53352381Y-1981342D01*
X53352381Y-1981342D02*
X53047619Y-1981342D01*
X54419047Y-2133723D02*
X54800000Y-2133723D01*
X54342857Y-2362295D02*
X54609524Y-1562295D01*
X54609524Y-1562295D02*
X54876190Y-2362295D01*
X55523809Y-2362295D02*
X55142857Y-2362295D01*
X55142857Y-2362295D02*
X55142857Y-1562295D01*
X56171428Y-2362295D02*
X55790476Y-2362295D01*
X55790476Y-2362295D02*
X55790476Y-1562295D01*
X57428571Y-2362295D02*
X57047619Y-2362295D01*
X57047619Y-2362295D02*
X57047619Y-1562295D01*
X57657142Y-2133723D02*
X58038095Y-2133723D01*
X57580952Y-2362295D02*
X57847619Y-1562295D01*
X57847619Y-1562295D02*
X58114285Y-2362295D01*
X58533333Y-1981342D02*
X58533333Y-2362295D01*
X58266666Y-1562295D02*
X58533333Y-1981342D01*
X58533333Y-1981342D02*
X58799999Y-1562295D01*
X59066666Y-1943247D02*
X59333332Y-1943247D01*
X59447618Y-2362295D02*
X59066666Y-2362295D01*
X59066666Y-2362295D02*
X59066666Y-1562295D01*
X59066666Y-1562295D02*
X59447618Y-1562295D01*
X60247619Y-2362295D02*
X59980952Y-1981342D01*
X59790476Y-2362295D02*
X59790476Y-1562295D01*
X59790476Y-1562295D02*
X60095238Y-1562295D01*
X60095238Y-1562295D02*
X60171428Y-1600390D01*
X60171428Y-1600390D02*
X60209523Y-1638485D01*
X60209523Y-1638485D02*
X60247619Y-1714676D01*
X60247619Y-1714676D02*
X60247619Y-1828961D01*
X60247619Y-1828961D02*
X60209523Y-1905152D01*
X60209523Y-1905152D02*
X60171428Y-1943247D01*
X60171428Y-1943247D02*
X60095238Y-1981342D01*
X60095238Y-1981342D02*
X59790476Y-1981342D01*
X60552380Y-2324200D02*
X60666666Y-2362295D01*
X60666666Y-2362295D02*
X60857142Y-2362295D01*
X60857142Y-2362295D02*
X60933333Y-2324200D01*
X60933333Y-2324200D02*
X60971428Y-2286104D01*
X60971428Y-2286104D02*
X61009523Y-2209914D01*
X61009523Y-2209914D02*
X61009523Y-2133723D01*
X61009523Y-2133723D02*
X60971428Y-2057533D01*
X60971428Y-2057533D02*
X60933333Y-2019438D01*
X60933333Y-2019438D02*
X60857142Y-1981342D01*
X60857142Y-1981342D02*
X60704761Y-1943247D01*
X60704761Y-1943247D02*
X60628571Y-1905152D01*
X60628571Y-1905152D02*
X60590476Y-1867057D01*
X60590476Y-1867057D02*
X60552380Y-1790866D01*
X60552380Y-1790866D02*
X60552380Y-1714676D01*
X60552380Y-1714676D02*
X60590476Y-1638485D01*
X60590476Y-1638485D02*
X60628571Y-1600390D01*
X60628571Y-1600390D02*
X60704761Y-1562295D01*
X60704761Y-1562295D02*
X60895238Y-1562295D01*
X60895238Y-1562295D02*
X61009523Y-1600390D01*
X61276190Y-2667057D02*
X61314285Y-2628961D01*
X61314285Y-2628961D02*
X61390476Y-2514676D01*
X61390476Y-2514676D02*
X61428571Y-2438485D01*
X61428571Y-2438485D02*
X61466666Y-2324200D01*
X61466666Y-2324200D02*
X61504762Y-2133723D01*
X61504762Y-2133723D02*
X61504762Y-1981342D01*
X61504762Y-1981342D02*
X61466666Y-1790866D01*
X61466666Y-1790866D02*
X61428571Y-1676580D01*
X61428571Y-1676580D02*
X61390476Y-1600390D01*
X61390476Y-1600390D02*
X61314285Y-1486104D01*
X61314285Y-1486104D02*
X61276190Y-1448009D01*
M02*
