%TF.GenerationSoftware,KiCad,Pcbnew,10.0.5*%
%TF.CreationDate,2026-08-17T17:48:18-04:00*%
%TF.ProjectId,circle-ppg,63697263-6c65-42d7-9070-672e6b696361,rev?*%
%TF.SameCoordinates,Original*%
%TF.FileFunction,Legend,Top*%
%TF.FilePolarity,Positive*%
%FSLAX46Y46*%
G04 Gerber Fmt 4.6, Leading zero omitted, Abs format (unit mm)*
G04 Created by KiCad (PCBNEW 10.0.5) date 2026-08-17 17:48:18*
%MOMM*%
%LPD*%
G01*
G04 APERTURE LIST*
%ADD10C,0.120000*%
G04 APERTURE END LIST*
D10*
X-1028571Y-2063855D02*
X-1028571Y-2635283D01*
X-1028571Y-2635283D02*
X-1066666Y-2749569D01*
X-1066666Y-2749569D02*
X-1142857Y-2825760D01*
X-1142857Y-2825760D02*
X-1257142Y-2863855D01*
X-1257142Y-2863855D02*
X-1333333Y-2863855D01*
X-228571Y-2863855D02*
X-685714Y-2863855D01*
X-457142Y-2863855D02*
X-457142Y-2063855D01*
X-457142Y-2063855D02*
X-533333Y-2178140D01*
X-533333Y-2178140D02*
X-609523Y-2254331D01*
X-609523Y-2254331D02*
X-685714Y-2292426D01*
X266667Y-2063855D02*
X342857Y-2063855D01*
X342857Y-2063855D02*
X419048Y-2101950D01*
X419048Y-2101950D02*
X457143Y-2140045D01*
X457143Y-2140045D02*
X495238Y-2216236D01*
X495238Y-2216236D02*
X533333Y-2368617D01*
X533333Y-2368617D02*
X533333Y-2559093D01*
X533333Y-2559093D02*
X495238Y-2711474D01*
X495238Y-2711474D02*
X457143Y-2787664D01*
X457143Y-2787664D02*
X419048Y-2825760D01*
X419048Y-2825760D02*
X342857Y-2863855D01*
X342857Y-2863855D02*
X266667Y-2863855D01*
X266667Y-2863855D02*
X190476Y-2825760D01*
X190476Y-2825760D02*
X152381Y-2787664D01*
X152381Y-2787664D02*
X114286Y-2711474D01*
X114286Y-2711474D02*
X76190Y-2559093D01*
X76190Y-2559093D02*
X76190Y-2368617D01*
X76190Y-2368617D02*
X114286Y-2216236D01*
X114286Y-2216236D02*
X152381Y-2140045D01*
X152381Y-2140045D02*
X190476Y-2101950D01*
X190476Y-2101950D02*
X266667Y-2063855D01*
X1295238Y-2863855D02*
X838095Y-2863855D01*
X1066667Y-2863855D02*
X1066667Y-2063855D01*
X1066667Y-2063855D02*
X990476Y-2178140D01*
X990476Y-2178140D02*
X914286Y-2254331D01*
X914286Y-2254331D02*
X838095Y-2292426D01*
X23628571Y-13063855D02*
X23628571Y-13711474D01*
X23628571Y-13711474D02*
X23666666Y-13787664D01*
X23666666Y-13787664D02*
X23704761Y-13825760D01*
X23704761Y-13825760D02*
X23780952Y-13863855D01*
X23780952Y-13863855D02*
X23933333Y-13863855D01*
X23933333Y-13863855D02*
X24009523Y-13825760D01*
X24009523Y-13825760D02*
X24047618Y-13787664D01*
X24047618Y-13787664D02*
X24085714Y-13711474D01*
X24085714Y-13711474D02*
X24085714Y-13063855D01*
X24885713Y-13863855D02*
X24428570Y-13863855D01*
X24657142Y-13863855D02*
X24657142Y-13063855D01*
X24657142Y-13063855D02*
X24580951Y-13178140D01*
X24580951Y-13178140D02*
X24504761Y-13254331D01*
X24504761Y-13254331D02*
X24428570Y-13292426D01*
X25380952Y-13063855D02*
X25457142Y-13063855D01*
X25457142Y-13063855D02*
X25533333Y-13101950D01*
X25533333Y-13101950D02*
X25571428Y-13140045D01*
X25571428Y-13140045D02*
X25609523Y-13216236D01*
X25609523Y-13216236D02*
X25647618Y-13368617D01*
X25647618Y-13368617D02*
X25647618Y-13559093D01*
X25647618Y-13559093D02*
X25609523Y-13711474D01*
X25609523Y-13711474D02*
X25571428Y-13787664D01*
X25571428Y-13787664D02*
X25533333Y-13825760D01*
X25533333Y-13825760D02*
X25457142Y-13863855D01*
X25457142Y-13863855D02*
X25380952Y-13863855D01*
X25380952Y-13863855D02*
X25304761Y-13825760D01*
X25304761Y-13825760D02*
X25266666Y-13787664D01*
X25266666Y-13787664D02*
X25228571Y-13711474D01*
X25228571Y-13711474D02*
X25190475Y-13559093D01*
X25190475Y-13559093D02*
X25190475Y-13368617D01*
X25190475Y-13368617D02*
X25228571Y-13216236D01*
X25228571Y-13216236D02*
X25266666Y-13140045D01*
X25266666Y-13140045D02*
X25304761Y-13101950D01*
X25304761Y-13101950D02*
X25380952Y-13063855D01*
X26409523Y-13863855D02*
X25952380Y-13863855D01*
X26180952Y-13863855D02*
X26180952Y-13063855D01*
X26180952Y-13063855D02*
X26104761Y-13178140D01*
X26104761Y-13178140D02*
X26028571Y-13254331D01*
X26028571Y-13254331D02*
X25952380Y-13292426D01*
X4628571Y-5563855D02*
X4628571Y-6211474D01*
X4628571Y-6211474D02*
X4666666Y-6287664D01*
X4666666Y-6287664D02*
X4704761Y-6325760D01*
X4704761Y-6325760D02*
X4780952Y-6363855D01*
X4780952Y-6363855D02*
X4933333Y-6363855D01*
X4933333Y-6363855D02*
X5009523Y-6325760D01*
X5009523Y-6325760D02*
X5047618Y-6287664D01*
X5047618Y-6287664D02*
X5085714Y-6211474D01*
X5085714Y-6211474D02*
X5085714Y-5563855D01*
X5885713Y-6363855D02*
X5428570Y-6363855D01*
X5657142Y-6363855D02*
X5657142Y-5563855D01*
X5657142Y-5563855D02*
X5580951Y-5678140D01*
X5580951Y-5678140D02*
X5504761Y-5754331D01*
X5504761Y-5754331D02*
X5428570Y-5792426D01*
X6380952Y-5563855D02*
X6457142Y-5563855D01*
X6457142Y-5563855D02*
X6533333Y-5601950D01*
X6533333Y-5601950D02*
X6571428Y-5640045D01*
X6571428Y-5640045D02*
X6609523Y-5716236D01*
X6609523Y-5716236D02*
X6647618Y-5868617D01*
X6647618Y-5868617D02*
X6647618Y-6059093D01*
X6647618Y-6059093D02*
X6609523Y-6211474D01*
X6609523Y-6211474D02*
X6571428Y-6287664D01*
X6571428Y-6287664D02*
X6533333Y-6325760D01*
X6533333Y-6325760D02*
X6457142Y-6363855D01*
X6457142Y-6363855D02*
X6380952Y-6363855D01*
X6380952Y-6363855D02*
X6304761Y-6325760D01*
X6304761Y-6325760D02*
X6266666Y-6287664D01*
X6266666Y-6287664D02*
X6228571Y-6211474D01*
X6228571Y-6211474D02*
X6190475Y-6059093D01*
X6190475Y-6059093D02*
X6190475Y-5868617D01*
X6190475Y-5868617D02*
X6228571Y-5716236D01*
X6228571Y-5716236D02*
X6266666Y-5640045D01*
X6266666Y-5640045D02*
X6304761Y-5601950D01*
X6304761Y-5601950D02*
X6380952Y-5563855D01*
X6952380Y-5640045D02*
X6990476Y-5601950D01*
X6990476Y-5601950D02*
X7066666Y-5563855D01*
X7066666Y-5563855D02*
X7257142Y-5563855D01*
X7257142Y-5563855D02*
X7333333Y-5601950D01*
X7333333Y-5601950D02*
X7371428Y-5640045D01*
X7371428Y-5640045D02*
X7409523Y-5716236D01*
X7409523Y-5716236D02*
X7409523Y-5792426D01*
X7409523Y-5792426D02*
X7371428Y-5906712D01*
X7371428Y-5906712D02*
X6914285Y-6363855D01*
X6914285Y-6363855D02*
X7409523Y-6363855D01*
X17628571Y-5563855D02*
X17628571Y-6211474D01*
X17628571Y-6211474D02*
X17666666Y-6287664D01*
X17666666Y-6287664D02*
X17704761Y-6325760D01*
X17704761Y-6325760D02*
X17780952Y-6363855D01*
X17780952Y-6363855D02*
X17933333Y-6363855D01*
X17933333Y-6363855D02*
X18009523Y-6325760D01*
X18009523Y-6325760D02*
X18047618Y-6287664D01*
X18047618Y-6287664D02*
X18085714Y-6211474D01*
X18085714Y-6211474D02*
X18085714Y-5563855D01*
X18885713Y-6363855D02*
X18428570Y-6363855D01*
X18657142Y-6363855D02*
X18657142Y-5563855D01*
X18657142Y-5563855D02*
X18580951Y-5678140D01*
X18580951Y-5678140D02*
X18504761Y-5754331D01*
X18504761Y-5754331D02*
X18428570Y-5792426D01*
X19380952Y-5563855D02*
X19457142Y-5563855D01*
X19457142Y-5563855D02*
X19533333Y-5601950D01*
X19533333Y-5601950D02*
X19571428Y-5640045D01*
X19571428Y-5640045D02*
X19609523Y-5716236D01*
X19609523Y-5716236D02*
X19647618Y-5868617D01*
X19647618Y-5868617D02*
X19647618Y-6059093D01*
X19647618Y-6059093D02*
X19609523Y-6211474D01*
X19609523Y-6211474D02*
X19571428Y-6287664D01*
X19571428Y-6287664D02*
X19533333Y-6325760D01*
X19533333Y-6325760D02*
X19457142Y-6363855D01*
X19457142Y-6363855D02*
X19380952Y-6363855D01*
X19380952Y-6363855D02*
X19304761Y-6325760D01*
X19304761Y-6325760D02*
X19266666Y-6287664D01*
X19266666Y-6287664D02*
X19228571Y-6211474D01*
X19228571Y-6211474D02*
X19190475Y-6059093D01*
X19190475Y-6059093D02*
X19190475Y-5868617D01*
X19190475Y-5868617D02*
X19228571Y-5716236D01*
X19228571Y-5716236D02*
X19266666Y-5640045D01*
X19266666Y-5640045D02*
X19304761Y-5601950D01*
X19304761Y-5601950D02*
X19380952Y-5563855D01*
X19914285Y-5563855D02*
X20409523Y-5563855D01*
X20409523Y-5563855D02*
X20142857Y-5868617D01*
X20142857Y-5868617D02*
X20257142Y-5868617D01*
X20257142Y-5868617D02*
X20333333Y-5906712D01*
X20333333Y-5906712D02*
X20371428Y-5944807D01*
X20371428Y-5944807D02*
X20409523Y-6020998D01*
X20409523Y-6020998D02*
X20409523Y-6211474D01*
X20409523Y-6211474D02*
X20371428Y-6287664D01*
X20371428Y-6287664D02*
X20333333Y-6325760D01*
X20333333Y-6325760D02*
X20257142Y-6363855D01*
X20257142Y-6363855D02*
X20028571Y-6363855D01*
X20028571Y-6363855D02*
X19952380Y-6325760D01*
X19952380Y-6325760D02*
X19914285Y-6287664D01*
X17628571Y-10563855D02*
X17628571Y-11211474D01*
X17628571Y-11211474D02*
X17666666Y-11287664D01*
X17666666Y-11287664D02*
X17704761Y-11325760D01*
X17704761Y-11325760D02*
X17780952Y-11363855D01*
X17780952Y-11363855D02*
X17933333Y-11363855D01*
X17933333Y-11363855D02*
X18009523Y-11325760D01*
X18009523Y-11325760D02*
X18047618Y-11287664D01*
X18047618Y-11287664D02*
X18085714Y-11211474D01*
X18085714Y-11211474D02*
X18085714Y-10563855D01*
X18885713Y-11363855D02*
X18428570Y-11363855D01*
X18657142Y-11363855D02*
X18657142Y-10563855D01*
X18657142Y-10563855D02*
X18580951Y-10678140D01*
X18580951Y-10678140D02*
X18504761Y-10754331D01*
X18504761Y-10754331D02*
X18428570Y-10792426D01*
X19380952Y-10563855D02*
X19457142Y-10563855D01*
X19457142Y-10563855D02*
X19533333Y-10601950D01*
X19533333Y-10601950D02*
X19571428Y-10640045D01*
X19571428Y-10640045D02*
X19609523Y-10716236D01*
X19609523Y-10716236D02*
X19647618Y-10868617D01*
X19647618Y-10868617D02*
X19647618Y-11059093D01*
X19647618Y-11059093D02*
X19609523Y-11211474D01*
X19609523Y-11211474D02*
X19571428Y-11287664D01*
X19571428Y-11287664D02*
X19533333Y-11325760D01*
X19533333Y-11325760D02*
X19457142Y-11363855D01*
X19457142Y-11363855D02*
X19380952Y-11363855D01*
X19380952Y-11363855D02*
X19304761Y-11325760D01*
X19304761Y-11325760D02*
X19266666Y-11287664D01*
X19266666Y-11287664D02*
X19228571Y-11211474D01*
X19228571Y-11211474D02*
X19190475Y-11059093D01*
X19190475Y-11059093D02*
X19190475Y-10868617D01*
X19190475Y-10868617D02*
X19228571Y-10716236D01*
X19228571Y-10716236D02*
X19266666Y-10640045D01*
X19266666Y-10640045D02*
X19304761Y-10601950D01*
X19304761Y-10601950D02*
X19380952Y-10563855D01*
X20333333Y-10830521D02*
X20333333Y-11363855D01*
X20142857Y-10525760D02*
X19952380Y-11097188D01*
X19952380Y-11097188D02*
X20447619Y-11097188D01*
X4628571Y-10563855D02*
X4628571Y-11211474D01*
X4628571Y-11211474D02*
X4666666Y-11287664D01*
X4666666Y-11287664D02*
X4704761Y-11325760D01*
X4704761Y-11325760D02*
X4780952Y-11363855D01*
X4780952Y-11363855D02*
X4933333Y-11363855D01*
X4933333Y-11363855D02*
X5009523Y-11325760D01*
X5009523Y-11325760D02*
X5047618Y-11287664D01*
X5047618Y-11287664D02*
X5085714Y-11211474D01*
X5085714Y-11211474D02*
X5085714Y-10563855D01*
X5885713Y-11363855D02*
X5428570Y-11363855D01*
X5657142Y-11363855D02*
X5657142Y-10563855D01*
X5657142Y-10563855D02*
X5580951Y-10678140D01*
X5580951Y-10678140D02*
X5504761Y-10754331D01*
X5504761Y-10754331D02*
X5428570Y-10792426D01*
X6380952Y-10563855D02*
X6457142Y-10563855D01*
X6457142Y-10563855D02*
X6533333Y-10601950D01*
X6533333Y-10601950D02*
X6571428Y-10640045D01*
X6571428Y-10640045D02*
X6609523Y-10716236D01*
X6609523Y-10716236D02*
X6647618Y-10868617D01*
X6647618Y-10868617D02*
X6647618Y-11059093D01*
X6647618Y-11059093D02*
X6609523Y-11211474D01*
X6609523Y-11211474D02*
X6571428Y-11287664D01*
X6571428Y-11287664D02*
X6533333Y-11325760D01*
X6533333Y-11325760D02*
X6457142Y-11363855D01*
X6457142Y-11363855D02*
X6380952Y-11363855D01*
X6380952Y-11363855D02*
X6304761Y-11325760D01*
X6304761Y-11325760D02*
X6266666Y-11287664D01*
X6266666Y-11287664D02*
X6228571Y-11211474D01*
X6228571Y-11211474D02*
X6190475Y-11059093D01*
X6190475Y-11059093D02*
X6190475Y-10868617D01*
X6190475Y-10868617D02*
X6228571Y-10716236D01*
X6228571Y-10716236D02*
X6266666Y-10640045D01*
X6266666Y-10640045D02*
X6304761Y-10601950D01*
X6304761Y-10601950D02*
X6380952Y-10563855D01*
X7371428Y-10563855D02*
X6990476Y-10563855D01*
X6990476Y-10563855D02*
X6952380Y-10944807D01*
X6952380Y-10944807D02*
X6990476Y-10906712D01*
X6990476Y-10906712D02*
X7066666Y-10868617D01*
X7066666Y-10868617D02*
X7257142Y-10868617D01*
X7257142Y-10868617D02*
X7333333Y-10906712D01*
X7333333Y-10906712D02*
X7371428Y-10944807D01*
X7371428Y-10944807D02*
X7409523Y-11020998D01*
X7409523Y-11020998D02*
X7409523Y-11211474D01*
X7409523Y-11211474D02*
X7371428Y-11287664D01*
X7371428Y-11287664D02*
X7333333Y-11325760D01*
X7333333Y-11325760D02*
X7257142Y-11363855D01*
X7257142Y-11363855D02*
X7066666Y-11363855D01*
X7066666Y-11363855D02*
X6990476Y-11325760D01*
X6990476Y-11325760D02*
X6952380Y-11287664D01*
X4647619Y-1363855D02*
X4647619Y-563855D01*
X4647619Y-563855D02*
X4838095Y-563855D01*
X4838095Y-563855D02*
X4952381Y-601950D01*
X4952381Y-601950D02*
X5028571Y-678140D01*
X5028571Y-678140D02*
X5066666Y-754331D01*
X5066666Y-754331D02*
X5104762Y-906712D01*
X5104762Y-906712D02*
X5104762Y-1020998D01*
X5104762Y-1020998D02*
X5066666Y-1173379D01*
X5066666Y-1173379D02*
X5028571Y-1249569D01*
X5028571Y-1249569D02*
X4952381Y-1325760D01*
X4952381Y-1325760D02*
X4838095Y-1363855D01*
X4838095Y-1363855D02*
X4647619Y-1363855D01*
X5866666Y-1363855D02*
X5409523Y-1363855D01*
X5638095Y-1363855D02*
X5638095Y-563855D01*
X5638095Y-563855D02*
X5561904Y-678140D01*
X5561904Y-678140D02*
X5485714Y-754331D01*
X5485714Y-754331D02*
X5409523Y-792426D01*
X6361905Y-563855D02*
X6438095Y-563855D01*
X6438095Y-563855D02*
X6514286Y-601950D01*
X6514286Y-601950D02*
X6552381Y-640045D01*
X6552381Y-640045D02*
X6590476Y-716236D01*
X6590476Y-716236D02*
X6628571Y-868617D01*
X6628571Y-868617D02*
X6628571Y-1059093D01*
X6628571Y-1059093D02*
X6590476Y-1211474D01*
X6590476Y-1211474D02*
X6552381Y-1287664D01*
X6552381Y-1287664D02*
X6514286Y-1325760D01*
X6514286Y-1325760D02*
X6438095Y-1363855D01*
X6438095Y-1363855D02*
X6361905Y-1363855D01*
X6361905Y-1363855D02*
X6285714Y-1325760D01*
X6285714Y-1325760D02*
X6247619Y-1287664D01*
X6247619Y-1287664D02*
X6209524Y-1211474D01*
X6209524Y-1211474D02*
X6171428Y-1059093D01*
X6171428Y-1059093D02*
X6171428Y-868617D01*
X6171428Y-868617D02*
X6209524Y-716236D01*
X6209524Y-716236D02*
X6247619Y-640045D01*
X6247619Y-640045D02*
X6285714Y-601950D01*
X6285714Y-601950D02*
X6361905Y-563855D01*
X7390476Y-1363855D02*
X6933333Y-1363855D01*
X7161905Y-1363855D02*
X7161905Y-563855D01*
X7161905Y-563855D02*
X7085714Y-678140D01*
X7085714Y-678140D02*
X7009524Y-754331D01*
X7009524Y-754331D02*
X6933333Y-792426D01*
X18104762Y-1863855D02*
X17838095Y-1482902D01*
X17647619Y-1863855D02*
X17647619Y-1063855D01*
X17647619Y-1063855D02*
X17952381Y-1063855D01*
X17952381Y-1063855D02*
X18028571Y-1101950D01*
X18028571Y-1101950D02*
X18066666Y-1140045D01*
X18066666Y-1140045D02*
X18104762Y-1216236D01*
X18104762Y-1216236D02*
X18104762Y-1330521D01*
X18104762Y-1330521D02*
X18066666Y-1406712D01*
X18066666Y-1406712D02*
X18028571Y-1444807D01*
X18028571Y-1444807D02*
X17952381Y-1482902D01*
X17952381Y-1482902D02*
X17647619Y-1482902D01*
X18866666Y-1863855D02*
X18409523Y-1863855D01*
X18638095Y-1863855D02*
X18638095Y-1063855D01*
X18638095Y-1063855D02*
X18561904Y-1178140D01*
X18561904Y-1178140D02*
X18485714Y-1254331D01*
X18485714Y-1254331D02*
X18409523Y-1292426D01*
X19361905Y-1063855D02*
X19438095Y-1063855D01*
X19438095Y-1063855D02*
X19514286Y-1101950D01*
X19514286Y-1101950D02*
X19552381Y-1140045D01*
X19552381Y-1140045D02*
X19590476Y-1216236D01*
X19590476Y-1216236D02*
X19628571Y-1368617D01*
X19628571Y-1368617D02*
X19628571Y-1559093D01*
X19628571Y-1559093D02*
X19590476Y-1711474D01*
X19590476Y-1711474D02*
X19552381Y-1787664D01*
X19552381Y-1787664D02*
X19514286Y-1825760D01*
X19514286Y-1825760D02*
X19438095Y-1863855D01*
X19438095Y-1863855D02*
X19361905Y-1863855D01*
X19361905Y-1863855D02*
X19285714Y-1825760D01*
X19285714Y-1825760D02*
X19247619Y-1787664D01*
X19247619Y-1787664D02*
X19209524Y-1711474D01*
X19209524Y-1711474D02*
X19171428Y-1559093D01*
X19171428Y-1559093D02*
X19171428Y-1368617D01*
X19171428Y-1368617D02*
X19209524Y-1216236D01*
X19209524Y-1216236D02*
X19247619Y-1140045D01*
X19247619Y-1140045D02*
X19285714Y-1101950D01*
X19285714Y-1101950D02*
X19361905Y-1063855D01*
X20390476Y-1863855D02*
X19933333Y-1863855D01*
X20161905Y-1863855D02*
X20161905Y-1063855D01*
X20161905Y-1063855D02*
X20085714Y-1178140D01*
X20085714Y-1178140D02*
X20009524Y-1254331D01*
X20009524Y-1254331D02*
X19933333Y-1292426D01*
X18104762Y-3863855D02*
X17838095Y-3482902D01*
X17647619Y-3863855D02*
X17647619Y-3063855D01*
X17647619Y-3063855D02*
X17952381Y-3063855D01*
X17952381Y-3063855D02*
X18028571Y-3101950D01*
X18028571Y-3101950D02*
X18066666Y-3140045D01*
X18066666Y-3140045D02*
X18104762Y-3216236D01*
X18104762Y-3216236D02*
X18104762Y-3330521D01*
X18104762Y-3330521D02*
X18066666Y-3406712D01*
X18066666Y-3406712D02*
X18028571Y-3444807D01*
X18028571Y-3444807D02*
X17952381Y-3482902D01*
X17952381Y-3482902D02*
X17647619Y-3482902D01*
X18866666Y-3863855D02*
X18409523Y-3863855D01*
X18638095Y-3863855D02*
X18638095Y-3063855D01*
X18638095Y-3063855D02*
X18561904Y-3178140D01*
X18561904Y-3178140D02*
X18485714Y-3254331D01*
X18485714Y-3254331D02*
X18409523Y-3292426D01*
X19361905Y-3063855D02*
X19438095Y-3063855D01*
X19438095Y-3063855D02*
X19514286Y-3101950D01*
X19514286Y-3101950D02*
X19552381Y-3140045D01*
X19552381Y-3140045D02*
X19590476Y-3216236D01*
X19590476Y-3216236D02*
X19628571Y-3368617D01*
X19628571Y-3368617D02*
X19628571Y-3559093D01*
X19628571Y-3559093D02*
X19590476Y-3711474D01*
X19590476Y-3711474D02*
X19552381Y-3787664D01*
X19552381Y-3787664D02*
X19514286Y-3825760D01*
X19514286Y-3825760D02*
X19438095Y-3863855D01*
X19438095Y-3863855D02*
X19361905Y-3863855D01*
X19361905Y-3863855D02*
X19285714Y-3825760D01*
X19285714Y-3825760D02*
X19247619Y-3787664D01*
X19247619Y-3787664D02*
X19209524Y-3711474D01*
X19209524Y-3711474D02*
X19171428Y-3559093D01*
X19171428Y-3559093D02*
X19171428Y-3368617D01*
X19171428Y-3368617D02*
X19209524Y-3216236D01*
X19209524Y-3216236D02*
X19247619Y-3140045D01*
X19247619Y-3140045D02*
X19285714Y-3101950D01*
X19285714Y-3101950D02*
X19361905Y-3063855D01*
X19933333Y-3140045D02*
X19971429Y-3101950D01*
X19971429Y-3101950D02*
X20047619Y-3063855D01*
X20047619Y-3063855D02*
X20238095Y-3063855D01*
X20238095Y-3063855D02*
X20314286Y-3101950D01*
X20314286Y-3101950D02*
X20352381Y-3140045D01*
X20352381Y-3140045D02*
X20390476Y-3216236D01*
X20390476Y-3216236D02*
X20390476Y-3292426D01*
X20390476Y-3292426D02*
X20352381Y-3406712D01*
X20352381Y-3406712D02*
X19895238Y-3863855D01*
X19895238Y-3863855D02*
X20390476Y-3863855D01*
X8104762Y-1787664D02*
X8066666Y-1825760D01*
X8066666Y-1825760D02*
X7952381Y-1863855D01*
X7952381Y-1863855D02*
X7876190Y-1863855D01*
X7876190Y-1863855D02*
X7761904Y-1825760D01*
X7761904Y-1825760D02*
X7685714Y-1749569D01*
X7685714Y-1749569D02*
X7647619Y-1673379D01*
X7647619Y-1673379D02*
X7609523Y-1520998D01*
X7609523Y-1520998D02*
X7609523Y-1406712D01*
X7609523Y-1406712D02*
X7647619Y-1254331D01*
X7647619Y-1254331D02*
X7685714Y-1178140D01*
X7685714Y-1178140D02*
X7761904Y-1101950D01*
X7761904Y-1101950D02*
X7876190Y-1063855D01*
X7876190Y-1063855D02*
X7952381Y-1063855D01*
X7952381Y-1063855D02*
X8066666Y-1101950D01*
X8066666Y-1101950D02*
X8104762Y-1140045D01*
X8866666Y-1863855D02*
X8409523Y-1863855D01*
X8638095Y-1863855D02*
X8638095Y-1063855D01*
X8638095Y-1063855D02*
X8561904Y-1178140D01*
X8561904Y-1178140D02*
X8485714Y-1254331D01*
X8485714Y-1254331D02*
X8409523Y-1292426D01*
X9361905Y-1063855D02*
X9438095Y-1063855D01*
X9438095Y-1063855D02*
X9514286Y-1101950D01*
X9514286Y-1101950D02*
X9552381Y-1140045D01*
X9552381Y-1140045D02*
X9590476Y-1216236D01*
X9590476Y-1216236D02*
X9628571Y-1368617D01*
X9628571Y-1368617D02*
X9628571Y-1559093D01*
X9628571Y-1559093D02*
X9590476Y-1711474D01*
X9590476Y-1711474D02*
X9552381Y-1787664D01*
X9552381Y-1787664D02*
X9514286Y-1825760D01*
X9514286Y-1825760D02*
X9438095Y-1863855D01*
X9438095Y-1863855D02*
X9361905Y-1863855D01*
X9361905Y-1863855D02*
X9285714Y-1825760D01*
X9285714Y-1825760D02*
X9247619Y-1787664D01*
X9247619Y-1787664D02*
X9209524Y-1711474D01*
X9209524Y-1711474D02*
X9171428Y-1559093D01*
X9171428Y-1559093D02*
X9171428Y-1368617D01*
X9171428Y-1368617D02*
X9209524Y-1216236D01*
X9209524Y-1216236D02*
X9247619Y-1140045D01*
X9247619Y-1140045D02*
X9285714Y-1101950D01*
X9285714Y-1101950D02*
X9361905Y-1063855D01*
X10390476Y-1863855D02*
X9933333Y-1863855D01*
X10161905Y-1863855D02*
X10161905Y-1063855D01*
X10161905Y-1063855D02*
X10085714Y-1178140D01*
X10085714Y-1178140D02*
X10009524Y-1254331D01*
X10009524Y-1254331D02*
X9933333Y-1292426D01*
X15104762Y-1787664D02*
X15066666Y-1825760D01*
X15066666Y-1825760D02*
X14952381Y-1863855D01*
X14952381Y-1863855D02*
X14876190Y-1863855D01*
X14876190Y-1863855D02*
X14761904Y-1825760D01*
X14761904Y-1825760D02*
X14685714Y-1749569D01*
X14685714Y-1749569D02*
X14647619Y-1673379D01*
X14647619Y-1673379D02*
X14609523Y-1520998D01*
X14609523Y-1520998D02*
X14609523Y-1406712D01*
X14609523Y-1406712D02*
X14647619Y-1254331D01*
X14647619Y-1254331D02*
X14685714Y-1178140D01*
X14685714Y-1178140D02*
X14761904Y-1101950D01*
X14761904Y-1101950D02*
X14876190Y-1063855D01*
X14876190Y-1063855D02*
X14952381Y-1063855D01*
X14952381Y-1063855D02*
X15066666Y-1101950D01*
X15066666Y-1101950D02*
X15104762Y-1140045D01*
X15866666Y-1863855D02*
X15409523Y-1863855D01*
X15638095Y-1863855D02*
X15638095Y-1063855D01*
X15638095Y-1063855D02*
X15561904Y-1178140D01*
X15561904Y-1178140D02*
X15485714Y-1254331D01*
X15485714Y-1254331D02*
X15409523Y-1292426D01*
X16361905Y-1063855D02*
X16438095Y-1063855D01*
X16438095Y-1063855D02*
X16514286Y-1101950D01*
X16514286Y-1101950D02*
X16552381Y-1140045D01*
X16552381Y-1140045D02*
X16590476Y-1216236D01*
X16590476Y-1216236D02*
X16628571Y-1368617D01*
X16628571Y-1368617D02*
X16628571Y-1559093D01*
X16628571Y-1559093D02*
X16590476Y-1711474D01*
X16590476Y-1711474D02*
X16552381Y-1787664D01*
X16552381Y-1787664D02*
X16514286Y-1825760D01*
X16514286Y-1825760D02*
X16438095Y-1863855D01*
X16438095Y-1863855D02*
X16361905Y-1863855D01*
X16361905Y-1863855D02*
X16285714Y-1825760D01*
X16285714Y-1825760D02*
X16247619Y-1787664D01*
X16247619Y-1787664D02*
X16209524Y-1711474D01*
X16209524Y-1711474D02*
X16171428Y-1559093D01*
X16171428Y-1559093D02*
X16171428Y-1368617D01*
X16171428Y-1368617D02*
X16209524Y-1216236D01*
X16209524Y-1216236D02*
X16247619Y-1140045D01*
X16247619Y-1140045D02*
X16285714Y-1101950D01*
X16285714Y-1101950D02*
X16361905Y-1063855D01*
X16933333Y-1140045D02*
X16971429Y-1101950D01*
X16971429Y-1101950D02*
X17047619Y-1063855D01*
X17047619Y-1063855D02*
X17238095Y-1063855D01*
X17238095Y-1063855D02*
X17314286Y-1101950D01*
X17314286Y-1101950D02*
X17352381Y-1140045D01*
X17352381Y-1140045D02*
X17390476Y-1216236D01*
X17390476Y-1216236D02*
X17390476Y-1292426D01*
X17390476Y-1292426D02*
X17352381Y-1406712D01*
X17352381Y-1406712D02*
X16895238Y-1863855D01*
X16895238Y-1863855D02*
X17390476Y-1863855D01*
M02*
