%TF.GenerationSoftware,KiCad,Pcbnew,10.0.5*%
%TF.CreationDate,2026-08-17T17:48:18-04:00*%
%TF.ProjectId,circle-ppg,63697263-6c65-42d7-9070-672e6b696361,rev?*%
%TF.SameCoordinates,Original*%
%TF.FileFunction,Soldermask,Top*%
%TF.FilePolarity,Negative*%
%FSLAX46Y46*%
G04 Gerber Fmt 4.6, Leading zero omitted, Abs format (unit mm)*
G04 Created by KiCad (PCBNEW 10.0.5) date 2026-08-17 17:48:18*
%MOMM*%
%LPD*%
G01*
G04 APERTURE LIST*
G04 APERTURE END LIST*
G36*
X7819134Y-13578806D02*
G01*
X7835355Y-13589645D01*
X7846194Y-13605866D01*
X7850000Y-13625000D01*
X7850000Y-15375000D01*
X7846194Y-15394134D01*
X7835355Y-15410355D01*
X7819134Y-15421194D01*
X7800000Y-15425000D01*
X7200000Y-15425000D01*
X7180866Y-15421194D01*
X7164645Y-15410355D01*
X7153806Y-15394134D01*
X7150000Y-15375000D01*
X7150000Y-13625000D01*
X7153806Y-13605866D01*
X7164645Y-13589645D01*
X7180866Y-13578806D01*
X7200000Y-13575000D01*
X7800000Y-13575000D01*
X7819134Y-13578806D01*
G37*
G36*
X9069134Y-13578806D02*
G01*
X9085355Y-13589645D01*
X9096194Y-13605866D01*
X9100000Y-13625000D01*
X9100000Y-15375000D01*
X9096194Y-15394134D01*
X9085355Y-15410355D01*
X9069134Y-15421194D01*
X9050000Y-15425000D01*
X8450000Y-15425000D01*
X8430866Y-15421194D01*
X8414645Y-15410355D01*
X8403806Y-15394134D01*
X8400000Y-15375000D01*
X8400000Y-13625000D01*
X8403806Y-13605866D01*
X8414645Y-13589645D01*
X8430866Y-13578806D01*
X8450000Y-13575000D01*
X9050000Y-13575000D01*
X9069134Y-13578806D01*
G37*
G36*
X10319134Y-13578806D02*
G01*
X10335355Y-13589645D01*
X10346194Y-13605866D01*
X10350000Y-13625000D01*
X10350000Y-15375000D01*
X10346194Y-15394134D01*
X10335355Y-15410355D01*
X10319134Y-15421194D01*
X10300000Y-15425000D01*
X9700000Y-15425000D01*
X9680866Y-15421194D01*
X9664645Y-15410355D01*
X9653806Y-15394134D01*
X9650000Y-15375000D01*
X9650000Y-13625000D01*
X9653806Y-13605866D01*
X9664645Y-13589645D01*
X9680866Y-13578806D01*
X9700000Y-13575000D01*
X10300000Y-13575000D01*
X10319134Y-13578806D01*
G37*
G36*
X11569134Y-13578806D02*
G01*
X11585355Y-13589645D01*
X11596194Y-13605866D01*
X11600000Y-13625000D01*
X11600000Y-15375000D01*
X11596194Y-15394134D01*
X11585355Y-15410355D01*
X11569134Y-15421194D01*
X11550000Y-15425000D01*
X10950000Y-15425000D01*
X10930866Y-15421194D01*
X10914645Y-15410355D01*
X10903806Y-15394134D01*
X10900000Y-15375000D01*
X10900000Y-13625000D01*
X10903806Y-13605866D01*
X10914645Y-13589645D01*
X10930866Y-13578806D01*
X10950000Y-13575000D01*
X11550000Y-13575000D01*
X11569134Y-13578806D01*
G37*
G36*
X12819134Y-13578806D02*
G01*
X12835355Y-13589645D01*
X12846194Y-13605866D01*
X12850000Y-13625000D01*
X12850000Y-15375000D01*
X12846194Y-15394134D01*
X12835355Y-15410355D01*
X12819134Y-15421194D01*
X12800000Y-15425000D01*
X12200000Y-15425000D01*
X12180866Y-15421194D01*
X12164645Y-15410355D01*
X12153806Y-15394134D01*
X12150000Y-15375000D01*
X12150000Y-13625000D01*
X12153806Y-13605866D01*
X12164645Y-13589645D01*
X12180866Y-13578806D01*
X12200000Y-13575000D01*
X12800000Y-13575000D01*
X12819134Y-13578806D01*
G37*
G36*
X14069134Y-13578806D02*
G01*
X14085355Y-13589645D01*
X14096194Y-13605866D01*
X14100000Y-13625000D01*
X14100000Y-15375000D01*
X14096194Y-15394134D01*
X14085355Y-15410355D01*
X14069134Y-15421194D01*
X14050000Y-15425000D01*
X13450000Y-15425000D01*
X13430866Y-15421194D01*
X13414645Y-15410355D01*
X13403806Y-15394134D01*
X13400000Y-15375000D01*
X13400000Y-13625000D01*
X13403806Y-13605866D01*
X13414645Y-13589645D01*
X13430866Y-13578806D01*
X13450000Y-13575000D01*
X14050000Y-13575000D01*
X14069134Y-13578806D01*
G37*
G36*
X15319134Y-13578806D02*
G01*
X15335355Y-13589645D01*
X15346194Y-13605866D01*
X15350000Y-13625000D01*
X15350000Y-15375000D01*
X15346194Y-15394134D01*
X15335355Y-15410355D01*
X15319134Y-15421194D01*
X15300000Y-15425000D01*
X14700000Y-15425000D01*
X14680866Y-15421194D01*
X14664645Y-15410355D01*
X14653806Y-15394134D01*
X14650000Y-15375000D01*
X14650000Y-13625000D01*
X14653806Y-13605866D01*
X14664645Y-13589645D01*
X14680866Y-13578806D01*
X14700000Y-13575000D01*
X15300000Y-13575000D01*
X15319134Y-13578806D01*
G37*
G36*
X16569134Y-13578806D02*
G01*
X16585355Y-13589645D01*
X16596194Y-13605866D01*
X16600000Y-13625000D01*
X16600000Y-15375000D01*
X16596194Y-15394134D01*
X16585355Y-15410355D01*
X16569134Y-15421194D01*
X16550000Y-15425000D01*
X15950000Y-15425000D01*
X15930866Y-15421194D01*
X15914645Y-15410355D01*
X15903806Y-15394134D01*
X15900000Y-15375000D01*
X15900000Y-13625000D01*
X15903806Y-13605866D01*
X15914645Y-13589645D01*
X15930866Y-13578806D01*
X15950000Y-13575000D01*
X16550000Y-13575000D01*
X16569134Y-13578806D01*
G37*
G36*
X17819134Y-13578806D02*
G01*
X17835355Y-13589645D01*
X17836748Y-13591730D01*
X17842680Y-13595694D01*
X17856874Y-13600000D01*
X18225000Y-13600000D01*
X18244134Y-13603806D01*
X18260355Y-13614645D01*
X18271194Y-13630866D01*
X18275000Y-13650000D01*
X18275000Y-14250000D01*
X18271194Y-14269134D01*
X18260355Y-14285355D01*
X18244134Y-14296194D01*
X18225000Y-14300000D01*
X17879287Y-14300000D01*
X17850000Y-14329287D01*
X17850000Y-15375000D01*
X17846194Y-15394134D01*
X17835355Y-15410355D01*
X17819134Y-15421194D01*
X17800000Y-15425000D01*
X17200000Y-15425000D01*
X17180866Y-15421194D01*
X17164645Y-15410355D01*
X17153806Y-15394134D01*
X17150000Y-15375000D01*
X17150000Y-14306874D01*
X17145694Y-14292680D01*
X17141731Y-14286749D01*
X17139645Y-14285355D01*
X17128806Y-14269134D01*
X17125000Y-14250000D01*
X17125000Y-13650000D01*
X17128806Y-13630866D01*
X17139645Y-13614645D01*
X17154627Y-13604633D01*
X17154633Y-13604627D01*
X17164645Y-13589645D01*
X17180866Y-13578806D01*
X17200000Y-13575000D01*
X17800000Y-13575000D01*
X17819134Y-13578806D01*
G37*
G36*
X20844134Y-13603806D02*
G01*
X20860355Y-13614645D01*
X20871194Y-13630866D01*
X20875000Y-13650000D01*
X20875000Y-14250000D01*
X20871194Y-14269134D01*
X20860355Y-14285355D01*
X20844134Y-14296194D01*
X20825000Y-14300000D01*
X19775000Y-14300000D01*
X19755866Y-14296194D01*
X19739645Y-14285355D01*
X19728806Y-14269134D01*
X19725000Y-14250000D01*
X19725000Y-13650000D01*
X19728806Y-13630866D01*
X19739645Y-13614645D01*
X19755866Y-13603806D01*
X19775000Y-13600000D01*
X20825000Y-13600000D01*
X20844134Y-13603806D01*
G37*
G36*
X5419134Y-13553806D02*
G01*
X5435355Y-13564645D01*
X5446194Y-13580866D01*
X5450000Y-13600000D01*
X5450000Y-13900000D01*
X5446194Y-13919134D01*
X5435355Y-13935355D01*
X5419134Y-13946194D01*
X5400000Y-13950000D01*
X5100000Y-13950000D01*
X5080866Y-13946194D01*
X5064645Y-13935355D01*
X5053806Y-13919134D01*
X5050000Y-13900000D01*
X5050000Y-13600000D01*
X5053806Y-13580866D01*
X5064645Y-13564645D01*
X5080866Y-13553806D01*
X5100000Y-13550000D01*
X5400000Y-13550000D01*
X5419134Y-13553806D01*
G37*
G36*
X5919134Y-13553806D02*
G01*
X5935355Y-13564645D01*
X5946194Y-13580866D01*
X5950000Y-13600000D01*
X5950000Y-13900000D01*
X5946194Y-13919134D01*
X5935355Y-13935355D01*
X5919134Y-13946194D01*
X5900000Y-13950000D01*
X5600000Y-13950000D01*
X5580866Y-13946194D01*
X5564645Y-13935355D01*
X5553806Y-13919134D01*
X5550000Y-13900000D01*
X5550000Y-13600000D01*
X5553806Y-13580866D01*
X5564645Y-13564645D01*
X5580866Y-13553806D01*
X5600000Y-13550000D01*
X5900000Y-13550000D01*
X5919134Y-13553806D01*
G37*
G36*
X6419134Y-13553806D02*
G01*
X6435355Y-13564645D01*
X6446194Y-13580866D01*
X6450000Y-13600000D01*
X6450000Y-13900000D01*
X6446194Y-13919134D01*
X6435355Y-13935355D01*
X6419134Y-13946194D01*
X6400000Y-13950000D01*
X6100000Y-13950000D01*
X6080866Y-13946194D01*
X6064645Y-13935355D01*
X6053806Y-13919134D01*
X6050000Y-13900000D01*
X6050000Y-13600000D01*
X6053806Y-13580866D01*
X6064645Y-13564645D01*
X6080866Y-13553806D01*
X6100000Y-13550000D01*
X6400000Y-13550000D01*
X6419134Y-13553806D01*
G37*
G36*
X6919134Y-13553806D02*
G01*
X6935355Y-13564645D01*
X6946194Y-13580866D01*
X6950000Y-13600000D01*
X6950000Y-13900000D01*
X6946194Y-13919134D01*
X6935355Y-13935355D01*
X6919134Y-13946194D01*
X6900000Y-13950000D01*
X6600000Y-13950000D01*
X6580866Y-13946194D01*
X6564645Y-13935355D01*
X6553806Y-13919134D01*
X6550000Y-13900000D01*
X6550000Y-13600000D01*
X6553806Y-13580866D01*
X6564645Y-13564645D01*
X6580866Y-13553806D01*
X6600000Y-13550000D01*
X6900000Y-13550000D01*
X6919134Y-13553806D01*
G37*
G36*
X5419134Y-13053806D02*
G01*
X5435355Y-13064645D01*
X5446194Y-13080866D01*
X5450000Y-13100000D01*
X5450000Y-13400000D01*
X5446194Y-13419134D01*
X5435355Y-13435355D01*
X5419134Y-13446194D01*
X5400000Y-13450000D01*
X5100000Y-13450000D01*
X5080866Y-13446194D01*
X5064645Y-13435355D01*
X5053806Y-13419134D01*
X5050000Y-13400000D01*
X5050000Y-13100000D01*
X5053806Y-13080866D01*
X5064645Y-13064645D01*
X5080866Y-13053806D01*
X5100000Y-13050000D01*
X5400000Y-13050000D01*
X5419134Y-13053806D01*
G37*
G36*
X6919134Y-13053806D02*
G01*
X6935355Y-13064645D01*
X6946194Y-13080866D01*
X6950000Y-13100000D01*
X6950000Y-13400000D01*
X6946194Y-13419134D01*
X6935355Y-13435355D01*
X6919134Y-13446194D01*
X6900000Y-13450000D01*
X6600000Y-13450000D01*
X6580866Y-13446194D01*
X6564645Y-13435355D01*
X6553806Y-13419134D01*
X6550000Y-13400000D01*
X6550000Y-13100000D01*
X6553806Y-13080866D01*
X6564645Y-13064645D01*
X6580866Y-13053806D01*
X6600000Y-13050000D01*
X6900000Y-13050000D01*
X6919134Y-13053806D01*
G37*
G36*
X18244134Y-12653806D02*
G01*
X18260355Y-12664645D01*
X18271194Y-12680866D01*
X18275000Y-12700000D01*
X18275000Y-13300000D01*
X18271194Y-13319134D01*
X18260355Y-13335355D01*
X18244134Y-13346194D01*
X18225000Y-13350000D01*
X17175000Y-13350000D01*
X17155866Y-13346194D01*
X17139645Y-13335355D01*
X17128806Y-13319134D01*
X17125000Y-13300000D01*
X17125000Y-12700000D01*
X17128806Y-12680866D01*
X17139645Y-12664645D01*
X17155866Y-12653806D01*
X17175000Y-12650000D01*
X18225000Y-12650000D01*
X18244134Y-12653806D01*
G37*
G36*
X5419134Y-12553806D02*
G01*
X5435355Y-12564645D01*
X5446194Y-12580866D01*
X5450000Y-12600000D01*
X5450000Y-12900000D01*
X5446194Y-12919134D01*
X5435355Y-12935355D01*
X5419134Y-12946194D01*
X5400000Y-12950000D01*
X5100000Y-12950000D01*
X5080866Y-12946194D01*
X5064645Y-12935355D01*
X5053806Y-12919134D01*
X5050000Y-12900000D01*
X5050000Y-12600000D01*
X5053806Y-12580866D01*
X5064645Y-12564645D01*
X5080866Y-12553806D01*
X5100000Y-12550000D01*
X5400000Y-12550000D01*
X5419134Y-12553806D01*
G37*
G36*
X6919134Y-12553806D02*
G01*
X6935355Y-12564645D01*
X6946194Y-12580866D01*
X6950000Y-12600000D01*
X6950000Y-12900000D01*
X6946194Y-12919134D01*
X6935355Y-12935355D01*
X6919134Y-12946194D01*
X6900000Y-12950000D01*
X6600000Y-12950000D01*
X6580866Y-12946194D01*
X6564645Y-12935355D01*
X6553806Y-12919134D01*
X6550000Y-12900000D01*
X6550000Y-12600000D01*
X6553806Y-12580866D01*
X6564645Y-12564645D01*
X6580866Y-12553806D01*
X6600000Y-12550000D01*
X6900000Y-12550000D01*
X6919134Y-12553806D01*
G37*
G36*
X5419134Y-12053806D02*
G01*
X5435355Y-12064645D01*
X5446194Y-12080866D01*
X5450000Y-12100000D01*
X5450000Y-12400000D01*
X5446194Y-12419134D01*
X5435355Y-12435355D01*
X5419134Y-12446194D01*
X5400000Y-12450000D01*
X5100000Y-12450000D01*
X5080866Y-12446194D01*
X5064645Y-12435355D01*
X5053806Y-12419134D01*
X5050000Y-12400000D01*
X5050000Y-12100000D01*
X5053806Y-12080866D01*
X5064645Y-12064645D01*
X5080866Y-12053806D01*
X5100000Y-12050000D01*
X5400000Y-12050000D01*
X5419134Y-12053806D01*
G37*
G36*
X5919134Y-12053806D02*
G01*
X5935355Y-12064645D01*
X5946194Y-12080866D01*
X5950000Y-12100000D01*
X5950000Y-12400000D01*
X5946194Y-12419134D01*
X5935355Y-12435355D01*
X5919134Y-12446194D01*
X5900000Y-12450000D01*
X5600000Y-12450000D01*
X5580866Y-12446194D01*
X5564645Y-12435355D01*
X5553806Y-12419134D01*
X5550000Y-12400000D01*
X5550000Y-12100000D01*
X5553806Y-12080866D01*
X5564645Y-12064645D01*
X5580866Y-12053806D01*
X5600000Y-12050000D01*
X5900000Y-12050000D01*
X5919134Y-12053806D01*
G37*
G36*
X6419134Y-12053806D02*
G01*
X6435355Y-12064645D01*
X6446194Y-12080866D01*
X6450000Y-12100000D01*
X6450000Y-12400000D01*
X6446194Y-12419134D01*
X6435355Y-12435355D01*
X6419134Y-12446194D01*
X6400000Y-12450000D01*
X6100000Y-12450000D01*
X6080866Y-12446194D01*
X6064645Y-12435355D01*
X6053806Y-12419134D01*
X6050000Y-12400000D01*
X6050000Y-12100000D01*
X6053806Y-12080866D01*
X6064645Y-12064645D01*
X6080866Y-12053806D01*
X6100000Y-12050000D01*
X6400000Y-12050000D01*
X6419134Y-12053806D01*
G37*
G36*
X6919134Y-12053806D02*
G01*
X6935355Y-12064645D01*
X6946194Y-12080866D01*
X6950000Y-12100000D01*
X6950000Y-12400000D01*
X6946194Y-12419134D01*
X6935355Y-12435355D01*
X6919134Y-12446194D01*
X6900000Y-12450000D01*
X6600000Y-12450000D01*
X6580866Y-12446194D01*
X6564645Y-12435355D01*
X6553806Y-12419134D01*
X6550000Y-12400000D01*
X6550000Y-12100000D01*
X6553806Y-12080866D01*
X6564645Y-12064645D01*
X6580866Y-12053806D01*
X6600000Y-12050000D01*
X6900000Y-12050000D01*
X6919134Y-12053806D01*
G37*
G36*
X18244134Y-11703806D02*
G01*
X18260355Y-11714645D01*
X18271194Y-11730866D01*
X18275000Y-11750000D01*
X18275000Y-12350000D01*
X18271194Y-12369134D01*
X18260355Y-12385355D01*
X18244134Y-12396194D01*
X18225000Y-12400000D01*
X17175000Y-12400000D01*
X17155866Y-12396194D01*
X17139645Y-12385355D01*
X17128806Y-12369134D01*
X17125000Y-12350000D01*
X17125000Y-11750000D01*
X17128806Y-11730866D01*
X17139645Y-11714645D01*
X17155866Y-11703806D01*
X17175000Y-11700000D01*
X18225000Y-11700000D01*
X18244134Y-11703806D01*
G37*
G36*
X20844134Y-11703806D02*
G01*
X20860355Y-11714645D01*
X20871194Y-11730866D01*
X20875000Y-11750000D01*
X20875000Y-12350000D01*
X20871194Y-12369134D01*
X20860355Y-12385355D01*
X20844134Y-12396194D01*
X20825000Y-12400000D01*
X19775000Y-12400000D01*
X19755866Y-12396194D01*
X19739645Y-12385355D01*
X19728806Y-12369134D01*
X19725000Y-12350000D01*
X19725000Y-11750000D01*
X19728806Y-11730866D01*
X19739645Y-11714645D01*
X19755866Y-11703806D01*
X19775000Y-11700000D01*
X20825000Y-11700000D01*
X20844134Y-11703806D01*
G37*
G36*
X10619134Y-10628806D02*
G01*
X10635355Y-10639645D01*
X10646194Y-10655866D01*
X10650000Y-10675000D01*
X10650000Y-11125000D01*
X10646194Y-11144134D01*
X10635355Y-11160355D01*
X10619134Y-11171194D01*
X10600000Y-11175000D01*
X9900000Y-11175000D01*
X9880866Y-11171194D01*
X9864645Y-11160355D01*
X9853806Y-11144134D01*
X9850000Y-11125000D01*
X9850000Y-10675000D01*
X9853806Y-10655866D01*
X9864645Y-10639645D01*
X9880866Y-10628806D01*
X9900000Y-10625000D01*
X10600000Y-10625000D01*
X10619134Y-10628806D01*
G37*
G36*
X15119134Y-10628806D02*
G01*
X15135355Y-10639645D01*
X15146194Y-10655866D01*
X15150000Y-10675000D01*
X15150000Y-11125000D01*
X15146194Y-11144134D01*
X15135355Y-11160355D01*
X15119134Y-11171194D01*
X15100000Y-11175000D01*
X14400000Y-11175000D01*
X14380866Y-11171194D01*
X14364645Y-11160355D01*
X14353806Y-11144134D01*
X14350000Y-11125000D01*
X14350000Y-10675000D01*
X14353806Y-10655866D01*
X14364645Y-10639645D01*
X14380866Y-10628806D01*
X14400000Y-10625000D01*
X15100000Y-10625000D01*
X15119134Y-10628806D01*
G37*
G36*
X10619134Y-9828806D02*
G01*
X10635355Y-9839645D01*
X10646194Y-9855866D01*
X10650000Y-9875000D01*
X10650000Y-10325000D01*
X10646194Y-10344134D01*
X10635355Y-10360355D01*
X10619134Y-10371194D01*
X10600000Y-10375000D01*
X9900000Y-10375000D01*
X9880866Y-10371194D01*
X9864645Y-10360355D01*
X9853806Y-10344134D01*
X9850000Y-10325000D01*
X9850000Y-9875000D01*
X9853806Y-9855866D01*
X9864645Y-9839645D01*
X9880866Y-9828806D01*
X9900000Y-9825000D01*
X10600000Y-9825000D01*
X10619134Y-9828806D01*
G37*
G36*
X15119134Y-9828806D02*
G01*
X15135355Y-9839645D01*
X15146194Y-9855866D01*
X15150000Y-9875000D01*
X15150000Y-10325000D01*
X15146194Y-10344134D01*
X15135355Y-10360355D01*
X15119134Y-10371194D01*
X15100000Y-10375000D01*
X14400000Y-10375000D01*
X14380866Y-10371194D01*
X14364645Y-10360355D01*
X14353806Y-10344134D01*
X14350000Y-10325000D01*
X14350000Y-9875000D01*
X14353806Y-9855866D01*
X14364645Y-9839645D01*
X14380866Y-9828806D01*
X14400000Y-9825000D01*
X15100000Y-9825000D01*
X15119134Y-9828806D01*
G37*
G36*
X10619134Y-9028806D02*
G01*
X10635355Y-9039645D01*
X10646194Y-9055866D01*
X10650000Y-9075000D01*
X10650000Y-9525000D01*
X10646194Y-9544134D01*
X10635355Y-9560355D01*
X10619134Y-9571194D01*
X10600000Y-9575000D01*
X9900000Y-9575000D01*
X9880866Y-9571194D01*
X9864645Y-9560355D01*
X9853806Y-9544134D01*
X9850000Y-9525000D01*
X9850000Y-9075000D01*
X9853806Y-9055866D01*
X9864645Y-9039645D01*
X9880866Y-9028806D01*
X9900000Y-9025000D01*
X10600000Y-9025000D01*
X10619134Y-9028806D01*
G37*
G36*
X15119134Y-9028806D02*
G01*
X15135355Y-9039645D01*
X15146194Y-9055866D01*
X15150000Y-9075000D01*
X15150000Y-9525000D01*
X15146194Y-9544134D01*
X15135355Y-9560355D01*
X15119134Y-9571194D01*
X15100000Y-9575000D01*
X14400000Y-9575000D01*
X14380866Y-9571194D01*
X14364645Y-9560355D01*
X14353806Y-9544134D01*
X14350000Y-9525000D01*
X14350000Y-9075000D01*
X14353806Y-9055866D01*
X14364645Y-9039645D01*
X14380866Y-9028806D01*
X14400000Y-9025000D01*
X15100000Y-9025000D01*
X15119134Y-9028806D01*
G37*
G36*
X5244134Y-8603806D02*
G01*
X5260355Y-8614645D01*
X5271194Y-8630866D01*
X5275000Y-8650000D01*
X5275000Y-9250000D01*
X5271194Y-9269134D01*
X5260355Y-9285355D01*
X5244134Y-9296194D01*
X5225000Y-9300000D01*
X4175000Y-9300000D01*
X4155866Y-9296194D01*
X4139645Y-9285355D01*
X4128806Y-9269134D01*
X4125000Y-9250000D01*
X4125000Y-8650000D01*
X4128806Y-8630866D01*
X4139645Y-8614645D01*
X4155866Y-8603806D01*
X4175000Y-8600000D01*
X5225000Y-8600000D01*
X5244134Y-8603806D01*
G37*
G36*
X7844134Y-8603806D02*
G01*
X7860355Y-8614645D01*
X7871194Y-8630866D01*
X7875000Y-8650000D01*
X7875000Y-9250000D01*
X7871194Y-9269134D01*
X7860355Y-9285355D01*
X7844134Y-9296194D01*
X7825000Y-9300000D01*
X6775000Y-9300000D01*
X6755866Y-9296194D01*
X6739645Y-9285355D01*
X6728806Y-9269134D01*
X6725000Y-9250000D01*
X6725000Y-8650000D01*
X6728806Y-8630866D01*
X6739645Y-8614645D01*
X6755866Y-8603806D01*
X6775000Y-8600000D01*
X7825000Y-8600000D01*
X7844134Y-8603806D01*
G37*
G36*
X17969134Y-8578806D02*
G01*
X17985355Y-8589645D01*
X17996194Y-8605866D01*
X18000000Y-8625000D01*
X18000000Y-8875000D01*
X17996194Y-8894134D01*
X17985355Y-8910355D01*
X17969134Y-8921194D01*
X17950000Y-8925000D01*
X17050000Y-8925000D01*
X17030866Y-8921194D01*
X17014645Y-8910355D01*
X17003806Y-8894134D01*
X17000000Y-8875000D01*
X17000000Y-8625000D01*
X17003806Y-8605866D01*
X17014645Y-8589645D01*
X17030866Y-8578806D01*
X17050000Y-8575000D01*
X17950000Y-8575000D01*
X17969134Y-8578806D01*
G37*
G36*
X20969134Y-8578806D02*
G01*
X20985355Y-8589645D01*
X20996194Y-8605866D01*
X21000000Y-8625000D01*
X21000000Y-8875000D01*
X20996194Y-8894134D01*
X20985355Y-8910355D01*
X20969134Y-8921194D01*
X20950000Y-8925000D01*
X20050000Y-8925000D01*
X20030866Y-8921194D01*
X20014645Y-8910355D01*
X20003806Y-8894134D01*
X20000000Y-8875000D01*
X20000000Y-8625000D01*
X20003806Y-8605866D01*
X20014645Y-8589645D01*
X20030866Y-8578806D01*
X20050000Y-8575000D01*
X20950000Y-8575000D01*
X20969134Y-8578806D01*
G37*
G36*
X10619134Y-8228806D02*
G01*
X10635355Y-8239645D01*
X10646194Y-8255866D01*
X10650000Y-8275000D01*
X10650000Y-8725000D01*
X10646194Y-8744134D01*
X10635355Y-8760355D01*
X10619134Y-8771194D01*
X10600000Y-8775000D01*
X9900000Y-8775000D01*
X9880866Y-8771194D01*
X9864645Y-8760355D01*
X9853806Y-8744134D01*
X9850000Y-8725000D01*
X9850000Y-8275000D01*
X9853806Y-8255866D01*
X9864645Y-8239645D01*
X9880866Y-8228806D01*
X9900000Y-8225000D01*
X10600000Y-8225000D01*
X10619134Y-8228806D01*
G37*
G36*
X15119134Y-8228806D02*
G01*
X15135355Y-8239645D01*
X15146194Y-8255866D01*
X15150000Y-8275000D01*
X15150000Y-8725000D01*
X15146194Y-8744134D01*
X15135355Y-8760355D01*
X15119134Y-8771194D01*
X15100000Y-8775000D01*
X14400000Y-8775000D01*
X14380866Y-8771194D01*
X14364645Y-8760355D01*
X14353806Y-8744134D01*
X14350000Y-8725000D01*
X14350000Y-8275000D01*
X14353806Y-8255866D01*
X14364645Y-8239645D01*
X14380866Y-8228806D01*
X14400000Y-8225000D01*
X15100000Y-8225000D01*
X15119134Y-8228806D01*
G37*
G36*
X17969134Y-8078806D02*
G01*
X17985355Y-8089645D01*
X17996194Y-8105866D01*
X18000000Y-8125000D01*
X18000000Y-8375000D01*
X17996194Y-8394134D01*
X17985355Y-8410355D01*
X17969134Y-8421194D01*
X17950000Y-8425000D01*
X17050000Y-8425000D01*
X17030866Y-8421194D01*
X17014645Y-8410355D01*
X17003806Y-8394134D01*
X17000000Y-8375000D01*
X17000000Y-8125000D01*
X17003806Y-8105866D01*
X17014645Y-8089645D01*
X17030866Y-8078806D01*
X17050000Y-8075000D01*
X17950000Y-8075000D01*
X17969134Y-8078806D01*
G37*
G36*
X20969134Y-8078806D02*
G01*
X20985355Y-8089645D01*
X20996194Y-8105866D01*
X21000000Y-8125000D01*
X21000000Y-8375000D01*
X20996194Y-8394134D01*
X20985355Y-8410355D01*
X20969134Y-8421194D01*
X20950000Y-8425000D01*
X20050000Y-8425000D01*
X20030866Y-8421194D01*
X20014645Y-8410355D01*
X20003806Y-8394134D01*
X20000000Y-8375000D01*
X20000000Y-8125000D01*
X20003806Y-8105866D01*
X20014645Y-8089645D01*
X20030866Y-8078806D01*
X20050000Y-8075000D01*
X20950000Y-8075000D01*
X20969134Y-8078806D01*
G37*
G36*
X5244134Y-7653806D02*
G01*
X5260355Y-7664645D01*
X5271194Y-7680866D01*
X5275000Y-7700000D01*
X5275000Y-8300000D01*
X5271194Y-8319134D01*
X5260355Y-8335355D01*
X5244134Y-8346194D01*
X5225000Y-8350000D01*
X4175000Y-8350000D01*
X4155866Y-8346194D01*
X4139645Y-8335355D01*
X4128806Y-8319134D01*
X4125000Y-8300000D01*
X4125000Y-7700000D01*
X4128806Y-7680866D01*
X4139645Y-7664645D01*
X4155866Y-7653806D01*
X4175000Y-7650000D01*
X5225000Y-7650000D01*
X5244134Y-7653806D01*
G37*
G36*
X10619134Y-7428806D02*
G01*
X10635355Y-7439645D01*
X10646194Y-7455866D01*
X10650000Y-7475000D01*
X10650000Y-7925000D01*
X10646194Y-7944134D01*
X10635355Y-7960355D01*
X10619134Y-7971194D01*
X10600000Y-7975000D01*
X9900000Y-7975000D01*
X9880866Y-7971194D01*
X9864645Y-7960355D01*
X9853806Y-7944134D01*
X9850000Y-7925000D01*
X9850000Y-7475000D01*
X9853806Y-7455866D01*
X9864645Y-7439645D01*
X9880866Y-7428806D01*
X9900000Y-7425000D01*
X10600000Y-7425000D01*
X10619134Y-7428806D01*
G37*
G36*
X15119134Y-7428806D02*
G01*
X15135355Y-7439645D01*
X15146194Y-7455866D01*
X15150000Y-7475000D01*
X15150000Y-7925000D01*
X15146194Y-7944134D01*
X15135355Y-7960355D01*
X15119134Y-7971194D01*
X15100000Y-7975000D01*
X14400000Y-7975000D01*
X14380866Y-7971194D01*
X14364645Y-7960355D01*
X14353806Y-7944134D01*
X14350000Y-7925000D01*
X14350000Y-7475000D01*
X14353806Y-7455866D01*
X14364645Y-7439645D01*
X14380866Y-7428806D01*
X14400000Y-7425000D01*
X15100000Y-7425000D01*
X15119134Y-7428806D01*
G37*
G36*
X17969134Y-7578806D02*
G01*
X17985355Y-7589645D01*
X17996194Y-7605866D01*
X18000000Y-7625000D01*
X18000000Y-7875000D01*
X17996194Y-7894134D01*
X17985355Y-7910355D01*
X17969134Y-7921194D01*
X17950000Y-7925000D01*
X17050000Y-7925000D01*
X17030866Y-7921194D01*
X17014645Y-7910355D01*
X17003806Y-7894134D01*
X17000000Y-7875000D01*
X17000000Y-7625000D01*
X17003806Y-7605866D01*
X17014645Y-7589645D01*
X17030866Y-7578806D01*
X17050000Y-7575000D01*
X17950000Y-7575000D01*
X17969134Y-7578806D01*
G37*
G36*
X20969134Y-7578806D02*
G01*
X20985355Y-7589645D01*
X20996194Y-7605866D01*
X21000000Y-7625000D01*
X21000000Y-7875000D01*
X20996194Y-7894134D01*
X20985355Y-7910355D01*
X20969134Y-7921194D01*
X20950000Y-7925000D01*
X20050000Y-7925000D01*
X20030866Y-7921194D01*
X20014645Y-7910355D01*
X20003806Y-7894134D01*
X20000000Y-7875000D01*
X20000000Y-7625000D01*
X20003806Y-7605866D01*
X20014645Y-7589645D01*
X20030866Y-7578806D01*
X20050000Y-7575000D01*
X20950000Y-7575000D01*
X20969134Y-7578806D01*
G37*
G36*
X17969134Y-7078806D02*
G01*
X17985355Y-7089645D01*
X17996194Y-7105866D01*
X18000000Y-7125000D01*
X18000000Y-7375000D01*
X17996194Y-7394134D01*
X17985355Y-7410355D01*
X17969134Y-7421194D01*
X17950000Y-7425000D01*
X17050000Y-7425000D01*
X17030866Y-7421194D01*
X17014645Y-7410355D01*
X17003806Y-7394134D01*
X17000000Y-7375000D01*
X17000000Y-7125000D01*
X17003806Y-7105866D01*
X17014645Y-7089645D01*
X17030866Y-7078806D01*
X17050000Y-7075000D01*
X17950000Y-7075000D01*
X17969134Y-7078806D01*
G37*
G36*
X20969134Y-7078806D02*
G01*
X20985355Y-7089645D01*
X20996194Y-7105866D01*
X21000000Y-7125000D01*
X21000000Y-7375000D01*
X20996194Y-7394134D01*
X20985355Y-7410355D01*
X20969134Y-7421194D01*
X20950000Y-7425000D01*
X20050000Y-7425000D01*
X20030866Y-7421194D01*
X20014645Y-7410355D01*
X20003806Y-7394134D01*
X20000000Y-7375000D01*
X20000000Y-7125000D01*
X20003806Y-7105866D01*
X20014645Y-7089645D01*
X20030866Y-7078806D01*
X20050000Y-7075000D01*
X20950000Y-7075000D01*
X20969134Y-7078806D01*
G37*
G36*
X5244134Y-6703806D02*
G01*
X5260355Y-6714645D01*
X5271194Y-6730866D01*
X5275000Y-6750000D01*
X5275000Y-7350000D01*
X5271194Y-7369134D01*
X5260355Y-7385355D01*
X5244134Y-7396194D01*
X5225000Y-7400000D01*
X4175000Y-7400000D01*
X4155866Y-7396194D01*
X4139645Y-7385355D01*
X4128806Y-7369134D01*
X4125000Y-7350000D01*
X4125000Y-6750000D01*
X4128806Y-6730866D01*
X4139645Y-6714645D01*
X4155866Y-6703806D01*
X4175000Y-6700000D01*
X5225000Y-6700000D01*
X5244134Y-6703806D01*
G37*
G36*
X7844134Y-6703806D02*
G01*
X7860355Y-6714645D01*
X7871194Y-6730866D01*
X7875000Y-6750000D01*
X7875000Y-7350000D01*
X7871194Y-7369134D01*
X7860355Y-7385355D01*
X7844134Y-7396194D01*
X7825000Y-7400000D01*
X6775000Y-7400000D01*
X6755866Y-7396194D01*
X6739645Y-7385355D01*
X6728806Y-7369134D01*
X6725000Y-7350000D01*
X6725000Y-6750000D01*
X6728806Y-6730866D01*
X6739645Y-6714645D01*
X6755866Y-6703806D01*
X6775000Y-6700000D01*
X7825000Y-6700000D01*
X7844134Y-6703806D01*
G37*
G36*
X10619134Y-6628806D02*
G01*
X10635355Y-6639645D01*
X10646194Y-6655866D01*
X10650000Y-6675000D01*
X10650000Y-7125000D01*
X10646194Y-7144134D01*
X10635355Y-7160355D01*
X10619134Y-7171194D01*
X10600000Y-7175000D01*
X9900000Y-7175000D01*
X9880866Y-7171194D01*
X9864645Y-7160355D01*
X9853806Y-7144134D01*
X9850000Y-7125000D01*
X9850000Y-6675000D01*
X9853806Y-6655866D01*
X9864645Y-6639645D01*
X9880866Y-6628806D01*
X9900000Y-6625000D01*
X10600000Y-6625000D01*
X10619134Y-6628806D01*
G37*
G36*
X15119134Y-6628806D02*
G01*
X15135355Y-6639645D01*
X15146194Y-6655866D01*
X15150000Y-6675000D01*
X15150000Y-7125000D01*
X15146194Y-7144134D01*
X15135355Y-7160355D01*
X15119134Y-7171194D01*
X15100000Y-7175000D01*
X14400000Y-7175000D01*
X14380866Y-7171194D01*
X14364645Y-7160355D01*
X14353806Y-7144134D01*
X14350000Y-7125000D01*
X14350000Y-6675000D01*
X14353806Y-6655866D01*
X14364645Y-6639645D01*
X14380866Y-6628806D01*
X14400000Y-6625000D01*
X15100000Y-6625000D01*
X15119134Y-6628806D01*
G37*
G36*
X10619134Y-5828806D02*
G01*
X10635355Y-5839645D01*
X10646194Y-5855866D01*
X10650000Y-5875000D01*
X10650000Y-6325000D01*
X10646194Y-6344134D01*
X10635355Y-6360355D01*
X10619134Y-6371194D01*
X10600000Y-6375000D01*
X9900000Y-6375000D01*
X9880866Y-6371194D01*
X9864645Y-6360355D01*
X9853806Y-6344134D01*
X9850000Y-6325000D01*
X9850000Y-5875000D01*
X9853806Y-5855866D01*
X9864645Y-5839645D01*
X9880866Y-5828806D01*
X9900000Y-5825000D01*
X10600000Y-5825000D01*
X10619134Y-5828806D01*
G37*
G36*
X15119134Y-5828806D02*
G01*
X15135355Y-5839645D01*
X15146194Y-5855866D01*
X15150000Y-5875000D01*
X15150000Y-6325000D01*
X15146194Y-6344134D01*
X15135355Y-6360355D01*
X15119134Y-6371194D01*
X15100000Y-6375000D01*
X14400000Y-6375000D01*
X14380866Y-6371194D01*
X14364645Y-6360355D01*
X14353806Y-6344134D01*
X14350000Y-6325000D01*
X14350000Y-5875000D01*
X14353806Y-5855866D01*
X14364645Y-5839645D01*
X14380866Y-5828806D01*
X14400000Y-5825000D01*
X15100000Y-5825000D01*
X15119134Y-5828806D01*
G37*
G36*
X18819134Y-4653806D02*
G01*
X18835355Y-4664645D01*
X18846194Y-4680866D01*
X18850000Y-4700000D01*
X18850000Y-5300000D01*
X18846194Y-5319134D01*
X18835355Y-5335355D01*
X18819134Y-5346194D01*
X18800000Y-5350000D01*
X18200000Y-5350000D01*
X18180866Y-5346194D01*
X18164645Y-5335355D01*
X18153806Y-5319134D01*
X18150000Y-5300000D01*
X18150000Y-4700000D01*
X18153806Y-4680866D01*
X18164645Y-4664645D01*
X18180866Y-4653806D01*
X18200000Y-4650000D01*
X18800000Y-4650000D01*
X18819134Y-4653806D01*
G37*
G36*
X19819134Y-4653806D02*
G01*
X19835355Y-4664645D01*
X19846194Y-4680866D01*
X19850000Y-4700000D01*
X19850000Y-5300000D01*
X19846194Y-5319134D01*
X19835355Y-5335355D01*
X19819134Y-5346194D01*
X19800000Y-5350000D01*
X19200000Y-5350000D01*
X19180866Y-5346194D01*
X19164645Y-5335355D01*
X19153806Y-5319134D01*
X19150000Y-5300000D01*
X19150000Y-4700000D01*
X19153806Y-4680866D01*
X19164645Y-4664645D01*
X19180866Y-4653806D01*
X19200000Y-4650000D01*
X19800000Y-4650000D01*
X19819134Y-4653806D01*
G37*
G36*
X15569134Y-2553806D02*
G01*
X15585355Y-2564645D01*
X15596194Y-2580866D01*
X15600000Y-2600000D01*
X15600000Y-3400000D01*
X15596194Y-3419134D01*
X15585355Y-3435355D01*
X15569134Y-3446194D01*
X15550000Y-3450000D01*
X14750000Y-3450000D01*
X14730866Y-3446194D01*
X14714645Y-3435355D01*
X14703806Y-3419134D01*
X14700000Y-3400000D01*
X14700000Y-2600000D01*
X14703806Y-2580866D01*
X14714645Y-2564645D01*
X14730866Y-2553806D01*
X14750000Y-2550000D01*
X15550000Y-2550000D01*
X15569134Y-2553806D01*
G37*
G36*
X17269134Y-2553806D02*
G01*
X17285355Y-2564645D01*
X17296194Y-2580866D01*
X17300000Y-2600000D01*
X17300000Y-3400000D01*
X17296194Y-3419134D01*
X17285355Y-3435355D01*
X17269134Y-3446194D01*
X17250000Y-3450000D01*
X16450000Y-3450000D01*
X16430866Y-3446194D01*
X16414645Y-3435355D01*
X16403806Y-3419134D01*
X16400000Y-3400000D01*
X16400000Y-2600000D01*
X16403806Y-2580866D01*
X16414645Y-2564645D01*
X16430866Y-2553806D01*
X16450000Y-2550000D01*
X17250000Y-2550000D01*
X17269134Y-2553806D01*
G37*
G36*
X8819134Y-2653806D02*
G01*
X8835355Y-2664645D01*
X8846194Y-2680866D01*
X8850000Y-2700000D01*
X8850000Y-3300000D01*
X8846194Y-3319134D01*
X8835355Y-3335355D01*
X8819134Y-3346194D01*
X8800000Y-3350000D01*
X8200000Y-3350000D01*
X8180866Y-3346194D01*
X8164645Y-3335355D01*
X8153806Y-3319134D01*
X8150000Y-3300000D01*
X8150000Y-2700000D01*
X8153806Y-2680866D01*
X8164645Y-2664645D01*
X8180866Y-2653806D01*
X8200000Y-2650000D01*
X8800000Y-2650000D01*
X8819134Y-2653806D01*
G37*
G36*
X9819134Y-2653806D02*
G01*
X9835355Y-2664645D01*
X9846194Y-2680866D01*
X9850000Y-2700000D01*
X9850000Y-3300000D01*
X9846194Y-3319134D01*
X9835355Y-3335355D01*
X9819134Y-3346194D01*
X9800000Y-3350000D01*
X9200000Y-3350000D01*
X9180866Y-3346194D01*
X9164645Y-3335355D01*
X9153806Y-3319134D01*
X9150000Y-3300000D01*
X9150000Y-2700000D01*
X9153806Y-2680866D01*
X9164645Y-2664645D01*
X9180866Y-2653806D01*
X9200000Y-2650000D01*
X9800000Y-2650000D01*
X9819134Y-2653806D01*
G37*
G36*
X18819134Y-2653806D02*
G01*
X18835355Y-2664645D01*
X18846194Y-2680866D01*
X18850000Y-2700000D01*
X18850000Y-3300000D01*
X18846194Y-3319134D01*
X18835355Y-3335355D01*
X18819134Y-3346194D01*
X18800000Y-3350000D01*
X18200000Y-3350000D01*
X18180866Y-3346194D01*
X18164645Y-3335355D01*
X18153806Y-3319134D01*
X18150000Y-3300000D01*
X18150000Y-2700000D01*
X18153806Y-2680866D01*
X18164645Y-2664645D01*
X18180866Y-2653806D01*
X18200000Y-2650000D01*
X18800000Y-2650000D01*
X18819134Y-2653806D01*
G37*
G36*
X19819134Y-2653806D02*
G01*
X19835355Y-2664645D01*
X19846194Y-2680866D01*
X19850000Y-2700000D01*
X19850000Y-3300000D01*
X19846194Y-3319134D01*
X19835355Y-3335355D01*
X19819134Y-3346194D01*
X19800000Y-3350000D01*
X19200000Y-3350000D01*
X19180866Y-3346194D01*
X19164645Y-3335355D01*
X19153806Y-3319134D01*
X19150000Y-3300000D01*
X19150000Y-2700000D01*
X19153806Y-2680866D01*
X19164645Y-2664645D01*
X19180866Y-2653806D01*
X19200000Y-2650000D01*
X19800000Y-2650000D01*
X19819134Y-2653806D01*
G37*
G36*
X5819134Y-2753806D02*
G01*
X5835355Y-2764645D01*
X5846194Y-2780866D01*
X5850000Y-2800000D01*
X5850000Y-3200000D01*
X5846194Y-3219134D01*
X5835355Y-3235355D01*
X5819134Y-3246194D01*
X5800000Y-3250000D01*
X5400000Y-3250000D01*
X5380866Y-3246194D01*
X5364645Y-3235355D01*
X5353806Y-3219134D01*
X5350000Y-3200000D01*
X5350000Y-2800000D01*
X5353806Y-2780866D01*
X5364645Y-2764645D01*
X5380866Y-2753806D01*
X5400000Y-2750000D01*
X5800000Y-2750000D01*
X5819134Y-2753806D01*
G37*
G36*
X6619134Y-2753806D02*
G01*
X6635355Y-2764645D01*
X6646194Y-2780866D01*
X6650000Y-2800000D01*
X6650000Y-3200000D01*
X6646194Y-3219134D01*
X6635355Y-3235355D01*
X6619134Y-3246194D01*
X6600000Y-3250000D01*
X6200000Y-3250000D01*
X6180866Y-3246194D01*
X6164645Y-3235355D01*
X6153806Y-3219134D01*
X6150000Y-3200000D01*
X6150000Y-2800000D01*
X6153806Y-2780866D01*
X6164645Y-2764645D01*
X6180866Y-2753806D01*
X6200000Y-2750000D01*
X6600000Y-2750000D01*
X6619134Y-2753806D01*
G37*
M02*
