%TF.GenerationSoftware,KiCad,Pcbnew,10.0.5*%
%TF.CreationDate,2026-08-17T19:03:23-04:00*%
%TF.ProjectId,circle-ppg,63697263-6c65-42d7-9070-672e6b696361,rev?*%
%TF.SameCoordinates,Original*%
%TF.FileFunction,Copper,L1,Top*%
%TF.FilePolarity,Positive*%
%FSLAX46Y46*%
G04 Gerber Fmt 4.6, Leading zero omitted, Abs format (unit mm)*
G04 Created by KiCad (PCBNEW 10.0.5) date 2026-08-17 19:03:23*
%MOMM*%
%LPD*%
G01*
G04 APERTURE LIST*
%TA.AperFunction,SMDPad,CuDef*%
%ADD10R,0.450000X1.000000*%
%TD*%
%TA.AperFunction,SMDPad,CuDef*%
%ADD11R,0.400000X0.250000*%
%TD*%
%TA.AperFunction,SMDPad,CuDef*%
%ADD12R,0.400000X0.650000*%
%TD*%
%TA.AperFunction,SMDPad,CuDef*%
%ADD13R,0.400000X0.200000*%
%TD*%
%TA.AperFunction,SMDPad,CuDef*%
%ADD14R,0.200000X0.200000*%
%TD*%
%TA.AperFunction,SMDPad,CuDef*%
%ADD15R,0.400000X0.450000*%
%TD*%
G04 APERTURE END LIST*
D10*
%TO.P,J101,1*%
%TO.N,PPG_3V3*%
X17300000Y-14500000D03*
%TO.P,J101,2*%
%TO.N,PPG_LED_PWR*%
X16100000Y-14500000D03*
%TO.P,J101,3*%
%TO.N,PPG_SDA_3V3*%
X14900000Y-14500000D03*
%TO.P,J101,4*%
%TO.N,PPG_SCL_3V3*%
X13700000Y-14500000D03*
%TO.P,J101,5*%
%TO.N,PPG_INT*%
X12500000Y-14500000D03*
%TO.P,J101,6*%
%TO.N,PPG_MOTION_INT*%
X11300000Y-14500000D03*
%TO.P,J101,7*%
%TO.N,PPG_BOARD_ID*%
X10100000Y-14500000D03*
%TO.P,J101,8*%
%TO.N,PPG_LOGIC_GND*%
X8900000Y-14500000D03*
%TO.P,J101,9*%
%TO.N,PPG_LED_GND*%
X7700000Y-14500000D03*
%TD*%
D11*
%TO.P,U101,1*%
%TO.N,PPG_LOGIC_GND*%
X11100000Y-5600000D03*
%TO.P,U101,2*%
%TO.N,PPG_1V8*%
X11100000Y-6400000D03*
%TO.P,U101,3*%
X11100000Y-7200000D03*
%TO.P,U101,4*%
%TO.N,PPG_SDA_1V8*%
X11100000Y-8000000D03*
%TO.P,U101,5*%
%TO.N,PPG_SCL_1V8*%
X11100000Y-8800000D03*
%TO.P,U101,6*%
%TO.N,PPG_INT*%
X11100000Y-9600000D03*
%TO.P,U101,7*%
%TO.N,PPG_LOGIC_GND*%
X11100000Y-10400000D03*
%TO.P,U101,8*%
X13900000Y-10400000D03*
%TO.P,U101,9*%
X13900000Y-9600000D03*
%TO.P,U101,10*%
%TO.N,PPG_LED_PWR*%
X13900000Y-8800000D03*
%TO.P,U101,11*%
%TO.N,PPG_LED_GND*%
X13900000Y-8000000D03*
%TO.P,U101,12*%
X13900000Y-7200000D03*
%TO.P,U101,13*%
X13900000Y-6400000D03*
%TO.P,U101,14*%
%TO.N,PPG_LOGIC_GND*%
X13900000Y-5600000D03*
%TD*%
D12*
%TO.P,U102,1*%
%TO.N,PPG_3V3*%
X4450000Y-7050000D03*
%TO.P,U102,2*%
%TO.N,PPG_LOGIC_GND*%
X4450000Y-8950000D03*
%TO.P,U102,3*%
%TO.N,PPG_3V3*%
X6550000Y-7050000D03*
%TO.P,U102,4*%
%TO.N,PPG_LOGIC_GND*%
X6550000Y-8000000D03*
%TO.P,U102,5*%
%TO.N,PPG_1V8*%
X6550000Y-8950000D03*
%TD*%
D13*
%TO.P,U103,1*%
%TO.N,PPG_1V8*%
X18350000Y-7250000D03*
%TO.P,U103,2*%
%TO.N,PPG_SDA_1V8*%
X18350000Y-7750000D03*
%TO.P,U103,3*%
%TO.N,PPG_SCL_1V8*%
X18350000Y-8250000D03*
%TO.P,U103,4*%
%TO.N,PPG_LOGIC_GND*%
X18350000Y-8750000D03*
%TO.P,U103,5*%
%TO.N,PPG_3V3*%
X20650000Y-8750000D03*
%TO.P,U103,6*%
%TO.N,PPG_SCL_3V3*%
X20650000Y-8250000D03*
%TO.P,U103,7*%
%TO.N,PPG_SDA_3V3*%
X20650000Y-7750000D03*
%TO.P,U103,8*%
%TO.N,PPG_3V3*%
X20650000Y-7250000D03*
%TD*%
D12*
%TO.P,U104,1*%
%TO.N,PPG_SCL_3V3*%
X18450000Y-11550000D03*
%TO.P,U104,2*%
%TO.N,PPG_LOGIC_GND*%
X18450000Y-13450000D03*
%TO.P,U104,3*%
%TO.N,PPG_SDA_3V3*%
X20550000Y-11550000D03*
%TO.P,U104,4*%
%TO.N,PPG_LOGIC_GND*%
X20550000Y-12500000D03*
%TO.P,U104,5*%
%TO.N,PPG_3V3*%
X20550000Y-13450000D03*
%TD*%
D14*
%TO.P,U105,1*%
%TO.N,PPG_LOGIC_GND*%
X4750000Y-11750000D03*
%TO.P,U105,2*%
X5250000Y-11750000D03*
%TO.P,U105,3*%
X5750000Y-11750000D03*
%TO.P,U105,4*%
X6250000Y-11750000D03*
%TO.P,U105,5*%
X4750000Y-12500000D03*
%TO.P,U105,6*%
X5250000Y-12500000D03*
%TO.P,U105,7*%
X5750000Y-12500000D03*
%TO.P,U105,8*%
X6250000Y-12500000D03*
%TO.P,U105,9*%
X4750000Y-13250000D03*
%TO.P,U105,10*%
X5250000Y-13250000D03*
%TO.P,U105,11*%
X5750000Y-13250000D03*
%TO.P,U105,12*%
X6250000Y-13250000D03*
%TD*%
D15*
%TO.P,D101,1*%
%TO.N,PPG_3V3*%
X4950000Y-3500000D03*
%TO.P,D101,2*%
%TO.N,PPG_LOGIC_GND*%
X6050000Y-3500000D03*
%TD*%
%TO.P,R101,1*%
%TO.N,PPG_SDA_3V3*%
X16950000Y-3500000D03*
%TO.P,R101,2*%
X18050000Y-3500000D03*
%TD*%
%TO.P,R102,1*%
%TO.N,PPG_SCL_3V3*%
X19950000Y-3500000D03*
%TO.P,R102,2*%
X21050000Y-3500000D03*
%TD*%
%TO.P,C101,1*%
%TO.N,PPG_1V8*%
X8450000Y-3500000D03*
%TO.P,C101,2*%
%TO.N,PPG_LOGIC_GND*%
X9550000Y-3500000D03*
%TD*%
%TO.P,C102,1*%
%TO.N,PPG_LED_PWR*%
X11450000Y-3500000D03*
%TO.P,C102,2*%
%TO.N,PPG_LED_GND*%
X12550000Y-3500000D03*
%TD*%
M02*
