%TF.GenerationSoftware,KiCad,Pcbnew,10.0.5*%
%TF.CreationDate,2026-08-17T19:03:23-04:00*%
%TF.ProjectId,circle-ppg,63697263-6c65-42d7-9070-672e6b696361,rev?*%
%TF.SameCoordinates,Original*%
%TF.FileFunction,AssemblyDrawing,Top*%
%FSLAX46Y46*%
G04 Gerber Fmt 4.6, Leading zero omitted, Abs format (unit mm)*
G04 Created by KiCad (PCBNEW 10.0.5) date 2026-08-17 19:03:23*
%MOMM*%
%LPD*%
G01*
G04 APERTURE LIST*
%ADD10C,0.150000*%
G04 APERTURE END LIST*
D10*
X9484523Y-13285427D02*
X9484523Y-12435427D01*
X9484523Y-12435427D02*
X9808333Y-12435427D01*
X9808333Y-12435427D02*
X9889285Y-12475903D01*
X9889285Y-12475903D02*
X9929762Y-12516379D01*
X9929762Y-12516379D02*
X9970238Y-12597331D01*
X9970238Y-12597331D02*
X9970238Y-12718760D01*
X9970238Y-12718760D02*
X9929762Y-12799712D01*
X9929762Y-12799712D02*
X9889285Y-12840189D01*
X9889285Y-12840189D02*
X9808333Y-12880665D01*
X9808333Y-12880665D02*
X9484523Y-12880665D01*
X10334523Y-13285427D02*
X10334523Y-12435427D01*
X10334523Y-12435427D02*
X10658333Y-12435427D01*
X10658333Y-12435427D02*
X10739285Y-12475903D01*
X10739285Y-12475903D02*
X10779762Y-12516379D01*
X10779762Y-12516379D02*
X10820238Y-12597331D01*
X10820238Y-12597331D02*
X10820238Y-12718760D01*
X10820238Y-12718760D02*
X10779762Y-12799712D01*
X10779762Y-12799712D02*
X10739285Y-12840189D01*
X10739285Y-12840189D02*
X10658333Y-12880665D01*
X10658333Y-12880665D02*
X10334523Y-12880665D01*
X11629762Y-12475903D02*
X11548809Y-12435427D01*
X11548809Y-12435427D02*
X11427381Y-12435427D01*
X11427381Y-12435427D02*
X11305952Y-12475903D01*
X11305952Y-12475903D02*
X11225000Y-12556855D01*
X11225000Y-12556855D02*
X11184523Y-12637808D01*
X11184523Y-12637808D02*
X11144047Y-12799712D01*
X11144047Y-12799712D02*
X11144047Y-12921141D01*
X11144047Y-12921141D02*
X11184523Y-13083046D01*
X11184523Y-13083046D02*
X11225000Y-13163998D01*
X11225000Y-13163998D02*
X11305952Y-13244951D01*
X11305952Y-13244951D02*
X11427381Y-13285427D01*
X11427381Y-13285427D02*
X11508333Y-13285427D01*
X11508333Y-13285427D02*
X11629762Y-13244951D01*
X11629762Y-13244951D02*
X11670238Y-13204474D01*
X11670238Y-13204474D02*
X11670238Y-12921141D01*
X11670238Y-12921141D02*
X11508333Y-12921141D01*
X11832143Y-13366379D02*
X12479762Y-13366379D01*
X12682142Y-13285427D02*
X12682142Y-12435427D01*
X12682142Y-12840189D02*
X13167857Y-12840189D01*
X13167857Y-13285427D02*
X13167857Y-12435427D01*
X13572618Y-12840189D02*
X13855952Y-12840189D01*
X13977380Y-13285427D02*
X13572618Y-13285427D01*
X13572618Y-13285427D02*
X13572618Y-12435427D01*
X13572618Y-12435427D02*
X13977380Y-12435427D01*
X14301190Y-13042570D02*
X14705952Y-13042570D01*
X14220238Y-13285427D02*
X14503571Y-12435427D01*
X14503571Y-12435427D02*
X14786905Y-13285427D01*
X15070237Y-13285427D02*
X15070237Y-12435427D01*
X15070237Y-12435427D02*
X15272618Y-12435427D01*
X15272618Y-12435427D02*
X15394047Y-12475903D01*
X15394047Y-12475903D02*
X15474999Y-12556855D01*
X15474999Y-12556855D02*
X15515476Y-12637808D01*
X15515476Y-12637808D02*
X15555952Y-12799712D01*
X15555952Y-12799712D02*
X15555952Y-12921141D01*
X15555952Y-12921141D02*
X15515476Y-13083046D01*
X15515476Y-13083046D02*
X15474999Y-13163998D01*
X15474999Y-13163998D02*
X15394047Y-13244951D01*
X15394047Y-13244951D02*
X15272618Y-13285427D01*
X15272618Y-13285427D02*
X15070237Y-13285427D01*
X9423808Y-4985427D02*
X9423808Y-4135427D01*
X9423808Y-4135427D02*
X9707142Y-4742570D01*
X9707142Y-4742570D02*
X9990475Y-4135427D01*
X9990475Y-4135427D02*
X9990475Y-4985427D01*
X10354761Y-4742570D02*
X10759523Y-4742570D01*
X10273809Y-4985427D02*
X10557142Y-4135427D01*
X10557142Y-4135427D02*
X10840476Y-4985427D01*
X11042856Y-4135427D02*
X11609523Y-4985427D01*
X11609523Y-4135427D02*
X11042856Y-4985427D01*
X11852380Y-4135427D02*
X12378571Y-4135427D01*
X12378571Y-4135427D02*
X12095237Y-4459236D01*
X12095237Y-4459236D02*
X12216666Y-4459236D01*
X12216666Y-4459236D02*
X12297618Y-4499712D01*
X12297618Y-4499712D02*
X12338094Y-4540189D01*
X12338094Y-4540189D02*
X12378571Y-4621141D01*
X12378571Y-4621141D02*
X12378571Y-4823522D01*
X12378571Y-4823522D02*
X12338094Y-4904474D01*
X12338094Y-4904474D02*
X12297618Y-4944951D01*
X12297618Y-4944951D02*
X12216666Y-4985427D01*
X12216666Y-4985427D02*
X11973809Y-4985427D01*
X11973809Y-4985427D02*
X11892856Y-4944951D01*
X11892856Y-4944951D02*
X11852380Y-4904474D01*
X12904761Y-4135427D02*
X12985714Y-4135427D01*
X12985714Y-4135427D02*
X13066666Y-4175903D01*
X13066666Y-4175903D02*
X13107142Y-4216379D01*
X13107142Y-4216379D02*
X13147618Y-4297331D01*
X13147618Y-4297331D02*
X13188095Y-4459236D01*
X13188095Y-4459236D02*
X13188095Y-4661617D01*
X13188095Y-4661617D02*
X13147618Y-4823522D01*
X13147618Y-4823522D02*
X13107142Y-4904474D01*
X13107142Y-4904474D02*
X13066666Y-4944951D01*
X13066666Y-4944951D02*
X12985714Y-4985427D01*
X12985714Y-4985427D02*
X12904761Y-4985427D01*
X12904761Y-4985427D02*
X12823809Y-4944951D01*
X12823809Y-4944951D02*
X12783333Y-4904474D01*
X12783333Y-4904474D02*
X12742856Y-4823522D01*
X12742856Y-4823522D02*
X12702380Y-4661617D01*
X12702380Y-4661617D02*
X12702380Y-4459236D01*
X12702380Y-4459236D02*
X12742856Y-4297331D01*
X12742856Y-4297331D02*
X12783333Y-4216379D01*
X12783333Y-4216379D02*
X12823809Y-4175903D01*
X12823809Y-4175903D02*
X12904761Y-4135427D01*
X13997619Y-4985427D02*
X13511904Y-4985427D01*
X13754761Y-4985427D02*
X13754761Y-4135427D01*
X13754761Y-4135427D02*
X13673809Y-4256855D01*
X13673809Y-4256855D02*
X13592857Y-4337808D01*
X13592857Y-4337808D02*
X13511904Y-4378284D01*
X14523809Y-4135427D02*
X14604762Y-4135427D01*
X14604762Y-4135427D02*
X14685714Y-4175903D01*
X14685714Y-4175903D02*
X14726190Y-4216379D01*
X14726190Y-4216379D02*
X14766666Y-4297331D01*
X14766666Y-4297331D02*
X14807143Y-4459236D01*
X14807143Y-4459236D02*
X14807143Y-4661617D01*
X14807143Y-4661617D02*
X14766666Y-4823522D01*
X14766666Y-4823522D02*
X14726190Y-4904474D01*
X14726190Y-4904474D02*
X14685714Y-4944951D01*
X14685714Y-4944951D02*
X14604762Y-4985427D01*
X14604762Y-4985427D02*
X14523809Y-4985427D01*
X14523809Y-4985427D02*
X14442857Y-4944951D01*
X14442857Y-4944951D02*
X14402381Y-4904474D01*
X14402381Y-4904474D02*
X14361904Y-4823522D01*
X14361904Y-4823522D02*
X14321428Y-4661617D01*
X14321428Y-4661617D02*
X14321428Y-4459236D01*
X14321428Y-4459236D02*
X14361904Y-4297331D01*
X14361904Y-4297331D02*
X14402381Y-4216379D01*
X14402381Y-4216379D02*
X14442857Y-4175903D01*
X14442857Y-4175903D02*
X14523809Y-4135427D01*
X15130952Y-4216379D02*
X15171428Y-4175903D01*
X15171428Y-4175903D02*
X15252381Y-4135427D01*
X15252381Y-4135427D02*
X15454762Y-4135427D01*
X15454762Y-4135427D02*
X15535714Y-4175903D01*
X15535714Y-4175903D02*
X15576190Y-4216379D01*
X15576190Y-4216379D02*
X15616667Y-4297331D01*
X15616667Y-4297331D02*
X15616667Y-4378284D01*
X15616667Y-4378284D02*
X15576190Y-4499712D01*
X15576190Y-4499712D02*
X15090476Y-4985427D01*
X15090476Y-4985427D02*
X15616667Y-4985427D01*
X926189Y-10185427D02*
X521427Y-10185427D01*
X521427Y-10185427D02*
X521427Y-9335427D01*
X1209522Y-10185427D02*
X1209522Y-9335427D01*
X1209522Y-9335427D02*
X1533332Y-9335427D01*
X1533332Y-9335427D02*
X1614284Y-9375903D01*
X1614284Y-9375903D02*
X1654761Y-9416379D01*
X1654761Y-9416379D02*
X1695237Y-9497331D01*
X1695237Y-9497331D02*
X1695237Y-9618760D01*
X1695237Y-9618760D02*
X1654761Y-9699712D01*
X1654761Y-9699712D02*
X1614284Y-9740189D01*
X1614284Y-9740189D02*
X1533332Y-9780665D01*
X1533332Y-9780665D02*
X1209522Y-9780665D01*
X2464284Y-9335427D02*
X2059522Y-9335427D01*
X2059522Y-9335427D02*
X2019046Y-9740189D01*
X2019046Y-9740189D02*
X2059522Y-9699712D01*
X2059522Y-9699712D02*
X2140475Y-9659236D01*
X2140475Y-9659236D02*
X2342856Y-9659236D01*
X2342856Y-9659236D02*
X2423808Y-9699712D01*
X2423808Y-9699712D02*
X2464284Y-9740189D01*
X2464284Y-9740189D02*
X2504761Y-9821141D01*
X2504761Y-9821141D02*
X2504761Y-10023522D01*
X2504761Y-10023522D02*
X2464284Y-10104474D01*
X2464284Y-10104474D02*
X2423808Y-10144951D01*
X2423808Y-10144951D02*
X2342856Y-10185427D01*
X2342856Y-10185427D02*
X2140475Y-10185427D01*
X2140475Y-10185427D02*
X2059522Y-10144951D01*
X2059522Y-10144951D02*
X2019046Y-10104474D01*
X2909523Y-10185427D02*
X3071427Y-10185427D01*
X3071427Y-10185427D02*
X3152380Y-10144951D01*
X3152380Y-10144951D02*
X3192856Y-10104474D01*
X3192856Y-10104474D02*
X3273808Y-9983046D01*
X3273808Y-9983046D02*
X3314285Y-9821141D01*
X3314285Y-9821141D02*
X3314285Y-9497331D01*
X3314285Y-9497331D02*
X3273808Y-9416379D01*
X3273808Y-9416379D02*
X3233332Y-9375903D01*
X3233332Y-9375903D02*
X3152380Y-9335427D01*
X3152380Y-9335427D02*
X2990475Y-9335427D01*
X2990475Y-9335427D02*
X2909523Y-9375903D01*
X2909523Y-9375903D02*
X2869046Y-9416379D01*
X2869046Y-9416379D02*
X2828570Y-9497331D01*
X2828570Y-9497331D02*
X2828570Y-9699712D01*
X2828570Y-9699712D02*
X2869046Y-9780665D01*
X2869046Y-9780665D02*
X2909523Y-9821141D01*
X2909523Y-9821141D02*
X2990475Y-9861617D01*
X2990475Y-9861617D02*
X3152380Y-9861617D01*
X3152380Y-9861617D02*
X3233332Y-9821141D01*
X3233332Y-9821141D02*
X3273808Y-9780665D01*
X3273808Y-9780665D02*
X3314285Y-9699712D01*
X3840475Y-9335427D02*
X3921428Y-9335427D01*
X3921428Y-9335427D02*
X4002380Y-9375903D01*
X4002380Y-9375903D02*
X4042856Y-9416379D01*
X4042856Y-9416379D02*
X4083332Y-9497331D01*
X4083332Y-9497331D02*
X4123809Y-9659236D01*
X4123809Y-9659236D02*
X4123809Y-9861617D01*
X4123809Y-9861617D02*
X4083332Y-10023522D01*
X4083332Y-10023522D02*
X4042856Y-10104474D01*
X4042856Y-10104474D02*
X4002380Y-10144951D01*
X4002380Y-10144951D02*
X3921428Y-10185427D01*
X3921428Y-10185427D02*
X3840475Y-10185427D01*
X3840475Y-10185427D02*
X3759523Y-10144951D01*
X3759523Y-10144951D02*
X3719047Y-10104474D01*
X3719047Y-10104474D02*
X3678570Y-10023522D01*
X3678570Y-10023522D02*
X3638094Y-9861617D01*
X3638094Y-9861617D02*
X3638094Y-9659236D01*
X3638094Y-9659236D02*
X3678570Y-9497331D01*
X3678570Y-9497331D02*
X3719047Y-9416379D01*
X3719047Y-9416379D02*
X3759523Y-9375903D01*
X3759523Y-9375903D02*
X3840475Y-9335427D01*
X4407142Y-9335427D02*
X4973809Y-9335427D01*
X4973809Y-9335427D02*
X4609523Y-10185427D01*
X5297618Y-10185427D02*
X5297618Y-9335427D01*
X5297618Y-9335427D02*
X5580952Y-9942570D01*
X5580952Y-9942570D02*
X5864285Y-9335427D01*
X5864285Y-9335427D02*
X5864285Y-10185427D01*
X6552381Y-9740189D02*
X6269047Y-9740189D01*
X6269047Y-10185427D02*
X6269047Y-9335427D01*
X6269047Y-9335427D02*
X6673809Y-9335427D01*
X6916666Y-9335427D02*
X7483333Y-10185427D01*
X7483333Y-9335427D02*
X6916666Y-10185427D01*
X7807142Y-9861617D02*
X8454762Y-9861617D01*
X9304762Y-10185427D02*
X8819047Y-10185427D01*
X9061904Y-10185427D02*
X9061904Y-9335427D01*
X9061904Y-9335427D02*
X8980952Y-9456855D01*
X8980952Y-9456855D02*
X8900000Y-9537808D01*
X8900000Y-9537808D02*
X8819047Y-9578284D01*
X9669047Y-10104474D02*
X9709524Y-10144951D01*
X9709524Y-10144951D02*
X9669047Y-10185427D01*
X9669047Y-10185427D02*
X9628571Y-10144951D01*
X9628571Y-10144951D02*
X9669047Y-10104474D01*
X9669047Y-10104474D02*
X9669047Y-10185427D01*
X10195238Y-9699712D02*
X10114286Y-9659236D01*
X10114286Y-9659236D02*
X10073809Y-9618760D01*
X10073809Y-9618760D02*
X10033333Y-9537808D01*
X10033333Y-9537808D02*
X10033333Y-9497331D01*
X10033333Y-9497331D02*
X10073809Y-9416379D01*
X10073809Y-9416379D02*
X10114286Y-9375903D01*
X10114286Y-9375903D02*
X10195238Y-9335427D01*
X10195238Y-9335427D02*
X10357143Y-9335427D01*
X10357143Y-9335427D02*
X10438095Y-9375903D01*
X10438095Y-9375903D02*
X10478571Y-9416379D01*
X10478571Y-9416379D02*
X10519048Y-9497331D01*
X10519048Y-9497331D02*
X10519048Y-9537808D01*
X10519048Y-9537808D02*
X10478571Y-9618760D01*
X10478571Y-9618760D02*
X10438095Y-9659236D01*
X10438095Y-9659236D02*
X10357143Y-9699712D01*
X10357143Y-9699712D02*
X10195238Y-9699712D01*
X10195238Y-9699712D02*
X10114286Y-9740189D01*
X10114286Y-9740189D02*
X10073809Y-9780665D01*
X10073809Y-9780665D02*
X10033333Y-9861617D01*
X10033333Y-9861617D02*
X10033333Y-10023522D01*
X10033333Y-10023522D02*
X10073809Y-10104474D01*
X10073809Y-10104474D02*
X10114286Y-10144951D01*
X10114286Y-10144951D02*
X10195238Y-10185427D01*
X10195238Y-10185427D02*
X10357143Y-10185427D01*
X10357143Y-10185427D02*
X10438095Y-10144951D01*
X10438095Y-10144951D02*
X10478571Y-10104474D01*
X10478571Y-10104474D02*
X10519048Y-10023522D01*
X10519048Y-10023522D02*
X10519048Y-9861617D01*
X10519048Y-9861617D02*
X10478571Y-9780665D01*
X10478571Y-9780665D02*
X10438095Y-9740189D01*
X10438095Y-9740189D02*
X10357143Y-9699712D01*
X15108333Y-9335427D02*
X15594047Y-9335427D01*
X15351190Y-10185427D02*
X15351190Y-9335427D01*
X15796428Y-9335427D02*
X16363095Y-10185427D01*
X16363095Y-9335427D02*
X15796428Y-10185427D01*
X16646428Y-10144951D02*
X16767857Y-10185427D01*
X16767857Y-10185427D02*
X16970238Y-10185427D01*
X16970238Y-10185427D02*
X17051190Y-10144951D01*
X17051190Y-10144951D02*
X17091666Y-10104474D01*
X17091666Y-10104474D02*
X17132143Y-10023522D01*
X17132143Y-10023522D02*
X17132143Y-9942570D01*
X17132143Y-9942570D02*
X17091666Y-9861617D01*
X17091666Y-9861617D02*
X17051190Y-9821141D01*
X17051190Y-9821141D02*
X16970238Y-9780665D01*
X16970238Y-9780665D02*
X16808333Y-9740189D01*
X16808333Y-9740189D02*
X16727381Y-9699712D01*
X16727381Y-9699712D02*
X16686904Y-9659236D01*
X16686904Y-9659236D02*
X16646428Y-9578284D01*
X16646428Y-9578284D02*
X16646428Y-9497331D01*
X16646428Y-9497331D02*
X16686904Y-9416379D01*
X16686904Y-9416379D02*
X16727381Y-9375903D01*
X16727381Y-9375903D02*
X16808333Y-9335427D01*
X16808333Y-9335427D02*
X17010714Y-9335427D01*
X17010714Y-9335427D02*
X17132143Y-9375903D01*
X17658333Y-9335427D02*
X17739286Y-9335427D01*
X17739286Y-9335427D02*
X17820238Y-9375903D01*
X17820238Y-9375903D02*
X17860714Y-9416379D01*
X17860714Y-9416379D02*
X17901190Y-9497331D01*
X17901190Y-9497331D02*
X17941667Y-9659236D01*
X17941667Y-9659236D02*
X17941667Y-9861617D01*
X17941667Y-9861617D02*
X17901190Y-10023522D01*
X17901190Y-10023522D02*
X17860714Y-10104474D01*
X17860714Y-10104474D02*
X17820238Y-10144951D01*
X17820238Y-10144951D02*
X17739286Y-10185427D01*
X17739286Y-10185427D02*
X17658333Y-10185427D01*
X17658333Y-10185427D02*
X17577381Y-10144951D01*
X17577381Y-10144951D02*
X17536905Y-10104474D01*
X17536905Y-10104474D02*
X17496428Y-10023522D01*
X17496428Y-10023522D02*
X17455952Y-9861617D01*
X17455952Y-9861617D02*
X17455952Y-9659236D01*
X17455952Y-9659236D02*
X17496428Y-9497331D01*
X17496428Y-9497331D02*
X17536905Y-9416379D01*
X17536905Y-9416379D02*
X17577381Y-9375903D01*
X17577381Y-9375903D02*
X17658333Y-9335427D01*
X18751191Y-10185427D02*
X18265476Y-10185427D01*
X18508333Y-10185427D02*
X18508333Y-9335427D01*
X18508333Y-9335427D02*
X18427381Y-9456855D01*
X18427381Y-9456855D02*
X18346429Y-9537808D01*
X18346429Y-9537808D02*
X18265476Y-9578284D01*
X19277381Y-9335427D02*
X19358334Y-9335427D01*
X19358334Y-9335427D02*
X19439286Y-9375903D01*
X19439286Y-9375903D02*
X19479762Y-9416379D01*
X19479762Y-9416379D02*
X19520238Y-9497331D01*
X19520238Y-9497331D02*
X19560715Y-9659236D01*
X19560715Y-9659236D02*
X19560715Y-9861617D01*
X19560715Y-9861617D02*
X19520238Y-10023522D01*
X19520238Y-10023522D02*
X19479762Y-10104474D01*
X19479762Y-10104474D02*
X19439286Y-10144951D01*
X19439286Y-10144951D02*
X19358334Y-10185427D01*
X19358334Y-10185427D02*
X19277381Y-10185427D01*
X19277381Y-10185427D02*
X19196429Y-10144951D01*
X19196429Y-10144951D02*
X19155953Y-10104474D01*
X19155953Y-10104474D02*
X19115476Y-10023522D01*
X19115476Y-10023522D02*
X19075000Y-9861617D01*
X19075000Y-9861617D02*
X19075000Y-9659236D01*
X19075000Y-9659236D02*
X19115476Y-9497331D01*
X19115476Y-9497331D02*
X19155953Y-9416379D01*
X19155953Y-9416379D02*
X19196429Y-9375903D01*
X19196429Y-9375903D02*
X19277381Y-9335427D01*
X19884524Y-9416379D02*
X19925000Y-9375903D01*
X19925000Y-9375903D02*
X20005953Y-9335427D01*
X20005953Y-9335427D02*
X20208334Y-9335427D01*
X20208334Y-9335427D02*
X20289286Y-9375903D01*
X20289286Y-9375903D02*
X20329762Y-9416379D01*
X20329762Y-9416379D02*
X20370239Y-9497331D01*
X20370239Y-9497331D02*
X20370239Y-9578284D01*
X20370239Y-9578284D02*
X20329762Y-9699712D01*
X20329762Y-9699712D02*
X19844048Y-10185427D01*
X19844048Y-10185427D02*
X20370239Y-10185427D01*
X20734524Y-10185427D02*
X20734524Y-9335427D01*
X20734524Y-9335427D02*
X20936905Y-9335427D01*
X20936905Y-9335427D02*
X21058334Y-9375903D01*
X21058334Y-9375903D02*
X21139286Y-9456855D01*
X21139286Y-9456855D02*
X21179763Y-9537808D01*
X21179763Y-9537808D02*
X21220239Y-9699712D01*
X21220239Y-9699712D02*
X21220239Y-9821141D01*
X21220239Y-9821141D02*
X21179763Y-9983046D01*
X21179763Y-9983046D02*
X21139286Y-10063998D01*
X21139286Y-10063998D02*
X21058334Y-10144951D01*
X21058334Y-10144951D02*
X20936905Y-10185427D01*
X20936905Y-10185427D02*
X20734524Y-10185427D01*
X22070239Y-10104474D02*
X22029763Y-10144951D01*
X22029763Y-10144951D02*
X21908334Y-10185427D01*
X21908334Y-10185427D02*
X21827382Y-10185427D01*
X21827382Y-10185427D02*
X21705953Y-10144951D01*
X21705953Y-10144951D02*
X21625001Y-10063998D01*
X21625001Y-10063998D02*
X21584524Y-9983046D01*
X21584524Y-9983046D02*
X21544048Y-9821141D01*
X21544048Y-9821141D02*
X21544048Y-9699712D01*
X21544048Y-9699712D02*
X21584524Y-9537808D01*
X21584524Y-9537808D02*
X21625001Y-9456855D01*
X21625001Y-9456855D02*
X21705953Y-9375903D01*
X21705953Y-9375903D02*
X21827382Y-9335427D01*
X21827382Y-9335427D02*
X21908334Y-9335427D01*
X21908334Y-9335427D02*
X22029763Y-9375903D01*
X22029763Y-9375903D02*
X22070239Y-9416379D01*
X22434524Y-9335427D02*
X22434524Y-10023522D01*
X22434524Y-10023522D02*
X22475001Y-10104474D01*
X22475001Y-10104474D02*
X22515477Y-10144951D01*
X22515477Y-10144951D02*
X22596429Y-10185427D01*
X22596429Y-10185427D02*
X22758334Y-10185427D01*
X22758334Y-10185427D02*
X22839286Y-10144951D01*
X22839286Y-10144951D02*
X22879763Y-10104474D01*
X22879763Y-10104474D02*
X22920239Y-10023522D01*
X22920239Y-10023522D02*
X22920239Y-9335427D01*
X23810715Y-10185427D02*
X23527381Y-9780665D01*
X23325000Y-10185427D02*
X23325000Y-9335427D01*
X23325000Y-9335427D02*
X23648810Y-9335427D01*
X23648810Y-9335427D02*
X23729762Y-9375903D01*
X23729762Y-9375903D02*
X23770239Y-9416379D01*
X23770239Y-9416379D02*
X23810715Y-9497331D01*
X23810715Y-9497331D02*
X23810715Y-9618760D01*
X23810715Y-9618760D02*
X23770239Y-9699712D01*
X23770239Y-9699712D02*
X23729762Y-9740189D01*
X23729762Y-9740189D02*
X23648810Y-9780665D01*
X23648810Y-9780665D02*
X23325000Y-9780665D01*
X16524999Y-14442570D02*
X16929761Y-14442570D01*
X16444047Y-14685427D02*
X16727380Y-13835427D01*
X16727380Y-13835427D02*
X17010714Y-14685427D01*
X17172618Y-13835427D02*
X17658332Y-13835427D01*
X17415475Y-14685427D02*
X17415475Y-13835427D01*
X17901189Y-13916379D02*
X17941665Y-13875903D01*
X17941665Y-13875903D02*
X18022618Y-13835427D01*
X18022618Y-13835427D02*
X18224999Y-13835427D01*
X18224999Y-13835427D02*
X18305951Y-13875903D01*
X18305951Y-13875903D02*
X18346427Y-13916379D01*
X18346427Y-13916379D02*
X18386904Y-13997331D01*
X18386904Y-13997331D02*
X18386904Y-14078284D01*
X18386904Y-14078284D02*
X18346427Y-14199712D01*
X18346427Y-14199712D02*
X17860713Y-14685427D01*
X17860713Y-14685427D02*
X18386904Y-14685427D01*
X19115475Y-14118760D02*
X19115475Y-14685427D01*
X18913094Y-13794951D02*
X18710713Y-14402093D01*
X18710713Y-14402093D02*
X19236904Y-14402093D01*
X20046428Y-14604474D02*
X20005952Y-14644951D01*
X20005952Y-14644951D02*
X19884523Y-14685427D01*
X19884523Y-14685427D02*
X19803571Y-14685427D01*
X19803571Y-14685427D02*
X19682142Y-14644951D01*
X19682142Y-14644951D02*
X19601190Y-14563998D01*
X19601190Y-14563998D02*
X19560713Y-14483046D01*
X19560713Y-14483046D02*
X19520237Y-14321141D01*
X19520237Y-14321141D02*
X19520237Y-14199712D01*
X19520237Y-14199712D02*
X19560713Y-14037808D01*
X19560713Y-14037808D02*
X19601190Y-13956855D01*
X19601190Y-13956855D02*
X19682142Y-13875903D01*
X19682142Y-13875903D02*
X19803571Y-13835427D01*
X19803571Y-13835427D02*
X19884523Y-13835427D01*
X19884523Y-13835427D02*
X20005952Y-13875903D01*
X20005952Y-13875903D02*
X20046428Y-13916379D01*
X20370237Y-14644951D02*
X20491666Y-14685427D01*
X20491666Y-14685427D02*
X20694047Y-14685427D01*
X20694047Y-14685427D02*
X20774999Y-14644951D01*
X20774999Y-14644951D02*
X20815475Y-14604474D01*
X20815475Y-14604474D02*
X20855952Y-14523522D01*
X20855952Y-14523522D02*
X20855952Y-14442570D01*
X20855952Y-14442570D02*
X20815475Y-14361617D01*
X20815475Y-14361617D02*
X20774999Y-14321141D01*
X20774999Y-14321141D02*
X20694047Y-14280665D01*
X20694047Y-14280665D02*
X20532142Y-14240189D01*
X20532142Y-14240189D02*
X20451190Y-14199712D01*
X20451190Y-14199712D02*
X20410713Y-14159236D01*
X20410713Y-14159236D02*
X20370237Y-14078284D01*
X20370237Y-14078284D02*
X20370237Y-13997331D01*
X20370237Y-13997331D02*
X20410713Y-13916379D01*
X20410713Y-13916379D02*
X20451190Y-13875903D01*
X20451190Y-13875903D02*
X20532142Y-13835427D01*
X20532142Y-13835427D02*
X20734523Y-13835427D01*
X20734523Y-13835427D02*
X20855952Y-13875903D01*
X21382142Y-13835427D02*
X21463095Y-13835427D01*
X21463095Y-13835427D02*
X21544047Y-13875903D01*
X21544047Y-13875903D02*
X21584523Y-13916379D01*
X21584523Y-13916379D02*
X21624999Y-13997331D01*
X21624999Y-13997331D02*
X21665476Y-14159236D01*
X21665476Y-14159236D02*
X21665476Y-14361617D01*
X21665476Y-14361617D02*
X21624999Y-14523522D01*
X21624999Y-14523522D02*
X21584523Y-14604474D01*
X21584523Y-14604474D02*
X21544047Y-14644951D01*
X21544047Y-14644951D02*
X21463095Y-14685427D01*
X21463095Y-14685427D02*
X21382142Y-14685427D01*
X21382142Y-14685427D02*
X21301190Y-14644951D01*
X21301190Y-14644951D02*
X21260714Y-14604474D01*
X21260714Y-14604474D02*
X21220237Y-14523522D01*
X21220237Y-14523522D02*
X21179761Y-14361617D01*
X21179761Y-14361617D02*
X21179761Y-14159236D01*
X21179761Y-14159236D02*
X21220237Y-13997331D01*
X21220237Y-13997331D02*
X21260714Y-13916379D01*
X21260714Y-13916379D02*
X21301190Y-13875903D01*
X21301190Y-13875903D02*
X21382142Y-13835427D01*
X21989285Y-13916379D02*
X22029761Y-13875903D01*
X22029761Y-13875903D02*
X22110714Y-13835427D01*
X22110714Y-13835427D02*
X22313095Y-13835427D01*
X22313095Y-13835427D02*
X22394047Y-13875903D01*
X22394047Y-13875903D02*
X22434523Y-13916379D01*
X22434523Y-13916379D02*
X22475000Y-13997331D01*
X22475000Y-13997331D02*
X22475000Y-14078284D01*
X22475000Y-14078284D02*
X22434523Y-14199712D01*
X22434523Y-14199712D02*
X21948809Y-14685427D01*
X21948809Y-14685427D02*
X22475000Y-14685427D01*
X3030951Y-14685427D02*
X2626189Y-14685427D01*
X2626189Y-14685427D02*
X2626189Y-13835427D01*
X3314284Y-14685427D02*
X3314284Y-13835427D01*
X3678570Y-14644951D02*
X3799999Y-14685427D01*
X3799999Y-14685427D02*
X4002380Y-14685427D01*
X4002380Y-14685427D02*
X4083332Y-14644951D01*
X4083332Y-14644951D02*
X4123808Y-14604474D01*
X4123808Y-14604474D02*
X4164285Y-14523522D01*
X4164285Y-14523522D02*
X4164285Y-14442570D01*
X4164285Y-14442570D02*
X4123808Y-14361617D01*
X4123808Y-14361617D02*
X4083332Y-14321141D01*
X4083332Y-14321141D02*
X4002380Y-14280665D01*
X4002380Y-14280665D02*
X3840475Y-14240189D01*
X3840475Y-14240189D02*
X3759523Y-14199712D01*
X3759523Y-14199712D02*
X3719046Y-14159236D01*
X3719046Y-14159236D02*
X3678570Y-14078284D01*
X3678570Y-14078284D02*
X3678570Y-13997331D01*
X3678570Y-13997331D02*
X3719046Y-13916379D01*
X3719046Y-13916379D02*
X3759523Y-13875903D01*
X3759523Y-13875903D02*
X3840475Y-13835427D01*
X3840475Y-13835427D02*
X4042856Y-13835427D01*
X4042856Y-13835427D02*
X4164285Y-13875903D01*
X4488094Y-13916379D02*
X4528570Y-13875903D01*
X4528570Y-13875903D02*
X4609523Y-13835427D01*
X4609523Y-13835427D02*
X4811904Y-13835427D01*
X4811904Y-13835427D02*
X4892856Y-13875903D01*
X4892856Y-13875903D02*
X4933332Y-13916379D01*
X4933332Y-13916379D02*
X4973809Y-13997331D01*
X4973809Y-13997331D02*
X4973809Y-14078284D01*
X4973809Y-14078284D02*
X4933332Y-14199712D01*
X4933332Y-14199712D02*
X4447618Y-14685427D01*
X4447618Y-14685427D02*
X4973809Y-14685427D01*
X5338094Y-14685427D02*
X5338094Y-13835427D01*
X5338094Y-13835427D02*
X5540475Y-13835427D01*
X5540475Y-13835427D02*
X5661904Y-13875903D01*
X5661904Y-13875903D02*
X5742856Y-13956855D01*
X5742856Y-13956855D02*
X5783333Y-14037808D01*
X5783333Y-14037808D02*
X5823809Y-14199712D01*
X5823809Y-14199712D02*
X5823809Y-14321141D01*
X5823809Y-14321141D02*
X5783333Y-14483046D01*
X5783333Y-14483046D02*
X5742856Y-14563998D01*
X5742856Y-14563998D02*
X5661904Y-14644951D01*
X5661904Y-14644951D02*
X5540475Y-14685427D01*
X5540475Y-14685427D02*
X5338094Y-14685427D01*
X6107142Y-13835427D02*
X6309523Y-14685427D01*
X6309523Y-14685427D02*
X6471428Y-14078284D01*
X6471428Y-14078284D02*
X6633333Y-14685427D01*
X6633333Y-14685427D02*
X6835714Y-13835427D01*
X7604762Y-14685427D02*
X7119047Y-14685427D01*
X7361904Y-14685427D02*
X7361904Y-13835427D01*
X7361904Y-13835427D02*
X7280952Y-13956855D01*
X7280952Y-13956855D02*
X7200000Y-14037808D01*
X7200000Y-14037808D02*
X7119047Y-14078284D01*
X7928571Y-13916379D02*
X7969047Y-13875903D01*
X7969047Y-13875903D02*
X8050000Y-13835427D01*
X8050000Y-13835427D02*
X8252381Y-13835427D01*
X8252381Y-13835427D02*
X8333333Y-13875903D01*
X8333333Y-13875903D02*
X8373809Y-13916379D01*
X8373809Y-13916379D02*
X8414286Y-13997331D01*
X8414286Y-13997331D02*
X8414286Y-14078284D01*
X8414286Y-14078284D02*
X8373809Y-14199712D01*
X8373809Y-14199712D02*
X7888095Y-14685427D01*
X7888095Y-14685427D02*
X8414286Y-14685427D01*
X4063094Y-2885427D02*
X4063094Y-2035427D01*
X4063094Y-2035427D02*
X4265475Y-2035427D01*
X4265475Y-2035427D02*
X4386904Y-2075903D01*
X4386904Y-2075903D02*
X4467856Y-2156855D01*
X4467856Y-2156855D02*
X4508333Y-2237808D01*
X4508333Y-2237808D02*
X4548809Y-2399712D01*
X4548809Y-2399712D02*
X4548809Y-2521141D01*
X4548809Y-2521141D02*
X4508333Y-2683046D01*
X4508333Y-2683046D02*
X4467856Y-2763998D01*
X4467856Y-2763998D02*
X4386904Y-2844951D01*
X4386904Y-2844951D02*
X4265475Y-2885427D01*
X4265475Y-2885427D02*
X4063094Y-2885427D01*
X5358333Y-2885427D02*
X4872618Y-2885427D01*
X5115475Y-2885427D02*
X5115475Y-2035427D01*
X5115475Y-2035427D02*
X5034523Y-2156855D01*
X5034523Y-2156855D02*
X4953571Y-2237808D01*
X4953571Y-2237808D02*
X4872618Y-2278284D01*
X5884523Y-2035427D02*
X5965476Y-2035427D01*
X5965476Y-2035427D02*
X6046428Y-2075903D01*
X6046428Y-2075903D02*
X6086904Y-2116379D01*
X6086904Y-2116379D02*
X6127380Y-2197331D01*
X6127380Y-2197331D02*
X6167857Y-2359236D01*
X6167857Y-2359236D02*
X6167857Y-2561617D01*
X6167857Y-2561617D02*
X6127380Y-2723522D01*
X6127380Y-2723522D02*
X6086904Y-2804474D01*
X6086904Y-2804474D02*
X6046428Y-2844951D01*
X6046428Y-2844951D02*
X5965476Y-2885427D01*
X5965476Y-2885427D02*
X5884523Y-2885427D01*
X5884523Y-2885427D02*
X5803571Y-2844951D01*
X5803571Y-2844951D02*
X5763095Y-2804474D01*
X5763095Y-2804474D02*
X5722618Y-2723522D01*
X5722618Y-2723522D02*
X5682142Y-2561617D01*
X5682142Y-2561617D02*
X5682142Y-2359236D01*
X5682142Y-2359236D02*
X5722618Y-2197331D01*
X5722618Y-2197331D02*
X5763095Y-2116379D01*
X5763095Y-2116379D02*
X5803571Y-2075903D01*
X5803571Y-2075903D02*
X5884523Y-2035427D01*
X6977381Y-2885427D02*
X6491666Y-2885427D01*
X6734523Y-2885427D02*
X6734523Y-2035427D01*
X6734523Y-2035427D02*
X6653571Y-2156855D01*
X6653571Y-2156855D02*
X6572619Y-2237808D01*
X6572619Y-2237808D02*
X6491666Y-2278284D01*
X4488094Y-4240189D02*
X4771428Y-4240189D01*
X4892856Y-4685427D02*
X4488094Y-4685427D01*
X4488094Y-4685427D02*
X4488094Y-3835427D01*
X4488094Y-3835427D02*
X4892856Y-3835427D01*
X5216666Y-4644951D02*
X5338095Y-4685427D01*
X5338095Y-4685427D02*
X5540476Y-4685427D01*
X5540476Y-4685427D02*
X5621428Y-4644951D01*
X5621428Y-4644951D02*
X5661904Y-4604474D01*
X5661904Y-4604474D02*
X5702381Y-4523522D01*
X5702381Y-4523522D02*
X5702381Y-4442570D01*
X5702381Y-4442570D02*
X5661904Y-4361617D01*
X5661904Y-4361617D02*
X5621428Y-4321141D01*
X5621428Y-4321141D02*
X5540476Y-4280665D01*
X5540476Y-4280665D02*
X5378571Y-4240189D01*
X5378571Y-4240189D02*
X5297619Y-4199712D01*
X5297619Y-4199712D02*
X5257142Y-4159236D01*
X5257142Y-4159236D02*
X5216666Y-4078284D01*
X5216666Y-4078284D02*
X5216666Y-3997331D01*
X5216666Y-3997331D02*
X5257142Y-3916379D01*
X5257142Y-3916379D02*
X5297619Y-3875903D01*
X5297619Y-3875903D02*
X5378571Y-3835427D01*
X5378571Y-3835427D02*
X5580952Y-3835427D01*
X5580952Y-3835427D02*
X5702381Y-3875903D01*
X6066666Y-4685427D02*
X6066666Y-3835427D01*
X6066666Y-3835427D02*
X6269047Y-3835427D01*
X6269047Y-3835427D02*
X6390476Y-3875903D01*
X6390476Y-3875903D02*
X6471428Y-3956855D01*
X6471428Y-3956855D02*
X6511905Y-4037808D01*
X6511905Y-4037808D02*
X6552381Y-4199712D01*
X6552381Y-4199712D02*
X6552381Y-4321141D01*
X6552381Y-4321141D02*
X6511905Y-4483046D01*
X6511905Y-4483046D02*
X6471428Y-4563998D01*
X6471428Y-4563998D02*
X6390476Y-4644951D01*
X6390476Y-4644951D02*
X6269047Y-4685427D01*
X6269047Y-4685427D02*
X6066666Y-4685427D01*
X16548809Y-2885427D02*
X16265475Y-2480665D01*
X16063094Y-2885427D02*
X16063094Y-2035427D01*
X16063094Y-2035427D02*
X16386904Y-2035427D01*
X16386904Y-2035427D02*
X16467856Y-2075903D01*
X16467856Y-2075903D02*
X16508333Y-2116379D01*
X16508333Y-2116379D02*
X16548809Y-2197331D01*
X16548809Y-2197331D02*
X16548809Y-2318760D01*
X16548809Y-2318760D02*
X16508333Y-2399712D01*
X16508333Y-2399712D02*
X16467856Y-2440189D01*
X16467856Y-2440189D02*
X16386904Y-2480665D01*
X16386904Y-2480665D02*
X16063094Y-2480665D01*
X17358333Y-2885427D02*
X16872618Y-2885427D01*
X17115475Y-2885427D02*
X17115475Y-2035427D01*
X17115475Y-2035427D02*
X17034523Y-2156855D01*
X17034523Y-2156855D02*
X16953571Y-2237808D01*
X16953571Y-2237808D02*
X16872618Y-2278284D01*
X17884523Y-2035427D02*
X17965476Y-2035427D01*
X17965476Y-2035427D02*
X18046428Y-2075903D01*
X18046428Y-2075903D02*
X18086904Y-2116379D01*
X18086904Y-2116379D02*
X18127380Y-2197331D01*
X18127380Y-2197331D02*
X18167857Y-2359236D01*
X18167857Y-2359236D02*
X18167857Y-2561617D01*
X18167857Y-2561617D02*
X18127380Y-2723522D01*
X18127380Y-2723522D02*
X18086904Y-2804474D01*
X18086904Y-2804474D02*
X18046428Y-2844951D01*
X18046428Y-2844951D02*
X17965476Y-2885427D01*
X17965476Y-2885427D02*
X17884523Y-2885427D01*
X17884523Y-2885427D02*
X17803571Y-2844951D01*
X17803571Y-2844951D02*
X17763095Y-2804474D01*
X17763095Y-2804474D02*
X17722618Y-2723522D01*
X17722618Y-2723522D02*
X17682142Y-2561617D01*
X17682142Y-2561617D02*
X17682142Y-2359236D01*
X17682142Y-2359236D02*
X17722618Y-2197331D01*
X17722618Y-2197331D02*
X17763095Y-2116379D01*
X17763095Y-2116379D02*
X17803571Y-2075903D01*
X17803571Y-2075903D02*
X17884523Y-2035427D01*
X18977381Y-2885427D02*
X18491666Y-2885427D01*
X18734523Y-2885427D02*
X18734523Y-2035427D01*
X18734523Y-2035427D02*
X18653571Y-2156855D01*
X18653571Y-2156855D02*
X18572619Y-2237808D01*
X18572619Y-2237808D02*
X18491666Y-2278284D01*
X16386904Y-3835427D02*
X16913095Y-3835427D01*
X16913095Y-3835427D02*
X16629761Y-4159236D01*
X16629761Y-4159236D02*
X16751190Y-4159236D01*
X16751190Y-4159236D02*
X16832142Y-4199712D01*
X16832142Y-4199712D02*
X16872618Y-4240189D01*
X16872618Y-4240189D02*
X16913095Y-4321141D01*
X16913095Y-4321141D02*
X16913095Y-4523522D01*
X16913095Y-4523522D02*
X16872618Y-4604474D01*
X16872618Y-4604474D02*
X16832142Y-4644951D01*
X16832142Y-4644951D02*
X16751190Y-4685427D01*
X16751190Y-4685427D02*
X16508333Y-4685427D01*
X16508333Y-4685427D02*
X16427380Y-4644951D01*
X16427380Y-4644951D02*
X16386904Y-4604474D01*
X17196428Y-3835427D02*
X17722619Y-3835427D01*
X17722619Y-3835427D02*
X17439285Y-4159236D01*
X17439285Y-4159236D02*
X17560714Y-4159236D01*
X17560714Y-4159236D02*
X17641666Y-4199712D01*
X17641666Y-4199712D02*
X17682142Y-4240189D01*
X17682142Y-4240189D02*
X17722619Y-4321141D01*
X17722619Y-4321141D02*
X17722619Y-4523522D01*
X17722619Y-4523522D02*
X17682142Y-4604474D01*
X17682142Y-4604474D02*
X17641666Y-4644951D01*
X17641666Y-4644951D02*
X17560714Y-4685427D01*
X17560714Y-4685427D02*
X17317857Y-4685427D01*
X17317857Y-4685427D02*
X17236904Y-4644951D01*
X17236904Y-4644951D02*
X17196428Y-4604474D01*
X18572619Y-4685427D02*
X18289285Y-4280665D01*
X18086904Y-4685427D02*
X18086904Y-3835427D01*
X18086904Y-3835427D02*
X18410714Y-3835427D01*
X18410714Y-3835427D02*
X18491666Y-3875903D01*
X18491666Y-3875903D02*
X18532143Y-3916379D01*
X18532143Y-3916379D02*
X18572619Y-3997331D01*
X18572619Y-3997331D02*
X18572619Y-4118760D01*
X18572619Y-4118760D02*
X18532143Y-4199712D01*
X18532143Y-4199712D02*
X18491666Y-4240189D01*
X18491666Y-4240189D02*
X18410714Y-4280665D01*
X18410714Y-4280665D02*
X18086904Y-4280665D01*
X19548809Y-2885427D02*
X19265475Y-2480665D01*
X19063094Y-2885427D02*
X19063094Y-2035427D01*
X19063094Y-2035427D02*
X19386904Y-2035427D01*
X19386904Y-2035427D02*
X19467856Y-2075903D01*
X19467856Y-2075903D02*
X19508333Y-2116379D01*
X19508333Y-2116379D02*
X19548809Y-2197331D01*
X19548809Y-2197331D02*
X19548809Y-2318760D01*
X19548809Y-2318760D02*
X19508333Y-2399712D01*
X19508333Y-2399712D02*
X19467856Y-2440189D01*
X19467856Y-2440189D02*
X19386904Y-2480665D01*
X19386904Y-2480665D02*
X19063094Y-2480665D01*
X20358333Y-2885427D02*
X19872618Y-2885427D01*
X20115475Y-2885427D02*
X20115475Y-2035427D01*
X20115475Y-2035427D02*
X20034523Y-2156855D01*
X20034523Y-2156855D02*
X19953571Y-2237808D01*
X19953571Y-2237808D02*
X19872618Y-2278284D01*
X20884523Y-2035427D02*
X20965476Y-2035427D01*
X20965476Y-2035427D02*
X21046428Y-2075903D01*
X21046428Y-2075903D02*
X21086904Y-2116379D01*
X21086904Y-2116379D02*
X21127380Y-2197331D01*
X21127380Y-2197331D02*
X21167857Y-2359236D01*
X21167857Y-2359236D02*
X21167857Y-2561617D01*
X21167857Y-2561617D02*
X21127380Y-2723522D01*
X21127380Y-2723522D02*
X21086904Y-2804474D01*
X21086904Y-2804474D02*
X21046428Y-2844951D01*
X21046428Y-2844951D02*
X20965476Y-2885427D01*
X20965476Y-2885427D02*
X20884523Y-2885427D01*
X20884523Y-2885427D02*
X20803571Y-2844951D01*
X20803571Y-2844951D02*
X20763095Y-2804474D01*
X20763095Y-2804474D02*
X20722618Y-2723522D01*
X20722618Y-2723522D02*
X20682142Y-2561617D01*
X20682142Y-2561617D02*
X20682142Y-2359236D01*
X20682142Y-2359236D02*
X20722618Y-2197331D01*
X20722618Y-2197331D02*
X20763095Y-2116379D01*
X20763095Y-2116379D02*
X20803571Y-2075903D01*
X20803571Y-2075903D02*
X20884523Y-2035427D01*
X21491666Y-2116379D02*
X21532142Y-2075903D01*
X21532142Y-2075903D02*
X21613095Y-2035427D01*
X21613095Y-2035427D02*
X21815476Y-2035427D01*
X21815476Y-2035427D02*
X21896428Y-2075903D01*
X21896428Y-2075903D02*
X21936904Y-2116379D01*
X21936904Y-2116379D02*
X21977381Y-2197331D01*
X21977381Y-2197331D02*
X21977381Y-2278284D01*
X21977381Y-2278284D02*
X21936904Y-2399712D01*
X21936904Y-2399712D02*
X21451190Y-2885427D01*
X21451190Y-2885427D02*
X21977381Y-2885427D01*
X19386904Y-3835427D02*
X19913095Y-3835427D01*
X19913095Y-3835427D02*
X19629761Y-4159236D01*
X19629761Y-4159236D02*
X19751190Y-4159236D01*
X19751190Y-4159236D02*
X19832142Y-4199712D01*
X19832142Y-4199712D02*
X19872618Y-4240189D01*
X19872618Y-4240189D02*
X19913095Y-4321141D01*
X19913095Y-4321141D02*
X19913095Y-4523522D01*
X19913095Y-4523522D02*
X19872618Y-4604474D01*
X19872618Y-4604474D02*
X19832142Y-4644951D01*
X19832142Y-4644951D02*
X19751190Y-4685427D01*
X19751190Y-4685427D02*
X19508333Y-4685427D01*
X19508333Y-4685427D02*
X19427380Y-4644951D01*
X19427380Y-4644951D02*
X19386904Y-4604474D01*
X20196428Y-3835427D02*
X20722619Y-3835427D01*
X20722619Y-3835427D02*
X20439285Y-4159236D01*
X20439285Y-4159236D02*
X20560714Y-4159236D01*
X20560714Y-4159236D02*
X20641666Y-4199712D01*
X20641666Y-4199712D02*
X20682142Y-4240189D01*
X20682142Y-4240189D02*
X20722619Y-4321141D01*
X20722619Y-4321141D02*
X20722619Y-4523522D01*
X20722619Y-4523522D02*
X20682142Y-4604474D01*
X20682142Y-4604474D02*
X20641666Y-4644951D01*
X20641666Y-4644951D02*
X20560714Y-4685427D01*
X20560714Y-4685427D02*
X20317857Y-4685427D01*
X20317857Y-4685427D02*
X20236904Y-4644951D01*
X20236904Y-4644951D02*
X20196428Y-4604474D01*
X21572619Y-4685427D02*
X21289285Y-4280665D01*
X21086904Y-4685427D02*
X21086904Y-3835427D01*
X21086904Y-3835427D02*
X21410714Y-3835427D01*
X21410714Y-3835427D02*
X21491666Y-3875903D01*
X21491666Y-3875903D02*
X21532143Y-3916379D01*
X21532143Y-3916379D02*
X21572619Y-3997331D01*
X21572619Y-3997331D02*
X21572619Y-4118760D01*
X21572619Y-4118760D02*
X21532143Y-4199712D01*
X21532143Y-4199712D02*
X21491666Y-4240189D01*
X21491666Y-4240189D02*
X21410714Y-4280665D01*
X21410714Y-4280665D02*
X21086904Y-4280665D01*
X8048809Y-2804474D02*
X8008333Y-2844951D01*
X8008333Y-2844951D02*
X7886904Y-2885427D01*
X7886904Y-2885427D02*
X7805952Y-2885427D01*
X7805952Y-2885427D02*
X7684523Y-2844951D01*
X7684523Y-2844951D02*
X7603571Y-2763998D01*
X7603571Y-2763998D02*
X7563094Y-2683046D01*
X7563094Y-2683046D02*
X7522618Y-2521141D01*
X7522618Y-2521141D02*
X7522618Y-2399712D01*
X7522618Y-2399712D02*
X7563094Y-2237808D01*
X7563094Y-2237808D02*
X7603571Y-2156855D01*
X7603571Y-2156855D02*
X7684523Y-2075903D01*
X7684523Y-2075903D02*
X7805952Y-2035427D01*
X7805952Y-2035427D02*
X7886904Y-2035427D01*
X7886904Y-2035427D02*
X8008333Y-2075903D01*
X8008333Y-2075903D02*
X8048809Y-2116379D01*
X8858333Y-2885427D02*
X8372618Y-2885427D01*
X8615475Y-2885427D02*
X8615475Y-2035427D01*
X8615475Y-2035427D02*
X8534523Y-2156855D01*
X8534523Y-2156855D02*
X8453571Y-2237808D01*
X8453571Y-2237808D02*
X8372618Y-2278284D01*
X9384523Y-2035427D02*
X9465476Y-2035427D01*
X9465476Y-2035427D02*
X9546428Y-2075903D01*
X9546428Y-2075903D02*
X9586904Y-2116379D01*
X9586904Y-2116379D02*
X9627380Y-2197331D01*
X9627380Y-2197331D02*
X9667857Y-2359236D01*
X9667857Y-2359236D02*
X9667857Y-2561617D01*
X9667857Y-2561617D02*
X9627380Y-2723522D01*
X9627380Y-2723522D02*
X9586904Y-2804474D01*
X9586904Y-2804474D02*
X9546428Y-2844951D01*
X9546428Y-2844951D02*
X9465476Y-2885427D01*
X9465476Y-2885427D02*
X9384523Y-2885427D01*
X9384523Y-2885427D02*
X9303571Y-2844951D01*
X9303571Y-2844951D02*
X9263095Y-2804474D01*
X9263095Y-2804474D02*
X9222618Y-2723522D01*
X9222618Y-2723522D02*
X9182142Y-2561617D01*
X9182142Y-2561617D02*
X9182142Y-2359236D01*
X9182142Y-2359236D02*
X9222618Y-2197331D01*
X9222618Y-2197331D02*
X9263095Y-2116379D01*
X9263095Y-2116379D02*
X9303571Y-2075903D01*
X9303571Y-2075903D02*
X9384523Y-2035427D01*
X10477381Y-2885427D02*
X9991666Y-2885427D01*
X10234523Y-2885427D02*
X10234523Y-2035427D01*
X10234523Y-2035427D02*
X10153571Y-2156855D01*
X10153571Y-2156855D02*
X10072619Y-2237808D01*
X10072619Y-2237808D02*
X9991666Y-2278284D01*
X7886905Y-4685427D02*
X7401190Y-4685427D01*
X7644047Y-4685427D02*
X7644047Y-3835427D01*
X7644047Y-3835427D02*
X7563095Y-3956855D01*
X7563095Y-3956855D02*
X7482143Y-4037808D01*
X7482143Y-4037808D02*
X7401190Y-4078284D01*
X8251190Y-4604474D02*
X8291667Y-4644951D01*
X8291667Y-4644951D02*
X8251190Y-4685427D01*
X8251190Y-4685427D02*
X8210714Y-4644951D01*
X8210714Y-4644951D02*
X8251190Y-4604474D01*
X8251190Y-4604474D02*
X8251190Y-4685427D01*
X8817857Y-3835427D02*
X8898810Y-3835427D01*
X8898810Y-3835427D02*
X8979762Y-3875903D01*
X8979762Y-3875903D02*
X9020238Y-3916379D01*
X9020238Y-3916379D02*
X9060714Y-3997331D01*
X9060714Y-3997331D02*
X9101191Y-4159236D01*
X9101191Y-4159236D02*
X9101191Y-4361617D01*
X9101191Y-4361617D02*
X9060714Y-4523522D01*
X9060714Y-4523522D02*
X9020238Y-4604474D01*
X9020238Y-4604474D02*
X8979762Y-4644951D01*
X8979762Y-4644951D02*
X8898810Y-4685427D01*
X8898810Y-4685427D02*
X8817857Y-4685427D01*
X8817857Y-4685427D02*
X8736905Y-4644951D01*
X8736905Y-4644951D02*
X8696429Y-4604474D01*
X8696429Y-4604474D02*
X8655952Y-4523522D01*
X8655952Y-4523522D02*
X8615476Y-4361617D01*
X8615476Y-4361617D02*
X8615476Y-4159236D01*
X8615476Y-4159236D02*
X8655952Y-3997331D01*
X8655952Y-3997331D02*
X8696429Y-3916379D01*
X8696429Y-3916379D02*
X8736905Y-3875903D01*
X8736905Y-3875903D02*
X8817857Y-3835427D01*
X9829762Y-4118760D02*
X9829762Y-4685427D01*
X9465476Y-4118760D02*
X9465476Y-4563998D01*
X9465476Y-4563998D02*
X9505953Y-4644951D01*
X9505953Y-4644951D02*
X9586905Y-4685427D01*
X9586905Y-4685427D02*
X9708334Y-4685427D01*
X9708334Y-4685427D02*
X9789286Y-4644951D01*
X9789286Y-4644951D02*
X9829762Y-4604474D01*
X10517858Y-4240189D02*
X10234524Y-4240189D01*
X10234524Y-4685427D02*
X10234524Y-3835427D01*
X10234524Y-3835427D02*
X10639286Y-3835427D01*
X11048809Y-2804474D02*
X11008333Y-2844951D01*
X11008333Y-2844951D02*
X10886904Y-2885427D01*
X10886904Y-2885427D02*
X10805952Y-2885427D01*
X10805952Y-2885427D02*
X10684523Y-2844951D01*
X10684523Y-2844951D02*
X10603571Y-2763998D01*
X10603571Y-2763998D02*
X10563094Y-2683046D01*
X10563094Y-2683046D02*
X10522618Y-2521141D01*
X10522618Y-2521141D02*
X10522618Y-2399712D01*
X10522618Y-2399712D02*
X10563094Y-2237808D01*
X10563094Y-2237808D02*
X10603571Y-2156855D01*
X10603571Y-2156855D02*
X10684523Y-2075903D01*
X10684523Y-2075903D02*
X10805952Y-2035427D01*
X10805952Y-2035427D02*
X10886904Y-2035427D01*
X10886904Y-2035427D02*
X11008333Y-2075903D01*
X11008333Y-2075903D02*
X11048809Y-2116379D01*
X11858333Y-2885427D02*
X11372618Y-2885427D01*
X11615475Y-2885427D02*
X11615475Y-2035427D01*
X11615475Y-2035427D02*
X11534523Y-2156855D01*
X11534523Y-2156855D02*
X11453571Y-2237808D01*
X11453571Y-2237808D02*
X11372618Y-2278284D01*
X12384523Y-2035427D02*
X12465476Y-2035427D01*
X12465476Y-2035427D02*
X12546428Y-2075903D01*
X12546428Y-2075903D02*
X12586904Y-2116379D01*
X12586904Y-2116379D02*
X12627380Y-2197331D01*
X12627380Y-2197331D02*
X12667857Y-2359236D01*
X12667857Y-2359236D02*
X12667857Y-2561617D01*
X12667857Y-2561617D02*
X12627380Y-2723522D01*
X12627380Y-2723522D02*
X12586904Y-2804474D01*
X12586904Y-2804474D02*
X12546428Y-2844951D01*
X12546428Y-2844951D02*
X12465476Y-2885427D01*
X12465476Y-2885427D02*
X12384523Y-2885427D01*
X12384523Y-2885427D02*
X12303571Y-2844951D01*
X12303571Y-2844951D02*
X12263095Y-2804474D01*
X12263095Y-2804474D02*
X12222618Y-2723522D01*
X12222618Y-2723522D02*
X12182142Y-2561617D01*
X12182142Y-2561617D02*
X12182142Y-2359236D01*
X12182142Y-2359236D02*
X12222618Y-2197331D01*
X12222618Y-2197331D02*
X12263095Y-2116379D01*
X12263095Y-2116379D02*
X12303571Y-2075903D01*
X12303571Y-2075903D02*
X12384523Y-2035427D01*
X12991666Y-2116379D02*
X13032142Y-2075903D01*
X13032142Y-2075903D02*
X13113095Y-2035427D01*
X13113095Y-2035427D02*
X13315476Y-2035427D01*
X13315476Y-2035427D02*
X13396428Y-2075903D01*
X13396428Y-2075903D02*
X13436904Y-2116379D01*
X13436904Y-2116379D02*
X13477381Y-2197331D01*
X13477381Y-2197331D02*
X13477381Y-2278284D01*
X13477381Y-2278284D02*
X13436904Y-2399712D01*
X13436904Y-2399712D02*
X12951190Y-2885427D01*
X12951190Y-2885427D02*
X13477381Y-2885427D01*
X11089286Y-4685427D02*
X10603571Y-4685427D01*
X10846428Y-4685427D02*
X10846428Y-3835427D01*
X10846428Y-3835427D02*
X10765476Y-3956855D01*
X10765476Y-3956855D02*
X10684524Y-4037808D01*
X10684524Y-4037808D02*
X10603571Y-4078284D01*
X11615476Y-3835427D02*
X11696429Y-3835427D01*
X11696429Y-3835427D02*
X11777381Y-3875903D01*
X11777381Y-3875903D02*
X11817857Y-3916379D01*
X11817857Y-3916379D02*
X11858333Y-3997331D01*
X11858333Y-3997331D02*
X11898810Y-4159236D01*
X11898810Y-4159236D02*
X11898810Y-4361617D01*
X11898810Y-4361617D02*
X11858333Y-4523522D01*
X11858333Y-4523522D02*
X11817857Y-4604474D01*
X11817857Y-4604474D02*
X11777381Y-4644951D01*
X11777381Y-4644951D02*
X11696429Y-4685427D01*
X11696429Y-4685427D02*
X11615476Y-4685427D01*
X11615476Y-4685427D02*
X11534524Y-4644951D01*
X11534524Y-4644951D02*
X11494048Y-4604474D01*
X11494048Y-4604474D02*
X11453571Y-4523522D01*
X11453571Y-4523522D02*
X11413095Y-4361617D01*
X11413095Y-4361617D02*
X11413095Y-4159236D01*
X11413095Y-4159236D02*
X11453571Y-3997331D01*
X11453571Y-3997331D02*
X11494048Y-3916379D01*
X11494048Y-3916379D02*
X11534524Y-3875903D01*
X11534524Y-3875903D02*
X11615476Y-3835427D01*
X12627381Y-4118760D02*
X12627381Y-4685427D01*
X12263095Y-4118760D02*
X12263095Y-4563998D01*
X12263095Y-4563998D02*
X12303572Y-4644951D01*
X12303572Y-4644951D02*
X12384524Y-4685427D01*
X12384524Y-4685427D02*
X12505953Y-4685427D01*
X12505953Y-4685427D02*
X12586905Y-4644951D01*
X12586905Y-4644951D02*
X12627381Y-4604474D01*
X13315477Y-4240189D02*
X13032143Y-4240189D01*
X13032143Y-4685427D02*
X13032143Y-3835427D01*
X13032143Y-3835427D02*
X13436905Y-3835427D01*
M02*
