%TF.GenerationSoftware,KiCad,Pcbnew,10.0.5*%
%TF.CreationDate,2026-08-17T17:48:18-04:00*%
%TF.ProjectId,circle-ppg,63697263-6c65-42d7-9070-672e6b696361,rev?*%
%TF.SameCoordinates,Original*%
%TF.FileFunction,Paste,Top*%
%TF.FilePolarity,Positive*%
%FSLAX46Y46*%
G04 Gerber Fmt 4.6, Leading zero omitted, Abs format (unit mm)*
G04 Created by KiCad (PCBNEW 10.0.5) date 2026-08-17 17:48:18*
%MOMM*%
%LPD*%
G01*
G04 APERTURE LIST*
%ADD10R,0.600000X1.750000*%
%ADD11R,0.700000X0.450000*%
%ADD12R,1.050000X0.600000*%
%ADD13R,0.900000X0.250000*%
%ADD14R,0.300000X0.300000*%
%ADD15R,0.400000X0.400000*%
%ADD16R,0.600000X0.600000*%
%ADD17R,0.800000X0.800000*%
G04 APERTURE END LIST*
D10*
%TO.C,J101*%
X17500000Y-14500000D03*
X16250000Y-14500000D03*
X15000000Y-14500000D03*
X13750000Y-14500000D03*
X12500000Y-14500000D03*
X11250000Y-14500000D03*
X10000000Y-14500000D03*
X8750000Y-14500000D03*
X7500000Y-14500000D03*
%TD*%
D11*
%TO.C,U101*%
X10250000Y-10900000D03*
X10250000Y-10100000D03*
X10250000Y-9300000D03*
X10250000Y-8500000D03*
X10250000Y-7700000D03*
X10250000Y-6900000D03*
X10250000Y-6100000D03*
X14750000Y-6100000D03*
X14750000Y-6900000D03*
X14750000Y-7700000D03*
X14750000Y-8500000D03*
X14750000Y-9300000D03*
X14750000Y-10100000D03*
X14750000Y-10900000D03*
%TD*%
D12*
%TO.C,U102*%
X4700000Y-8950000D03*
X4700000Y-8000000D03*
X4700000Y-7050000D03*
X7300000Y-7050000D03*
X7300000Y-8950000D03*
%TD*%
D13*
%TO.C,U103*%
X17500000Y-8750000D03*
X17500000Y-8250000D03*
X17500000Y-7750000D03*
X17500000Y-7250000D03*
X20500000Y-7250000D03*
X20500000Y-7750000D03*
X20500000Y-8250000D03*
X20500000Y-8750000D03*
%TD*%
D12*
%TO.C,U104*%
X17700000Y-13950000D03*
X17700000Y-13000000D03*
X17700000Y-12050000D03*
X20300000Y-12050000D03*
X20300000Y-13950000D03*
%TD*%
D14*
%TO.C,U105*%
X5250000Y-13750000D03*
X5250000Y-13250000D03*
X5250000Y-12750000D03*
X5250000Y-12250000D03*
X5750000Y-12250000D03*
X6250000Y-12250000D03*
X6750000Y-12250000D03*
X6750000Y-12750000D03*
X6750000Y-13250000D03*
X6750000Y-13750000D03*
X6250000Y-13750000D03*
X5750000Y-13750000D03*
%TD*%
D15*
%TO.C,D101*%
X5600000Y-3000000D03*
X6400000Y-3000000D03*
%TD*%
D16*
%TO.C,R101*%
X18500000Y-3000000D03*
X19500000Y-3000000D03*
%TD*%
%TO.C,R102*%
X18500000Y-5000000D03*
X19500000Y-5000000D03*
%TD*%
%TO.C,C101*%
X8500000Y-3000000D03*
X9500000Y-3000000D03*
%TD*%
D17*
%TO.C,C102*%
X15150000Y-3000000D03*
X16850000Y-3000000D03*
%TD*%
M02*
