%TF.GenerationSoftware,KiCad,Pcbnew,10.0.5*%
%TF.CreationDate,2026-08-17T19:03:23-04:00*%
%TF.ProjectId,circle-ppg,63697263-6c65-42d7-9070-672e6b696361,rev?*%
%TF.SameCoordinates,Original*%
%TF.FileFunction,Soldermask,Top*%
%TF.FilePolarity,Negative*%
%FSLAX46Y46*%
G04 Gerber Fmt 4.6, Leading zero omitted, Abs format (unit mm)*
G04 Created by KiCad (PCBNEW 10.0.5) date 2026-08-17 19:03:23*
%MOMM*%
%LPD*%
G01*
G04 APERTURE LIST*
G04 APERTURE END LIST*
G36*
X7932654Y-13981522D02*
G01*
X7939142Y-13985858D01*
X7943478Y-13992346D01*
X7945000Y-14000000D01*
X7945000Y-15000000D01*
X7943478Y-15007654D01*
X7939142Y-15014142D01*
X7932654Y-15018478D01*
X7925000Y-15020000D01*
X7475000Y-15020000D01*
X7467346Y-15018478D01*
X7460858Y-15014142D01*
X7456522Y-15007654D01*
X7455000Y-15000000D01*
X7455000Y-14000000D01*
X7456522Y-13992346D01*
X7460858Y-13985858D01*
X7467346Y-13981522D01*
X7475000Y-13980000D01*
X7925000Y-13980000D01*
X7932654Y-13981522D01*
G37*
G36*
X9132654Y-13981522D02*
G01*
X9139142Y-13985858D01*
X9143478Y-13992346D01*
X9145000Y-14000000D01*
X9145000Y-15000000D01*
X9143478Y-15007654D01*
X9139142Y-15014142D01*
X9132654Y-15018478D01*
X9125000Y-15020000D01*
X8675000Y-15020000D01*
X8667346Y-15018478D01*
X8660858Y-15014142D01*
X8656522Y-15007654D01*
X8655000Y-15000000D01*
X8655000Y-14000000D01*
X8656522Y-13992346D01*
X8660858Y-13985858D01*
X8667346Y-13981522D01*
X8675000Y-13980000D01*
X9125000Y-13980000D01*
X9132654Y-13981522D01*
G37*
G36*
X10332654Y-13981522D02*
G01*
X10339142Y-13985858D01*
X10343478Y-13992346D01*
X10345000Y-14000000D01*
X10345000Y-15000000D01*
X10343478Y-15007654D01*
X10339142Y-15014142D01*
X10332654Y-15018478D01*
X10325000Y-15020000D01*
X9875000Y-15020000D01*
X9867346Y-15018478D01*
X9860858Y-15014142D01*
X9856522Y-15007654D01*
X9855000Y-15000000D01*
X9855000Y-14000000D01*
X9856522Y-13992346D01*
X9860858Y-13985858D01*
X9867346Y-13981522D01*
X9875000Y-13980000D01*
X10325000Y-13980000D01*
X10332654Y-13981522D01*
G37*
G36*
X11532654Y-13981522D02*
G01*
X11539142Y-13985858D01*
X11543478Y-13992346D01*
X11545000Y-14000000D01*
X11545000Y-15000000D01*
X11543478Y-15007654D01*
X11539142Y-15014142D01*
X11532654Y-15018478D01*
X11525000Y-15020000D01*
X11075000Y-15020000D01*
X11067346Y-15018478D01*
X11060858Y-15014142D01*
X11056522Y-15007654D01*
X11055000Y-15000000D01*
X11055000Y-14000000D01*
X11056522Y-13992346D01*
X11060858Y-13985858D01*
X11067346Y-13981522D01*
X11075000Y-13980000D01*
X11525000Y-13980000D01*
X11532654Y-13981522D01*
G37*
G36*
X12732654Y-13981522D02*
G01*
X12739142Y-13985858D01*
X12743478Y-13992346D01*
X12745000Y-14000000D01*
X12745000Y-15000000D01*
X12743478Y-15007654D01*
X12739142Y-15014142D01*
X12732654Y-15018478D01*
X12725000Y-15020000D01*
X12275000Y-15020000D01*
X12267346Y-15018478D01*
X12260858Y-15014142D01*
X12256522Y-15007654D01*
X12255000Y-15000000D01*
X12255000Y-14000000D01*
X12256522Y-13992346D01*
X12260858Y-13985858D01*
X12267346Y-13981522D01*
X12275000Y-13980000D01*
X12725000Y-13980000D01*
X12732654Y-13981522D01*
G37*
G36*
X13932654Y-13981522D02*
G01*
X13939142Y-13985858D01*
X13943478Y-13992346D01*
X13945000Y-14000000D01*
X13945000Y-15000000D01*
X13943478Y-15007654D01*
X13939142Y-15014142D01*
X13932654Y-15018478D01*
X13925000Y-15020000D01*
X13475000Y-15020000D01*
X13467346Y-15018478D01*
X13460858Y-15014142D01*
X13456522Y-15007654D01*
X13455000Y-15000000D01*
X13455000Y-14000000D01*
X13456522Y-13992346D01*
X13460858Y-13985858D01*
X13467346Y-13981522D01*
X13475000Y-13980000D01*
X13925000Y-13980000D01*
X13932654Y-13981522D01*
G37*
G36*
X15132654Y-13981522D02*
G01*
X15139142Y-13985858D01*
X15143478Y-13992346D01*
X15145000Y-14000000D01*
X15145000Y-15000000D01*
X15143478Y-15007654D01*
X15139142Y-15014142D01*
X15132654Y-15018478D01*
X15125000Y-15020000D01*
X14675000Y-15020000D01*
X14667346Y-15018478D01*
X14660858Y-15014142D01*
X14656522Y-15007654D01*
X14655000Y-15000000D01*
X14655000Y-14000000D01*
X14656522Y-13992346D01*
X14660858Y-13985858D01*
X14667346Y-13981522D01*
X14675000Y-13980000D01*
X15125000Y-13980000D01*
X15132654Y-13981522D01*
G37*
G36*
X16332654Y-13981522D02*
G01*
X16339142Y-13985858D01*
X16343478Y-13992346D01*
X16345000Y-14000000D01*
X16345000Y-15000000D01*
X16343478Y-15007654D01*
X16339142Y-15014142D01*
X16332654Y-15018478D01*
X16325000Y-15020000D01*
X15875000Y-15020000D01*
X15867346Y-15018478D01*
X15860858Y-15014142D01*
X15856522Y-15007654D01*
X15855000Y-15000000D01*
X15855000Y-14000000D01*
X15856522Y-13992346D01*
X15860858Y-13985858D01*
X15867346Y-13981522D01*
X15875000Y-13980000D01*
X16325000Y-13980000D01*
X16332654Y-13981522D01*
G37*
G36*
X17532654Y-13981522D02*
G01*
X17539142Y-13985858D01*
X17543478Y-13992346D01*
X17545000Y-14000000D01*
X17545000Y-15000000D01*
X17543478Y-15007654D01*
X17539142Y-15014142D01*
X17532654Y-15018478D01*
X17525000Y-15020000D01*
X17075000Y-15020000D01*
X17067346Y-15018478D01*
X17060858Y-15014142D01*
X17056522Y-15007654D01*
X17055000Y-15000000D01*
X17055000Y-14000000D01*
X17056522Y-13992346D01*
X17060858Y-13985858D01*
X17067346Y-13981522D01*
X17075000Y-13980000D01*
X17525000Y-13980000D01*
X17532654Y-13981522D01*
G37*
G36*
X18657654Y-13106522D02*
G01*
X18664142Y-13110858D01*
X18668478Y-13117346D01*
X18670000Y-13125000D01*
X18670000Y-13775000D01*
X18668478Y-13782654D01*
X18664142Y-13789142D01*
X18657654Y-13793478D01*
X18650000Y-13795000D01*
X18250000Y-13795000D01*
X18242346Y-13793478D01*
X18235858Y-13789142D01*
X18231522Y-13782654D01*
X18230000Y-13775000D01*
X18230000Y-13125000D01*
X18231522Y-13117346D01*
X18235858Y-13110858D01*
X18242346Y-13106522D01*
X18250000Y-13105000D01*
X18650000Y-13105000D01*
X18657654Y-13106522D01*
G37*
G36*
X20757654Y-13106522D02*
G01*
X20764142Y-13110858D01*
X20768478Y-13117346D01*
X20770000Y-13125000D01*
X20770000Y-13775000D01*
X20768478Y-13782654D01*
X20764142Y-13789142D01*
X20757654Y-13793478D01*
X20750000Y-13795000D01*
X20350000Y-13795000D01*
X20342346Y-13793478D01*
X20335858Y-13789142D01*
X20331522Y-13782654D01*
X20330000Y-13775000D01*
X20330000Y-13125000D01*
X20331522Y-13117346D01*
X20335858Y-13110858D01*
X20342346Y-13106522D01*
X20350000Y-13105000D01*
X20750000Y-13105000D01*
X20757654Y-13106522D01*
G37*
G36*
X4857654Y-13131522D02*
G01*
X4864142Y-13135858D01*
X4868478Y-13142346D01*
X4870000Y-13150000D01*
X4870000Y-13350000D01*
X4868478Y-13357654D01*
X4864142Y-13364142D01*
X4857654Y-13368478D01*
X4850000Y-13370000D01*
X4650000Y-13370000D01*
X4642346Y-13368478D01*
X4635858Y-13364142D01*
X4631522Y-13357654D01*
X4630000Y-13350000D01*
X4630000Y-13150000D01*
X4631522Y-13142346D01*
X4635858Y-13135858D01*
X4642346Y-13131522D01*
X4650000Y-13130000D01*
X4850000Y-13130000D01*
X4857654Y-13131522D01*
G37*
G36*
X5357654Y-13131522D02*
G01*
X5364142Y-13135858D01*
X5368478Y-13142346D01*
X5370000Y-13150000D01*
X5370000Y-13350000D01*
X5368478Y-13357654D01*
X5364142Y-13364142D01*
X5357654Y-13368478D01*
X5350000Y-13370000D01*
X5150000Y-13370000D01*
X5142346Y-13368478D01*
X5135858Y-13364142D01*
X5131522Y-13357654D01*
X5130000Y-13350000D01*
X5130000Y-13150000D01*
X5131522Y-13142346D01*
X5135858Y-13135858D01*
X5142346Y-13131522D01*
X5150000Y-13130000D01*
X5350000Y-13130000D01*
X5357654Y-13131522D01*
G37*
G36*
X5857654Y-13131522D02*
G01*
X5864142Y-13135858D01*
X5868478Y-13142346D01*
X5870000Y-13150000D01*
X5870000Y-13350000D01*
X5868478Y-13357654D01*
X5864142Y-13364142D01*
X5857654Y-13368478D01*
X5850000Y-13370000D01*
X5650000Y-13370000D01*
X5642346Y-13368478D01*
X5635858Y-13364142D01*
X5631522Y-13357654D01*
X5630000Y-13350000D01*
X5630000Y-13150000D01*
X5631522Y-13142346D01*
X5635858Y-13135858D01*
X5642346Y-13131522D01*
X5650000Y-13130000D01*
X5850000Y-13130000D01*
X5857654Y-13131522D01*
G37*
G36*
X6357654Y-13131522D02*
G01*
X6364142Y-13135858D01*
X6368478Y-13142346D01*
X6370000Y-13150000D01*
X6370000Y-13350000D01*
X6368478Y-13357654D01*
X6364142Y-13364142D01*
X6357654Y-13368478D01*
X6350000Y-13370000D01*
X6150000Y-13370000D01*
X6142346Y-13368478D01*
X6135858Y-13364142D01*
X6131522Y-13357654D01*
X6130000Y-13350000D01*
X6130000Y-13150000D01*
X6131522Y-13142346D01*
X6135858Y-13135858D01*
X6142346Y-13131522D01*
X6150000Y-13130000D01*
X6350000Y-13130000D01*
X6357654Y-13131522D01*
G37*
G36*
X20757654Y-12156522D02*
G01*
X20764142Y-12160858D01*
X20768478Y-12167346D01*
X20770000Y-12175000D01*
X20770000Y-12825000D01*
X20768478Y-12832654D01*
X20764142Y-12839142D01*
X20757654Y-12843478D01*
X20750000Y-12845000D01*
X20350000Y-12845000D01*
X20342346Y-12843478D01*
X20335858Y-12839142D01*
X20331522Y-12832654D01*
X20330000Y-12825000D01*
X20330000Y-12175000D01*
X20331522Y-12167346D01*
X20335858Y-12160858D01*
X20342346Y-12156522D01*
X20350000Y-12155000D01*
X20750000Y-12155000D01*
X20757654Y-12156522D01*
G37*
G36*
X4857654Y-12381522D02*
G01*
X4864142Y-12385858D01*
X4868478Y-12392346D01*
X4870000Y-12400000D01*
X4870000Y-12600000D01*
X4868478Y-12607654D01*
X4864142Y-12614142D01*
X4857654Y-12618478D01*
X4850000Y-12620000D01*
X4650000Y-12620000D01*
X4642346Y-12618478D01*
X4635858Y-12614142D01*
X4631522Y-12607654D01*
X4630000Y-12600000D01*
X4630000Y-12400000D01*
X4631522Y-12392346D01*
X4635858Y-12385858D01*
X4642346Y-12381522D01*
X4650000Y-12380000D01*
X4850000Y-12380000D01*
X4857654Y-12381522D01*
G37*
G36*
X5357654Y-12381522D02*
G01*
X5364142Y-12385858D01*
X5368478Y-12392346D01*
X5370000Y-12400000D01*
X5370000Y-12600000D01*
X5368478Y-12607654D01*
X5364142Y-12614142D01*
X5357654Y-12618478D01*
X5350000Y-12620000D01*
X5150000Y-12620000D01*
X5142346Y-12618478D01*
X5135858Y-12614142D01*
X5131522Y-12607654D01*
X5130000Y-12600000D01*
X5130000Y-12400000D01*
X5131522Y-12392346D01*
X5135858Y-12385858D01*
X5142346Y-12381522D01*
X5150000Y-12380000D01*
X5350000Y-12380000D01*
X5357654Y-12381522D01*
G37*
G36*
X5857654Y-12381522D02*
G01*
X5864142Y-12385858D01*
X5868478Y-12392346D01*
X5870000Y-12400000D01*
X5870000Y-12600000D01*
X5868478Y-12607654D01*
X5864142Y-12614142D01*
X5857654Y-12618478D01*
X5850000Y-12620000D01*
X5650000Y-12620000D01*
X5642346Y-12618478D01*
X5635858Y-12614142D01*
X5631522Y-12607654D01*
X5630000Y-12600000D01*
X5630000Y-12400000D01*
X5631522Y-12392346D01*
X5635858Y-12385858D01*
X5642346Y-12381522D01*
X5650000Y-12380000D01*
X5850000Y-12380000D01*
X5857654Y-12381522D01*
G37*
G36*
X6357654Y-12381522D02*
G01*
X6364142Y-12385858D01*
X6368478Y-12392346D01*
X6370000Y-12400000D01*
X6370000Y-12600000D01*
X6368478Y-12607654D01*
X6364142Y-12614142D01*
X6357654Y-12618478D01*
X6350000Y-12620000D01*
X6150000Y-12620000D01*
X6142346Y-12618478D01*
X6135858Y-12614142D01*
X6131522Y-12607654D01*
X6130000Y-12600000D01*
X6130000Y-12400000D01*
X6131522Y-12392346D01*
X6135858Y-12385858D01*
X6142346Y-12381522D01*
X6150000Y-12380000D01*
X6350000Y-12380000D01*
X6357654Y-12381522D01*
G37*
G36*
X18657654Y-11206522D02*
G01*
X18664142Y-11210858D01*
X18668478Y-11217346D01*
X18670000Y-11225000D01*
X18670000Y-11875000D01*
X18668478Y-11882654D01*
X18664142Y-11889142D01*
X18657654Y-11893478D01*
X18650000Y-11895000D01*
X18250000Y-11895000D01*
X18242346Y-11893478D01*
X18235858Y-11889142D01*
X18231522Y-11882654D01*
X18230000Y-11875000D01*
X18230000Y-11225000D01*
X18231522Y-11217346D01*
X18235858Y-11210858D01*
X18242346Y-11206522D01*
X18250000Y-11205000D01*
X18650000Y-11205000D01*
X18657654Y-11206522D01*
G37*
G36*
X20757654Y-11206522D02*
G01*
X20764142Y-11210858D01*
X20768478Y-11217346D01*
X20770000Y-11225000D01*
X20770000Y-11875000D01*
X20768478Y-11882654D01*
X20764142Y-11889142D01*
X20757654Y-11893478D01*
X20750000Y-11895000D01*
X20350000Y-11895000D01*
X20342346Y-11893478D01*
X20335858Y-11889142D01*
X20331522Y-11882654D01*
X20330000Y-11875000D01*
X20330000Y-11225000D01*
X20331522Y-11217346D01*
X20335858Y-11210858D01*
X20342346Y-11206522D01*
X20350000Y-11205000D01*
X20750000Y-11205000D01*
X20757654Y-11206522D01*
G37*
G36*
X4857654Y-11631522D02*
G01*
X4864142Y-11635858D01*
X4868478Y-11642346D01*
X4870000Y-11650000D01*
X4870000Y-11850000D01*
X4868478Y-11857654D01*
X4864142Y-11864142D01*
X4857654Y-11868478D01*
X4850000Y-11870000D01*
X4650000Y-11870000D01*
X4642346Y-11868478D01*
X4635858Y-11864142D01*
X4631522Y-11857654D01*
X4630000Y-11850000D01*
X4630000Y-11650000D01*
X4631522Y-11642346D01*
X4635858Y-11635858D01*
X4642346Y-11631522D01*
X4650000Y-11630000D01*
X4850000Y-11630000D01*
X4857654Y-11631522D01*
G37*
G36*
X5357654Y-11631522D02*
G01*
X5364142Y-11635858D01*
X5368478Y-11642346D01*
X5370000Y-11650000D01*
X5370000Y-11850000D01*
X5368478Y-11857654D01*
X5364142Y-11864142D01*
X5357654Y-11868478D01*
X5350000Y-11870000D01*
X5150000Y-11870000D01*
X5142346Y-11868478D01*
X5135858Y-11864142D01*
X5131522Y-11857654D01*
X5130000Y-11850000D01*
X5130000Y-11650000D01*
X5131522Y-11642346D01*
X5135858Y-11635858D01*
X5142346Y-11631522D01*
X5150000Y-11630000D01*
X5350000Y-11630000D01*
X5357654Y-11631522D01*
G37*
G36*
X5857654Y-11631522D02*
G01*
X5864142Y-11635858D01*
X5868478Y-11642346D01*
X5870000Y-11650000D01*
X5870000Y-11850000D01*
X5868478Y-11857654D01*
X5864142Y-11864142D01*
X5857654Y-11868478D01*
X5850000Y-11870000D01*
X5650000Y-11870000D01*
X5642346Y-11868478D01*
X5635858Y-11864142D01*
X5631522Y-11857654D01*
X5630000Y-11850000D01*
X5630000Y-11650000D01*
X5631522Y-11642346D01*
X5635858Y-11635858D01*
X5642346Y-11631522D01*
X5650000Y-11630000D01*
X5850000Y-11630000D01*
X5857654Y-11631522D01*
G37*
G36*
X6357654Y-11631522D02*
G01*
X6364142Y-11635858D01*
X6368478Y-11642346D01*
X6370000Y-11650000D01*
X6370000Y-11850000D01*
X6368478Y-11857654D01*
X6364142Y-11864142D01*
X6357654Y-11868478D01*
X6350000Y-11870000D01*
X6150000Y-11870000D01*
X6142346Y-11868478D01*
X6135858Y-11864142D01*
X6131522Y-11857654D01*
X6130000Y-11850000D01*
X6130000Y-11650000D01*
X6131522Y-11642346D01*
X6135858Y-11635858D01*
X6142346Y-11631522D01*
X6150000Y-11630000D01*
X6350000Y-11630000D01*
X6357654Y-11631522D01*
G37*
G36*
X11307654Y-10256522D02*
G01*
X11314142Y-10260858D01*
X11318478Y-10267346D01*
X11320000Y-10275000D01*
X11320000Y-10525000D01*
X11318478Y-10532654D01*
X11314142Y-10539142D01*
X11307654Y-10543478D01*
X11300000Y-10545000D01*
X10900000Y-10545000D01*
X10892346Y-10543478D01*
X10885858Y-10539142D01*
X10881522Y-10532654D01*
X10880000Y-10525000D01*
X10880000Y-10275000D01*
X10881522Y-10267346D01*
X10885858Y-10260858D01*
X10892346Y-10256522D01*
X10900000Y-10255000D01*
X11300000Y-10255000D01*
X11307654Y-10256522D01*
G37*
G36*
X14107654Y-10256522D02*
G01*
X14114142Y-10260858D01*
X14118478Y-10267346D01*
X14120000Y-10275000D01*
X14120000Y-10525000D01*
X14118478Y-10532654D01*
X14114142Y-10539142D01*
X14107654Y-10543478D01*
X14100000Y-10545000D01*
X13700000Y-10545000D01*
X13692346Y-10543478D01*
X13685858Y-10539142D01*
X13681522Y-10532654D01*
X13680000Y-10525000D01*
X13680000Y-10275000D01*
X13681522Y-10267346D01*
X13685858Y-10260858D01*
X13692346Y-10256522D01*
X13700000Y-10255000D01*
X14100000Y-10255000D01*
X14107654Y-10256522D01*
G37*
G36*
X11307654Y-9456522D02*
G01*
X11314142Y-9460858D01*
X11318478Y-9467346D01*
X11320000Y-9475000D01*
X11320000Y-9725000D01*
X11318478Y-9732654D01*
X11314142Y-9739142D01*
X11307654Y-9743478D01*
X11300000Y-9745000D01*
X10900000Y-9745000D01*
X10892346Y-9743478D01*
X10885858Y-9739142D01*
X10881522Y-9732654D01*
X10880000Y-9725000D01*
X10880000Y-9475000D01*
X10881522Y-9467346D01*
X10885858Y-9460858D01*
X10892346Y-9456522D01*
X10900000Y-9455000D01*
X11300000Y-9455000D01*
X11307654Y-9456522D01*
G37*
G36*
X14107654Y-9456522D02*
G01*
X14114142Y-9460858D01*
X14118478Y-9467346D01*
X14120000Y-9475000D01*
X14120000Y-9725000D01*
X14118478Y-9732654D01*
X14114142Y-9739142D01*
X14107654Y-9743478D01*
X14100000Y-9745000D01*
X13700000Y-9745000D01*
X13692346Y-9743478D01*
X13685858Y-9739142D01*
X13681522Y-9732654D01*
X13680000Y-9725000D01*
X13680000Y-9475000D01*
X13681522Y-9467346D01*
X13685858Y-9460858D01*
X13692346Y-9456522D01*
X13700000Y-9455000D01*
X14100000Y-9455000D01*
X14107654Y-9456522D01*
G37*
G36*
X4657654Y-8606522D02*
G01*
X4664142Y-8610858D01*
X4668478Y-8617346D01*
X4670000Y-8625000D01*
X4670000Y-9275000D01*
X4668478Y-9282654D01*
X4664142Y-9289142D01*
X4657654Y-9293478D01*
X4650000Y-9295000D01*
X4250000Y-9295000D01*
X4242346Y-9293478D01*
X4235858Y-9289142D01*
X4231522Y-9282654D01*
X4230000Y-9275000D01*
X4230000Y-8625000D01*
X4231522Y-8617346D01*
X4235858Y-8610858D01*
X4242346Y-8606522D01*
X4250000Y-8605000D01*
X4650000Y-8605000D01*
X4657654Y-8606522D01*
G37*
G36*
X6757654Y-8606522D02*
G01*
X6764142Y-8610858D01*
X6768478Y-8617346D01*
X6770000Y-8625000D01*
X6770000Y-9275000D01*
X6768478Y-9282654D01*
X6764142Y-9289142D01*
X6757654Y-9293478D01*
X6750000Y-9295000D01*
X6350000Y-9295000D01*
X6342346Y-9293478D01*
X6335858Y-9289142D01*
X6331522Y-9282654D01*
X6330000Y-9275000D01*
X6330000Y-8625000D01*
X6331522Y-8617346D01*
X6335858Y-8610858D01*
X6342346Y-8606522D01*
X6350000Y-8605000D01*
X6750000Y-8605000D01*
X6757654Y-8606522D01*
G37*
G36*
X11307654Y-8656522D02*
G01*
X11314142Y-8660858D01*
X11318478Y-8667346D01*
X11320000Y-8675000D01*
X11320000Y-8925000D01*
X11318478Y-8932654D01*
X11314142Y-8939142D01*
X11307654Y-8943478D01*
X11300000Y-8945000D01*
X10900000Y-8945000D01*
X10892346Y-8943478D01*
X10885858Y-8939142D01*
X10881522Y-8932654D01*
X10880000Y-8925000D01*
X10880000Y-8675000D01*
X10881522Y-8667346D01*
X10885858Y-8660858D01*
X10892346Y-8656522D01*
X10900000Y-8655000D01*
X11300000Y-8655000D01*
X11307654Y-8656522D01*
G37*
G36*
X14107654Y-8656522D02*
G01*
X14114142Y-8660858D01*
X14118478Y-8667346D01*
X14120000Y-8675000D01*
X14120000Y-8925000D01*
X14118478Y-8932654D01*
X14114142Y-8939142D01*
X14107654Y-8943478D01*
X14100000Y-8945000D01*
X13700000Y-8945000D01*
X13692346Y-8943478D01*
X13685858Y-8939142D01*
X13681522Y-8932654D01*
X13680000Y-8925000D01*
X13680000Y-8675000D01*
X13681522Y-8667346D01*
X13685858Y-8660858D01*
X13692346Y-8656522D01*
X13700000Y-8655000D01*
X14100000Y-8655000D01*
X14107654Y-8656522D01*
G37*
G36*
X18557654Y-8631522D02*
G01*
X18564142Y-8635858D01*
X18568478Y-8642346D01*
X18570000Y-8650000D01*
X18570000Y-8850000D01*
X18568478Y-8857654D01*
X18564142Y-8864142D01*
X18557654Y-8868478D01*
X18550000Y-8870000D01*
X18150000Y-8870000D01*
X18142346Y-8868478D01*
X18135858Y-8864142D01*
X18131522Y-8857654D01*
X18130000Y-8850000D01*
X18130000Y-8650000D01*
X18131522Y-8642346D01*
X18135858Y-8635858D01*
X18142346Y-8631522D01*
X18150000Y-8630000D01*
X18550000Y-8630000D01*
X18557654Y-8631522D01*
G37*
G36*
X20857654Y-8631522D02*
G01*
X20864142Y-8635858D01*
X20868478Y-8642346D01*
X20870000Y-8650000D01*
X20870000Y-8850000D01*
X20868478Y-8857654D01*
X20864142Y-8864142D01*
X20857654Y-8868478D01*
X20850000Y-8870000D01*
X20450000Y-8870000D01*
X20442346Y-8868478D01*
X20435858Y-8864142D01*
X20431522Y-8857654D01*
X20430000Y-8850000D01*
X20430000Y-8650000D01*
X20431522Y-8642346D01*
X20435858Y-8635858D01*
X20442346Y-8631522D01*
X20450000Y-8630000D01*
X20850000Y-8630000D01*
X20857654Y-8631522D01*
G37*
G36*
X18557654Y-8131522D02*
G01*
X18564142Y-8135858D01*
X18568478Y-8142346D01*
X18570000Y-8150000D01*
X18570000Y-8350000D01*
X18568478Y-8357654D01*
X18564142Y-8364142D01*
X18557654Y-8368478D01*
X18550000Y-8370000D01*
X18150000Y-8370000D01*
X18142346Y-8368478D01*
X18135858Y-8364142D01*
X18131522Y-8357654D01*
X18130000Y-8350000D01*
X18130000Y-8150000D01*
X18131522Y-8142346D01*
X18135858Y-8135858D01*
X18142346Y-8131522D01*
X18150000Y-8130000D01*
X18550000Y-8130000D01*
X18557654Y-8131522D01*
G37*
G36*
X20857654Y-8131522D02*
G01*
X20864142Y-8135858D01*
X20868478Y-8142346D01*
X20870000Y-8150000D01*
X20870000Y-8350000D01*
X20868478Y-8357654D01*
X20864142Y-8364142D01*
X20857654Y-8368478D01*
X20850000Y-8370000D01*
X20450000Y-8370000D01*
X20442346Y-8368478D01*
X20435858Y-8364142D01*
X20431522Y-8357654D01*
X20430000Y-8350000D01*
X20430000Y-8150000D01*
X20431522Y-8142346D01*
X20435858Y-8135858D01*
X20442346Y-8131522D01*
X20450000Y-8130000D01*
X20850000Y-8130000D01*
X20857654Y-8131522D01*
G37*
G36*
X6757654Y-7656522D02*
G01*
X6764142Y-7660858D01*
X6768478Y-7667346D01*
X6770000Y-7675000D01*
X6770000Y-8325000D01*
X6768478Y-8332654D01*
X6764142Y-8339142D01*
X6757654Y-8343478D01*
X6750000Y-8345000D01*
X6350000Y-8345000D01*
X6342346Y-8343478D01*
X6335858Y-8339142D01*
X6331522Y-8332654D01*
X6330000Y-8325000D01*
X6330000Y-7675000D01*
X6331522Y-7667346D01*
X6335858Y-7660858D01*
X6342346Y-7656522D01*
X6350000Y-7655000D01*
X6750000Y-7655000D01*
X6757654Y-7656522D01*
G37*
G36*
X11307654Y-7856522D02*
G01*
X11314142Y-7860858D01*
X11318478Y-7867346D01*
X11320000Y-7875000D01*
X11320000Y-8125000D01*
X11318478Y-8132654D01*
X11314142Y-8139142D01*
X11307654Y-8143478D01*
X11300000Y-8145000D01*
X10900000Y-8145000D01*
X10892346Y-8143478D01*
X10885858Y-8139142D01*
X10881522Y-8132654D01*
X10880000Y-8125000D01*
X10880000Y-7875000D01*
X10881522Y-7867346D01*
X10885858Y-7860858D01*
X10892346Y-7856522D01*
X10900000Y-7855000D01*
X11300000Y-7855000D01*
X11307654Y-7856522D01*
G37*
G36*
X14107654Y-7856522D02*
G01*
X14114142Y-7860858D01*
X14118478Y-7867346D01*
X14120000Y-7875000D01*
X14120000Y-8125000D01*
X14118478Y-8132654D01*
X14114142Y-8139142D01*
X14107654Y-8143478D01*
X14100000Y-8145000D01*
X13700000Y-8145000D01*
X13692346Y-8143478D01*
X13685858Y-8139142D01*
X13681522Y-8132654D01*
X13680000Y-8125000D01*
X13680000Y-7875000D01*
X13681522Y-7867346D01*
X13685858Y-7860858D01*
X13692346Y-7856522D01*
X13700000Y-7855000D01*
X14100000Y-7855000D01*
X14107654Y-7856522D01*
G37*
G36*
X18557654Y-7631522D02*
G01*
X18564142Y-7635858D01*
X18568478Y-7642346D01*
X18570000Y-7650000D01*
X18570000Y-7850000D01*
X18568478Y-7857654D01*
X18564142Y-7864142D01*
X18557654Y-7868478D01*
X18550000Y-7870000D01*
X18150000Y-7870000D01*
X18142346Y-7868478D01*
X18135858Y-7864142D01*
X18131522Y-7857654D01*
X18130000Y-7850000D01*
X18130000Y-7650000D01*
X18131522Y-7642346D01*
X18135858Y-7635858D01*
X18142346Y-7631522D01*
X18150000Y-7630000D01*
X18550000Y-7630000D01*
X18557654Y-7631522D01*
G37*
G36*
X20857654Y-7631522D02*
G01*
X20864142Y-7635858D01*
X20868478Y-7642346D01*
X20870000Y-7650000D01*
X20870000Y-7850000D01*
X20868478Y-7857654D01*
X20864142Y-7864142D01*
X20857654Y-7868478D01*
X20850000Y-7870000D01*
X20450000Y-7870000D01*
X20442346Y-7868478D01*
X20435858Y-7864142D01*
X20431522Y-7857654D01*
X20430000Y-7850000D01*
X20430000Y-7650000D01*
X20431522Y-7642346D01*
X20435858Y-7635858D01*
X20442346Y-7631522D01*
X20450000Y-7630000D01*
X20850000Y-7630000D01*
X20857654Y-7631522D01*
G37*
G36*
X4657654Y-6706522D02*
G01*
X4664142Y-6710858D01*
X4668478Y-6717346D01*
X4670000Y-6725000D01*
X4670000Y-7375000D01*
X4668478Y-7382654D01*
X4664142Y-7389142D01*
X4657654Y-7393478D01*
X4650000Y-7395000D01*
X4250000Y-7395000D01*
X4242346Y-7393478D01*
X4235858Y-7389142D01*
X4231522Y-7382654D01*
X4230000Y-7375000D01*
X4230000Y-6725000D01*
X4231522Y-6717346D01*
X4235858Y-6710858D01*
X4242346Y-6706522D01*
X4250000Y-6705000D01*
X4650000Y-6705000D01*
X4657654Y-6706522D01*
G37*
G36*
X6757654Y-6706522D02*
G01*
X6764142Y-6710858D01*
X6768478Y-6717346D01*
X6770000Y-6725000D01*
X6770000Y-7375000D01*
X6768478Y-7382654D01*
X6764142Y-7389142D01*
X6757654Y-7393478D01*
X6750000Y-7395000D01*
X6350000Y-7395000D01*
X6342346Y-7393478D01*
X6335858Y-7389142D01*
X6331522Y-7382654D01*
X6330000Y-7375000D01*
X6330000Y-6725000D01*
X6331522Y-6717346D01*
X6335858Y-6710858D01*
X6342346Y-6706522D01*
X6350000Y-6705000D01*
X6750000Y-6705000D01*
X6757654Y-6706522D01*
G37*
G36*
X18557654Y-7131522D02*
G01*
X18564142Y-7135858D01*
X18568478Y-7142346D01*
X18570000Y-7150000D01*
X18570000Y-7350000D01*
X18568478Y-7357654D01*
X18564142Y-7364142D01*
X18557654Y-7368478D01*
X18550000Y-7370000D01*
X18150000Y-7370000D01*
X18142346Y-7368478D01*
X18135858Y-7364142D01*
X18131522Y-7357654D01*
X18130000Y-7350000D01*
X18130000Y-7150000D01*
X18131522Y-7142346D01*
X18135858Y-7135858D01*
X18142346Y-7131522D01*
X18150000Y-7130000D01*
X18550000Y-7130000D01*
X18557654Y-7131522D01*
G37*
G36*
X20857654Y-7131522D02*
G01*
X20864142Y-7135858D01*
X20868478Y-7142346D01*
X20870000Y-7150000D01*
X20870000Y-7350000D01*
X20868478Y-7357654D01*
X20864142Y-7364142D01*
X20857654Y-7368478D01*
X20850000Y-7370000D01*
X20450000Y-7370000D01*
X20442346Y-7368478D01*
X20435858Y-7364142D01*
X20431522Y-7357654D01*
X20430000Y-7350000D01*
X20430000Y-7150000D01*
X20431522Y-7142346D01*
X20435858Y-7135858D01*
X20442346Y-7131522D01*
X20450000Y-7130000D01*
X20850000Y-7130000D01*
X20857654Y-7131522D01*
G37*
G36*
X11307654Y-7056522D02*
G01*
X11314142Y-7060858D01*
X11318478Y-7067346D01*
X11320000Y-7075000D01*
X11320000Y-7325000D01*
X11318478Y-7332654D01*
X11314142Y-7339142D01*
X11307654Y-7343478D01*
X11300000Y-7345000D01*
X10900000Y-7345000D01*
X10892346Y-7343478D01*
X10885858Y-7339142D01*
X10881522Y-7332654D01*
X10880000Y-7325000D01*
X10880000Y-7075000D01*
X10881522Y-7067346D01*
X10885858Y-7060858D01*
X10892346Y-7056522D01*
X10900000Y-7055000D01*
X11300000Y-7055000D01*
X11307654Y-7056522D01*
G37*
G36*
X14107654Y-7056522D02*
G01*
X14114142Y-7060858D01*
X14118478Y-7067346D01*
X14120000Y-7075000D01*
X14120000Y-7325000D01*
X14118478Y-7332654D01*
X14114142Y-7339142D01*
X14107654Y-7343478D01*
X14100000Y-7345000D01*
X13700000Y-7345000D01*
X13692346Y-7343478D01*
X13685858Y-7339142D01*
X13681522Y-7332654D01*
X13680000Y-7325000D01*
X13680000Y-7075000D01*
X13681522Y-7067346D01*
X13685858Y-7060858D01*
X13692346Y-7056522D01*
X13700000Y-7055000D01*
X14100000Y-7055000D01*
X14107654Y-7056522D01*
G37*
G36*
X11307654Y-6256522D02*
G01*
X11314142Y-6260858D01*
X11318478Y-6267346D01*
X11320000Y-6275000D01*
X11320000Y-6525000D01*
X11318478Y-6532654D01*
X11314142Y-6539142D01*
X11307654Y-6543478D01*
X11300000Y-6545000D01*
X10900000Y-6545000D01*
X10892346Y-6543478D01*
X10885858Y-6539142D01*
X10881522Y-6532654D01*
X10880000Y-6525000D01*
X10880000Y-6275000D01*
X10881522Y-6267346D01*
X10885858Y-6260858D01*
X10892346Y-6256522D01*
X10900000Y-6255000D01*
X11300000Y-6255000D01*
X11307654Y-6256522D01*
G37*
G36*
X14107654Y-6256522D02*
G01*
X14114142Y-6260858D01*
X14118478Y-6267346D01*
X14120000Y-6275000D01*
X14120000Y-6525000D01*
X14118478Y-6532654D01*
X14114142Y-6539142D01*
X14107654Y-6543478D01*
X14100000Y-6545000D01*
X13700000Y-6545000D01*
X13692346Y-6543478D01*
X13685858Y-6539142D01*
X13681522Y-6532654D01*
X13680000Y-6525000D01*
X13680000Y-6275000D01*
X13681522Y-6267346D01*
X13685858Y-6260858D01*
X13692346Y-6256522D01*
X13700000Y-6255000D01*
X14100000Y-6255000D01*
X14107654Y-6256522D01*
G37*
G36*
X11307654Y-5456522D02*
G01*
X11314142Y-5460858D01*
X11318478Y-5467346D01*
X11320000Y-5475000D01*
X11320000Y-5725000D01*
X11318478Y-5732654D01*
X11314142Y-5739142D01*
X11307654Y-5743478D01*
X11300000Y-5745000D01*
X10900000Y-5745000D01*
X10892346Y-5743478D01*
X10885858Y-5739142D01*
X10881522Y-5732654D01*
X10880000Y-5725000D01*
X10880000Y-5475000D01*
X10881522Y-5467346D01*
X10885858Y-5460858D01*
X10892346Y-5456522D01*
X10900000Y-5455000D01*
X11300000Y-5455000D01*
X11307654Y-5456522D01*
G37*
G36*
X14107654Y-5456522D02*
G01*
X14114142Y-5460858D01*
X14118478Y-5467346D01*
X14120000Y-5475000D01*
X14120000Y-5725000D01*
X14118478Y-5732654D01*
X14114142Y-5739142D01*
X14107654Y-5743478D01*
X14100000Y-5745000D01*
X13700000Y-5745000D01*
X13692346Y-5743478D01*
X13685858Y-5739142D01*
X13681522Y-5732654D01*
X13680000Y-5725000D01*
X13680000Y-5475000D01*
X13681522Y-5467346D01*
X13685858Y-5460858D01*
X13692346Y-5456522D01*
X13700000Y-5455000D01*
X14100000Y-5455000D01*
X14107654Y-5456522D01*
G37*
G36*
X5157654Y-3256522D02*
G01*
X5164142Y-3260858D01*
X5168478Y-3267346D01*
X5170000Y-3275000D01*
X5170000Y-3725000D01*
X5168478Y-3732654D01*
X5164142Y-3739142D01*
X5157654Y-3743478D01*
X5150000Y-3745000D01*
X4750000Y-3745000D01*
X4742346Y-3743478D01*
X4735858Y-3739142D01*
X4731522Y-3732654D01*
X4730000Y-3725000D01*
X4730000Y-3275000D01*
X4731522Y-3267346D01*
X4735858Y-3260858D01*
X4742346Y-3256522D01*
X4750000Y-3255000D01*
X5150000Y-3255000D01*
X5157654Y-3256522D01*
G37*
G36*
X6257654Y-3256522D02*
G01*
X6264142Y-3260858D01*
X6268478Y-3267346D01*
X6270000Y-3275000D01*
X6270000Y-3725000D01*
X6268478Y-3732654D01*
X6264142Y-3739142D01*
X6257654Y-3743478D01*
X6250000Y-3745000D01*
X5850000Y-3745000D01*
X5842346Y-3743478D01*
X5835858Y-3739142D01*
X5831522Y-3732654D01*
X5830000Y-3725000D01*
X5830000Y-3275000D01*
X5831522Y-3267346D01*
X5835858Y-3260858D01*
X5842346Y-3256522D01*
X5850000Y-3255000D01*
X6250000Y-3255000D01*
X6257654Y-3256522D01*
G37*
G36*
X8657654Y-3256522D02*
G01*
X8664142Y-3260858D01*
X8668478Y-3267346D01*
X8670000Y-3275000D01*
X8670000Y-3725000D01*
X8668478Y-3732654D01*
X8664142Y-3739142D01*
X8657654Y-3743478D01*
X8650000Y-3745000D01*
X8250000Y-3745000D01*
X8242346Y-3743478D01*
X8235858Y-3739142D01*
X8231522Y-3732654D01*
X8230000Y-3725000D01*
X8230000Y-3275000D01*
X8231522Y-3267346D01*
X8235858Y-3260858D01*
X8242346Y-3256522D01*
X8250000Y-3255000D01*
X8650000Y-3255000D01*
X8657654Y-3256522D01*
G37*
G36*
X9757654Y-3256522D02*
G01*
X9764142Y-3260858D01*
X9768478Y-3267346D01*
X9770000Y-3275000D01*
X9770000Y-3725000D01*
X9768478Y-3732654D01*
X9764142Y-3739142D01*
X9757654Y-3743478D01*
X9750000Y-3745000D01*
X9350000Y-3745000D01*
X9342346Y-3743478D01*
X9335858Y-3739142D01*
X9331522Y-3732654D01*
X9330000Y-3725000D01*
X9330000Y-3275000D01*
X9331522Y-3267346D01*
X9335858Y-3260858D01*
X9342346Y-3256522D01*
X9350000Y-3255000D01*
X9750000Y-3255000D01*
X9757654Y-3256522D01*
G37*
G36*
X11657654Y-3256522D02*
G01*
X11664142Y-3260858D01*
X11668478Y-3267346D01*
X11670000Y-3275000D01*
X11670000Y-3725000D01*
X11668478Y-3732654D01*
X11664142Y-3739142D01*
X11657654Y-3743478D01*
X11650000Y-3745000D01*
X11250000Y-3745000D01*
X11242346Y-3743478D01*
X11235858Y-3739142D01*
X11231522Y-3732654D01*
X11230000Y-3725000D01*
X11230000Y-3275000D01*
X11231522Y-3267346D01*
X11235858Y-3260858D01*
X11242346Y-3256522D01*
X11250000Y-3255000D01*
X11650000Y-3255000D01*
X11657654Y-3256522D01*
G37*
G36*
X12757654Y-3256522D02*
G01*
X12764142Y-3260858D01*
X12768478Y-3267346D01*
X12770000Y-3275000D01*
X12770000Y-3725000D01*
X12768478Y-3732654D01*
X12764142Y-3739142D01*
X12757654Y-3743478D01*
X12750000Y-3745000D01*
X12350000Y-3745000D01*
X12342346Y-3743478D01*
X12335858Y-3739142D01*
X12331522Y-3732654D01*
X12330000Y-3725000D01*
X12330000Y-3275000D01*
X12331522Y-3267346D01*
X12335858Y-3260858D01*
X12342346Y-3256522D01*
X12350000Y-3255000D01*
X12750000Y-3255000D01*
X12757654Y-3256522D01*
G37*
G36*
X17157654Y-3256522D02*
G01*
X17164142Y-3260858D01*
X17168478Y-3267346D01*
X17170000Y-3275000D01*
X17170000Y-3725000D01*
X17168478Y-3732654D01*
X17164142Y-3739142D01*
X17157654Y-3743478D01*
X17150000Y-3745000D01*
X16750000Y-3745000D01*
X16742346Y-3743478D01*
X16735858Y-3739142D01*
X16731522Y-3732654D01*
X16730000Y-3725000D01*
X16730000Y-3275000D01*
X16731522Y-3267346D01*
X16735858Y-3260858D01*
X16742346Y-3256522D01*
X16750000Y-3255000D01*
X17150000Y-3255000D01*
X17157654Y-3256522D01*
G37*
G36*
X18257654Y-3256522D02*
G01*
X18264142Y-3260858D01*
X18268478Y-3267346D01*
X18270000Y-3275000D01*
X18270000Y-3725000D01*
X18268478Y-3732654D01*
X18264142Y-3739142D01*
X18257654Y-3743478D01*
X18250000Y-3745000D01*
X17850000Y-3745000D01*
X17842346Y-3743478D01*
X17835858Y-3739142D01*
X17831522Y-3732654D01*
X17830000Y-3725000D01*
X17830000Y-3275000D01*
X17831522Y-3267346D01*
X17835858Y-3260858D01*
X17842346Y-3256522D01*
X17850000Y-3255000D01*
X18250000Y-3255000D01*
X18257654Y-3256522D01*
G37*
G36*
X20157654Y-3256522D02*
G01*
X20164142Y-3260858D01*
X20168478Y-3267346D01*
X20170000Y-3275000D01*
X20170000Y-3725000D01*
X20168478Y-3732654D01*
X20164142Y-3739142D01*
X20157654Y-3743478D01*
X20150000Y-3745000D01*
X19750000Y-3745000D01*
X19742346Y-3743478D01*
X19735858Y-3739142D01*
X19731522Y-3732654D01*
X19730000Y-3725000D01*
X19730000Y-3275000D01*
X19731522Y-3267346D01*
X19735858Y-3260858D01*
X19742346Y-3256522D01*
X19750000Y-3255000D01*
X20150000Y-3255000D01*
X20157654Y-3256522D01*
G37*
G36*
X21257654Y-3256522D02*
G01*
X21264142Y-3260858D01*
X21268478Y-3267346D01*
X21270000Y-3275000D01*
X21270000Y-3725000D01*
X21268478Y-3732654D01*
X21264142Y-3739142D01*
X21257654Y-3743478D01*
X21250000Y-3745000D01*
X20850000Y-3745000D01*
X20842346Y-3743478D01*
X20835858Y-3739142D01*
X20831522Y-3732654D01*
X20830000Y-3725000D01*
X20830000Y-3275000D01*
X20831522Y-3267346D01*
X20835858Y-3260858D01*
X20842346Y-3256522D01*
X20850000Y-3255000D01*
X21250000Y-3255000D01*
X21257654Y-3256522D01*
G37*
M02*
