%TF.GenerationSoftware,KiCad,Pcbnew,10.0.5*%
%TF.CreationDate,2026-08-17T19:03:23-04:00*%
%TF.ProjectId,circle-ppg,63697263-6c65-42d7-9070-672e6b696361,rev?*%
%TF.SameCoordinates,Original*%
%TF.FileFunction,Legend,Top*%
%TF.FilePolarity,Positive*%
%FSLAX46Y46*%
G04 Gerber Fmt 4.6, Leading zero omitted, Abs format (unit mm)*
G04 Created by KiCad (PCBNEW 10.0.5) date 2026-08-17 19:03:23*
%MOMM*%
%LPD*%
G01*
G04 APERTURE LIST*
%ADD10C,0.150000*%
G04 APERTURE END LIST*
D10*
X11407143Y-15635427D02*
X11407143Y-16242570D01*
X11407143Y-16242570D02*
X11366666Y-16363998D01*
X11366666Y-16363998D02*
X11285714Y-16444951D01*
X11285714Y-16444951D02*
X11164285Y-16485427D01*
X11164285Y-16485427D02*
X11083333Y-16485427D01*
X12257143Y-16485427D02*
X11771428Y-16485427D01*
X12014285Y-16485427D02*
X12014285Y-15635427D01*
X12014285Y-15635427D02*
X11933333Y-15756855D01*
X11933333Y-15756855D02*
X11852381Y-15837808D01*
X11852381Y-15837808D02*
X11771428Y-15878284D01*
X12783333Y-15635427D02*
X12864286Y-15635427D01*
X12864286Y-15635427D02*
X12945238Y-15675903D01*
X12945238Y-15675903D02*
X12985714Y-15716379D01*
X12985714Y-15716379D02*
X13026190Y-15797331D01*
X13026190Y-15797331D02*
X13066667Y-15959236D01*
X13066667Y-15959236D02*
X13066667Y-16161617D01*
X13066667Y-16161617D02*
X13026190Y-16323522D01*
X13026190Y-16323522D02*
X12985714Y-16404474D01*
X12985714Y-16404474D02*
X12945238Y-16444951D01*
X12945238Y-16444951D02*
X12864286Y-16485427D01*
X12864286Y-16485427D02*
X12783333Y-16485427D01*
X12783333Y-16485427D02*
X12702381Y-16444951D01*
X12702381Y-16444951D02*
X12661905Y-16404474D01*
X12661905Y-16404474D02*
X12621428Y-16323522D01*
X12621428Y-16323522D02*
X12580952Y-16161617D01*
X12580952Y-16161617D02*
X12580952Y-15959236D01*
X12580952Y-15959236D02*
X12621428Y-15797331D01*
X12621428Y-15797331D02*
X12661905Y-15716379D01*
X12661905Y-15716379D02*
X12702381Y-15675903D01*
X12702381Y-15675903D02*
X12783333Y-15635427D01*
X13876191Y-16485427D02*
X13390476Y-16485427D01*
X13633333Y-16485427D02*
X13633333Y-15635427D01*
X13633333Y-15635427D02*
X13552381Y-15756855D01*
X13552381Y-15756855D02*
X13471429Y-15837808D01*
X13471429Y-15837808D02*
X13390476Y-15878284D01*
X11042856Y-10935427D02*
X11042856Y-11623522D01*
X11042856Y-11623522D02*
X11083333Y-11704474D01*
X11083333Y-11704474D02*
X11123809Y-11744951D01*
X11123809Y-11744951D02*
X11204761Y-11785427D01*
X11204761Y-11785427D02*
X11366666Y-11785427D01*
X11366666Y-11785427D02*
X11447618Y-11744951D01*
X11447618Y-11744951D02*
X11488095Y-11704474D01*
X11488095Y-11704474D02*
X11528571Y-11623522D01*
X11528571Y-11623522D02*
X11528571Y-10935427D01*
X12378571Y-11785427D02*
X11892856Y-11785427D01*
X12135713Y-11785427D02*
X12135713Y-10935427D01*
X12135713Y-10935427D02*
X12054761Y-11056855D01*
X12054761Y-11056855D02*
X11973809Y-11137808D01*
X11973809Y-11137808D02*
X11892856Y-11178284D01*
X12904761Y-10935427D02*
X12985714Y-10935427D01*
X12985714Y-10935427D02*
X13066666Y-10975903D01*
X13066666Y-10975903D02*
X13107142Y-11016379D01*
X13107142Y-11016379D02*
X13147618Y-11097331D01*
X13147618Y-11097331D02*
X13188095Y-11259236D01*
X13188095Y-11259236D02*
X13188095Y-11461617D01*
X13188095Y-11461617D02*
X13147618Y-11623522D01*
X13147618Y-11623522D02*
X13107142Y-11704474D01*
X13107142Y-11704474D02*
X13066666Y-11744951D01*
X13066666Y-11744951D02*
X12985714Y-11785427D01*
X12985714Y-11785427D02*
X12904761Y-11785427D01*
X12904761Y-11785427D02*
X12823809Y-11744951D01*
X12823809Y-11744951D02*
X12783333Y-11704474D01*
X12783333Y-11704474D02*
X12742856Y-11623522D01*
X12742856Y-11623522D02*
X12702380Y-11461617D01*
X12702380Y-11461617D02*
X12702380Y-11259236D01*
X12702380Y-11259236D02*
X12742856Y-11097331D01*
X12742856Y-11097331D02*
X12783333Y-11016379D01*
X12783333Y-11016379D02*
X12823809Y-10975903D01*
X12823809Y-10975903D02*
X12904761Y-10935427D01*
X13997619Y-11785427D02*
X13511904Y-11785427D01*
X13754761Y-11785427D02*
X13754761Y-10935427D01*
X13754761Y-10935427D02*
X13673809Y-11056855D01*
X13673809Y-11056855D02*
X13592857Y-11137808D01*
X13592857Y-11137808D02*
X13511904Y-11178284D01*
X4042856Y-5735427D02*
X4042856Y-6423522D01*
X4042856Y-6423522D02*
X4083333Y-6504474D01*
X4083333Y-6504474D02*
X4123809Y-6544951D01*
X4123809Y-6544951D02*
X4204761Y-6585427D01*
X4204761Y-6585427D02*
X4366666Y-6585427D01*
X4366666Y-6585427D02*
X4447618Y-6544951D01*
X4447618Y-6544951D02*
X4488095Y-6504474D01*
X4488095Y-6504474D02*
X4528571Y-6423522D01*
X4528571Y-6423522D02*
X4528571Y-5735427D01*
X5378571Y-6585427D02*
X4892856Y-6585427D01*
X5135713Y-6585427D02*
X5135713Y-5735427D01*
X5135713Y-5735427D02*
X5054761Y-5856855D01*
X5054761Y-5856855D02*
X4973809Y-5937808D01*
X4973809Y-5937808D02*
X4892856Y-5978284D01*
X5904761Y-5735427D02*
X5985714Y-5735427D01*
X5985714Y-5735427D02*
X6066666Y-5775903D01*
X6066666Y-5775903D02*
X6107142Y-5816379D01*
X6107142Y-5816379D02*
X6147618Y-5897331D01*
X6147618Y-5897331D02*
X6188095Y-6059236D01*
X6188095Y-6059236D02*
X6188095Y-6261617D01*
X6188095Y-6261617D02*
X6147618Y-6423522D01*
X6147618Y-6423522D02*
X6107142Y-6504474D01*
X6107142Y-6504474D02*
X6066666Y-6544951D01*
X6066666Y-6544951D02*
X5985714Y-6585427D01*
X5985714Y-6585427D02*
X5904761Y-6585427D01*
X5904761Y-6585427D02*
X5823809Y-6544951D01*
X5823809Y-6544951D02*
X5783333Y-6504474D01*
X5783333Y-6504474D02*
X5742856Y-6423522D01*
X5742856Y-6423522D02*
X5702380Y-6261617D01*
X5702380Y-6261617D02*
X5702380Y-6059236D01*
X5702380Y-6059236D02*
X5742856Y-5897331D01*
X5742856Y-5897331D02*
X5783333Y-5816379D01*
X5783333Y-5816379D02*
X5823809Y-5775903D01*
X5823809Y-5775903D02*
X5904761Y-5735427D01*
X6511904Y-5816379D02*
X6552380Y-5775903D01*
X6552380Y-5775903D02*
X6633333Y-5735427D01*
X6633333Y-5735427D02*
X6835714Y-5735427D01*
X6835714Y-5735427D02*
X6916666Y-5775903D01*
X6916666Y-5775903D02*
X6957142Y-5816379D01*
X6957142Y-5816379D02*
X6997619Y-5897331D01*
X6997619Y-5897331D02*
X6997619Y-5978284D01*
X6997619Y-5978284D02*
X6957142Y-6099712D01*
X6957142Y-6099712D02*
X6471428Y-6585427D01*
X6471428Y-6585427D02*
X6997619Y-6585427D01*
X18042856Y-5735427D02*
X18042856Y-6423522D01*
X18042856Y-6423522D02*
X18083333Y-6504474D01*
X18083333Y-6504474D02*
X18123809Y-6544951D01*
X18123809Y-6544951D02*
X18204761Y-6585427D01*
X18204761Y-6585427D02*
X18366666Y-6585427D01*
X18366666Y-6585427D02*
X18447618Y-6544951D01*
X18447618Y-6544951D02*
X18488095Y-6504474D01*
X18488095Y-6504474D02*
X18528571Y-6423522D01*
X18528571Y-6423522D02*
X18528571Y-5735427D01*
X19378571Y-6585427D02*
X18892856Y-6585427D01*
X19135713Y-6585427D02*
X19135713Y-5735427D01*
X19135713Y-5735427D02*
X19054761Y-5856855D01*
X19054761Y-5856855D02*
X18973809Y-5937808D01*
X18973809Y-5937808D02*
X18892856Y-5978284D01*
X19904761Y-5735427D02*
X19985714Y-5735427D01*
X19985714Y-5735427D02*
X20066666Y-5775903D01*
X20066666Y-5775903D02*
X20107142Y-5816379D01*
X20107142Y-5816379D02*
X20147618Y-5897331D01*
X20147618Y-5897331D02*
X20188095Y-6059236D01*
X20188095Y-6059236D02*
X20188095Y-6261617D01*
X20188095Y-6261617D02*
X20147618Y-6423522D01*
X20147618Y-6423522D02*
X20107142Y-6504474D01*
X20107142Y-6504474D02*
X20066666Y-6544951D01*
X20066666Y-6544951D02*
X19985714Y-6585427D01*
X19985714Y-6585427D02*
X19904761Y-6585427D01*
X19904761Y-6585427D02*
X19823809Y-6544951D01*
X19823809Y-6544951D02*
X19783333Y-6504474D01*
X19783333Y-6504474D02*
X19742856Y-6423522D01*
X19742856Y-6423522D02*
X19702380Y-6261617D01*
X19702380Y-6261617D02*
X19702380Y-6059236D01*
X19702380Y-6059236D02*
X19742856Y-5897331D01*
X19742856Y-5897331D02*
X19783333Y-5816379D01*
X19783333Y-5816379D02*
X19823809Y-5775903D01*
X19823809Y-5775903D02*
X19904761Y-5735427D01*
X20471428Y-5735427D02*
X20997619Y-5735427D01*
X20997619Y-5735427D02*
X20714285Y-6059236D01*
X20714285Y-6059236D02*
X20835714Y-6059236D01*
X20835714Y-6059236D02*
X20916666Y-6099712D01*
X20916666Y-6099712D02*
X20957142Y-6140189D01*
X20957142Y-6140189D02*
X20997619Y-6221141D01*
X20997619Y-6221141D02*
X20997619Y-6423522D01*
X20997619Y-6423522D02*
X20957142Y-6504474D01*
X20957142Y-6504474D02*
X20916666Y-6544951D01*
X20916666Y-6544951D02*
X20835714Y-6585427D01*
X20835714Y-6585427D02*
X20592857Y-6585427D01*
X20592857Y-6585427D02*
X20511904Y-6544951D01*
X20511904Y-6544951D02*
X20471428Y-6504474D01*
X18042856Y-10235427D02*
X18042856Y-10923522D01*
X18042856Y-10923522D02*
X18083333Y-11004474D01*
X18083333Y-11004474D02*
X18123809Y-11044951D01*
X18123809Y-11044951D02*
X18204761Y-11085427D01*
X18204761Y-11085427D02*
X18366666Y-11085427D01*
X18366666Y-11085427D02*
X18447618Y-11044951D01*
X18447618Y-11044951D02*
X18488095Y-11004474D01*
X18488095Y-11004474D02*
X18528571Y-10923522D01*
X18528571Y-10923522D02*
X18528571Y-10235427D01*
X19378571Y-11085427D02*
X18892856Y-11085427D01*
X19135713Y-11085427D02*
X19135713Y-10235427D01*
X19135713Y-10235427D02*
X19054761Y-10356855D01*
X19054761Y-10356855D02*
X18973809Y-10437808D01*
X18973809Y-10437808D02*
X18892856Y-10478284D01*
X19904761Y-10235427D02*
X19985714Y-10235427D01*
X19985714Y-10235427D02*
X20066666Y-10275903D01*
X20066666Y-10275903D02*
X20107142Y-10316379D01*
X20107142Y-10316379D02*
X20147618Y-10397331D01*
X20147618Y-10397331D02*
X20188095Y-10559236D01*
X20188095Y-10559236D02*
X20188095Y-10761617D01*
X20188095Y-10761617D02*
X20147618Y-10923522D01*
X20147618Y-10923522D02*
X20107142Y-11004474D01*
X20107142Y-11004474D02*
X20066666Y-11044951D01*
X20066666Y-11044951D02*
X19985714Y-11085427D01*
X19985714Y-11085427D02*
X19904761Y-11085427D01*
X19904761Y-11085427D02*
X19823809Y-11044951D01*
X19823809Y-11044951D02*
X19783333Y-11004474D01*
X19783333Y-11004474D02*
X19742856Y-10923522D01*
X19742856Y-10923522D02*
X19702380Y-10761617D01*
X19702380Y-10761617D02*
X19702380Y-10559236D01*
X19702380Y-10559236D02*
X19742856Y-10397331D01*
X19742856Y-10397331D02*
X19783333Y-10316379D01*
X19783333Y-10316379D02*
X19823809Y-10275903D01*
X19823809Y-10275903D02*
X19904761Y-10235427D01*
X20916666Y-10518760D02*
X20916666Y-11085427D01*
X20714285Y-10194951D02*
X20511904Y-10802093D01*
X20511904Y-10802093D02*
X21038095Y-10802093D01*
X4042856Y-10235427D02*
X4042856Y-10923522D01*
X4042856Y-10923522D02*
X4083333Y-11004474D01*
X4083333Y-11004474D02*
X4123809Y-11044951D01*
X4123809Y-11044951D02*
X4204761Y-11085427D01*
X4204761Y-11085427D02*
X4366666Y-11085427D01*
X4366666Y-11085427D02*
X4447618Y-11044951D01*
X4447618Y-11044951D02*
X4488095Y-11004474D01*
X4488095Y-11004474D02*
X4528571Y-10923522D01*
X4528571Y-10923522D02*
X4528571Y-10235427D01*
X5378571Y-11085427D02*
X4892856Y-11085427D01*
X5135713Y-11085427D02*
X5135713Y-10235427D01*
X5135713Y-10235427D02*
X5054761Y-10356855D01*
X5054761Y-10356855D02*
X4973809Y-10437808D01*
X4973809Y-10437808D02*
X4892856Y-10478284D01*
X5904761Y-10235427D02*
X5985714Y-10235427D01*
X5985714Y-10235427D02*
X6066666Y-10275903D01*
X6066666Y-10275903D02*
X6107142Y-10316379D01*
X6107142Y-10316379D02*
X6147618Y-10397331D01*
X6147618Y-10397331D02*
X6188095Y-10559236D01*
X6188095Y-10559236D02*
X6188095Y-10761617D01*
X6188095Y-10761617D02*
X6147618Y-10923522D01*
X6147618Y-10923522D02*
X6107142Y-11004474D01*
X6107142Y-11004474D02*
X6066666Y-11044951D01*
X6066666Y-11044951D02*
X5985714Y-11085427D01*
X5985714Y-11085427D02*
X5904761Y-11085427D01*
X5904761Y-11085427D02*
X5823809Y-11044951D01*
X5823809Y-11044951D02*
X5783333Y-11004474D01*
X5783333Y-11004474D02*
X5742856Y-10923522D01*
X5742856Y-10923522D02*
X5702380Y-10761617D01*
X5702380Y-10761617D02*
X5702380Y-10559236D01*
X5702380Y-10559236D02*
X5742856Y-10397331D01*
X5742856Y-10397331D02*
X5783333Y-10316379D01*
X5783333Y-10316379D02*
X5823809Y-10275903D01*
X5823809Y-10275903D02*
X5904761Y-10235427D01*
X6957142Y-10235427D02*
X6552380Y-10235427D01*
X6552380Y-10235427D02*
X6511904Y-10640189D01*
X6511904Y-10640189D02*
X6552380Y-10599712D01*
X6552380Y-10599712D02*
X6633333Y-10559236D01*
X6633333Y-10559236D02*
X6835714Y-10559236D01*
X6835714Y-10559236D02*
X6916666Y-10599712D01*
X6916666Y-10599712D02*
X6957142Y-10640189D01*
X6957142Y-10640189D02*
X6997619Y-10721141D01*
X6997619Y-10721141D02*
X6997619Y-10923522D01*
X6997619Y-10923522D02*
X6957142Y-11004474D01*
X6957142Y-11004474D02*
X6916666Y-11044951D01*
X6916666Y-11044951D02*
X6835714Y-11085427D01*
X6835714Y-11085427D02*
X6633333Y-11085427D01*
X6633333Y-11085427D02*
X6552380Y-11044951D01*
X6552380Y-11044951D02*
X6511904Y-11004474D01*
M02*
